%TF.GenerationSoftware,KiCad,Pcbnew,10.0.4*%
%TF.CreationDate,2026-07-24T17:06:21-03:00*%
%TF.ProjectId,pre carga inteligente,70726520-6361-4726-9761-20696e74656c,rev?*%
%TF.SameCoordinates,Original*%
%TF.FileFunction,Soldermask,Top*%
%TF.FilePolarity,Negative*%
%FSLAX46Y46*%
G04 Gerber Fmt 4.6, Leading zero omitted, Abs format (unit mm)*
G04 Created by KiCad (PCBNEW 10.0.4) date 2026-07-24 17:06:21*
%MOMM*%
%LPD*%
G01*
G04 APERTURE LIST*
G04 Aperture macros list*
%AMRoundRect*
0 Rectangle with rounded corners*
0 $1 Rounding radius*
0 $2 $3 $4 $5 $6 $7 $8 $9 X,Y pos of 4 corners*
0 Add a 4 corners polygon primitive as box body*
4,1,4,$2,$3,$4,$5,$6,$7,$8,$9,$2,$3,0*
0 Add four circle primitives for the rounded corners*
1,1,$1+$1,$2,$3*
1,1,$1+$1,$4,$5*
1,1,$1+$1,$6,$7*
1,1,$1+$1,$8,$9*
0 Add four rect primitives between the rounded corners*
20,1,$1+$1,$2,$3,$4,$5,0*
20,1,$1+$1,$4,$5,$6,$7,0*
20,1,$1+$1,$6,$7,$8,$9,0*
20,1,$1+$1,$8,$9,$2,$3,0*%
G04 Aperture macros list end*
%ADD10C,2.400000*%
%ADD11C,1.600000*%
%ADD12RoundRect,0.250000X-0.550000X0.550000X-0.550000X-0.550000X0.550000X-0.550000X0.550000X0.550000X0*%
%ADD13C,5.700000*%
%ADD14RoundRect,0.250000X-1.000000X1.000000X-1.000000X-1.000000X1.000000X-1.000000X1.000000X1.000000X0*%
%ADD15C,2.500000*%
%ADD16C,3.000000*%
%ADD17RoundRect,0.250000X-0.550000X-0.550000X0.550000X-0.550000X0.550000X0.550000X-0.550000X0.550000X0*%
%ADD18R,1.905000X2.000000*%
%ADD19O,1.905000X2.000000*%
%ADD20RoundRect,0.250000X1.000000X-1.000000X1.000000X1.000000X-1.000000X1.000000X-1.000000X-1.000000X0*%
%ADD21R,2.540000X2.540000*%
G04 APERTURE END LIST*
D10*
%TO.C,R17*%
X135245000Y-57525000D03*
X104765000Y-57525000D03*
%TD*%
D11*
%TO.C,R5*%
X96848332Y-55880000D03*
X96848332Y-63500000D03*
%TD*%
%TO.C,D3*%
X125310000Y-95500000D03*
X117690000Y-95500000D03*
%TD*%
%TO.C,R1*%
X86362500Y-58930000D03*
X86362500Y-66550000D03*
%TD*%
D12*
%TO.C,C7*%
X122000000Y-102794888D03*
D11*
X122000000Y-105294888D03*
%TD*%
%TO.C,R2*%
X89715000Y-69390000D03*
X97335000Y-69390000D03*
%TD*%
%TO.C,R25*%
X125310000Y-99000000D03*
X117690000Y-99000000D03*
%TD*%
D13*
%TO.C,H1*%
X64500000Y-64000000D03*
%TD*%
D14*
%TO.C,J2*%
X64382500Y-82540000D03*
D15*
X64382500Y-87540000D03*
%TD*%
D11*
%TO.C,R16*%
X101000000Y-80690000D03*
X101000000Y-88310000D03*
%TD*%
%TO.C,R10*%
X86131666Y-55920000D03*
X93751666Y-55920000D03*
%TD*%
D16*
%TO.C,K2*%
X110750000Y-79590000D03*
D15*
X116800000Y-77640000D03*
D16*
X116800000Y-65440000D03*
X104750000Y-65390000D03*
D15*
X104800000Y-77640000D03*
%TD*%
D17*
%TO.C,U2*%
X134690000Y-96690000D03*
D11*
X134690000Y-99230000D03*
X134690000Y-101770000D03*
X134690000Y-104310000D03*
X142310000Y-104310000D03*
X142310000Y-101770000D03*
X142310000Y-99230000D03*
X142310000Y-96690000D03*
%TD*%
D18*
%TO.C,Q3*%
X140580000Y-87000000D03*
D19*
X143120000Y-87000000D03*
X145660000Y-87000000D03*
%TD*%
D11*
%TO.C,R13*%
X128270000Y-90000000D03*
X135890000Y-90000000D03*
%TD*%
%TO.C,R26*%
X131500000Y-93190000D03*
X131500000Y-100810000D03*
%TD*%
%TO.C,R3*%
X100325000Y-69400000D03*
X100325000Y-61780000D03*
%TD*%
D13*
%TO.C,H2*%
X148500000Y-101500000D03*
%TD*%
D11*
%TO.C,D2*%
X111810000Y-83000000D03*
X104190000Y-83000000D03*
%TD*%
%TO.C,R15*%
X87250000Y-84500000D03*
X94870000Y-84500000D03*
%TD*%
%TO.C,C3*%
X87000000Y-79730000D03*
X87000000Y-72110000D03*
%TD*%
D18*
%TO.C,Q2*%
X105420000Y-87000000D03*
D19*
X107960000Y-87000000D03*
X110500000Y-87000000D03*
%TD*%
D18*
%TO.C,Q1*%
X129500000Y-87000000D03*
D19*
X132040000Y-87000000D03*
X134580000Y-87000000D03*
%TD*%
D11*
%TO.C,C4*%
X71500000Y-89250000D03*
X71500000Y-81630000D03*
%TD*%
%TO.C,R8*%
X79381250Y-63225000D03*
X79381250Y-55605000D03*
%TD*%
%TO.C,R18*%
X90500000Y-72110000D03*
X90500000Y-79730000D03*
%TD*%
%TO.C,R21*%
X114595000Y-97190000D03*
X114595000Y-104810000D03*
%TD*%
D20*
%TO.C,J1*%
X142621666Y-78500000D03*
D15*
X142621666Y-73500000D03*
%TD*%
D11*
%TO.C,R19*%
X94000000Y-79730000D03*
X94000000Y-72110000D03*
%TD*%
%TO.C,R6*%
X72400000Y-55605000D03*
X72400000Y-63225000D03*
%TD*%
%TO.C,R9*%
X82871875Y-63225000D03*
X82871875Y-55605000D03*
%TD*%
D12*
%TO.C,U1*%
X78310000Y-69690000D03*
D11*
X75770000Y-69690000D03*
X73230000Y-69690000D03*
X70690000Y-69690000D03*
X70690000Y-77310000D03*
X73230000Y-77310000D03*
X75770000Y-77310000D03*
X78310000Y-77310000D03*
%TD*%
%TO.C,C2*%
X75890625Y-55605000D03*
X75890625Y-63225000D03*
%TD*%
%TO.C,R11*%
X83500000Y-81545000D03*
X83500000Y-89165000D03*
%TD*%
%TO.C,D1*%
X140701666Y-83030000D03*
X133081666Y-83030000D03*
%TD*%
%TO.C,R12*%
X94870000Y-88000000D03*
X87250000Y-88000000D03*
%TD*%
%TO.C,C1*%
X89853125Y-58930000D03*
X89853125Y-66550000D03*
%TD*%
%TO.C,R27*%
X139460000Y-90000000D03*
X147080000Y-90000000D03*
%TD*%
%TO.C,R22*%
X111095000Y-104810000D03*
X111095000Y-97190000D03*
%TD*%
%TO.C,R7*%
X72115000Y-66165000D03*
X79735000Y-66165000D03*
%TD*%
%TO.C,R14*%
X80075000Y-89190000D03*
X80075000Y-81570000D03*
%TD*%
%TO.C,R20*%
X97500000Y-72110000D03*
X97500000Y-79730000D03*
%TD*%
%TO.C,R23*%
X135690000Y-93000000D03*
X143310000Y-93000000D03*
%TD*%
%TO.C,R4*%
X93343750Y-66550000D03*
X93343750Y-58930000D03*
%TD*%
%TO.C,R24*%
X128000000Y-100810000D03*
X128000000Y-93190000D03*
%TD*%
D21*
%TO.C,B1*%
X101500000Y-105000000D03*
X101500000Y-93000000D03*
X61000000Y-93000000D03*
X61000000Y-105000000D03*
%TD*%
D16*
%TO.C,K1*%
X128600000Y-79615000D03*
D15*
X134650000Y-77665000D03*
D16*
X134650000Y-65465000D03*
X122600000Y-65415000D03*
D15*
X122650000Y-77665000D03*
%TD*%
M02*
