%TF.GenerationSoftware,KiCad,Pcbnew,10.0.4*%
%TF.CreationDate,2026-07-24T17:06:21-03:00*%
%TF.ProjectId,pre carga inteligente,70726520-6361-4726-9761-20696e74656c,rev?*%
%TF.SameCoordinates,Original*%
%TF.FileFunction,Legend,Bot*%
%TF.FilePolarity,Positive*%
%FSLAX46Y46*%
G04 Gerber Fmt 4.6, Leading zero omitted, Abs format (unit mm)*
G04 Created by KiCad (PCBNEW 10.0.4) date 2026-07-24 17:06:21*
%MOMM*%
%LPD*%
G01*
G04 APERTURE LIST*
%ADD10C,0.125000*%
%ADD11C,0.304800*%
%ADD12C,0.150000*%
%ADD13C,0.120000*%
G04 APERTURE END LIST*
D10*
X126227287Y-70103612D02*
X126084430Y-70151231D01*
X126084430Y-70151231D02*
X125846335Y-70151231D01*
X125846335Y-70151231D02*
X125751097Y-70103612D01*
X125751097Y-70103612D02*
X125703478Y-70055992D01*
X125703478Y-70055992D02*
X125655859Y-69960754D01*
X125655859Y-69960754D02*
X125655859Y-69865516D01*
X125655859Y-69865516D02*
X125703478Y-69770278D01*
X125703478Y-69770278D02*
X125751097Y-69722659D01*
X125751097Y-69722659D02*
X125846335Y-69675040D01*
X125846335Y-69675040D02*
X126036811Y-69627421D01*
X126036811Y-69627421D02*
X126132049Y-69579802D01*
X126132049Y-69579802D02*
X126179668Y-69532183D01*
X126179668Y-69532183D02*
X126227287Y-69436945D01*
X126227287Y-69436945D02*
X126227287Y-69341707D01*
X126227287Y-69341707D02*
X126179668Y-69246469D01*
X126179668Y-69246469D02*
X126132049Y-69198850D01*
X126132049Y-69198850D02*
X126036811Y-69151231D01*
X126036811Y-69151231D02*
X125798716Y-69151231D01*
X125798716Y-69151231D02*
X125655859Y-69198850D01*
X125036811Y-69151231D02*
X124846335Y-69151231D01*
X124846335Y-69151231D02*
X124751097Y-69198850D01*
X124751097Y-69198850D02*
X124655859Y-69294088D01*
X124655859Y-69294088D02*
X124608240Y-69484564D01*
X124608240Y-69484564D02*
X124608240Y-69817897D01*
X124608240Y-69817897D02*
X124655859Y-70008373D01*
X124655859Y-70008373D02*
X124751097Y-70103612D01*
X124751097Y-70103612D02*
X124846335Y-70151231D01*
X124846335Y-70151231D02*
X125036811Y-70151231D01*
X125036811Y-70151231D02*
X125132049Y-70103612D01*
X125132049Y-70103612D02*
X125227287Y-70008373D01*
X125227287Y-70008373D02*
X125274906Y-69817897D01*
X125274906Y-69817897D02*
X125274906Y-69484564D01*
X125274906Y-69484564D02*
X125227287Y-69294088D01*
X125227287Y-69294088D02*
X125132049Y-69198850D01*
X125132049Y-69198850D02*
X125036811Y-69151231D01*
X123703478Y-70151231D02*
X124179668Y-70151231D01*
X124179668Y-70151231D02*
X124179668Y-69151231D01*
X123370144Y-70151231D02*
X123370144Y-69151231D01*
X123370144Y-69151231D02*
X123132049Y-69151231D01*
X123132049Y-69151231D02*
X122989192Y-69198850D01*
X122989192Y-69198850D02*
X122893954Y-69294088D01*
X122893954Y-69294088D02*
X122846335Y-69389326D01*
X122846335Y-69389326D02*
X122798716Y-69579802D01*
X122798716Y-69579802D02*
X122798716Y-69722659D01*
X122798716Y-69722659D02*
X122846335Y-69913135D01*
X122846335Y-69913135D02*
X122893954Y-70008373D01*
X122893954Y-70008373D02*
X122989192Y-70103612D01*
X122989192Y-70103612D02*
X123132049Y-70151231D01*
X123132049Y-70151231D02*
X123370144Y-70151231D01*
X122370144Y-69627421D02*
X122036811Y-69627421D01*
X121893954Y-70151231D02*
X122370144Y-70151231D01*
X122370144Y-70151231D02*
X122370144Y-69151231D01*
X122370144Y-69151231D02*
X121893954Y-69151231D01*
X120893954Y-70151231D02*
X121227287Y-69675040D01*
X121465382Y-70151231D02*
X121465382Y-69151231D01*
X121465382Y-69151231D02*
X121084430Y-69151231D01*
X121084430Y-69151231D02*
X120989192Y-69198850D01*
X120989192Y-69198850D02*
X120941573Y-69246469D01*
X120941573Y-69246469D02*
X120893954Y-69341707D01*
X120893954Y-69341707D02*
X120893954Y-69484564D01*
X120893954Y-69484564D02*
X120941573Y-69579802D01*
X120941573Y-69579802D02*
X120989192Y-69627421D01*
X120989192Y-69627421D02*
X121084430Y-69675040D01*
X121084430Y-69675040D02*
X121465382Y-69675040D01*
X119417763Y-69151231D02*
X119417763Y-69865516D01*
X119417763Y-69865516D02*
X119465382Y-70008373D01*
X119465382Y-70008373D02*
X119560620Y-70103612D01*
X119560620Y-70103612D02*
X119703477Y-70151231D01*
X119703477Y-70151231D02*
X119798715Y-70151231D01*
X118941572Y-69151231D02*
X118941572Y-69960754D01*
X118941572Y-69960754D02*
X118893953Y-70055992D01*
X118893953Y-70055992D02*
X118846334Y-70103612D01*
X118846334Y-70103612D02*
X118751096Y-70151231D01*
X118751096Y-70151231D02*
X118560620Y-70151231D01*
X118560620Y-70151231D02*
X118465382Y-70103612D01*
X118465382Y-70103612D02*
X118417763Y-70055992D01*
X118417763Y-70055992D02*
X118370144Y-69960754D01*
X118370144Y-69960754D02*
X118370144Y-69151231D01*
X117893953Y-70151231D02*
X117893953Y-69151231D01*
X117893953Y-69151231D02*
X117560620Y-69865516D01*
X117560620Y-69865516D02*
X117227287Y-69151231D01*
X117227287Y-69151231D02*
X117227287Y-70151231D01*
X116751096Y-70151231D02*
X116751096Y-69151231D01*
X116751096Y-69151231D02*
X116370144Y-69151231D01*
X116370144Y-69151231D02*
X116274906Y-69198850D01*
X116274906Y-69198850D02*
X116227287Y-69246469D01*
X116227287Y-69246469D02*
X116179668Y-69341707D01*
X116179668Y-69341707D02*
X116179668Y-69484564D01*
X116179668Y-69484564D02*
X116227287Y-69579802D01*
X116227287Y-69579802D02*
X116274906Y-69627421D01*
X116274906Y-69627421D02*
X116370144Y-69675040D01*
X116370144Y-69675040D02*
X116751096Y-69675040D01*
X115751096Y-69627421D02*
X115417763Y-69627421D01*
X115274906Y-70151231D02*
X115751096Y-70151231D01*
X115751096Y-70151231D02*
X115751096Y-69151231D01*
X115751096Y-69151231D02*
X115274906Y-69151231D01*
X114274906Y-70151231D02*
X114608239Y-69675040D01*
X114846334Y-70151231D02*
X114846334Y-69151231D01*
X114846334Y-69151231D02*
X114465382Y-69151231D01*
X114465382Y-69151231D02*
X114370144Y-69198850D01*
X114370144Y-69198850D02*
X114322525Y-69246469D01*
X114322525Y-69246469D02*
X114274906Y-69341707D01*
X114274906Y-69341707D02*
X114274906Y-69484564D01*
X114274906Y-69484564D02*
X114322525Y-69579802D01*
X114322525Y-69579802D02*
X114370144Y-69627421D01*
X114370144Y-69627421D02*
X114465382Y-69675040D01*
X114465382Y-69675040D02*
X114846334Y-69675040D01*
X125655859Y-71761175D02*
X126227287Y-71761175D01*
X125941573Y-71761175D02*
X125941573Y-70761175D01*
X125941573Y-70761175D02*
X126036811Y-70904032D01*
X126036811Y-70904032D02*
X126132049Y-70999270D01*
X126132049Y-70999270D02*
X126227287Y-71046889D01*
X124465382Y-71380222D02*
X123703478Y-71380222D01*
X123893954Y-71570698D02*
X123703478Y-71380222D01*
X123703478Y-71380222D02*
X123893954Y-71189746D01*
X122608239Y-70761175D02*
X122036811Y-70761175D01*
X122322525Y-71761175D02*
X122322525Y-70761175D01*
X121703477Y-71761175D02*
X121703477Y-70761175D01*
X121274906Y-71761175D02*
X121274906Y-71237365D01*
X121274906Y-71237365D02*
X121322525Y-71142127D01*
X121322525Y-71142127D02*
X121417763Y-71094508D01*
X121417763Y-71094508D02*
X121560620Y-71094508D01*
X121560620Y-71094508D02*
X121655858Y-71142127D01*
X121655858Y-71142127D02*
X121703477Y-71189746D01*
X120798715Y-71761175D02*
X120798715Y-71094508D01*
X120798715Y-71284984D02*
X120751096Y-71189746D01*
X120751096Y-71189746D02*
X120703477Y-71142127D01*
X120703477Y-71142127D02*
X120608239Y-71094508D01*
X120608239Y-71094508D02*
X120513001Y-71094508D01*
X120036810Y-71761175D02*
X120132048Y-71713556D01*
X120132048Y-71713556D02*
X120179667Y-71665936D01*
X120179667Y-71665936D02*
X120227286Y-71570698D01*
X120227286Y-71570698D02*
X120227286Y-71284984D01*
X120227286Y-71284984D02*
X120179667Y-71189746D01*
X120179667Y-71189746D02*
X120132048Y-71142127D01*
X120132048Y-71142127D02*
X120036810Y-71094508D01*
X120036810Y-71094508D02*
X119893953Y-71094508D01*
X119893953Y-71094508D02*
X119798715Y-71142127D01*
X119798715Y-71142127D02*
X119751096Y-71189746D01*
X119751096Y-71189746D02*
X119703477Y-71284984D01*
X119703477Y-71284984D02*
X119703477Y-71570698D01*
X119703477Y-71570698D02*
X119751096Y-71665936D01*
X119751096Y-71665936D02*
X119798715Y-71713556D01*
X119798715Y-71713556D02*
X119893953Y-71761175D01*
X119893953Y-71761175D02*
X120036810Y-71761175D01*
X118846334Y-71094508D02*
X118846334Y-71761175D01*
X119274905Y-71094508D02*
X119274905Y-71618317D01*
X119274905Y-71618317D02*
X119227286Y-71713556D01*
X119227286Y-71713556D02*
X119132048Y-71761175D01*
X119132048Y-71761175D02*
X118989191Y-71761175D01*
X118989191Y-71761175D02*
X118893953Y-71713556D01*
X118893953Y-71713556D02*
X118846334Y-71665936D01*
X117941572Y-71094508D02*
X117941572Y-71904032D01*
X117941572Y-71904032D02*
X117989191Y-71999270D01*
X117989191Y-71999270D02*
X118036810Y-72046889D01*
X118036810Y-72046889D02*
X118132048Y-72094508D01*
X118132048Y-72094508D02*
X118274905Y-72094508D01*
X118274905Y-72094508D02*
X118370143Y-72046889D01*
X117941572Y-71713556D02*
X118036810Y-71761175D01*
X118036810Y-71761175D02*
X118227286Y-71761175D01*
X118227286Y-71761175D02*
X118322524Y-71713556D01*
X118322524Y-71713556D02*
X118370143Y-71665936D01*
X118370143Y-71665936D02*
X118417762Y-71570698D01*
X118417762Y-71570698D02*
X118417762Y-71284984D01*
X118417762Y-71284984D02*
X118370143Y-71189746D01*
X118370143Y-71189746D02*
X118322524Y-71142127D01*
X118322524Y-71142127D02*
X118227286Y-71094508D01*
X118227286Y-71094508D02*
X118036810Y-71094508D01*
X118036810Y-71094508D02*
X117941572Y-71142127D01*
X117465381Y-71761175D02*
X117465381Y-70761175D01*
X117036810Y-71761175D02*
X117036810Y-71237365D01*
X117036810Y-71237365D02*
X117084429Y-71142127D01*
X117084429Y-71142127D02*
X117179667Y-71094508D01*
X117179667Y-71094508D02*
X117322524Y-71094508D01*
X117322524Y-71094508D02*
X117417762Y-71142127D01*
X117417762Y-71142127D02*
X117465381Y-71189746D01*
X115513000Y-70761175D02*
X115513000Y-71475460D01*
X115513000Y-71475460D02*
X115560619Y-71618317D01*
X115560619Y-71618317D02*
X115655857Y-71713556D01*
X115655857Y-71713556D02*
X115798714Y-71761175D01*
X115798714Y-71761175D02*
X115893952Y-71761175D01*
X114893952Y-71761175D02*
X114989190Y-71713556D01*
X114989190Y-71713556D02*
X115036809Y-71665936D01*
X115036809Y-71665936D02*
X115084428Y-71570698D01*
X115084428Y-71570698D02*
X115084428Y-71284984D01*
X115084428Y-71284984D02*
X115036809Y-71189746D01*
X115036809Y-71189746D02*
X114989190Y-71142127D01*
X114989190Y-71142127D02*
X114893952Y-71094508D01*
X114893952Y-71094508D02*
X114751095Y-71094508D01*
X114751095Y-71094508D02*
X114655857Y-71142127D01*
X114655857Y-71142127D02*
X114608238Y-71189746D01*
X114608238Y-71189746D02*
X114560619Y-71284984D01*
X114560619Y-71284984D02*
X114560619Y-71570698D01*
X114560619Y-71570698D02*
X114608238Y-71665936D01*
X114608238Y-71665936D02*
X114655857Y-71713556D01*
X114655857Y-71713556D02*
X114751095Y-71761175D01*
X114751095Y-71761175D02*
X114893952Y-71761175D01*
X113703476Y-71094508D02*
X113703476Y-71761175D01*
X114132047Y-71094508D02*
X114132047Y-71618317D01*
X114132047Y-71618317D02*
X114084428Y-71713556D01*
X114084428Y-71713556D02*
X113989190Y-71761175D01*
X113989190Y-71761175D02*
X113846333Y-71761175D01*
X113846333Y-71761175D02*
X113751095Y-71713556D01*
X113751095Y-71713556D02*
X113703476Y-71665936D01*
X113084428Y-71761175D02*
X113179666Y-71713556D01*
X113179666Y-71713556D02*
X113227285Y-71618317D01*
X113227285Y-71618317D02*
X113227285Y-70761175D01*
X112322523Y-71713556D02*
X112417761Y-71761175D01*
X112417761Y-71761175D02*
X112608237Y-71761175D01*
X112608237Y-71761175D02*
X112703475Y-71713556D01*
X112703475Y-71713556D02*
X112751094Y-71618317D01*
X112751094Y-71618317D02*
X112751094Y-71237365D01*
X112751094Y-71237365D02*
X112703475Y-71142127D01*
X112703475Y-71142127D02*
X112608237Y-71094508D01*
X112608237Y-71094508D02*
X112417761Y-71094508D01*
X112417761Y-71094508D02*
X112322523Y-71142127D01*
X112322523Y-71142127D02*
X112274904Y-71237365D01*
X112274904Y-71237365D02*
X112274904Y-71332603D01*
X112274904Y-71332603D02*
X112751094Y-71427841D01*
X111846332Y-71761175D02*
X111846332Y-71094508D01*
X111846332Y-71189746D02*
X111798713Y-71142127D01*
X111798713Y-71142127D02*
X111703475Y-71094508D01*
X111703475Y-71094508D02*
X111560618Y-71094508D01*
X111560618Y-71094508D02*
X111465380Y-71142127D01*
X111465380Y-71142127D02*
X111417761Y-71237365D01*
X111417761Y-71237365D02*
X111417761Y-71761175D01*
X111417761Y-71237365D02*
X111370142Y-71142127D01*
X111370142Y-71142127D02*
X111274904Y-71094508D01*
X111274904Y-71094508D02*
X111132047Y-71094508D01*
X111132047Y-71094508D02*
X111036808Y-71142127D01*
X111036808Y-71142127D02*
X110989189Y-71237365D01*
X110989189Y-71237365D02*
X110989189Y-71761175D01*
X110132047Y-71713556D02*
X110227285Y-71761175D01*
X110227285Y-71761175D02*
X110417761Y-71761175D01*
X110417761Y-71761175D02*
X110512999Y-71713556D01*
X110512999Y-71713556D02*
X110560618Y-71618317D01*
X110560618Y-71618317D02*
X110560618Y-71237365D01*
X110560618Y-71237365D02*
X110512999Y-71142127D01*
X110512999Y-71142127D02*
X110417761Y-71094508D01*
X110417761Y-71094508D02*
X110227285Y-71094508D01*
X110227285Y-71094508D02*
X110132047Y-71142127D01*
X110132047Y-71142127D02*
X110084428Y-71237365D01*
X110084428Y-71237365D02*
X110084428Y-71332603D01*
X110084428Y-71332603D02*
X110560618Y-71427841D01*
X109798713Y-71094508D02*
X109417761Y-71094508D01*
X109655856Y-70761175D02*
X109655856Y-71618317D01*
X109655856Y-71618317D02*
X109608237Y-71713556D01*
X109608237Y-71713556D02*
X109512999Y-71761175D01*
X109512999Y-71761175D02*
X109417761Y-71761175D01*
X108703475Y-71713556D02*
X108798713Y-71761175D01*
X108798713Y-71761175D02*
X108989189Y-71761175D01*
X108989189Y-71761175D02*
X109084427Y-71713556D01*
X109084427Y-71713556D02*
X109132046Y-71618317D01*
X109132046Y-71618317D02*
X109132046Y-71237365D01*
X109132046Y-71237365D02*
X109084427Y-71142127D01*
X109084427Y-71142127D02*
X108989189Y-71094508D01*
X108989189Y-71094508D02*
X108798713Y-71094508D01*
X108798713Y-71094508D02*
X108703475Y-71142127D01*
X108703475Y-71142127D02*
X108655856Y-71237365D01*
X108655856Y-71237365D02*
X108655856Y-71332603D01*
X108655856Y-71332603D02*
X109132046Y-71427841D01*
X108227284Y-71761175D02*
X108227284Y-71094508D01*
X108227284Y-71284984D02*
X108179665Y-71189746D01*
X108179665Y-71189746D02*
X108132046Y-71142127D01*
X108132046Y-71142127D02*
X108036808Y-71094508D01*
X108036808Y-71094508D02*
X107941570Y-71094508D01*
X126227287Y-72466357D02*
X126179668Y-72418738D01*
X126179668Y-72418738D02*
X126084430Y-72371119D01*
X126084430Y-72371119D02*
X125846335Y-72371119D01*
X125846335Y-72371119D02*
X125751097Y-72418738D01*
X125751097Y-72418738D02*
X125703478Y-72466357D01*
X125703478Y-72466357D02*
X125655859Y-72561595D01*
X125655859Y-72561595D02*
X125655859Y-72656833D01*
X125655859Y-72656833D02*
X125703478Y-72799690D01*
X125703478Y-72799690D02*
X126274906Y-73371119D01*
X126274906Y-73371119D02*
X125655859Y-73371119D01*
X124465382Y-72990166D02*
X123703478Y-72990166D01*
X123893954Y-73180642D02*
X123703478Y-72990166D01*
X123703478Y-72990166D02*
X123893954Y-72799690D01*
X122132049Y-72847309D02*
X121989192Y-72894928D01*
X121989192Y-72894928D02*
X121941573Y-72942547D01*
X121941573Y-72942547D02*
X121893954Y-73037785D01*
X121893954Y-73037785D02*
X121893954Y-73180642D01*
X121893954Y-73180642D02*
X121941573Y-73275880D01*
X121941573Y-73275880D02*
X121989192Y-73323500D01*
X121989192Y-73323500D02*
X122084430Y-73371119D01*
X122084430Y-73371119D02*
X122465382Y-73371119D01*
X122465382Y-73371119D02*
X122465382Y-72371119D01*
X122465382Y-72371119D02*
X122132049Y-72371119D01*
X122132049Y-72371119D02*
X122036811Y-72418738D01*
X122036811Y-72418738D02*
X121989192Y-72466357D01*
X121989192Y-72466357D02*
X121941573Y-72561595D01*
X121941573Y-72561595D02*
X121941573Y-72656833D01*
X121941573Y-72656833D02*
X121989192Y-72752071D01*
X121989192Y-72752071D02*
X122036811Y-72799690D01*
X122036811Y-72799690D02*
X122132049Y-72847309D01*
X122132049Y-72847309D02*
X122465382Y-72847309D01*
X121560620Y-72704452D02*
X121322525Y-73371119D01*
X121084430Y-72704452D02*
X121322525Y-73371119D01*
X121322525Y-73371119D02*
X121417763Y-73609214D01*
X121417763Y-73609214D02*
X121465382Y-73656833D01*
X121465382Y-73656833D02*
X121560620Y-73704452D01*
X120703477Y-72704452D02*
X120703477Y-73704452D01*
X120703477Y-72752071D02*
X120608239Y-72704452D01*
X120608239Y-72704452D02*
X120417763Y-72704452D01*
X120417763Y-72704452D02*
X120322525Y-72752071D01*
X120322525Y-72752071D02*
X120274906Y-72799690D01*
X120274906Y-72799690D02*
X120227287Y-72894928D01*
X120227287Y-72894928D02*
X120227287Y-73180642D01*
X120227287Y-73180642D02*
X120274906Y-73275880D01*
X120274906Y-73275880D02*
X120322525Y-73323500D01*
X120322525Y-73323500D02*
X120417763Y-73371119D01*
X120417763Y-73371119D02*
X120608239Y-73371119D01*
X120608239Y-73371119D02*
X120703477Y-73323500D01*
X119370144Y-73371119D02*
X119370144Y-72847309D01*
X119370144Y-72847309D02*
X119417763Y-72752071D01*
X119417763Y-72752071D02*
X119513001Y-72704452D01*
X119513001Y-72704452D02*
X119703477Y-72704452D01*
X119703477Y-72704452D02*
X119798715Y-72752071D01*
X119370144Y-73323500D02*
X119465382Y-73371119D01*
X119465382Y-73371119D02*
X119703477Y-73371119D01*
X119703477Y-73371119D02*
X119798715Y-73323500D01*
X119798715Y-73323500D02*
X119846334Y-73228261D01*
X119846334Y-73228261D02*
X119846334Y-73133023D01*
X119846334Y-73133023D02*
X119798715Y-73037785D01*
X119798715Y-73037785D02*
X119703477Y-72990166D01*
X119703477Y-72990166D02*
X119465382Y-72990166D01*
X119465382Y-72990166D02*
X119370144Y-72942547D01*
X118941572Y-73323500D02*
X118846334Y-73371119D01*
X118846334Y-73371119D02*
X118655858Y-73371119D01*
X118655858Y-73371119D02*
X118560620Y-73323500D01*
X118560620Y-73323500D02*
X118513001Y-73228261D01*
X118513001Y-73228261D02*
X118513001Y-73180642D01*
X118513001Y-73180642D02*
X118560620Y-73085404D01*
X118560620Y-73085404D02*
X118655858Y-73037785D01*
X118655858Y-73037785D02*
X118798715Y-73037785D01*
X118798715Y-73037785D02*
X118893953Y-72990166D01*
X118893953Y-72990166D02*
X118941572Y-72894928D01*
X118941572Y-72894928D02*
X118941572Y-72847309D01*
X118941572Y-72847309D02*
X118893953Y-72752071D01*
X118893953Y-72752071D02*
X118798715Y-72704452D01*
X118798715Y-72704452D02*
X118655858Y-72704452D01*
X118655858Y-72704452D02*
X118560620Y-72752071D01*
X118132048Y-73323500D02*
X118036810Y-73371119D01*
X118036810Y-73371119D02*
X117846334Y-73371119D01*
X117846334Y-73371119D02*
X117751096Y-73323500D01*
X117751096Y-73323500D02*
X117703477Y-73228261D01*
X117703477Y-73228261D02*
X117703477Y-73180642D01*
X117703477Y-73180642D02*
X117751096Y-73085404D01*
X117751096Y-73085404D02*
X117846334Y-73037785D01*
X117846334Y-73037785D02*
X117989191Y-73037785D01*
X117989191Y-73037785D02*
X118084429Y-72990166D01*
X118084429Y-72990166D02*
X118132048Y-72894928D01*
X118132048Y-72894928D02*
X118132048Y-72847309D01*
X118132048Y-72847309D02*
X118084429Y-72752071D01*
X118084429Y-72752071D02*
X117989191Y-72704452D01*
X117989191Y-72704452D02*
X117846334Y-72704452D01*
X117846334Y-72704452D02*
X117751096Y-72752071D01*
X116227286Y-72371119D02*
X116227286Y-73085404D01*
X116227286Y-73085404D02*
X116274905Y-73228261D01*
X116274905Y-73228261D02*
X116370143Y-73323500D01*
X116370143Y-73323500D02*
X116513000Y-73371119D01*
X116513000Y-73371119D02*
X116608238Y-73371119D01*
X115608238Y-73371119D02*
X115703476Y-73323500D01*
X115703476Y-73323500D02*
X115751095Y-73275880D01*
X115751095Y-73275880D02*
X115798714Y-73180642D01*
X115798714Y-73180642D02*
X115798714Y-72894928D01*
X115798714Y-72894928D02*
X115751095Y-72799690D01*
X115751095Y-72799690D02*
X115703476Y-72752071D01*
X115703476Y-72752071D02*
X115608238Y-72704452D01*
X115608238Y-72704452D02*
X115465381Y-72704452D01*
X115465381Y-72704452D02*
X115370143Y-72752071D01*
X115370143Y-72752071D02*
X115322524Y-72799690D01*
X115322524Y-72799690D02*
X115274905Y-72894928D01*
X115274905Y-72894928D02*
X115274905Y-73180642D01*
X115274905Y-73180642D02*
X115322524Y-73275880D01*
X115322524Y-73275880D02*
X115370143Y-73323500D01*
X115370143Y-73323500D02*
X115465381Y-73371119D01*
X115465381Y-73371119D02*
X115608238Y-73371119D01*
X114417762Y-72704452D02*
X114417762Y-73371119D01*
X114846333Y-72704452D02*
X114846333Y-73228261D01*
X114846333Y-73228261D02*
X114798714Y-73323500D01*
X114798714Y-73323500D02*
X114703476Y-73371119D01*
X114703476Y-73371119D02*
X114560619Y-73371119D01*
X114560619Y-73371119D02*
X114465381Y-73323500D01*
X114465381Y-73323500D02*
X114417762Y-73275880D01*
X113798714Y-73371119D02*
X113893952Y-73323500D01*
X113893952Y-73323500D02*
X113941571Y-73228261D01*
X113941571Y-73228261D02*
X113941571Y-72371119D01*
X113036809Y-73323500D02*
X113132047Y-73371119D01*
X113132047Y-73371119D02*
X113322523Y-73371119D01*
X113322523Y-73371119D02*
X113417761Y-73323500D01*
X113417761Y-73323500D02*
X113465380Y-73228261D01*
X113465380Y-73228261D02*
X113465380Y-72847309D01*
X113465380Y-72847309D02*
X113417761Y-72752071D01*
X113417761Y-72752071D02*
X113322523Y-72704452D01*
X113322523Y-72704452D02*
X113132047Y-72704452D01*
X113132047Y-72704452D02*
X113036809Y-72752071D01*
X113036809Y-72752071D02*
X112989190Y-72847309D01*
X112989190Y-72847309D02*
X112989190Y-72942547D01*
X112989190Y-72942547D02*
X113465380Y-73037785D01*
X112560618Y-73371119D02*
X112560618Y-72704452D01*
X112560618Y-72799690D02*
X112512999Y-72752071D01*
X112512999Y-72752071D02*
X112417761Y-72704452D01*
X112417761Y-72704452D02*
X112274904Y-72704452D01*
X112274904Y-72704452D02*
X112179666Y-72752071D01*
X112179666Y-72752071D02*
X112132047Y-72847309D01*
X112132047Y-72847309D02*
X112132047Y-73371119D01*
X112132047Y-72847309D02*
X112084428Y-72752071D01*
X112084428Y-72752071D02*
X111989190Y-72704452D01*
X111989190Y-72704452D02*
X111846333Y-72704452D01*
X111846333Y-72704452D02*
X111751094Y-72752071D01*
X111751094Y-72752071D02*
X111703475Y-72847309D01*
X111703475Y-72847309D02*
X111703475Y-73371119D01*
X110846333Y-73323500D02*
X110941571Y-73371119D01*
X110941571Y-73371119D02*
X111132047Y-73371119D01*
X111132047Y-73371119D02*
X111227285Y-73323500D01*
X111227285Y-73323500D02*
X111274904Y-73228261D01*
X111274904Y-73228261D02*
X111274904Y-72847309D01*
X111274904Y-72847309D02*
X111227285Y-72752071D01*
X111227285Y-72752071D02*
X111132047Y-72704452D01*
X111132047Y-72704452D02*
X110941571Y-72704452D01*
X110941571Y-72704452D02*
X110846333Y-72752071D01*
X110846333Y-72752071D02*
X110798714Y-72847309D01*
X110798714Y-72847309D02*
X110798714Y-72942547D01*
X110798714Y-72942547D02*
X111274904Y-73037785D01*
X110512999Y-72704452D02*
X110132047Y-72704452D01*
X110370142Y-72371119D02*
X110370142Y-73228261D01*
X110370142Y-73228261D02*
X110322523Y-73323500D01*
X110322523Y-73323500D02*
X110227285Y-73371119D01*
X110227285Y-73371119D02*
X110132047Y-73371119D01*
X109417761Y-73323500D02*
X109512999Y-73371119D01*
X109512999Y-73371119D02*
X109703475Y-73371119D01*
X109703475Y-73371119D02*
X109798713Y-73323500D01*
X109798713Y-73323500D02*
X109846332Y-73228261D01*
X109846332Y-73228261D02*
X109846332Y-72847309D01*
X109846332Y-72847309D02*
X109798713Y-72752071D01*
X109798713Y-72752071D02*
X109703475Y-72704452D01*
X109703475Y-72704452D02*
X109512999Y-72704452D01*
X109512999Y-72704452D02*
X109417761Y-72752071D01*
X109417761Y-72752071D02*
X109370142Y-72847309D01*
X109370142Y-72847309D02*
X109370142Y-72942547D01*
X109370142Y-72942547D02*
X109846332Y-73037785D01*
X108941570Y-73371119D02*
X108941570Y-72704452D01*
X108941570Y-72894928D02*
X108893951Y-72799690D01*
X108893951Y-72799690D02*
X108846332Y-72752071D01*
X108846332Y-72752071D02*
X108751094Y-72704452D01*
X108751094Y-72704452D02*
X108655856Y-72704452D01*
D11*
X121245285Y-88665181D02*
X120737285Y-90189181D01*
X120737285Y-90189181D02*
X120229285Y-88665181D01*
X119721284Y-90189181D02*
X119721284Y-89173181D01*
X119721284Y-88665181D02*
X119793856Y-88737752D01*
X119793856Y-88737752D02*
X119721284Y-88810324D01*
X119721284Y-88810324D02*
X119648713Y-88737752D01*
X119648713Y-88737752D02*
X119721284Y-88665181D01*
X119721284Y-88665181D02*
X119721284Y-88810324D01*
X118995570Y-89173181D02*
X118995570Y-90189181D01*
X118995570Y-89318324D02*
X118922999Y-89245752D01*
X118922999Y-89245752D02*
X118777856Y-89173181D01*
X118777856Y-89173181D02*
X118560142Y-89173181D01*
X118560142Y-89173181D02*
X118414999Y-89245752D01*
X118414999Y-89245752D02*
X118342428Y-89390895D01*
X118342428Y-89390895D02*
X118342428Y-90189181D01*
X65671142Y-57237752D02*
X65816285Y-57165181D01*
X65816285Y-57165181D02*
X66033999Y-57165181D01*
X66033999Y-57165181D02*
X66251713Y-57237752D01*
X66251713Y-57237752D02*
X66396856Y-57382895D01*
X66396856Y-57382895D02*
X66469427Y-57528038D01*
X66469427Y-57528038D02*
X66541999Y-57818324D01*
X66541999Y-57818324D02*
X66541999Y-58036038D01*
X66541999Y-58036038D02*
X66469427Y-58326324D01*
X66469427Y-58326324D02*
X66396856Y-58471467D01*
X66396856Y-58471467D02*
X66251713Y-58616610D01*
X66251713Y-58616610D02*
X66033999Y-58689181D01*
X66033999Y-58689181D02*
X65888856Y-58689181D01*
X65888856Y-58689181D02*
X65671142Y-58616610D01*
X65671142Y-58616610D02*
X65598570Y-58544038D01*
X65598570Y-58544038D02*
X65598570Y-58036038D01*
X65598570Y-58036038D02*
X65888856Y-58036038D01*
X64945427Y-58689181D02*
X64945427Y-57165181D01*
X64945427Y-57165181D02*
X64074570Y-58689181D01*
X64074570Y-58689181D02*
X64074570Y-57165181D01*
X63348856Y-58689181D02*
X63348856Y-57165181D01*
X63348856Y-57165181D02*
X62985999Y-57165181D01*
X62985999Y-57165181D02*
X62768285Y-57237752D01*
X62768285Y-57237752D02*
X62623142Y-57382895D01*
X62623142Y-57382895D02*
X62550571Y-57528038D01*
X62550571Y-57528038D02*
X62477999Y-57818324D01*
X62477999Y-57818324D02*
X62477999Y-58036038D01*
X62477999Y-58036038D02*
X62550571Y-58326324D01*
X62550571Y-58326324D02*
X62623142Y-58471467D01*
X62623142Y-58471467D02*
X62768285Y-58616610D01*
X62768285Y-58616610D02*
X62985999Y-58689181D01*
X62985999Y-58689181D02*
X63348856Y-58689181D01*
D12*
X132845237Y-71754819D02*
X132845237Y-70754819D01*
X132845237Y-70754819D02*
X132464285Y-70754819D01*
X132464285Y-70754819D02*
X132369047Y-70802438D01*
X132369047Y-70802438D02*
X132321428Y-70850057D01*
X132321428Y-70850057D02*
X132273809Y-70945295D01*
X132273809Y-70945295D02*
X132273809Y-71088152D01*
X132273809Y-71088152D02*
X132321428Y-71183390D01*
X132321428Y-71183390D02*
X132369047Y-71231009D01*
X132369047Y-71231009D02*
X132464285Y-71278628D01*
X132464285Y-71278628D02*
X132845237Y-71278628D01*
X131416666Y-71754819D02*
X131416666Y-71231009D01*
X131416666Y-71231009D02*
X131464285Y-71135771D01*
X131464285Y-71135771D02*
X131559523Y-71088152D01*
X131559523Y-71088152D02*
X131749999Y-71088152D01*
X131749999Y-71088152D02*
X131845237Y-71135771D01*
X131416666Y-71707200D02*
X131511904Y-71754819D01*
X131511904Y-71754819D02*
X131749999Y-71754819D01*
X131749999Y-71754819D02*
X131845237Y-71707200D01*
X131845237Y-71707200D02*
X131892856Y-71611961D01*
X131892856Y-71611961D02*
X131892856Y-71516723D01*
X131892856Y-71516723D02*
X131845237Y-71421485D01*
X131845237Y-71421485D02*
X131749999Y-71373866D01*
X131749999Y-71373866D02*
X131511904Y-71373866D01*
X131511904Y-71373866D02*
X131416666Y-71326247D01*
X131083332Y-71088152D02*
X130702380Y-71088152D01*
X130940475Y-70754819D02*
X130940475Y-71611961D01*
X130940475Y-71611961D02*
X130892856Y-71707200D01*
X130892856Y-71707200D02*
X130797618Y-71754819D01*
X130797618Y-71754819D02*
X130702380Y-71754819D01*
X130369046Y-71754819D02*
X130369046Y-70754819D01*
X129940475Y-71754819D02*
X129940475Y-71231009D01*
X129940475Y-71231009D02*
X129988094Y-71135771D01*
X129988094Y-71135771D02*
X130083332Y-71088152D01*
X130083332Y-71088152D02*
X130226189Y-71088152D01*
X130226189Y-71088152D02*
X130321427Y-71135771D01*
X130321427Y-71135771D02*
X130369046Y-71183390D01*
X128940475Y-71754819D02*
X129511903Y-71754819D01*
X129226189Y-71754819D02*
X129226189Y-70754819D01*
X129226189Y-70754819D02*
X129321427Y-70897676D01*
X129321427Y-70897676D02*
X129416665Y-70992914D01*
X129416665Y-70992914D02*
X129511903Y-71040533D01*
D11*
X146812285Y-69825181D02*
X146304285Y-71349181D01*
X146304285Y-71349181D02*
X145796285Y-69825181D01*
X145070570Y-71349181D02*
X145215713Y-71276610D01*
X145215713Y-71276610D02*
X145288284Y-71204038D01*
X145288284Y-71204038D02*
X145360856Y-71058895D01*
X145360856Y-71058895D02*
X145360856Y-70623467D01*
X145360856Y-70623467D02*
X145288284Y-70478324D01*
X145288284Y-70478324D02*
X145215713Y-70405752D01*
X145215713Y-70405752D02*
X145070570Y-70333181D01*
X145070570Y-70333181D02*
X144852856Y-70333181D01*
X144852856Y-70333181D02*
X144707713Y-70405752D01*
X144707713Y-70405752D02*
X144635142Y-70478324D01*
X144635142Y-70478324D02*
X144562570Y-70623467D01*
X144562570Y-70623467D02*
X144562570Y-71058895D01*
X144562570Y-71058895D02*
X144635142Y-71204038D01*
X144635142Y-71204038D02*
X144707713Y-71276610D01*
X144707713Y-71276610D02*
X144852856Y-71349181D01*
X144852856Y-71349181D02*
X145070570Y-71349181D01*
X143256285Y-70333181D02*
X143256285Y-71349181D01*
X143909427Y-70333181D02*
X143909427Y-71131467D01*
X143909427Y-71131467D02*
X143836856Y-71276610D01*
X143836856Y-71276610D02*
X143691713Y-71349181D01*
X143691713Y-71349181D02*
X143473999Y-71349181D01*
X143473999Y-71349181D02*
X143328856Y-71276610D01*
X143328856Y-71276610D02*
X143256285Y-71204038D01*
X142748285Y-70333181D02*
X142167713Y-70333181D01*
X142530570Y-69825181D02*
X142530570Y-71131467D01*
X142530570Y-71131467D02*
X142457999Y-71276610D01*
X142457999Y-71276610D02*
X142312856Y-71349181D01*
X142312856Y-71349181D02*
X142167713Y-71349181D01*
D12*
X139620237Y-76314819D02*
X139620237Y-75314819D01*
X139620237Y-75314819D02*
X139239285Y-75314819D01*
X139239285Y-75314819D02*
X139144047Y-75362438D01*
X139144047Y-75362438D02*
X139096428Y-75410057D01*
X139096428Y-75410057D02*
X139048809Y-75505295D01*
X139048809Y-75505295D02*
X139048809Y-75648152D01*
X139048809Y-75648152D02*
X139096428Y-75743390D01*
X139096428Y-75743390D02*
X139144047Y-75791009D01*
X139144047Y-75791009D02*
X139239285Y-75838628D01*
X139239285Y-75838628D02*
X139620237Y-75838628D01*
X138191666Y-76314819D02*
X138191666Y-75791009D01*
X138191666Y-75791009D02*
X138239285Y-75695771D01*
X138239285Y-75695771D02*
X138334523Y-75648152D01*
X138334523Y-75648152D02*
X138524999Y-75648152D01*
X138524999Y-75648152D02*
X138620237Y-75695771D01*
X138191666Y-76267200D02*
X138286904Y-76314819D01*
X138286904Y-76314819D02*
X138524999Y-76314819D01*
X138524999Y-76314819D02*
X138620237Y-76267200D01*
X138620237Y-76267200D02*
X138667856Y-76171961D01*
X138667856Y-76171961D02*
X138667856Y-76076723D01*
X138667856Y-76076723D02*
X138620237Y-75981485D01*
X138620237Y-75981485D02*
X138524999Y-75933866D01*
X138524999Y-75933866D02*
X138286904Y-75933866D01*
X138286904Y-75933866D02*
X138191666Y-75886247D01*
X137858332Y-75648152D02*
X137477380Y-75648152D01*
X137715475Y-75314819D02*
X137715475Y-76171961D01*
X137715475Y-76171961D02*
X137667856Y-76267200D01*
X137667856Y-76267200D02*
X137572618Y-76314819D01*
X137572618Y-76314819D02*
X137477380Y-76314819D01*
X137144046Y-76314819D02*
X137144046Y-75314819D01*
X136715475Y-76314819D02*
X136715475Y-75791009D01*
X136715475Y-75791009D02*
X136763094Y-75695771D01*
X136763094Y-75695771D02*
X136858332Y-75648152D01*
X136858332Y-75648152D02*
X137001189Y-75648152D01*
X137001189Y-75648152D02*
X137096427Y-75695771D01*
X137096427Y-75695771D02*
X137144046Y-75743390D01*
X136286903Y-75410057D02*
X136239284Y-75362438D01*
X136239284Y-75362438D02*
X136144046Y-75314819D01*
X136144046Y-75314819D02*
X135905951Y-75314819D01*
X135905951Y-75314819D02*
X135810713Y-75362438D01*
X135810713Y-75362438D02*
X135763094Y-75410057D01*
X135763094Y-75410057D02*
X135715475Y-75505295D01*
X135715475Y-75505295D02*
X135715475Y-75600533D01*
X135715475Y-75600533D02*
X135763094Y-75743390D01*
X135763094Y-75743390D02*
X136334522Y-76314819D01*
X136334522Y-76314819D02*
X135715475Y-76314819D01*
D11*
X145671142Y-57237752D02*
X145816285Y-57165181D01*
X145816285Y-57165181D02*
X146033999Y-57165181D01*
X146033999Y-57165181D02*
X146251713Y-57237752D01*
X146251713Y-57237752D02*
X146396856Y-57382895D01*
X146396856Y-57382895D02*
X146469427Y-57528038D01*
X146469427Y-57528038D02*
X146541999Y-57818324D01*
X146541999Y-57818324D02*
X146541999Y-58036038D01*
X146541999Y-58036038D02*
X146469427Y-58326324D01*
X146469427Y-58326324D02*
X146396856Y-58471467D01*
X146396856Y-58471467D02*
X146251713Y-58616610D01*
X146251713Y-58616610D02*
X146033999Y-58689181D01*
X146033999Y-58689181D02*
X145888856Y-58689181D01*
X145888856Y-58689181D02*
X145671142Y-58616610D01*
X145671142Y-58616610D02*
X145598570Y-58544038D01*
X145598570Y-58544038D02*
X145598570Y-58036038D01*
X145598570Y-58036038D02*
X145888856Y-58036038D01*
X144945427Y-58689181D02*
X144945427Y-57165181D01*
X144945427Y-57165181D02*
X144074570Y-58689181D01*
X144074570Y-58689181D02*
X144074570Y-57165181D01*
X143348856Y-58689181D02*
X143348856Y-57165181D01*
X143348856Y-57165181D02*
X142985999Y-57165181D01*
X142985999Y-57165181D02*
X142768285Y-57237752D01*
X142768285Y-57237752D02*
X142623142Y-57382895D01*
X142623142Y-57382895D02*
X142550571Y-57528038D01*
X142550571Y-57528038D02*
X142477999Y-57818324D01*
X142477999Y-57818324D02*
X142477999Y-58036038D01*
X142477999Y-58036038D02*
X142550571Y-58326324D01*
X142550571Y-58326324D02*
X142623142Y-58471467D01*
X142623142Y-58471467D02*
X142768285Y-58616610D01*
X142768285Y-58616610D02*
X142985999Y-58689181D01*
X142985999Y-58689181D02*
X143348856Y-58689181D01*
%TO.C,Vin1*%
D12*
X115375000Y-80700000D02*
X115375000Y-88300000D01*
X115375000Y-88300000D02*
X123975000Y-88300000D01*
X123975000Y-80700000D02*
X115375000Y-80700000D01*
X123975000Y-88300000D02*
X123975000Y-80700000D01*
%TO.C,GND_IN1*%
X68800000Y-56615000D02*
X68800000Y-49015000D01*
X68800000Y-49015000D02*
X60200000Y-49015000D01*
X60200000Y-56615000D02*
X68800000Y-56615000D01*
X60200000Y-49015000D02*
X60200000Y-56615000D01*
%TO.C,Path1*%
D13*
X132443730Y-72220000D02*
X129389602Y-72220000D01*
X132443730Y-74940000D02*
X129389602Y-74940000D01*
%TO.C,Vout1*%
D12*
X140200000Y-61800000D02*
X140200000Y-69400000D01*
X140200000Y-69400000D02*
X148800000Y-69400000D01*
X148800000Y-61800000D02*
X140200000Y-61800000D01*
X148800000Y-69400000D02*
X148800000Y-61800000D01*
%TO.C,Path2*%
D13*
X136164602Y-72220000D02*
X139218730Y-72220000D01*
X136164602Y-74940000D02*
X139218730Y-74940000D01*
%TO.C,GND_OUT1*%
D12*
X140200000Y-49015000D02*
X140200000Y-56615000D01*
X140200000Y-56615000D02*
X148800000Y-56615000D01*
X148800000Y-49015000D02*
X140200000Y-49015000D01*
X148800000Y-56615000D02*
X148800000Y-49015000D01*
%TD*%
M02*
