%TF.GenerationSoftware,KiCad,Pcbnew,10.0.4*%
%TF.CreationDate,2026-07-24T17:06:21-03:00*%
%TF.ProjectId,pre carga inteligente,70726520-6361-4726-9761-20696e74656c,rev?*%
%TF.SameCoordinates,Original*%
%TF.FileFunction,Legend,Top*%
%TF.FilePolarity,Positive*%
%FSLAX46Y46*%
G04 Gerber Fmt 4.6, Leading zero omitted, Abs format (unit mm)*
G04 Created by KiCad (PCBNEW 10.0.4) date 2026-07-24 17:06:21*
%MOMM*%
%LPD*%
G01*
G04 APERTURE LIST*
%ADD10C,0.150000*%
%ADD11C,0.100000*%
%ADD12C,0.120000*%
%ADD13C,0.000000*%
G04 APERTURE END LIST*
D10*
X119357142Y-57979819D02*
X119023809Y-57503628D01*
X118785714Y-57979819D02*
X118785714Y-56979819D01*
X118785714Y-56979819D02*
X119166666Y-56979819D01*
X119166666Y-56979819D02*
X119261904Y-57027438D01*
X119261904Y-57027438D02*
X119309523Y-57075057D01*
X119309523Y-57075057D02*
X119357142Y-57170295D01*
X119357142Y-57170295D02*
X119357142Y-57313152D01*
X119357142Y-57313152D02*
X119309523Y-57408390D01*
X119309523Y-57408390D02*
X119261904Y-57456009D01*
X119261904Y-57456009D02*
X119166666Y-57503628D01*
X119166666Y-57503628D02*
X118785714Y-57503628D01*
X120309523Y-57979819D02*
X119738095Y-57979819D01*
X120023809Y-57979819D02*
X120023809Y-56979819D01*
X120023809Y-56979819D02*
X119928571Y-57122676D01*
X119928571Y-57122676D02*
X119833333Y-57217914D01*
X119833333Y-57217914D02*
X119738095Y-57265533D01*
X120642857Y-56979819D02*
X121309523Y-56979819D01*
X121309523Y-56979819D02*
X120880952Y-57979819D01*
X96806665Y-54294819D02*
X96473332Y-53818628D01*
X96235237Y-54294819D02*
X96235237Y-53294819D01*
X96235237Y-53294819D02*
X96616189Y-53294819D01*
X96616189Y-53294819D02*
X96711427Y-53342438D01*
X96711427Y-53342438D02*
X96759046Y-53390057D01*
X96759046Y-53390057D02*
X96806665Y-53485295D01*
X96806665Y-53485295D02*
X96806665Y-53628152D01*
X96806665Y-53628152D02*
X96759046Y-53723390D01*
X96759046Y-53723390D02*
X96711427Y-53771009D01*
X96711427Y-53771009D02*
X96616189Y-53818628D01*
X96616189Y-53818628D02*
X96235237Y-53818628D01*
X97711427Y-53294819D02*
X97235237Y-53294819D01*
X97235237Y-53294819D02*
X97187618Y-53771009D01*
X97187618Y-53771009D02*
X97235237Y-53723390D01*
X97235237Y-53723390D02*
X97330475Y-53675771D01*
X97330475Y-53675771D02*
X97568570Y-53675771D01*
X97568570Y-53675771D02*
X97663808Y-53723390D01*
X97663808Y-53723390D02*
X97711427Y-53771009D01*
X97711427Y-53771009D02*
X97759046Y-53866247D01*
X97759046Y-53866247D02*
X97759046Y-54104342D01*
X97759046Y-54104342D02*
X97711427Y-54199580D01*
X97711427Y-54199580D02*
X97663808Y-54247200D01*
X97663808Y-54247200D02*
X97568570Y-54294819D01*
X97568570Y-54294819D02*
X97330475Y-54294819D01*
X97330475Y-54294819D02*
X97235237Y-54247200D01*
X97235237Y-54247200D02*
X97187618Y-54199580D01*
X120761905Y-95954819D02*
X120761905Y-94954819D01*
X120761905Y-94954819D02*
X121000000Y-94954819D01*
X121000000Y-94954819D02*
X121142857Y-95002438D01*
X121142857Y-95002438D02*
X121238095Y-95097676D01*
X121238095Y-95097676D02*
X121285714Y-95192914D01*
X121285714Y-95192914D02*
X121333333Y-95383390D01*
X121333333Y-95383390D02*
X121333333Y-95526247D01*
X121333333Y-95526247D02*
X121285714Y-95716723D01*
X121285714Y-95716723D02*
X121238095Y-95811961D01*
X121238095Y-95811961D02*
X121142857Y-95907200D01*
X121142857Y-95907200D02*
X121000000Y-95954819D01*
X121000000Y-95954819D02*
X120761905Y-95954819D01*
X121666667Y-94954819D02*
X122285714Y-94954819D01*
X122285714Y-94954819D02*
X121952381Y-95335771D01*
X121952381Y-95335771D02*
X122095238Y-95335771D01*
X122095238Y-95335771D02*
X122190476Y-95383390D01*
X122190476Y-95383390D02*
X122238095Y-95431009D01*
X122238095Y-95431009D02*
X122285714Y-95526247D01*
X122285714Y-95526247D02*
X122285714Y-95764342D01*
X122285714Y-95764342D02*
X122238095Y-95859580D01*
X122238095Y-95859580D02*
X122190476Y-95907200D01*
X122190476Y-95907200D02*
X122095238Y-95954819D01*
X122095238Y-95954819D02*
X121809524Y-95954819D01*
X121809524Y-95954819D02*
X121714286Y-95907200D01*
X121714286Y-95907200D02*
X121666667Y-95859580D01*
X86195833Y-63194819D02*
X85862500Y-62718628D01*
X85624405Y-63194819D02*
X85624405Y-62194819D01*
X85624405Y-62194819D02*
X86005357Y-62194819D01*
X86005357Y-62194819D02*
X86100595Y-62242438D01*
X86100595Y-62242438D02*
X86148214Y-62290057D01*
X86148214Y-62290057D02*
X86195833Y-62385295D01*
X86195833Y-62385295D02*
X86195833Y-62528152D01*
X86195833Y-62528152D02*
X86148214Y-62623390D01*
X86148214Y-62623390D02*
X86100595Y-62671009D01*
X86100595Y-62671009D02*
X86005357Y-62718628D01*
X86005357Y-62718628D02*
X85624405Y-62718628D01*
X87148214Y-63194819D02*
X86576786Y-63194819D01*
X86862500Y-63194819D02*
X86862500Y-62194819D01*
X86862500Y-62194819D02*
X86767262Y-62337676D01*
X86767262Y-62337676D02*
X86672024Y-62432914D01*
X86672024Y-62432914D02*
X86576786Y-62480533D01*
X125859580Y-104211554D02*
X125907200Y-104259173D01*
X125907200Y-104259173D02*
X125954819Y-104402030D01*
X125954819Y-104402030D02*
X125954819Y-104497268D01*
X125954819Y-104497268D02*
X125907200Y-104640125D01*
X125907200Y-104640125D02*
X125811961Y-104735363D01*
X125811961Y-104735363D02*
X125716723Y-104782982D01*
X125716723Y-104782982D02*
X125526247Y-104830601D01*
X125526247Y-104830601D02*
X125383390Y-104830601D01*
X125383390Y-104830601D02*
X125192914Y-104782982D01*
X125192914Y-104782982D02*
X125097676Y-104735363D01*
X125097676Y-104735363D02*
X125002438Y-104640125D01*
X125002438Y-104640125D02*
X124954819Y-104497268D01*
X124954819Y-104497268D02*
X124954819Y-104402030D01*
X124954819Y-104402030D02*
X125002438Y-104259173D01*
X125002438Y-104259173D02*
X125050057Y-104211554D01*
X124954819Y-103878220D02*
X124954819Y-103211554D01*
X124954819Y-103211554D02*
X125954819Y-103640125D01*
X87333333Y-69704819D02*
X87000000Y-69228628D01*
X86761905Y-69704819D02*
X86761905Y-68704819D01*
X86761905Y-68704819D02*
X87142857Y-68704819D01*
X87142857Y-68704819D02*
X87238095Y-68752438D01*
X87238095Y-68752438D02*
X87285714Y-68800057D01*
X87285714Y-68800057D02*
X87333333Y-68895295D01*
X87333333Y-68895295D02*
X87333333Y-69038152D01*
X87333333Y-69038152D02*
X87285714Y-69133390D01*
X87285714Y-69133390D02*
X87238095Y-69181009D01*
X87238095Y-69181009D02*
X87142857Y-69228628D01*
X87142857Y-69228628D02*
X86761905Y-69228628D01*
X87714286Y-68800057D02*
X87761905Y-68752438D01*
X87761905Y-68752438D02*
X87857143Y-68704819D01*
X87857143Y-68704819D02*
X88095238Y-68704819D01*
X88095238Y-68704819D02*
X88190476Y-68752438D01*
X88190476Y-68752438D02*
X88238095Y-68800057D01*
X88238095Y-68800057D02*
X88285714Y-68895295D01*
X88285714Y-68895295D02*
X88285714Y-68990533D01*
X88285714Y-68990533D02*
X88238095Y-69133390D01*
X88238095Y-69133390D02*
X87666667Y-69704819D01*
X87666667Y-69704819D02*
X88285714Y-69704819D01*
X120357142Y-99454819D02*
X120023809Y-98978628D01*
X119785714Y-99454819D02*
X119785714Y-98454819D01*
X119785714Y-98454819D02*
X120166666Y-98454819D01*
X120166666Y-98454819D02*
X120261904Y-98502438D01*
X120261904Y-98502438D02*
X120309523Y-98550057D01*
X120309523Y-98550057D02*
X120357142Y-98645295D01*
X120357142Y-98645295D02*
X120357142Y-98788152D01*
X120357142Y-98788152D02*
X120309523Y-98883390D01*
X120309523Y-98883390D02*
X120261904Y-98931009D01*
X120261904Y-98931009D02*
X120166666Y-98978628D01*
X120166666Y-98978628D02*
X119785714Y-98978628D01*
X120738095Y-98550057D02*
X120785714Y-98502438D01*
X120785714Y-98502438D02*
X120880952Y-98454819D01*
X120880952Y-98454819D02*
X121119047Y-98454819D01*
X121119047Y-98454819D02*
X121214285Y-98502438D01*
X121214285Y-98502438D02*
X121261904Y-98550057D01*
X121261904Y-98550057D02*
X121309523Y-98645295D01*
X121309523Y-98645295D02*
X121309523Y-98740533D01*
X121309523Y-98740533D02*
X121261904Y-98883390D01*
X121261904Y-98883390D02*
X120690476Y-99454819D01*
X120690476Y-99454819D02*
X121309523Y-99454819D01*
X122214285Y-98454819D02*
X121738095Y-98454819D01*
X121738095Y-98454819D02*
X121690476Y-98931009D01*
X121690476Y-98931009D02*
X121738095Y-98883390D01*
X121738095Y-98883390D02*
X121833333Y-98835771D01*
X121833333Y-98835771D02*
X122071428Y-98835771D01*
X122071428Y-98835771D02*
X122166666Y-98883390D01*
X122166666Y-98883390D02*
X122214285Y-98931009D01*
X122214285Y-98931009D02*
X122261904Y-99026247D01*
X122261904Y-99026247D02*
X122261904Y-99264342D01*
X122261904Y-99264342D02*
X122214285Y-99359580D01*
X122214285Y-99359580D02*
X122166666Y-99407200D01*
X122166666Y-99407200D02*
X122071428Y-99454819D01*
X122071428Y-99454819D02*
X121833333Y-99454819D01*
X121833333Y-99454819D02*
X121738095Y-99407200D01*
X121738095Y-99407200D02*
X121690476Y-99359580D01*
X63738095Y-60654819D02*
X63738095Y-59654819D01*
X63738095Y-60131009D02*
X64309523Y-60131009D01*
X64309523Y-60654819D02*
X64309523Y-59654819D01*
X65309523Y-60654819D02*
X64738095Y-60654819D01*
X65023809Y-60654819D02*
X65023809Y-59654819D01*
X65023809Y-59654819D02*
X64928571Y-59797676D01*
X64928571Y-59797676D02*
X64833333Y-59892914D01*
X64833333Y-59892914D02*
X64738095Y-59940533D01*
X64166666Y-77954819D02*
X64166666Y-78669104D01*
X64166666Y-78669104D02*
X64119047Y-78811961D01*
X64119047Y-78811961D02*
X64023809Y-78907200D01*
X64023809Y-78907200D02*
X63880952Y-78954819D01*
X63880952Y-78954819D02*
X63785714Y-78954819D01*
X64595238Y-78050057D02*
X64642857Y-78002438D01*
X64642857Y-78002438D02*
X64738095Y-77954819D01*
X64738095Y-77954819D02*
X64976190Y-77954819D01*
X64976190Y-77954819D02*
X65071428Y-78002438D01*
X65071428Y-78002438D02*
X65119047Y-78050057D01*
X65119047Y-78050057D02*
X65166666Y-78145295D01*
X65166666Y-78145295D02*
X65166666Y-78240533D01*
X65166666Y-78240533D02*
X65119047Y-78383390D01*
X65119047Y-78383390D02*
X64547619Y-78954819D01*
X64547619Y-78954819D02*
X65166666Y-78954819D01*
X100357142Y-90454819D02*
X100023809Y-89978628D01*
X99785714Y-90454819D02*
X99785714Y-89454819D01*
X99785714Y-89454819D02*
X100166666Y-89454819D01*
X100166666Y-89454819D02*
X100261904Y-89502438D01*
X100261904Y-89502438D02*
X100309523Y-89550057D01*
X100309523Y-89550057D02*
X100357142Y-89645295D01*
X100357142Y-89645295D02*
X100357142Y-89788152D01*
X100357142Y-89788152D02*
X100309523Y-89883390D01*
X100309523Y-89883390D02*
X100261904Y-89931009D01*
X100261904Y-89931009D02*
X100166666Y-89978628D01*
X100166666Y-89978628D02*
X99785714Y-89978628D01*
X101309523Y-90454819D02*
X100738095Y-90454819D01*
X101023809Y-90454819D02*
X101023809Y-89454819D01*
X101023809Y-89454819D02*
X100928571Y-89597676D01*
X100928571Y-89597676D02*
X100833333Y-89692914D01*
X100833333Y-89692914D02*
X100738095Y-89740533D01*
X102166666Y-89454819D02*
X101976190Y-89454819D01*
X101976190Y-89454819D02*
X101880952Y-89502438D01*
X101880952Y-89502438D02*
X101833333Y-89550057D01*
X101833333Y-89550057D02*
X101738095Y-89692914D01*
X101738095Y-89692914D02*
X101690476Y-89883390D01*
X101690476Y-89883390D02*
X101690476Y-90264342D01*
X101690476Y-90264342D02*
X101738095Y-90359580D01*
X101738095Y-90359580D02*
X101785714Y-90407200D01*
X101785714Y-90407200D02*
X101880952Y-90454819D01*
X101880952Y-90454819D02*
X102071428Y-90454819D01*
X102071428Y-90454819D02*
X102166666Y-90407200D01*
X102166666Y-90407200D02*
X102214285Y-90359580D01*
X102214285Y-90359580D02*
X102261904Y-90264342D01*
X102261904Y-90264342D02*
X102261904Y-90026247D01*
X102261904Y-90026247D02*
X102214285Y-89931009D01*
X102214285Y-89931009D02*
X102166666Y-89883390D01*
X102166666Y-89883390D02*
X102071428Y-89835771D01*
X102071428Y-89835771D02*
X101880952Y-89835771D01*
X101880952Y-89835771D02*
X101785714Y-89883390D01*
X101785714Y-89883390D02*
X101738095Y-89931009D01*
X101738095Y-89931009D02*
X101690476Y-90026247D01*
X89173808Y-54224819D02*
X88840475Y-53748628D01*
X88602380Y-54224819D02*
X88602380Y-53224819D01*
X88602380Y-53224819D02*
X88983332Y-53224819D01*
X88983332Y-53224819D02*
X89078570Y-53272438D01*
X89078570Y-53272438D02*
X89126189Y-53320057D01*
X89126189Y-53320057D02*
X89173808Y-53415295D01*
X89173808Y-53415295D02*
X89173808Y-53558152D01*
X89173808Y-53558152D02*
X89126189Y-53653390D01*
X89126189Y-53653390D02*
X89078570Y-53701009D01*
X89078570Y-53701009D02*
X88983332Y-53748628D01*
X88983332Y-53748628D02*
X88602380Y-53748628D01*
X90126189Y-54224819D02*
X89554761Y-54224819D01*
X89840475Y-54224819D02*
X89840475Y-53224819D01*
X89840475Y-53224819D02*
X89745237Y-53367676D01*
X89745237Y-53367676D02*
X89649999Y-53462914D01*
X89649999Y-53462914D02*
X89554761Y-53510533D01*
X90745237Y-53224819D02*
X90840475Y-53224819D01*
X90840475Y-53224819D02*
X90935713Y-53272438D01*
X90935713Y-53272438D02*
X90983332Y-53320057D01*
X90983332Y-53320057D02*
X91030951Y-53415295D01*
X91030951Y-53415295D02*
X91078570Y-53605771D01*
X91078570Y-53605771D02*
X91078570Y-53843866D01*
X91078570Y-53843866D02*
X91030951Y-54034342D01*
X91030951Y-54034342D02*
X90983332Y-54129580D01*
X90983332Y-54129580D02*
X90935713Y-54177200D01*
X90935713Y-54177200D02*
X90840475Y-54224819D01*
X90840475Y-54224819D02*
X90745237Y-54224819D01*
X90745237Y-54224819D02*
X90649999Y-54177200D01*
X90649999Y-54177200D02*
X90602380Y-54129580D01*
X90602380Y-54129580D02*
X90554761Y-54034342D01*
X90554761Y-54034342D02*
X90507142Y-53843866D01*
X90507142Y-53843866D02*
X90507142Y-53605771D01*
X90507142Y-53605771D02*
X90554761Y-53415295D01*
X90554761Y-53415295D02*
X90602380Y-53320057D01*
X90602380Y-53320057D02*
X90649999Y-53272438D01*
X90649999Y-53272438D02*
X90745237Y-53224819D01*
X120104819Y-72228094D02*
X119104819Y-72228094D01*
X120104819Y-71656666D02*
X119533390Y-72085237D01*
X119104819Y-71656666D02*
X119676247Y-72228094D01*
X119200057Y-71275713D02*
X119152438Y-71228094D01*
X119152438Y-71228094D02*
X119104819Y-71132856D01*
X119104819Y-71132856D02*
X119104819Y-70894761D01*
X119104819Y-70894761D02*
X119152438Y-70799523D01*
X119152438Y-70799523D02*
X119200057Y-70751904D01*
X119200057Y-70751904D02*
X119295295Y-70704285D01*
X119295295Y-70704285D02*
X119390533Y-70704285D01*
X119390533Y-70704285D02*
X119533390Y-70751904D01*
X119533390Y-70751904D02*
X120104819Y-71323332D01*
X120104819Y-71323332D02*
X120104819Y-70704285D01*
X137738095Y-105954819D02*
X137738095Y-106764342D01*
X137738095Y-106764342D02*
X137785714Y-106859580D01*
X137785714Y-106859580D02*
X137833333Y-106907200D01*
X137833333Y-106907200D02*
X137928571Y-106954819D01*
X137928571Y-106954819D02*
X138119047Y-106954819D01*
X138119047Y-106954819D02*
X138214285Y-106907200D01*
X138214285Y-106907200D02*
X138261904Y-106859580D01*
X138261904Y-106859580D02*
X138309523Y-106764342D01*
X138309523Y-106764342D02*
X138309523Y-105954819D01*
X138738095Y-106050057D02*
X138785714Y-106002438D01*
X138785714Y-106002438D02*
X138880952Y-105954819D01*
X138880952Y-105954819D02*
X139119047Y-105954819D01*
X139119047Y-105954819D02*
X139214285Y-106002438D01*
X139214285Y-106002438D02*
X139261904Y-106050057D01*
X139261904Y-106050057D02*
X139309523Y-106145295D01*
X139309523Y-106145295D02*
X139309523Y-106240533D01*
X139309523Y-106240533D02*
X139261904Y-106383390D01*
X139261904Y-106383390D02*
X138690476Y-106954819D01*
X138690476Y-106954819D02*
X139309523Y-106954819D01*
X146984761Y-84550057D02*
X146889523Y-84502438D01*
X146889523Y-84502438D02*
X146794285Y-84407200D01*
X146794285Y-84407200D02*
X146651428Y-84264342D01*
X146651428Y-84264342D02*
X146556190Y-84216723D01*
X146556190Y-84216723D02*
X146460952Y-84216723D01*
X146508571Y-84454819D02*
X146413333Y-84407200D01*
X146413333Y-84407200D02*
X146318095Y-84311961D01*
X146318095Y-84311961D02*
X146270476Y-84121485D01*
X146270476Y-84121485D02*
X146270476Y-83788152D01*
X146270476Y-83788152D02*
X146318095Y-83597676D01*
X146318095Y-83597676D02*
X146413333Y-83502438D01*
X146413333Y-83502438D02*
X146508571Y-83454819D01*
X146508571Y-83454819D02*
X146699047Y-83454819D01*
X146699047Y-83454819D02*
X146794285Y-83502438D01*
X146794285Y-83502438D02*
X146889523Y-83597676D01*
X146889523Y-83597676D02*
X146937142Y-83788152D01*
X146937142Y-83788152D02*
X146937142Y-84121485D01*
X146937142Y-84121485D02*
X146889523Y-84311961D01*
X146889523Y-84311961D02*
X146794285Y-84407200D01*
X146794285Y-84407200D02*
X146699047Y-84454819D01*
X146699047Y-84454819D02*
X146508571Y-84454819D01*
X147270476Y-83454819D02*
X147889523Y-83454819D01*
X147889523Y-83454819D02*
X147556190Y-83835771D01*
X147556190Y-83835771D02*
X147699047Y-83835771D01*
X147699047Y-83835771D02*
X147794285Y-83883390D01*
X147794285Y-83883390D02*
X147841904Y-83931009D01*
X147841904Y-83931009D02*
X147889523Y-84026247D01*
X147889523Y-84026247D02*
X147889523Y-84264342D01*
X147889523Y-84264342D02*
X147841904Y-84359580D01*
X147841904Y-84359580D02*
X147794285Y-84407200D01*
X147794285Y-84407200D02*
X147699047Y-84454819D01*
X147699047Y-84454819D02*
X147413333Y-84454819D01*
X147413333Y-84454819D02*
X147318095Y-84407200D01*
X147318095Y-84407200D02*
X147270476Y-84359580D01*
X131437142Y-90454819D02*
X131103809Y-89978628D01*
X130865714Y-90454819D02*
X130865714Y-89454819D01*
X130865714Y-89454819D02*
X131246666Y-89454819D01*
X131246666Y-89454819D02*
X131341904Y-89502438D01*
X131341904Y-89502438D02*
X131389523Y-89550057D01*
X131389523Y-89550057D02*
X131437142Y-89645295D01*
X131437142Y-89645295D02*
X131437142Y-89788152D01*
X131437142Y-89788152D02*
X131389523Y-89883390D01*
X131389523Y-89883390D02*
X131341904Y-89931009D01*
X131341904Y-89931009D02*
X131246666Y-89978628D01*
X131246666Y-89978628D02*
X130865714Y-89978628D01*
X132389523Y-90454819D02*
X131818095Y-90454819D01*
X132103809Y-90454819D02*
X132103809Y-89454819D01*
X132103809Y-89454819D02*
X132008571Y-89597676D01*
X132008571Y-89597676D02*
X131913333Y-89692914D01*
X131913333Y-89692914D02*
X131818095Y-89740533D01*
X132722857Y-89454819D02*
X133341904Y-89454819D01*
X133341904Y-89454819D02*
X133008571Y-89835771D01*
X133008571Y-89835771D02*
X133151428Y-89835771D01*
X133151428Y-89835771D02*
X133246666Y-89883390D01*
X133246666Y-89883390D02*
X133294285Y-89931009D01*
X133294285Y-89931009D02*
X133341904Y-90026247D01*
X133341904Y-90026247D02*
X133341904Y-90264342D01*
X133341904Y-90264342D02*
X133294285Y-90359580D01*
X133294285Y-90359580D02*
X133246666Y-90407200D01*
X133246666Y-90407200D02*
X133151428Y-90454819D01*
X133151428Y-90454819D02*
X132865714Y-90454819D01*
X132865714Y-90454819D02*
X132770476Y-90407200D01*
X132770476Y-90407200D02*
X132722857Y-90359580D01*
X131954819Y-97642857D02*
X131478628Y-97976190D01*
X131954819Y-98214285D02*
X130954819Y-98214285D01*
X130954819Y-98214285D02*
X130954819Y-97833333D01*
X130954819Y-97833333D02*
X131002438Y-97738095D01*
X131002438Y-97738095D02*
X131050057Y-97690476D01*
X131050057Y-97690476D02*
X131145295Y-97642857D01*
X131145295Y-97642857D02*
X131288152Y-97642857D01*
X131288152Y-97642857D02*
X131383390Y-97690476D01*
X131383390Y-97690476D02*
X131431009Y-97738095D01*
X131431009Y-97738095D02*
X131478628Y-97833333D01*
X131478628Y-97833333D02*
X131478628Y-98214285D01*
X131050057Y-97261904D02*
X131002438Y-97214285D01*
X131002438Y-97214285D02*
X130954819Y-97119047D01*
X130954819Y-97119047D02*
X130954819Y-96880952D01*
X130954819Y-96880952D02*
X131002438Y-96785714D01*
X131002438Y-96785714D02*
X131050057Y-96738095D01*
X131050057Y-96738095D02*
X131145295Y-96690476D01*
X131145295Y-96690476D02*
X131240533Y-96690476D01*
X131240533Y-96690476D02*
X131383390Y-96738095D01*
X131383390Y-96738095D02*
X131954819Y-97309523D01*
X131954819Y-97309523D02*
X131954819Y-96690476D01*
X130954819Y-95833333D02*
X130954819Y-96023809D01*
X130954819Y-96023809D02*
X131002438Y-96119047D01*
X131002438Y-96119047D02*
X131050057Y-96166666D01*
X131050057Y-96166666D02*
X131192914Y-96261904D01*
X131192914Y-96261904D02*
X131383390Y-96309523D01*
X131383390Y-96309523D02*
X131764342Y-96309523D01*
X131764342Y-96309523D02*
X131859580Y-96261904D01*
X131859580Y-96261904D02*
X131907200Y-96214285D01*
X131907200Y-96214285D02*
X131954819Y-96119047D01*
X131954819Y-96119047D02*
X131954819Y-95928571D01*
X131954819Y-95928571D02*
X131907200Y-95833333D01*
X131907200Y-95833333D02*
X131859580Y-95785714D01*
X131859580Y-95785714D02*
X131764342Y-95738095D01*
X131764342Y-95738095D02*
X131526247Y-95738095D01*
X131526247Y-95738095D02*
X131431009Y-95785714D01*
X131431009Y-95785714D02*
X131383390Y-95833333D01*
X131383390Y-95833333D02*
X131335771Y-95928571D01*
X131335771Y-95928571D02*
X131335771Y-96119047D01*
X131335771Y-96119047D02*
X131383390Y-96214285D01*
X131383390Y-96214285D02*
X131431009Y-96261904D01*
X131431009Y-96261904D02*
X131526247Y-96309523D01*
X100183333Y-66454819D02*
X99850000Y-65978628D01*
X99611905Y-66454819D02*
X99611905Y-65454819D01*
X99611905Y-65454819D02*
X99992857Y-65454819D01*
X99992857Y-65454819D02*
X100088095Y-65502438D01*
X100088095Y-65502438D02*
X100135714Y-65550057D01*
X100135714Y-65550057D02*
X100183333Y-65645295D01*
X100183333Y-65645295D02*
X100183333Y-65788152D01*
X100183333Y-65788152D02*
X100135714Y-65883390D01*
X100135714Y-65883390D02*
X100088095Y-65931009D01*
X100088095Y-65931009D02*
X99992857Y-65978628D01*
X99992857Y-65978628D02*
X99611905Y-65978628D01*
X100516667Y-65454819D02*
X101135714Y-65454819D01*
X101135714Y-65454819D02*
X100802381Y-65835771D01*
X100802381Y-65835771D02*
X100945238Y-65835771D01*
X100945238Y-65835771D02*
X101040476Y-65883390D01*
X101040476Y-65883390D02*
X101088095Y-65931009D01*
X101088095Y-65931009D02*
X101135714Y-66026247D01*
X101135714Y-66026247D02*
X101135714Y-66264342D01*
X101135714Y-66264342D02*
X101088095Y-66359580D01*
X101088095Y-66359580D02*
X101040476Y-66407200D01*
X101040476Y-66407200D02*
X100945238Y-66454819D01*
X100945238Y-66454819D02*
X100659524Y-66454819D01*
X100659524Y-66454819D02*
X100564286Y-66407200D01*
X100564286Y-66407200D02*
X100516667Y-66359580D01*
X147738095Y-98154819D02*
X147738095Y-97154819D01*
X147738095Y-97631009D02*
X148309523Y-97631009D01*
X148309523Y-98154819D02*
X148309523Y-97154819D01*
X148738095Y-97250057D02*
X148785714Y-97202438D01*
X148785714Y-97202438D02*
X148880952Y-97154819D01*
X148880952Y-97154819D02*
X149119047Y-97154819D01*
X149119047Y-97154819D02*
X149214285Y-97202438D01*
X149214285Y-97202438D02*
X149261904Y-97250057D01*
X149261904Y-97250057D02*
X149309523Y-97345295D01*
X149309523Y-97345295D02*
X149309523Y-97440533D01*
X149309523Y-97440533D02*
X149261904Y-97583390D01*
X149261904Y-97583390D02*
X148690476Y-98154819D01*
X148690476Y-98154819D02*
X149309523Y-98154819D01*
X107261905Y-83454819D02*
X107261905Y-82454819D01*
X107261905Y-82454819D02*
X107500000Y-82454819D01*
X107500000Y-82454819D02*
X107642857Y-82502438D01*
X107642857Y-82502438D02*
X107738095Y-82597676D01*
X107738095Y-82597676D02*
X107785714Y-82692914D01*
X107785714Y-82692914D02*
X107833333Y-82883390D01*
X107833333Y-82883390D02*
X107833333Y-83026247D01*
X107833333Y-83026247D02*
X107785714Y-83216723D01*
X107785714Y-83216723D02*
X107738095Y-83311961D01*
X107738095Y-83311961D02*
X107642857Y-83407200D01*
X107642857Y-83407200D02*
X107500000Y-83454819D01*
X107500000Y-83454819D02*
X107261905Y-83454819D01*
X108214286Y-82550057D02*
X108261905Y-82502438D01*
X108261905Y-82502438D02*
X108357143Y-82454819D01*
X108357143Y-82454819D02*
X108595238Y-82454819D01*
X108595238Y-82454819D02*
X108690476Y-82502438D01*
X108690476Y-82502438D02*
X108738095Y-82550057D01*
X108738095Y-82550057D02*
X108785714Y-82645295D01*
X108785714Y-82645295D02*
X108785714Y-82740533D01*
X108785714Y-82740533D02*
X108738095Y-82883390D01*
X108738095Y-82883390D02*
X108166667Y-83454819D01*
X108166667Y-83454819D02*
X108785714Y-83454819D01*
X96597142Y-84894819D02*
X96263809Y-84418628D01*
X96025714Y-84894819D02*
X96025714Y-83894819D01*
X96025714Y-83894819D02*
X96406666Y-83894819D01*
X96406666Y-83894819D02*
X96501904Y-83942438D01*
X96501904Y-83942438D02*
X96549523Y-83990057D01*
X96549523Y-83990057D02*
X96597142Y-84085295D01*
X96597142Y-84085295D02*
X96597142Y-84228152D01*
X96597142Y-84228152D02*
X96549523Y-84323390D01*
X96549523Y-84323390D02*
X96501904Y-84371009D01*
X96501904Y-84371009D02*
X96406666Y-84418628D01*
X96406666Y-84418628D02*
X96025714Y-84418628D01*
X97549523Y-84894819D02*
X96978095Y-84894819D01*
X97263809Y-84894819D02*
X97263809Y-83894819D01*
X97263809Y-83894819D02*
X97168571Y-84037676D01*
X97168571Y-84037676D02*
X97073333Y-84132914D01*
X97073333Y-84132914D02*
X96978095Y-84180533D01*
X98454285Y-83894819D02*
X97978095Y-83894819D01*
X97978095Y-83894819D02*
X97930476Y-84371009D01*
X97930476Y-84371009D02*
X97978095Y-84323390D01*
X97978095Y-84323390D02*
X98073333Y-84275771D01*
X98073333Y-84275771D02*
X98311428Y-84275771D01*
X98311428Y-84275771D02*
X98406666Y-84323390D01*
X98406666Y-84323390D02*
X98454285Y-84371009D01*
X98454285Y-84371009D02*
X98501904Y-84466247D01*
X98501904Y-84466247D02*
X98501904Y-84704342D01*
X98501904Y-84704342D02*
X98454285Y-84799580D01*
X98454285Y-84799580D02*
X98406666Y-84847200D01*
X98406666Y-84847200D02*
X98311428Y-84894819D01*
X98311428Y-84894819D02*
X98073333Y-84894819D01*
X98073333Y-84894819D02*
X97978095Y-84847200D01*
X97978095Y-84847200D02*
X97930476Y-84799580D01*
X86858333Y-81859580D02*
X86810714Y-81907200D01*
X86810714Y-81907200D02*
X86667857Y-81954819D01*
X86667857Y-81954819D02*
X86572619Y-81954819D01*
X86572619Y-81954819D02*
X86429762Y-81907200D01*
X86429762Y-81907200D02*
X86334524Y-81811961D01*
X86334524Y-81811961D02*
X86286905Y-81716723D01*
X86286905Y-81716723D02*
X86239286Y-81526247D01*
X86239286Y-81526247D02*
X86239286Y-81383390D01*
X86239286Y-81383390D02*
X86286905Y-81192914D01*
X86286905Y-81192914D02*
X86334524Y-81097676D01*
X86334524Y-81097676D02*
X86429762Y-81002438D01*
X86429762Y-81002438D02*
X86572619Y-80954819D01*
X86572619Y-80954819D02*
X86667857Y-80954819D01*
X86667857Y-80954819D02*
X86810714Y-81002438D01*
X86810714Y-81002438D02*
X86858333Y-81050057D01*
X87191667Y-80954819D02*
X87810714Y-80954819D01*
X87810714Y-80954819D02*
X87477381Y-81335771D01*
X87477381Y-81335771D02*
X87620238Y-81335771D01*
X87620238Y-81335771D02*
X87715476Y-81383390D01*
X87715476Y-81383390D02*
X87763095Y-81431009D01*
X87763095Y-81431009D02*
X87810714Y-81526247D01*
X87810714Y-81526247D02*
X87810714Y-81764342D01*
X87810714Y-81764342D02*
X87763095Y-81859580D01*
X87763095Y-81859580D02*
X87715476Y-81907200D01*
X87715476Y-81907200D02*
X87620238Y-81954819D01*
X87620238Y-81954819D02*
X87334524Y-81954819D01*
X87334524Y-81954819D02*
X87239286Y-81907200D01*
X87239286Y-81907200D02*
X87191667Y-81859580D01*
X107904761Y-90050057D02*
X107809523Y-90002438D01*
X107809523Y-90002438D02*
X107714285Y-89907200D01*
X107714285Y-89907200D02*
X107571428Y-89764342D01*
X107571428Y-89764342D02*
X107476190Y-89716723D01*
X107476190Y-89716723D02*
X107380952Y-89716723D01*
X107428571Y-89954819D02*
X107333333Y-89907200D01*
X107333333Y-89907200D02*
X107238095Y-89811961D01*
X107238095Y-89811961D02*
X107190476Y-89621485D01*
X107190476Y-89621485D02*
X107190476Y-89288152D01*
X107190476Y-89288152D02*
X107238095Y-89097676D01*
X107238095Y-89097676D02*
X107333333Y-89002438D01*
X107333333Y-89002438D02*
X107428571Y-88954819D01*
X107428571Y-88954819D02*
X107619047Y-88954819D01*
X107619047Y-88954819D02*
X107714285Y-89002438D01*
X107714285Y-89002438D02*
X107809523Y-89097676D01*
X107809523Y-89097676D02*
X107857142Y-89288152D01*
X107857142Y-89288152D02*
X107857142Y-89621485D01*
X107857142Y-89621485D02*
X107809523Y-89811961D01*
X107809523Y-89811961D02*
X107714285Y-89907200D01*
X107714285Y-89907200D02*
X107619047Y-89954819D01*
X107619047Y-89954819D02*
X107428571Y-89954819D01*
X108238095Y-89050057D02*
X108285714Y-89002438D01*
X108285714Y-89002438D02*
X108380952Y-88954819D01*
X108380952Y-88954819D02*
X108619047Y-88954819D01*
X108619047Y-88954819D02*
X108714285Y-89002438D01*
X108714285Y-89002438D02*
X108761904Y-89050057D01*
X108761904Y-89050057D02*
X108809523Y-89145295D01*
X108809523Y-89145295D02*
X108809523Y-89240533D01*
X108809523Y-89240533D02*
X108761904Y-89383390D01*
X108761904Y-89383390D02*
X108190476Y-89954819D01*
X108190476Y-89954819D02*
X108809523Y-89954819D01*
X127984761Y-84550057D02*
X127889523Y-84502438D01*
X127889523Y-84502438D02*
X127794285Y-84407200D01*
X127794285Y-84407200D02*
X127651428Y-84264342D01*
X127651428Y-84264342D02*
X127556190Y-84216723D01*
X127556190Y-84216723D02*
X127460952Y-84216723D01*
X127508571Y-84454819D02*
X127413333Y-84407200D01*
X127413333Y-84407200D02*
X127318095Y-84311961D01*
X127318095Y-84311961D02*
X127270476Y-84121485D01*
X127270476Y-84121485D02*
X127270476Y-83788152D01*
X127270476Y-83788152D02*
X127318095Y-83597676D01*
X127318095Y-83597676D02*
X127413333Y-83502438D01*
X127413333Y-83502438D02*
X127508571Y-83454819D01*
X127508571Y-83454819D02*
X127699047Y-83454819D01*
X127699047Y-83454819D02*
X127794285Y-83502438D01*
X127794285Y-83502438D02*
X127889523Y-83597676D01*
X127889523Y-83597676D02*
X127937142Y-83788152D01*
X127937142Y-83788152D02*
X127937142Y-84121485D01*
X127937142Y-84121485D02*
X127889523Y-84311961D01*
X127889523Y-84311961D02*
X127794285Y-84407200D01*
X127794285Y-84407200D02*
X127699047Y-84454819D01*
X127699047Y-84454819D02*
X127508571Y-84454819D01*
X128889523Y-84454819D02*
X128318095Y-84454819D01*
X128603809Y-84454819D02*
X128603809Y-83454819D01*
X128603809Y-83454819D02*
X128508571Y-83597676D01*
X128508571Y-83597676D02*
X128413333Y-83692914D01*
X128413333Y-83692914D02*
X128318095Y-83740533D01*
X71333333Y-80109580D02*
X71285714Y-80157200D01*
X71285714Y-80157200D02*
X71142857Y-80204819D01*
X71142857Y-80204819D02*
X71047619Y-80204819D01*
X71047619Y-80204819D02*
X70904762Y-80157200D01*
X70904762Y-80157200D02*
X70809524Y-80061961D01*
X70809524Y-80061961D02*
X70761905Y-79966723D01*
X70761905Y-79966723D02*
X70714286Y-79776247D01*
X70714286Y-79776247D02*
X70714286Y-79633390D01*
X70714286Y-79633390D02*
X70761905Y-79442914D01*
X70761905Y-79442914D02*
X70809524Y-79347676D01*
X70809524Y-79347676D02*
X70904762Y-79252438D01*
X70904762Y-79252438D02*
X71047619Y-79204819D01*
X71047619Y-79204819D02*
X71142857Y-79204819D01*
X71142857Y-79204819D02*
X71285714Y-79252438D01*
X71285714Y-79252438D02*
X71333333Y-79300057D01*
X72190476Y-79538152D02*
X72190476Y-80204819D01*
X71952381Y-79157200D02*
X71714286Y-79871485D01*
X71714286Y-79871485D02*
X72333333Y-79871485D01*
X79193154Y-54194819D02*
X78859821Y-53718628D01*
X78621726Y-54194819D02*
X78621726Y-53194819D01*
X78621726Y-53194819D02*
X79002678Y-53194819D01*
X79002678Y-53194819D02*
X79097916Y-53242438D01*
X79097916Y-53242438D02*
X79145535Y-53290057D01*
X79145535Y-53290057D02*
X79193154Y-53385295D01*
X79193154Y-53385295D02*
X79193154Y-53528152D01*
X79193154Y-53528152D02*
X79145535Y-53623390D01*
X79145535Y-53623390D02*
X79097916Y-53671009D01*
X79097916Y-53671009D02*
X79002678Y-53718628D01*
X79002678Y-53718628D02*
X78621726Y-53718628D01*
X79764583Y-53623390D02*
X79669345Y-53575771D01*
X79669345Y-53575771D02*
X79621726Y-53528152D01*
X79621726Y-53528152D02*
X79574107Y-53432914D01*
X79574107Y-53432914D02*
X79574107Y-53385295D01*
X79574107Y-53385295D02*
X79621726Y-53290057D01*
X79621726Y-53290057D02*
X79669345Y-53242438D01*
X79669345Y-53242438D02*
X79764583Y-53194819D01*
X79764583Y-53194819D02*
X79955059Y-53194819D01*
X79955059Y-53194819D02*
X80050297Y-53242438D01*
X80050297Y-53242438D02*
X80097916Y-53290057D01*
X80097916Y-53290057D02*
X80145535Y-53385295D01*
X80145535Y-53385295D02*
X80145535Y-53432914D01*
X80145535Y-53432914D02*
X80097916Y-53528152D01*
X80097916Y-53528152D02*
X80050297Y-53575771D01*
X80050297Y-53575771D02*
X79955059Y-53623390D01*
X79955059Y-53623390D02*
X79764583Y-53623390D01*
X79764583Y-53623390D02*
X79669345Y-53671009D01*
X79669345Y-53671009D02*
X79621726Y-53718628D01*
X79621726Y-53718628D02*
X79574107Y-53813866D01*
X79574107Y-53813866D02*
X79574107Y-54004342D01*
X79574107Y-54004342D02*
X79621726Y-54099580D01*
X79621726Y-54099580D02*
X79669345Y-54147200D01*
X79669345Y-54147200D02*
X79764583Y-54194819D01*
X79764583Y-54194819D02*
X79955059Y-54194819D01*
X79955059Y-54194819D02*
X80050297Y-54147200D01*
X80050297Y-54147200D02*
X80097916Y-54099580D01*
X80097916Y-54099580D02*
X80145535Y-54004342D01*
X80145535Y-54004342D02*
X80145535Y-53813866D01*
X80145535Y-53813866D02*
X80097916Y-53718628D01*
X80097916Y-53718628D02*
X80050297Y-53671009D01*
X80050297Y-53671009D02*
X79955059Y-53623390D01*
X89857142Y-81954819D02*
X89523809Y-81478628D01*
X89285714Y-81954819D02*
X89285714Y-80954819D01*
X89285714Y-80954819D02*
X89666666Y-80954819D01*
X89666666Y-80954819D02*
X89761904Y-81002438D01*
X89761904Y-81002438D02*
X89809523Y-81050057D01*
X89809523Y-81050057D02*
X89857142Y-81145295D01*
X89857142Y-81145295D02*
X89857142Y-81288152D01*
X89857142Y-81288152D02*
X89809523Y-81383390D01*
X89809523Y-81383390D02*
X89761904Y-81431009D01*
X89761904Y-81431009D02*
X89666666Y-81478628D01*
X89666666Y-81478628D02*
X89285714Y-81478628D01*
X90809523Y-81954819D02*
X90238095Y-81954819D01*
X90523809Y-81954819D02*
X90523809Y-80954819D01*
X90523809Y-80954819D02*
X90428571Y-81097676D01*
X90428571Y-81097676D02*
X90333333Y-81192914D01*
X90333333Y-81192914D02*
X90238095Y-81240533D01*
X91380952Y-81383390D02*
X91285714Y-81335771D01*
X91285714Y-81335771D02*
X91238095Y-81288152D01*
X91238095Y-81288152D02*
X91190476Y-81192914D01*
X91190476Y-81192914D02*
X91190476Y-81145295D01*
X91190476Y-81145295D02*
X91238095Y-81050057D01*
X91238095Y-81050057D02*
X91285714Y-81002438D01*
X91285714Y-81002438D02*
X91380952Y-80954819D01*
X91380952Y-80954819D02*
X91571428Y-80954819D01*
X91571428Y-80954819D02*
X91666666Y-81002438D01*
X91666666Y-81002438D02*
X91714285Y-81050057D01*
X91714285Y-81050057D02*
X91761904Y-81145295D01*
X91761904Y-81145295D02*
X91761904Y-81192914D01*
X91761904Y-81192914D02*
X91714285Y-81288152D01*
X91714285Y-81288152D02*
X91666666Y-81335771D01*
X91666666Y-81335771D02*
X91571428Y-81383390D01*
X91571428Y-81383390D02*
X91380952Y-81383390D01*
X91380952Y-81383390D02*
X91285714Y-81431009D01*
X91285714Y-81431009D02*
X91238095Y-81478628D01*
X91238095Y-81478628D02*
X91190476Y-81573866D01*
X91190476Y-81573866D02*
X91190476Y-81764342D01*
X91190476Y-81764342D02*
X91238095Y-81859580D01*
X91238095Y-81859580D02*
X91285714Y-81907200D01*
X91285714Y-81907200D02*
X91380952Y-81954819D01*
X91380952Y-81954819D02*
X91571428Y-81954819D01*
X91571428Y-81954819D02*
X91666666Y-81907200D01*
X91666666Y-81907200D02*
X91714285Y-81859580D01*
X91714285Y-81859580D02*
X91761904Y-81764342D01*
X91761904Y-81764342D02*
X91761904Y-81573866D01*
X91761904Y-81573866D02*
X91714285Y-81478628D01*
X91714285Y-81478628D02*
X91666666Y-81431009D01*
X91666666Y-81431009D02*
X91571428Y-81383390D01*
X115049819Y-101642857D02*
X114573628Y-101976190D01*
X115049819Y-102214285D02*
X114049819Y-102214285D01*
X114049819Y-102214285D02*
X114049819Y-101833333D01*
X114049819Y-101833333D02*
X114097438Y-101738095D01*
X114097438Y-101738095D02*
X114145057Y-101690476D01*
X114145057Y-101690476D02*
X114240295Y-101642857D01*
X114240295Y-101642857D02*
X114383152Y-101642857D01*
X114383152Y-101642857D02*
X114478390Y-101690476D01*
X114478390Y-101690476D02*
X114526009Y-101738095D01*
X114526009Y-101738095D02*
X114573628Y-101833333D01*
X114573628Y-101833333D02*
X114573628Y-102214285D01*
X114145057Y-101261904D02*
X114097438Y-101214285D01*
X114097438Y-101214285D02*
X114049819Y-101119047D01*
X114049819Y-101119047D02*
X114049819Y-100880952D01*
X114049819Y-100880952D02*
X114097438Y-100785714D01*
X114097438Y-100785714D02*
X114145057Y-100738095D01*
X114145057Y-100738095D02*
X114240295Y-100690476D01*
X114240295Y-100690476D02*
X114335533Y-100690476D01*
X114335533Y-100690476D02*
X114478390Y-100738095D01*
X114478390Y-100738095D02*
X115049819Y-101309523D01*
X115049819Y-101309523D02*
X115049819Y-100690476D01*
X115049819Y-99738095D02*
X115049819Y-100309523D01*
X115049819Y-100023809D02*
X114049819Y-100023809D01*
X114049819Y-100023809D02*
X114192676Y-100119047D01*
X114192676Y-100119047D02*
X114287914Y-100214285D01*
X114287914Y-100214285D02*
X114335533Y-100309523D01*
X142666666Y-81454819D02*
X142666666Y-82169104D01*
X142666666Y-82169104D02*
X142619047Y-82311961D01*
X142619047Y-82311961D02*
X142523809Y-82407200D01*
X142523809Y-82407200D02*
X142380952Y-82454819D01*
X142380952Y-82454819D02*
X142285714Y-82454819D01*
X143666666Y-82454819D02*
X143095238Y-82454819D01*
X143380952Y-82454819D02*
X143380952Y-81454819D01*
X143380952Y-81454819D02*
X143285714Y-81597676D01*
X143285714Y-81597676D02*
X143190476Y-81692914D01*
X143190476Y-81692914D02*
X143095238Y-81740533D01*
X93417142Y-81954819D02*
X93083809Y-81478628D01*
X92845714Y-81954819D02*
X92845714Y-80954819D01*
X92845714Y-80954819D02*
X93226666Y-80954819D01*
X93226666Y-80954819D02*
X93321904Y-81002438D01*
X93321904Y-81002438D02*
X93369523Y-81050057D01*
X93369523Y-81050057D02*
X93417142Y-81145295D01*
X93417142Y-81145295D02*
X93417142Y-81288152D01*
X93417142Y-81288152D02*
X93369523Y-81383390D01*
X93369523Y-81383390D02*
X93321904Y-81431009D01*
X93321904Y-81431009D02*
X93226666Y-81478628D01*
X93226666Y-81478628D02*
X92845714Y-81478628D01*
X94369523Y-81954819D02*
X93798095Y-81954819D01*
X94083809Y-81954819D02*
X94083809Y-80954819D01*
X94083809Y-80954819D02*
X93988571Y-81097676D01*
X93988571Y-81097676D02*
X93893333Y-81192914D01*
X93893333Y-81192914D02*
X93798095Y-81240533D01*
X94845714Y-81954819D02*
X95036190Y-81954819D01*
X95036190Y-81954819D02*
X95131428Y-81907200D01*
X95131428Y-81907200D02*
X95179047Y-81859580D01*
X95179047Y-81859580D02*
X95274285Y-81716723D01*
X95274285Y-81716723D02*
X95321904Y-81526247D01*
X95321904Y-81526247D02*
X95321904Y-81145295D01*
X95321904Y-81145295D02*
X95274285Y-81050057D01*
X95274285Y-81050057D02*
X95226666Y-81002438D01*
X95226666Y-81002438D02*
X95131428Y-80954819D01*
X95131428Y-80954819D02*
X94940952Y-80954819D01*
X94940952Y-80954819D02*
X94845714Y-81002438D01*
X94845714Y-81002438D02*
X94798095Y-81050057D01*
X94798095Y-81050057D02*
X94750476Y-81145295D01*
X94750476Y-81145295D02*
X94750476Y-81383390D01*
X94750476Y-81383390D02*
X94798095Y-81478628D01*
X94798095Y-81478628D02*
X94845714Y-81526247D01*
X94845714Y-81526247D02*
X94940952Y-81573866D01*
X94940952Y-81573866D02*
X95131428Y-81573866D01*
X95131428Y-81573866D02*
X95226666Y-81526247D01*
X95226666Y-81526247D02*
X95274285Y-81478628D01*
X95274285Y-81478628D02*
X95321904Y-81383390D01*
X72333333Y-54194819D02*
X72000000Y-53718628D01*
X71761905Y-54194819D02*
X71761905Y-53194819D01*
X71761905Y-53194819D02*
X72142857Y-53194819D01*
X72142857Y-53194819D02*
X72238095Y-53242438D01*
X72238095Y-53242438D02*
X72285714Y-53290057D01*
X72285714Y-53290057D02*
X72333333Y-53385295D01*
X72333333Y-53385295D02*
X72333333Y-53528152D01*
X72333333Y-53528152D02*
X72285714Y-53623390D01*
X72285714Y-53623390D02*
X72238095Y-53671009D01*
X72238095Y-53671009D02*
X72142857Y-53718628D01*
X72142857Y-53718628D02*
X71761905Y-53718628D01*
X73190476Y-53194819D02*
X73000000Y-53194819D01*
X73000000Y-53194819D02*
X72904762Y-53242438D01*
X72904762Y-53242438D02*
X72857143Y-53290057D01*
X72857143Y-53290057D02*
X72761905Y-53432914D01*
X72761905Y-53432914D02*
X72714286Y-53623390D01*
X72714286Y-53623390D02*
X72714286Y-54004342D01*
X72714286Y-54004342D02*
X72761905Y-54099580D01*
X72761905Y-54099580D02*
X72809524Y-54147200D01*
X72809524Y-54147200D02*
X72904762Y-54194819D01*
X72904762Y-54194819D02*
X73095238Y-54194819D01*
X73095238Y-54194819D02*
X73190476Y-54147200D01*
X73190476Y-54147200D02*
X73238095Y-54099580D01*
X73238095Y-54099580D02*
X73285714Y-54004342D01*
X73285714Y-54004342D02*
X73285714Y-53766247D01*
X73285714Y-53766247D02*
X73238095Y-53671009D01*
X73238095Y-53671009D02*
X73190476Y-53623390D01*
X73190476Y-53623390D02*
X73095238Y-53575771D01*
X73095238Y-53575771D02*
X72904762Y-53575771D01*
X72904762Y-53575771D02*
X72809524Y-53623390D01*
X72809524Y-53623390D02*
X72761905Y-53671009D01*
X72761905Y-53671009D02*
X72714286Y-53766247D01*
X82623065Y-54194819D02*
X82289732Y-53718628D01*
X82051637Y-54194819D02*
X82051637Y-53194819D01*
X82051637Y-53194819D02*
X82432589Y-53194819D01*
X82432589Y-53194819D02*
X82527827Y-53242438D01*
X82527827Y-53242438D02*
X82575446Y-53290057D01*
X82575446Y-53290057D02*
X82623065Y-53385295D01*
X82623065Y-53385295D02*
X82623065Y-53528152D01*
X82623065Y-53528152D02*
X82575446Y-53623390D01*
X82575446Y-53623390D02*
X82527827Y-53671009D01*
X82527827Y-53671009D02*
X82432589Y-53718628D01*
X82432589Y-53718628D02*
X82051637Y-53718628D01*
X83099256Y-54194819D02*
X83289732Y-54194819D01*
X83289732Y-54194819D02*
X83384970Y-54147200D01*
X83384970Y-54147200D02*
X83432589Y-54099580D01*
X83432589Y-54099580D02*
X83527827Y-53956723D01*
X83527827Y-53956723D02*
X83575446Y-53766247D01*
X83575446Y-53766247D02*
X83575446Y-53385295D01*
X83575446Y-53385295D02*
X83527827Y-53290057D01*
X83527827Y-53290057D02*
X83480208Y-53242438D01*
X83480208Y-53242438D02*
X83384970Y-53194819D01*
X83384970Y-53194819D02*
X83194494Y-53194819D01*
X83194494Y-53194819D02*
X83099256Y-53242438D01*
X83099256Y-53242438D02*
X83051637Y-53290057D01*
X83051637Y-53290057D02*
X83004018Y-53385295D01*
X83004018Y-53385295D02*
X83004018Y-53623390D01*
X83004018Y-53623390D02*
X83051637Y-53718628D01*
X83051637Y-53718628D02*
X83099256Y-53766247D01*
X83099256Y-53766247D02*
X83194494Y-53813866D01*
X83194494Y-53813866D02*
X83384970Y-53813866D01*
X83384970Y-53813866D02*
X83480208Y-53766247D01*
X83480208Y-53766247D02*
X83527827Y-53718628D01*
X83527827Y-53718628D02*
X83575446Y-53623390D01*
X80499761Y-73149819D02*
X80499761Y-73959342D01*
X80499761Y-73959342D02*
X80547380Y-74054580D01*
X80547380Y-74054580D02*
X80594999Y-74102200D01*
X80594999Y-74102200D02*
X80690237Y-74149819D01*
X80690237Y-74149819D02*
X80880713Y-74149819D01*
X80880713Y-74149819D02*
X80975951Y-74102200D01*
X80975951Y-74102200D02*
X81023570Y-74054580D01*
X81023570Y-74054580D02*
X81071189Y-73959342D01*
X81071189Y-73959342D02*
X81071189Y-73149819D01*
X82071189Y-74149819D02*
X81499761Y-74149819D01*
X81785475Y-74149819D02*
X81785475Y-73149819D01*
X81785475Y-73149819D02*
X81690237Y-73292676D01*
X81690237Y-73292676D02*
X81594999Y-73387914D01*
X81594999Y-73387914D02*
X81499761Y-73435533D01*
X75763244Y-54099580D02*
X75715625Y-54147200D01*
X75715625Y-54147200D02*
X75572768Y-54194819D01*
X75572768Y-54194819D02*
X75477530Y-54194819D01*
X75477530Y-54194819D02*
X75334673Y-54147200D01*
X75334673Y-54147200D02*
X75239435Y-54051961D01*
X75239435Y-54051961D02*
X75191816Y-53956723D01*
X75191816Y-53956723D02*
X75144197Y-53766247D01*
X75144197Y-53766247D02*
X75144197Y-53623390D01*
X75144197Y-53623390D02*
X75191816Y-53432914D01*
X75191816Y-53432914D02*
X75239435Y-53337676D01*
X75239435Y-53337676D02*
X75334673Y-53242438D01*
X75334673Y-53242438D02*
X75477530Y-53194819D01*
X75477530Y-53194819D02*
X75572768Y-53194819D01*
X75572768Y-53194819D02*
X75715625Y-53242438D01*
X75715625Y-53242438D02*
X75763244Y-53290057D01*
X76144197Y-53290057D02*
X76191816Y-53242438D01*
X76191816Y-53242438D02*
X76287054Y-53194819D01*
X76287054Y-53194819D02*
X76525149Y-53194819D01*
X76525149Y-53194819D02*
X76620387Y-53242438D01*
X76620387Y-53242438D02*
X76668006Y-53290057D01*
X76668006Y-53290057D02*
X76715625Y-53385295D01*
X76715625Y-53385295D02*
X76715625Y-53480533D01*
X76715625Y-53480533D02*
X76668006Y-53623390D01*
X76668006Y-53623390D02*
X76096578Y-54194819D01*
X76096578Y-54194819D02*
X76715625Y-54194819D01*
X82798808Y-80184819D02*
X82465475Y-79708628D01*
X82227380Y-80184819D02*
X82227380Y-79184819D01*
X82227380Y-79184819D02*
X82608332Y-79184819D01*
X82608332Y-79184819D02*
X82703570Y-79232438D01*
X82703570Y-79232438D02*
X82751189Y-79280057D01*
X82751189Y-79280057D02*
X82798808Y-79375295D01*
X82798808Y-79375295D02*
X82798808Y-79518152D01*
X82798808Y-79518152D02*
X82751189Y-79613390D01*
X82751189Y-79613390D02*
X82703570Y-79661009D01*
X82703570Y-79661009D02*
X82608332Y-79708628D01*
X82608332Y-79708628D02*
X82227380Y-79708628D01*
X83751189Y-80184819D02*
X83179761Y-80184819D01*
X83465475Y-80184819D02*
X83465475Y-79184819D01*
X83465475Y-79184819D02*
X83370237Y-79327676D01*
X83370237Y-79327676D02*
X83274999Y-79422914D01*
X83274999Y-79422914D02*
X83179761Y-79470533D01*
X84703570Y-80184819D02*
X84132142Y-80184819D01*
X84417856Y-80184819D02*
X84417856Y-79184819D01*
X84417856Y-79184819D02*
X84322618Y-79327676D01*
X84322618Y-79327676D02*
X84227380Y-79422914D01*
X84227380Y-79422914D02*
X84132142Y-79470533D01*
X136261905Y-83454819D02*
X136261905Y-82454819D01*
X136261905Y-82454819D02*
X136500000Y-82454819D01*
X136500000Y-82454819D02*
X136642857Y-82502438D01*
X136642857Y-82502438D02*
X136738095Y-82597676D01*
X136738095Y-82597676D02*
X136785714Y-82692914D01*
X136785714Y-82692914D02*
X136833333Y-82883390D01*
X136833333Y-82883390D02*
X136833333Y-83026247D01*
X136833333Y-83026247D02*
X136785714Y-83216723D01*
X136785714Y-83216723D02*
X136738095Y-83311961D01*
X136738095Y-83311961D02*
X136642857Y-83407200D01*
X136642857Y-83407200D02*
X136500000Y-83454819D01*
X136500000Y-83454819D02*
X136261905Y-83454819D01*
X137785714Y-83454819D02*
X137214286Y-83454819D01*
X137500000Y-83454819D02*
X137500000Y-82454819D01*
X137500000Y-82454819D02*
X137404762Y-82597676D01*
X137404762Y-82597676D02*
X137309524Y-82692914D01*
X137309524Y-82692914D02*
X137214286Y-82740533D01*
X96597142Y-88399819D02*
X96263809Y-87923628D01*
X96025714Y-88399819D02*
X96025714Y-87399819D01*
X96025714Y-87399819D02*
X96406666Y-87399819D01*
X96406666Y-87399819D02*
X96501904Y-87447438D01*
X96501904Y-87447438D02*
X96549523Y-87495057D01*
X96549523Y-87495057D02*
X96597142Y-87590295D01*
X96597142Y-87590295D02*
X96597142Y-87733152D01*
X96597142Y-87733152D02*
X96549523Y-87828390D01*
X96549523Y-87828390D02*
X96501904Y-87876009D01*
X96501904Y-87876009D02*
X96406666Y-87923628D01*
X96406666Y-87923628D02*
X96025714Y-87923628D01*
X97549523Y-88399819D02*
X96978095Y-88399819D01*
X97263809Y-88399819D02*
X97263809Y-87399819D01*
X97263809Y-87399819D02*
X97168571Y-87542676D01*
X97168571Y-87542676D02*
X97073333Y-87637914D01*
X97073333Y-87637914D02*
X96978095Y-87685533D01*
X97930476Y-87495057D02*
X97978095Y-87447438D01*
X97978095Y-87447438D02*
X98073333Y-87399819D01*
X98073333Y-87399819D02*
X98311428Y-87399819D01*
X98311428Y-87399819D02*
X98406666Y-87447438D01*
X98406666Y-87447438D02*
X98454285Y-87495057D01*
X98454285Y-87495057D02*
X98501904Y-87590295D01*
X98501904Y-87590295D02*
X98501904Y-87685533D01*
X98501904Y-87685533D02*
X98454285Y-87828390D01*
X98454285Y-87828390D02*
X97882857Y-88399819D01*
X97882857Y-88399819D02*
X98501904Y-88399819D01*
X89611458Y-63299580D02*
X89563839Y-63347200D01*
X89563839Y-63347200D02*
X89420982Y-63394819D01*
X89420982Y-63394819D02*
X89325744Y-63394819D01*
X89325744Y-63394819D02*
X89182887Y-63347200D01*
X89182887Y-63347200D02*
X89087649Y-63251961D01*
X89087649Y-63251961D02*
X89040030Y-63156723D01*
X89040030Y-63156723D02*
X88992411Y-62966247D01*
X88992411Y-62966247D02*
X88992411Y-62823390D01*
X88992411Y-62823390D02*
X89040030Y-62632914D01*
X89040030Y-62632914D02*
X89087649Y-62537676D01*
X89087649Y-62537676D02*
X89182887Y-62442438D01*
X89182887Y-62442438D02*
X89325744Y-62394819D01*
X89325744Y-62394819D02*
X89420982Y-62394819D01*
X89420982Y-62394819D02*
X89563839Y-62442438D01*
X89563839Y-62442438D02*
X89611458Y-62490057D01*
X90563839Y-63394819D02*
X89992411Y-63394819D01*
X90278125Y-63394819D02*
X90278125Y-62394819D01*
X90278125Y-62394819D02*
X90182887Y-62537676D01*
X90182887Y-62537676D02*
X90087649Y-62632914D01*
X90087649Y-62632914D02*
X89992411Y-62680533D01*
X142627142Y-90454819D02*
X142293809Y-89978628D01*
X142055714Y-90454819D02*
X142055714Y-89454819D01*
X142055714Y-89454819D02*
X142436666Y-89454819D01*
X142436666Y-89454819D02*
X142531904Y-89502438D01*
X142531904Y-89502438D02*
X142579523Y-89550057D01*
X142579523Y-89550057D02*
X142627142Y-89645295D01*
X142627142Y-89645295D02*
X142627142Y-89788152D01*
X142627142Y-89788152D02*
X142579523Y-89883390D01*
X142579523Y-89883390D02*
X142531904Y-89931009D01*
X142531904Y-89931009D02*
X142436666Y-89978628D01*
X142436666Y-89978628D02*
X142055714Y-89978628D01*
X143008095Y-89550057D02*
X143055714Y-89502438D01*
X143055714Y-89502438D02*
X143150952Y-89454819D01*
X143150952Y-89454819D02*
X143389047Y-89454819D01*
X143389047Y-89454819D02*
X143484285Y-89502438D01*
X143484285Y-89502438D02*
X143531904Y-89550057D01*
X143531904Y-89550057D02*
X143579523Y-89645295D01*
X143579523Y-89645295D02*
X143579523Y-89740533D01*
X143579523Y-89740533D02*
X143531904Y-89883390D01*
X143531904Y-89883390D02*
X142960476Y-90454819D01*
X142960476Y-90454819D02*
X143579523Y-90454819D01*
X143912857Y-89454819D02*
X144579523Y-89454819D01*
X144579523Y-89454819D02*
X144150952Y-90454819D01*
X111549819Y-101642857D02*
X111073628Y-101976190D01*
X111549819Y-102214285D02*
X110549819Y-102214285D01*
X110549819Y-102214285D02*
X110549819Y-101833333D01*
X110549819Y-101833333D02*
X110597438Y-101738095D01*
X110597438Y-101738095D02*
X110645057Y-101690476D01*
X110645057Y-101690476D02*
X110740295Y-101642857D01*
X110740295Y-101642857D02*
X110883152Y-101642857D01*
X110883152Y-101642857D02*
X110978390Y-101690476D01*
X110978390Y-101690476D02*
X111026009Y-101738095D01*
X111026009Y-101738095D02*
X111073628Y-101833333D01*
X111073628Y-101833333D02*
X111073628Y-102214285D01*
X110645057Y-101261904D02*
X110597438Y-101214285D01*
X110597438Y-101214285D02*
X110549819Y-101119047D01*
X110549819Y-101119047D02*
X110549819Y-100880952D01*
X110549819Y-100880952D02*
X110597438Y-100785714D01*
X110597438Y-100785714D02*
X110645057Y-100738095D01*
X110645057Y-100738095D02*
X110740295Y-100690476D01*
X110740295Y-100690476D02*
X110835533Y-100690476D01*
X110835533Y-100690476D02*
X110978390Y-100738095D01*
X110978390Y-100738095D02*
X111549819Y-101309523D01*
X111549819Y-101309523D02*
X111549819Y-100690476D01*
X110645057Y-100309523D02*
X110597438Y-100261904D01*
X110597438Y-100261904D02*
X110549819Y-100166666D01*
X110549819Y-100166666D02*
X110549819Y-99928571D01*
X110549819Y-99928571D02*
X110597438Y-99833333D01*
X110597438Y-99833333D02*
X110645057Y-99785714D01*
X110645057Y-99785714D02*
X110740295Y-99738095D01*
X110740295Y-99738095D02*
X110835533Y-99738095D01*
X110835533Y-99738095D02*
X110978390Y-99785714D01*
X110978390Y-99785714D02*
X111549819Y-100357142D01*
X111549819Y-100357142D02*
X111549819Y-99738095D01*
X69833333Y-66454819D02*
X69500000Y-65978628D01*
X69261905Y-66454819D02*
X69261905Y-65454819D01*
X69261905Y-65454819D02*
X69642857Y-65454819D01*
X69642857Y-65454819D02*
X69738095Y-65502438D01*
X69738095Y-65502438D02*
X69785714Y-65550057D01*
X69785714Y-65550057D02*
X69833333Y-65645295D01*
X69833333Y-65645295D02*
X69833333Y-65788152D01*
X69833333Y-65788152D02*
X69785714Y-65883390D01*
X69785714Y-65883390D02*
X69738095Y-65931009D01*
X69738095Y-65931009D02*
X69642857Y-65978628D01*
X69642857Y-65978628D02*
X69261905Y-65978628D01*
X70166667Y-65454819D02*
X70833333Y-65454819D01*
X70833333Y-65454819D02*
X70404762Y-66454819D01*
X79412142Y-80264819D02*
X79078809Y-79788628D01*
X78840714Y-80264819D02*
X78840714Y-79264819D01*
X78840714Y-79264819D02*
X79221666Y-79264819D01*
X79221666Y-79264819D02*
X79316904Y-79312438D01*
X79316904Y-79312438D02*
X79364523Y-79360057D01*
X79364523Y-79360057D02*
X79412142Y-79455295D01*
X79412142Y-79455295D02*
X79412142Y-79598152D01*
X79412142Y-79598152D02*
X79364523Y-79693390D01*
X79364523Y-79693390D02*
X79316904Y-79741009D01*
X79316904Y-79741009D02*
X79221666Y-79788628D01*
X79221666Y-79788628D02*
X78840714Y-79788628D01*
X80364523Y-80264819D02*
X79793095Y-80264819D01*
X80078809Y-80264819D02*
X80078809Y-79264819D01*
X80078809Y-79264819D02*
X79983571Y-79407676D01*
X79983571Y-79407676D02*
X79888333Y-79502914D01*
X79888333Y-79502914D02*
X79793095Y-79550533D01*
X81221666Y-79598152D02*
X81221666Y-80264819D01*
X80983571Y-79217200D02*
X80745476Y-79931485D01*
X80745476Y-79931485D02*
X81364523Y-79931485D01*
X99727142Y-76374819D02*
X99393809Y-75898628D01*
X99155714Y-76374819D02*
X99155714Y-75374819D01*
X99155714Y-75374819D02*
X99536666Y-75374819D01*
X99536666Y-75374819D02*
X99631904Y-75422438D01*
X99631904Y-75422438D02*
X99679523Y-75470057D01*
X99679523Y-75470057D02*
X99727142Y-75565295D01*
X99727142Y-75565295D02*
X99727142Y-75708152D01*
X99727142Y-75708152D02*
X99679523Y-75803390D01*
X99679523Y-75803390D02*
X99631904Y-75851009D01*
X99631904Y-75851009D02*
X99536666Y-75898628D01*
X99536666Y-75898628D02*
X99155714Y-75898628D01*
X100108095Y-75470057D02*
X100155714Y-75422438D01*
X100155714Y-75422438D02*
X100250952Y-75374819D01*
X100250952Y-75374819D02*
X100489047Y-75374819D01*
X100489047Y-75374819D02*
X100584285Y-75422438D01*
X100584285Y-75422438D02*
X100631904Y-75470057D01*
X100631904Y-75470057D02*
X100679523Y-75565295D01*
X100679523Y-75565295D02*
X100679523Y-75660533D01*
X100679523Y-75660533D02*
X100631904Y-75803390D01*
X100631904Y-75803390D02*
X100060476Y-76374819D01*
X100060476Y-76374819D02*
X100679523Y-76374819D01*
X101298571Y-75374819D02*
X101393809Y-75374819D01*
X101393809Y-75374819D02*
X101489047Y-75422438D01*
X101489047Y-75422438D02*
X101536666Y-75470057D01*
X101536666Y-75470057D02*
X101584285Y-75565295D01*
X101584285Y-75565295D02*
X101631904Y-75755771D01*
X101631904Y-75755771D02*
X101631904Y-75993866D01*
X101631904Y-75993866D02*
X101584285Y-76184342D01*
X101584285Y-76184342D02*
X101536666Y-76279580D01*
X101536666Y-76279580D02*
X101489047Y-76327200D01*
X101489047Y-76327200D02*
X101393809Y-76374819D01*
X101393809Y-76374819D02*
X101298571Y-76374819D01*
X101298571Y-76374819D02*
X101203333Y-76327200D01*
X101203333Y-76327200D02*
X101155714Y-76279580D01*
X101155714Y-76279580D02*
X101108095Y-76184342D01*
X101108095Y-76184342D02*
X101060476Y-75993866D01*
X101060476Y-75993866D02*
X101060476Y-75755771D01*
X101060476Y-75755771D02*
X101108095Y-75565295D01*
X101108095Y-75565295D02*
X101155714Y-75470057D01*
X101155714Y-75470057D02*
X101203333Y-75422438D01*
X101203333Y-75422438D02*
X101298571Y-75374819D01*
X138857142Y-93454819D02*
X138523809Y-92978628D01*
X138285714Y-93454819D02*
X138285714Y-92454819D01*
X138285714Y-92454819D02*
X138666666Y-92454819D01*
X138666666Y-92454819D02*
X138761904Y-92502438D01*
X138761904Y-92502438D02*
X138809523Y-92550057D01*
X138809523Y-92550057D02*
X138857142Y-92645295D01*
X138857142Y-92645295D02*
X138857142Y-92788152D01*
X138857142Y-92788152D02*
X138809523Y-92883390D01*
X138809523Y-92883390D02*
X138761904Y-92931009D01*
X138761904Y-92931009D02*
X138666666Y-92978628D01*
X138666666Y-92978628D02*
X138285714Y-92978628D01*
X139238095Y-92550057D02*
X139285714Y-92502438D01*
X139285714Y-92502438D02*
X139380952Y-92454819D01*
X139380952Y-92454819D02*
X139619047Y-92454819D01*
X139619047Y-92454819D02*
X139714285Y-92502438D01*
X139714285Y-92502438D02*
X139761904Y-92550057D01*
X139761904Y-92550057D02*
X139809523Y-92645295D01*
X139809523Y-92645295D02*
X139809523Y-92740533D01*
X139809523Y-92740533D02*
X139761904Y-92883390D01*
X139761904Y-92883390D02*
X139190476Y-93454819D01*
X139190476Y-93454819D02*
X139809523Y-93454819D01*
X140142857Y-92454819D02*
X140761904Y-92454819D01*
X140761904Y-92454819D02*
X140428571Y-92835771D01*
X140428571Y-92835771D02*
X140571428Y-92835771D01*
X140571428Y-92835771D02*
X140666666Y-92883390D01*
X140666666Y-92883390D02*
X140714285Y-92931009D01*
X140714285Y-92931009D02*
X140761904Y-93026247D01*
X140761904Y-93026247D02*
X140761904Y-93264342D01*
X140761904Y-93264342D02*
X140714285Y-93359580D01*
X140714285Y-93359580D02*
X140666666Y-93407200D01*
X140666666Y-93407200D02*
X140571428Y-93454819D01*
X140571428Y-93454819D02*
X140285714Y-93454819D01*
X140285714Y-93454819D02*
X140190476Y-93407200D01*
X140190476Y-93407200D02*
X140142857Y-93359580D01*
X93177083Y-63194819D02*
X92843750Y-62718628D01*
X92605655Y-63194819D02*
X92605655Y-62194819D01*
X92605655Y-62194819D02*
X92986607Y-62194819D01*
X92986607Y-62194819D02*
X93081845Y-62242438D01*
X93081845Y-62242438D02*
X93129464Y-62290057D01*
X93129464Y-62290057D02*
X93177083Y-62385295D01*
X93177083Y-62385295D02*
X93177083Y-62528152D01*
X93177083Y-62528152D02*
X93129464Y-62623390D01*
X93129464Y-62623390D02*
X93081845Y-62671009D01*
X93081845Y-62671009D02*
X92986607Y-62718628D01*
X92986607Y-62718628D02*
X92605655Y-62718628D01*
X94034226Y-62528152D02*
X94034226Y-63194819D01*
X93796131Y-62147200D02*
X93558036Y-62861485D01*
X93558036Y-62861485D02*
X94177083Y-62861485D01*
X128454819Y-97642857D02*
X127978628Y-97976190D01*
X128454819Y-98214285D02*
X127454819Y-98214285D01*
X127454819Y-98214285D02*
X127454819Y-97833333D01*
X127454819Y-97833333D02*
X127502438Y-97738095D01*
X127502438Y-97738095D02*
X127550057Y-97690476D01*
X127550057Y-97690476D02*
X127645295Y-97642857D01*
X127645295Y-97642857D02*
X127788152Y-97642857D01*
X127788152Y-97642857D02*
X127883390Y-97690476D01*
X127883390Y-97690476D02*
X127931009Y-97738095D01*
X127931009Y-97738095D02*
X127978628Y-97833333D01*
X127978628Y-97833333D02*
X127978628Y-98214285D01*
X127550057Y-97261904D02*
X127502438Y-97214285D01*
X127502438Y-97214285D02*
X127454819Y-97119047D01*
X127454819Y-97119047D02*
X127454819Y-96880952D01*
X127454819Y-96880952D02*
X127502438Y-96785714D01*
X127502438Y-96785714D02*
X127550057Y-96738095D01*
X127550057Y-96738095D02*
X127645295Y-96690476D01*
X127645295Y-96690476D02*
X127740533Y-96690476D01*
X127740533Y-96690476D02*
X127883390Y-96738095D01*
X127883390Y-96738095D02*
X128454819Y-97309523D01*
X128454819Y-97309523D02*
X128454819Y-96690476D01*
X127788152Y-95833333D02*
X128454819Y-95833333D01*
X127407200Y-96071428D02*
X128121485Y-96309523D01*
X128121485Y-96309523D02*
X128121485Y-95690476D01*
D11*
X80845238Y-99933609D02*
X80988095Y-99981228D01*
X80988095Y-99981228D02*
X81035714Y-100028847D01*
X81035714Y-100028847D02*
X81083333Y-100124085D01*
X81083333Y-100124085D02*
X81083333Y-100266942D01*
X81083333Y-100266942D02*
X81035714Y-100362180D01*
X81035714Y-100362180D02*
X80988095Y-100409800D01*
X80988095Y-100409800D02*
X80892857Y-100457419D01*
X80892857Y-100457419D02*
X80511905Y-100457419D01*
X80511905Y-100457419D02*
X80511905Y-99457419D01*
X80511905Y-99457419D02*
X80845238Y-99457419D01*
X80845238Y-99457419D02*
X80940476Y-99505038D01*
X80940476Y-99505038D02*
X80988095Y-99552657D01*
X80988095Y-99552657D02*
X81035714Y-99647895D01*
X81035714Y-99647895D02*
X81035714Y-99743133D01*
X81035714Y-99743133D02*
X80988095Y-99838371D01*
X80988095Y-99838371D02*
X80940476Y-99885990D01*
X80940476Y-99885990D02*
X80845238Y-99933609D01*
X80845238Y-99933609D02*
X80511905Y-99933609D01*
X82035714Y-100457419D02*
X81464286Y-100457419D01*
X81750000Y-100457419D02*
X81750000Y-99457419D01*
X81750000Y-99457419D02*
X81654762Y-99600276D01*
X81654762Y-99600276D02*
X81559524Y-99695514D01*
X81559524Y-99695514D02*
X81464286Y-99743133D01*
D10*
X137954819Y-72128094D02*
X136954819Y-72128094D01*
X137954819Y-71556666D02*
X137383390Y-71985237D01*
X136954819Y-71556666D02*
X137526247Y-72128094D01*
X137954819Y-70604285D02*
X137954819Y-71175713D01*
X137954819Y-70889999D02*
X136954819Y-70889999D01*
X136954819Y-70889999D02*
X137097676Y-70985237D01*
X137097676Y-70985237D02*
X137192914Y-71080475D01*
X137192914Y-71080475D02*
X137240533Y-71175713D01*
%TO.C,R17*%
D12*
X133805000Y-57525000D02*
X128625000Y-57525000D01*
X106205000Y-57525000D02*
X111385000Y-57525000D01*
X111385000Y-54405000D02*
X128625000Y-54405000D01*
X128625000Y-60645000D01*
X111385000Y-60645000D01*
X111385000Y-54405000D01*
%TO.C,R5*%
X98218332Y-62960000D02*
X98218332Y-56420000D01*
X98218332Y-56420000D02*
X97888332Y-56420000D01*
X97888332Y-62960000D02*
X98218332Y-62960000D01*
X95808332Y-62960000D02*
X95478332Y-62960000D01*
X95478332Y-62960000D02*
X95478332Y-56420000D01*
X95478332Y-56420000D02*
X95808332Y-56420000D01*
D13*
%TO.C,G\u002A\u002A\u002A*%
G36*
X64800986Y-69301560D02*
G01*
X64799679Y-69307218D01*
X64794641Y-69307905D01*
X64786808Y-69304423D01*
X64788297Y-69301560D01*
X64799591Y-69300421D01*
X64800986Y-69301560D01*
G37*
G36*
X64035687Y-72007108D02*
G01*
X64047243Y-72014488D01*
X64071829Y-72030493D01*
X64106593Y-72053257D01*
X64148683Y-72080914D01*
X64185574Y-72105216D01*
X64231872Y-72135672D01*
X64273523Y-72162931D01*
X64307556Y-72185060D01*
X64331003Y-72200126D01*
X64340032Y-72205732D01*
X64355114Y-72214664D01*
X64381917Y-72230733D01*
X64415889Y-72251206D01*
X64435120Y-72262832D01*
X64485294Y-72293160D01*
X64523280Y-72315976D01*
X64553156Y-72333656D01*
X64578997Y-72348576D01*
X64604880Y-72363112D01*
X64634882Y-72379640D01*
X64645501Y-72385455D01*
X64680863Y-72404890D01*
X64721321Y-72427248D01*
X64743807Y-72439729D01*
X64786681Y-72462713D01*
X64842879Y-72491553D01*
X64908373Y-72524280D01*
X64979133Y-72558929D01*
X65051134Y-72593532D01*
X65120346Y-72626122D01*
X65182742Y-72654732D01*
X65199100Y-72662055D01*
X65242981Y-72681483D01*
X65272446Y-72694287D01*
X65290419Y-72701690D01*
X65299823Y-72704917D01*
X65302560Y-72705357D01*
X65313499Y-72708996D01*
X65336195Y-72718410D01*
X65358222Y-72728176D01*
X65393760Y-72743142D01*
X65443819Y-72762603D01*
X65504777Y-72785291D01*
X65573017Y-72809939D01*
X65644917Y-72835279D01*
X65716859Y-72860043D01*
X65785222Y-72882963D01*
X65846388Y-72902771D01*
X65896735Y-72918199D01*
X65917609Y-72924116D01*
X65949278Y-72933332D01*
X65976951Y-72942395D01*
X65983675Y-72944894D01*
X66008446Y-72952929D01*
X66039680Y-72960986D01*
X66045533Y-72962277D01*
X66084292Y-72970959D01*
X66130547Y-72981946D01*
X66178797Y-72993862D01*
X66223543Y-73005332D01*
X66259283Y-73014977D01*
X66276654Y-73020116D01*
X66291971Y-73024720D01*
X66309781Y-73029231D01*
X66332905Y-73034191D01*
X66364164Y-73040143D01*
X66406379Y-73047631D01*
X66462371Y-73057197D01*
X66517159Y-73066406D01*
X66600460Y-73080304D01*
X66667619Y-73091371D01*
X66721255Y-73099994D01*
X66763984Y-73106564D01*
X66798424Y-73111468D01*
X66827194Y-73115096D01*
X66852909Y-73117837D01*
X66878189Y-73120079D01*
X66878793Y-73120128D01*
X66967427Y-73129274D01*
X67037349Y-73140718D01*
X67088499Y-73154447D01*
X67120819Y-73170448D01*
X67124727Y-73173654D01*
X67145344Y-73190944D01*
X67175020Y-73214214D01*
X67207118Y-73238269D01*
X67235203Y-73259471D01*
X67256549Y-73276862D01*
X67267036Y-73287063D01*
X67267390Y-73287693D01*
X67278339Y-73294843D01*
X67283251Y-73295391D01*
X67297038Y-73300245D01*
X67299112Y-73303088D01*
X67307824Y-73312125D01*
X67327897Y-73328882D01*
X67355238Y-73349967D01*
X67359385Y-73353051D01*
X67391261Y-73377172D01*
X67420205Y-73399978D01*
X67440014Y-73416579D01*
X67440179Y-73416728D01*
X67458493Y-73431364D01*
X67471090Y-73438092D01*
X67471670Y-73438141D01*
X67475213Y-73444107D01*
X67473585Y-73447657D01*
X67463217Y-73449685D01*
X67436547Y-73451526D01*
X67396305Y-73453161D01*
X67345222Y-73454571D01*
X67286028Y-73455737D01*
X67221454Y-73456638D01*
X67154229Y-73457255D01*
X67087085Y-73457569D01*
X67022751Y-73457560D01*
X66963959Y-73457208D01*
X66913437Y-73456494D01*
X66873918Y-73455399D01*
X66848132Y-73453903D01*
X66838922Y-73452198D01*
X66828306Y-73449934D01*
X66801735Y-73446607D01*
X66762237Y-73442529D01*
X66712841Y-73438011D01*
X66656575Y-73433366D01*
X66654140Y-73433175D01*
X66552258Y-73424863D01*
X66467662Y-73417157D01*
X66398620Y-73409861D01*
X66343403Y-73402784D01*
X66300279Y-73395732D01*
X66278476Y-73391200D01*
X66240530Y-73384789D01*
X66200898Y-73381412D01*
X66194268Y-73381273D01*
X66160260Y-73379054D01*
X66128817Y-73373843D01*
X66122893Y-73372266D01*
X66097856Y-73365816D01*
X66062567Y-73357992D01*
X66031809Y-73351861D01*
X65976885Y-73341476D01*
X65935624Y-73333483D01*
X65902968Y-73326835D01*
X65873861Y-73320488D01*
X65843244Y-73313396D01*
X65827200Y-73309582D01*
X65788288Y-73300329D01*
X65751857Y-73291736D01*
X65727275Y-73286008D01*
X65695553Y-73278027D01*
X65651061Y-73265918D01*
X65597949Y-73250903D01*
X65540365Y-73234205D01*
X65482458Y-73217047D01*
X65428375Y-73200652D01*
X65382266Y-73186241D01*
X65348278Y-73175039D01*
X65337092Y-73171009D01*
X65305096Y-73159217D01*
X65277922Y-73149926D01*
X65265717Y-73146285D01*
X65240111Y-73138514D01*
X65227650Y-73133952D01*
X65207328Y-73125960D01*
X65178385Y-73114692D01*
X65165792Y-73109816D01*
X65134550Y-73097726D01*
X65106814Y-73086973D01*
X65099175Y-73084004D01*
X65072412Y-73072615D01*
X65048441Y-73061352D01*
X65025094Y-73051788D01*
X65007866Y-73047957D01*
X64988117Y-73043605D01*
X64977708Y-73039030D01*
X64960608Y-73030579D01*
X64932577Y-73017484D01*
X64904083Y-73004560D01*
X64728448Y-72919741D01*
X64549789Y-72821444D01*
X64428034Y-72747545D01*
X64383313Y-72719153D01*
X64344411Y-72694135D01*
X64314116Y-72674310D01*
X64295215Y-72661495D01*
X64290258Y-72657670D01*
X64280792Y-72649599D01*
X64259349Y-72632933D01*
X64229349Y-72610260D01*
X64194215Y-72584170D01*
X64161788Y-72560456D01*
X64150493Y-72551547D01*
X64128554Y-72533726D01*
X64099964Y-72510243D01*
X64088028Y-72500381D01*
X64023791Y-72447215D01*
X64023791Y-72223607D01*
X64023991Y-72150373D01*
X64024656Y-72094369D01*
X64025885Y-72053797D01*
X64027778Y-72026859D01*
X64030432Y-72011755D01*
X64033947Y-72006687D01*
X64035687Y-72007108D01*
G37*
G36*
X63960101Y-72018258D02*
G01*
X63963022Y-72041648D01*
X63965067Y-72081614D01*
X63966276Y-72138959D01*
X63966690Y-72214487D01*
X63966691Y-72217889D01*
X63966589Y-72289033D01*
X63965907Y-72343919D01*
X63964074Y-72385322D01*
X63960524Y-72416018D01*
X63954688Y-72438783D01*
X63945997Y-72456392D01*
X63933883Y-72471619D01*
X63917779Y-72487242D01*
X63910120Y-72494199D01*
X63879499Y-72519925D01*
X63836637Y-72553235D01*
X63785292Y-72591408D01*
X63729226Y-72631724D01*
X63672198Y-72671462D01*
X63617969Y-72707902D01*
X63587674Y-72727473D01*
X63534392Y-72761165D01*
X63493125Y-72786989D01*
X63459838Y-72807312D01*
X63430500Y-72824502D01*
X63401076Y-72840924D01*
X63367534Y-72858947D01*
X63329074Y-72879236D01*
X63286993Y-72901419D01*
X63246888Y-72922667D01*
X63214435Y-72939970D01*
X63200599Y-72947420D01*
X63169320Y-72963249D01*
X63131305Y-72980952D01*
X63110190Y-72990164D01*
X63072108Y-73006379D01*
X63033064Y-73023226D01*
X63015023Y-73031112D01*
X62970310Y-73050730D01*
X62936138Y-73065434D01*
X62905664Y-73078056D01*
X62872043Y-73091424D01*
X62828430Y-73108370D01*
X62824690Y-73109816D01*
X62762062Y-73133528D01*
X62710233Y-73152136D01*
X62671868Y-73164700D01*
X62658148Y-73168526D01*
X62632679Y-73176433D01*
X62620082Y-73181246D01*
X62575657Y-73197587D01*
X62513687Y-73216793D01*
X62435383Y-73238494D01*
X62420231Y-73242484D01*
X62357456Y-73258969D01*
X62308611Y-73271983D01*
X62269185Y-73282758D01*
X62234664Y-73292522D01*
X62206106Y-73300858D01*
X62172705Y-73309536D01*
X62131169Y-73318735D01*
X62101423Y-73324471D01*
X62055833Y-73332862D01*
X62005720Y-73342540D01*
X61977706Y-73348179D01*
X61923484Y-73358767D01*
X61862724Y-73369667D01*
X61799188Y-73380305D01*
X61736639Y-73390105D01*
X61678839Y-73398494D01*
X61629549Y-73404895D01*
X61592532Y-73408735D01*
X61575785Y-73409591D01*
X61541146Y-73411941D01*
X61504154Y-73417713D01*
X61498949Y-73418857D01*
X61471854Y-73423280D01*
X61429830Y-73427727D01*
X61375088Y-73432126D01*
X61309837Y-73436405D01*
X61236287Y-73440493D01*
X61156649Y-73444316D01*
X61073132Y-73447805D01*
X60987947Y-73450886D01*
X60903304Y-73453488D01*
X60821413Y-73455539D01*
X60744484Y-73456967D01*
X60674728Y-73457701D01*
X60614353Y-73457668D01*
X60565571Y-73456797D01*
X60530591Y-73455016D01*
X60511624Y-73452253D01*
X60509166Y-73451029D01*
X60513347Y-73443028D01*
X60529921Y-73427268D01*
X60555602Y-73406777D01*
X60563341Y-73401067D01*
X60595520Y-73377447D01*
X60633575Y-73349143D01*
X60673902Y-73318879D01*
X60712894Y-73289381D01*
X60746948Y-73263376D01*
X60772457Y-73243590D01*
X60784921Y-73233532D01*
X60799319Y-73221837D01*
X60821179Y-73204734D01*
X60827041Y-73200224D01*
X60850333Y-73181641D01*
X60868649Y-73165792D01*
X60871263Y-73163282D01*
X60886678Y-73155998D01*
X60915338Y-73148802D01*
X60951499Y-73143084D01*
X60957618Y-73142396D01*
X61053406Y-73132053D01*
X61135398Y-73122608D01*
X61208763Y-73113334D01*
X61278667Y-73103499D01*
X61350279Y-73092375D01*
X61428767Y-73079232D01*
X61519298Y-73063341D01*
X61525664Y-73062206D01*
X61600967Y-73047303D01*
X61666464Y-73031425D01*
X61693483Y-73023603D01*
X61724591Y-73015319D01*
X61751543Y-73010441D01*
X61759424Y-73009890D01*
X61784578Y-73007014D01*
X61810489Y-73000800D01*
X61836585Y-72992946D01*
X61871252Y-72982834D01*
X61892056Y-72976888D01*
X61932452Y-72965445D01*
X61974880Y-72953420D01*
X61991981Y-72948571D01*
X62040848Y-72934536D01*
X62091515Y-72919686D01*
X62139912Y-72905246D01*
X62181973Y-72892441D01*
X62213630Y-72882494D01*
X62230273Y-72876842D01*
X62247391Y-72870641D01*
X62277540Y-72860074D01*
X62315724Y-72846885D01*
X62339714Y-72838675D01*
X62388035Y-72821682D01*
X62446349Y-72800383D01*
X62509333Y-72776800D01*
X62571662Y-72752953D01*
X62628013Y-72730863D01*
X62673061Y-72712550D01*
X62681940Y-72708796D01*
X62709455Y-72697063D01*
X62732406Y-72687328D01*
X62734282Y-72686537D01*
X62792762Y-72661145D01*
X62859477Y-72630894D01*
X62931777Y-72597102D01*
X63007013Y-72561087D01*
X63082533Y-72524165D01*
X63155689Y-72487655D01*
X63223831Y-72452875D01*
X63284308Y-72421141D01*
X63334471Y-72393772D01*
X63371670Y-72372084D01*
X63387643Y-72361659D01*
X63406354Y-72349312D01*
X63417397Y-72343749D01*
X63417687Y-72343723D01*
X63428813Y-72338839D01*
X63453370Y-72325245D01*
X63488779Y-72304531D01*
X63532463Y-72278286D01*
X63581847Y-72248099D01*
X63634352Y-72215559D01*
X63687402Y-72182256D01*
X63738421Y-72149778D01*
X63784830Y-72119714D01*
X63824053Y-72093654D01*
X63832337Y-72088018D01*
X63854937Y-72072951D01*
X63870601Y-72062982D01*
X63888638Y-72051150D01*
X63912471Y-72034586D01*
X63916016Y-72032052D01*
X63937900Y-72018145D01*
X63954172Y-72010925D01*
X63956264Y-72010640D01*
X63960101Y-72018258D01*
G37*
G36*
X64059478Y-72532424D02*
G01*
X64085442Y-72553672D01*
X64108175Y-72573098D01*
X64114199Y-72578513D01*
X64132564Y-72594338D01*
X64158883Y-72615741D01*
X64176058Y-72629238D01*
X64199983Y-72648537D01*
X64216878Y-72663623D01*
X64222055Y-72669599D01*
X64233013Y-72676296D01*
X64237916Y-72676807D01*
X64251709Y-72681313D01*
X64253777Y-72683944D01*
X64263584Y-72693379D01*
X64287112Y-72711039D01*
X64321852Y-72735206D01*
X64365297Y-72764160D01*
X64414936Y-72796182D01*
X64447283Y-72816548D01*
X64481340Y-72837040D01*
X64524516Y-72861888D01*
X64574011Y-72889597D01*
X64627026Y-72918676D01*
X64680761Y-72947631D01*
X64732417Y-72974969D01*
X64779193Y-72999197D01*
X64818290Y-73018822D01*
X64846908Y-73032352D01*
X64862248Y-73038292D01*
X64863377Y-73038440D01*
X64875056Y-73042217D01*
X64899227Y-73052238D01*
X64931212Y-73066538D01*
X64939886Y-73070555D01*
X64980783Y-73089454D01*
X65017013Y-73105719D01*
X65055829Y-73122540D01*
X65104482Y-73143111D01*
X65108692Y-73144878D01*
X65132399Y-73155219D01*
X65147071Y-73162057D01*
X65166537Y-73169170D01*
X65192166Y-73175954D01*
X65214808Y-73183054D01*
X65227850Y-73191068D01*
X65228102Y-73191439D01*
X65240936Y-73198447D01*
X65254858Y-73200224D01*
X65275857Y-73203355D01*
X65285226Y-73207786D01*
X65298787Y-73214575D01*
X65324278Y-73224148D01*
X65346608Y-73231439D01*
X65385226Y-73243501D01*
X65430248Y-73257834D01*
X65460808Y-73267716D01*
X65498354Y-73279505D01*
X65533796Y-73289867D01*
X65555975Y-73295694D01*
X65576452Y-73300702D01*
X65611370Y-73309472D01*
X65656745Y-73320994D01*
X65708591Y-73334258D01*
X65741550Y-73342736D01*
X65796328Y-73356682D01*
X65847987Y-73369518D01*
X65892251Y-73380205D01*
X65924843Y-73387703D01*
X65936642Y-73390167D01*
X66012478Y-73404550D01*
X66072745Y-73415709D01*
X66120533Y-73424179D01*
X66158931Y-73430495D01*
X66191027Y-73435192D01*
X66212626Y-73437950D01*
X66246889Y-73442647D01*
X66274721Y-73447526D01*
X66288759Y-73451106D01*
X66305575Y-73454917D01*
X66338125Y-73459781D01*
X66383163Y-73465338D01*
X66437443Y-73471232D01*
X66497717Y-73477105D01*
X66560740Y-73482598D01*
X66607567Y-73486234D01*
X66713815Y-73493839D01*
X66804798Y-73499929D01*
X66884214Y-73504665D01*
X66955757Y-73508209D01*
X67023124Y-73510724D01*
X67090009Y-73512372D01*
X67160110Y-73513314D01*
X67234088Y-73513706D01*
X67470426Y-73514274D01*
X67441667Y-73549962D01*
X67422470Y-73571885D01*
X67393923Y-73602196D01*
X67360507Y-73636206D01*
X67338563Y-73657820D01*
X67285377Y-73709517D01*
X67244106Y-73749841D01*
X67212955Y-73780619D01*
X67190129Y-73803679D01*
X67173835Y-73820851D01*
X67162278Y-73833962D01*
X67153662Y-73844841D01*
X67149837Y-73850098D01*
X67126449Y-73877034D01*
X67098924Y-73895339D01*
X67064037Y-73905800D01*
X67018562Y-73909208D01*
X66959274Y-73906354D01*
X66931134Y-73903652D01*
X66885773Y-73899073D01*
X66831031Y-73893846D01*
X66776498Y-73888881D01*
X66759134Y-73887364D01*
X66717520Y-73883213D01*
X66682595Y-73878680D01*
X66659011Y-73874425D01*
X66651995Y-73872140D01*
X66637871Y-73868117D01*
X66609873Y-73863374D01*
X66573098Y-73858720D01*
X66557529Y-73857110D01*
X66511562Y-73852152D01*
X66455360Y-73845352D01*
X66397500Y-73837775D01*
X66364892Y-73833202D01*
X66313629Y-73825870D01*
X66262056Y-73818645D01*
X66217252Y-73812511D01*
X66193592Y-73809379D01*
X66158721Y-73804021D01*
X66111911Y-73795651D01*
X66059777Y-73785499D01*
X66017534Y-73776671D01*
X65968571Y-73766070D01*
X65922076Y-73756009D01*
X65883616Y-73747690D01*
X65860509Y-73742697D01*
X65802797Y-73729824D01*
X65743331Y-73715833D01*
X65685180Y-73701524D01*
X65631409Y-73687698D01*
X65585088Y-73675156D01*
X65549284Y-73664697D01*
X65527064Y-73657123D01*
X65521439Y-73654211D01*
X65508079Y-73649571D01*
X65484900Y-73647514D01*
X65483576Y-73647508D01*
X65460591Y-73645072D01*
X65447300Y-73639167D01*
X65446986Y-73638723D01*
X65434676Y-73630892D01*
X65412238Y-73623889D01*
X65410737Y-73623570D01*
X65384147Y-73616655D01*
X65343049Y-73604204D01*
X65290757Y-73587360D01*
X65230586Y-73567264D01*
X65165852Y-73545058D01*
X65099868Y-73521884D01*
X65035951Y-73498882D01*
X64977416Y-73477196D01*
X64927576Y-73457967D01*
X64913600Y-73452353D01*
X64820312Y-73413442D01*
X64725330Y-73372056D01*
X64631548Y-73329577D01*
X64541861Y-73287387D01*
X64459164Y-73246865D01*
X64386351Y-73209395D01*
X64326318Y-73176356D01*
X64292452Y-73155972D01*
X64265594Y-73139337D01*
X64245649Y-73127802D01*
X64237629Y-73124091D01*
X64227568Y-73119302D01*
X64205480Y-73106566D01*
X64175283Y-73088330D01*
X64140894Y-73067040D01*
X64106232Y-73045143D01*
X64075215Y-73025085D01*
X64051760Y-73009312D01*
X64040791Y-73001183D01*
X64035546Y-72995299D01*
X64031498Y-72986207D01*
X64028494Y-72971610D01*
X64026382Y-72949209D01*
X64025008Y-72916706D01*
X64024220Y-72871803D01*
X64023866Y-72812201D01*
X64023791Y-72745267D01*
X64023791Y-72503907D01*
X64059478Y-72532424D01*
G37*
G36*
X63966691Y-72741071D02*
G01*
X63966646Y-72814706D01*
X63966379Y-72871686D01*
X63965695Y-72914387D01*
X63964398Y-72945189D01*
X63962291Y-72966469D01*
X63959179Y-72980604D01*
X63954865Y-72989973D01*
X63949153Y-72996953D01*
X63945278Y-73000698D01*
X63935691Y-73009001D01*
X63922478Y-73018899D01*
X63903577Y-73031705D01*
X63876928Y-73048729D01*
X63840471Y-73071283D01*
X63792144Y-73100678D01*
X63729888Y-73138226D01*
X63716663Y-73146180D01*
X63689398Y-73161582D01*
X63648527Y-73183415D01*
X63597611Y-73209892D01*
X63540211Y-73239224D01*
X63479888Y-73269622D01*
X63420204Y-73299299D01*
X63364719Y-73326466D01*
X63316995Y-73349335D01*
X63280592Y-73366117D01*
X63267215Y-73371887D01*
X63250469Y-73378993D01*
X63221195Y-73391604D01*
X63184306Y-73407599D01*
X63162532Y-73417079D01*
X63088894Y-73447944D01*
X63005460Y-73480853D01*
X62918049Y-73513658D01*
X62832480Y-73544209D01*
X62754570Y-73570357D01*
X62710490Y-73584064D01*
X62671875Y-73595833D01*
X62626855Y-73609940D01*
X62596290Y-73619737D01*
X62559757Y-73631440D01*
X62526357Y-73641865D01*
X62505881Y-73648003D01*
X62447486Y-73664306D01*
X62392652Y-73678849D01*
X62346929Y-73690187D01*
X62325065Y-73695083D01*
X62300750Y-73700533D01*
X62263239Y-73709407D01*
X62217784Y-73720444D01*
X62172798Y-73731594D01*
X62001577Y-73770579D01*
X61824995Y-73803579D01*
X61654139Y-73828541D01*
X61613142Y-73834272D01*
X61576251Y-73840610D01*
X61550008Y-73846399D01*
X61545657Y-73847698D01*
X61520187Y-73853014D01*
X61485500Y-73856489D01*
X61464765Y-73857209D01*
X61425162Y-73859653D01*
X61379322Y-73865599D01*
X61349606Y-73871149D01*
X61305331Y-73878563D01*
X61254904Y-73883642D01*
X61220172Y-73885090D01*
X61181758Y-73886497D01*
X61147213Y-73889850D01*
X61125005Y-73894176D01*
X61103647Y-73898499D01*
X61069006Y-73902904D01*
X61026820Y-73906727D01*
X61002247Y-73908355D01*
X60907080Y-73913783D01*
X60719126Y-73721789D01*
X60670545Y-73671899D01*
X60626625Y-73626288D01*
X60589056Y-73586752D01*
X60559526Y-73555084D01*
X60539725Y-73533081D01*
X60531341Y-73522537D01*
X60531172Y-73522035D01*
X60540198Y-73519582D01*
X60565314Y-73517405D01*
X60603579Y-73515637D01*
X60652050Y-73514413D01*
X60707784Y-73513869D01*
X60709609Y-73513864D01*
X60781357Y-73513137D01*
X60861000Y-73511402D01*
X60940873Y-73508885D01*
X61013311Y-73505807D01*
X61045072Y-73504085D01*
X61115242Y-73499917D01*
X61195290Y-73495192D01*
X61276096Y-73490446D01*
X61348538Y-73486218D01*
X61359122Y-73485603D01*
X61422427Y-73481331D01*
X61489014Y-73475825D01*
X61552242Y-73469697D01*
X61605471Y-73463559D01*
X61620831Y-73461476D01*
X61672191Y-73454257D01*
X61724859Y-73447101D01*
X61771059Y-73441053D01*
X61792131Y-73438428D01*
X61836282Y-73432119D01*
X61887741Y-73423333D01*
X61934881Y-73414073D01*
X61977491Y-73405197D01*
X62019032Y-73396975D01*
X62051206Y-73391043D01*
X62053840Y-73390597D01*
X62117049Y-73378355D01*
X62192215Y-73361030D01*
X62273406Y-73340034D01*
X62315548Y-73328275D01*
X62357721Y-73316369D01*
X62396873Y-73305614D01*
X62426647Y-73297744D01*
X62434506Y-73295793D01*
X62459050Y-73289203D01*
X62495085Y-73278660D01*
X62536006Y-73266114D01*
X62548706Y-73262105D01*
X62590155Y-73248926D01*
X62629058Y-73236566D01*
X62658634Y-73227181D01*
X62664654Y-73225274D01*
X62689111Y-73216381D01*
X62705090Y-73208479D01*
X62706686Y-73207200D01*
X62721410Y-73201066D01*
X62730022Y-73200224D01*
X62749851Y-73195960D01*
X62773640Y-73186008D01*
X62797865Y-73175869D01*
X62816991Y-73171733D01*
X62834212Y-73166695D01*
X62838965Y-73162157D01*
X62852753Y-73153356D01*
X62858300Y-73152641D01*
X62873931Y-73148928D01*
X62900128Y-73139352D01*
X62921976Y-73130073D01*
X62952744Y-73116536D01*
X62994507Y-73098546D01*
X63040673Y-73078929D01*
X63067365Y-73067714D01*
X63111199Y-73049033D01*
X63152695Y-73030733D01*
X63186074Y-73015392D01*
X63200599Y-73008271D01*
X63270382Y-72972060D01*
X63333429Y-72938978D01*
X63387320Y-72910314D01*
X63429634Y-72887358D01*
X63457952Y-72871400D01*
X63462307Y-72868809D01*
X63492296Y-72851079D01*
X63521364Y-72834529D01*
X63524165Y-72832984D01*
X63550423Y-72816790D01*
X63571749Y-72800992D01*
X63590800Y-72787022D01*
X63618927Y-72768983D01*
X63637734Y-72757855D01*
X63670387Y-72737334D01*
X63713215Y-72707767D01*
X63761881Y-72672423D01*
X63812045Y-72634568D01*
X63859371Y-72597473D01*
X63899520Y-72564404D01*
X63926245Y-72540486D01*
X63966691Y-72501544D01*
X63966691Y-72741071D01*
G37*
G36*
X64459316Y-69035982D02*
G01*
X64466316Y-69041438D01*
X64479550Y-69049040D01*
X64493524Y-69050955D01*
X64514517Y-69054324D01*
X64523892Y-69059096D01*
X64537466Y-69066189D01*
X64562981Y-69075932D01*
X64585274Y-69083215D01*
X64621451Y-69094820D01*
X64655928Y-69106778D01*
X64670925Y-69112430D01*
X64696395Y-69122174D01*
X64732454Y-69135507D01*
X64771731Y-69149708D01*
X64775608Y-69151091D01*
X64813893Y-69164996D01*
X64848813Y-69178141D01*
X64873497Y-69187936D01*
X64875533Y-69188800D01*
X64896660Y-69197555D01*
X64930067Y-69211024D01*
X64970297Y-69227018D01*
X64994491Y-69236543D01*
X65033400Y-69252260D01*
X65065834Y-69266212D01*
X65087543Y-69276525D01*
X65093941Y-69280435D01*
X65111197Y-69288508D01*
X65115093Y-69288871D01*
X65129670Y-69292578D01*
X65155455Y-69302221D01*
X65182186Y-69313648D01*
X65214443Y-69328044D01*
X65242039Y-69340117D01*
X65256200Y-69346099D01*
X65279446Y-69356363D01*
X65316716Y-69373882D01*
X65365110Y-69397205D01*
X65421723Y-69424883D01*
X65483654Y-69455469D01*
X65548000Y-69487512D01*
X65611860Y-69519564D01*
X65672330Y-69550176D01*
X65726507Y-69577900D01*
X65771491Y-69601285D01*
X65804378Y-69618884D01*
X65817501Y-69626302D01*
X65850327Y-69645485D01*
X65876403Y-69660301D01*
X65891827Y-69668552D01*
X65894266Y-69669538D01*
X65903354Y-69674208D01*
X65925253Y-69686871D01*
X65956587Y-69705507D01*
X65993981Y-69728096D01*
X66034058Y-69752619D01*
X66061273Y-69769463D01*
X66083164Y-69782988D01*
X66113131Y-69801386D01*
X66145667Y-69821290D01*
X66175266Y-69839334D01*
X66196419Y-69852151D01*
X66201372Y-69855113D01*
X66227674Y-69871681D01*
X66266210Y-69897260D01*
X66313836Y-69929647D01*
X66367408Y-69966637D01*
X66423782Y-70006025D01*
X66479815Y-70045608D01*
X66532364Y-70083180D01*
X66578284Y-70116538D01*
X66614432Y-70143477D01*
X66631359Y-70156629D01*
X66683399Y-70198388D01*
X66734366Y-70239452D01*
X66782075Y-70278042D01*
X66824341Y-70312384D01*
X66858979Y-70340700D01*
X66883804Y-70361213D01*
X66896632Y-70372148D01*
X66897826Y-70373309D01*
X66906427Y-70381446D01*
X66926472Y-70399512D01*
X66955063Y-70424921D01*
X66989306Y-70455084D01*
X66992993Y-70458318D01*
X67065259Y-70524068D01*
X67144921Y-70600682D01*
X67228349Y-70684376D01*
X67311915Y-70771369D01*
X67391992Y-70857877D01*
X67464950Y-70940119D01*
X67527162Y-71014311D01*
X67531555Y-71019772D01*
X67548393Y-71040441D01*
X67570889Y-71067648D01*
X67583026Y-71082194D01*
X67606218Y-71110703D01*
X67627461Y-71138151D01*
X67635368Y-71148972D01*
X67650410Y-71169913D01*
X67672359Y-71199992D01*
X67696746Y-71233088D01*
X67699383Y-71236647D01*
X67722126Y-71267938D01*
X67741194Y-71295289D01*
X67752996Y-71313531D01*
X67754042Y-71315391D01*
X67768053Y-71336691D01*
X67776016Y-71346110D01*
X67785004Y-71358188D01*
X67801814Y-71383214D01*
X67824360Y-71417884D01*
X67850558Y-71458894D01*
X67878321Y-71502940D01*
X67905565Y-71546719D01*
X67930204Y-71586926D01*
X67950153Y-71620257D01*
X67961189Y-71639490D01*
X67975761Y-71665763D01*
X67995008Y-71700380D01*
X68011447Y-71729898D01*
X68033740Y-71771369D01*
X68060601Y-71823533D01*
X68088719Y-71879759D01*
X68114783Y-71933413D01*
X68135481Y-71977865D01*
X68137369Y-71982090D01*
X68149769Y-72009949D01*
X68165595Y-72045437D01*
X68175556Y-72067740D01*
X68191924Y-72106432D01*
X68211999Y-72156999D01*
X68234060Y-72214773D01*
X68256387Y-72275083D01*
X68277259Y-72333262D01*
X68294957Y-72384640D01*
X68307760Y-72424548D01*
X68310542Y-72434132D01*
X68320455Y-72467283D01*
X68329857Y-72494703D01*
X68335401Y-72507757D01*
X68343009Y-72531387D01*
X68344360Y-72544546D01*
X68347150Y-72565095D01*
X68354274Y-72595183D01*
X68359653Y-72613671D01*
X68374036Y-72660278D01*
X68383453Y-72692954D01*
X68388907Y-72715844D01*
X68391401Y-72733092D01*
X68391944Y-72747104D01*
X68395690Y-72774325D01*
X68402101Y-72792204D01*
X68409689Y-72815244D01*
X68417759Y-72856540D01*
X68426192Y-72915327D01*
X68434871Y-72990839D01*
X68439175Y-73033682D01*
X68444114Y-73076638D01*
X68450061Y-73116320D01*
X68455963Y-73146007D01*
X68457758Y-73152578D01*
X68460698Y-73171708D01*
X68463162Y-73206755D01*
X68465149Y-73254935D01*
X68466662Y-73313464D01*
X68467701Y-73379557D01*
X68468268Y-73450433D01*
X68468364Y-73523306D01*
X68467991Y-73595393D01*
X68467149Y-73663910D01*
X68465840Y-73726074D01*
X68464066Y-73779101D01*
X68461827Y-73820206D01*
X68459125Y-73846607D01*
X68457432Y-73853876D01*
X68451717Y-73875468D01*
X68445691Y-73909858D01*
X68440378Y-73950857D01*
X68438812Y-73966316D01*
X68430361Y-74049187D01*
X68422128Y-74113668D01*
X68414011Y-74160403D01*
X68405912Y-74190031D01*
X68402904Y-74196778D01*
X68394971Y-74221227D01*
X68391944Y-74248136D01*
X68389050Y-74280935D01*
X68383304Y-74308241D01*
X68373000Y-74344061D01*
X68358740Y-74395069D01*
X68341416Y-74458050D01*
X68330195Y-74499250D01*
X68320487Y-74532430D01*
X68311225Y-74559861D01*
X68305736Y-74572875D01*
X68298537Y-74595649D01*
X68296777Y-74612759D01*
X68293566Y-74632763D01*
X68287992Y-74641547D01*
X68279866Y-74653942D01*
X68272949Y-74675474D01*
X68266669Y-74697009D01*
X68255202Y-74730358D01*
X68240579Y-74769723D01*
X68233776Y-74787186D01*
X68211343Y-74843548D01*
X68192536Y-74889683D01*
X68174963Y-74931109D01*
X68156231Y-74973342D01*
X68133947Y-75021901D01*
X68106910Y-75079767D01*
X68087628Y-75120848D01*
X68072518Y-75152778D01*
X68059679Y-75179209D01*
X68047215Y-75203796D01*
X68033227Y-75230192D01*
X68015817Y-75262051D01*
X67993086Y-75303027D01*
X67963137Y-75356773D01*
X67961055Y-75360509D01*
X67949027Y-75381176D01*
X67930378Y-75412144D01*
X67907125Y-75450173D01*
X67881286Y-75492026D01*
X67854877Y-75534464D01*
X67829914Y-75574249D01*
X67808415Y-75608143D01*
X67792395Y-75632907D01*
X67783873Y-75645302D01*
X67783250Y-75646009D01*
X67770709Y-75660283D01*
X67754590Y-75682030D01*
X67739057Y-75705150D01*
X67728273Y-75723541D01*
X67725777Y-75730231D01*
X67719367Y-75742080D01*
X67718042Y-75742762D01*
X67709020Y-75751504D01*
X67692356Y-75771645D01*
X67671434Y-75799068D01*
X67668518Y-75803034D01*
X67636102Y-75845996D01*
X67594573Y-75899024D01*
X67547350Y-75957862D01*
X67497853Y-76018252D01*
X67449500Y-76075935D01*
X67446880Y-76079017D01*
X67413834Y-76116088D01*
X67369209Y-76163548D01*
X67315490Y-76218964D01*
X67255161Y-76279898D01*
X67190707Y-76343916D01*
X67124613Y-76408583D01*
X67059363Y-76471463D01*
X66997441Y-76530120D01*
X66941333Y-76582120D01*
X66893523Y-76625027D01*
X66864518Y-76649848D01*
X66792382Y-76709434D01*
X66730752Y-76759801D01*
X66676166Y-76803588D01*
X66625165Y-76843434D01*
X66574289Y-76881978D01*
X66520075Y-76921860D01*
X66459065Y-76965719D01*
X66387797Y-77016195D01*
X66341101Y-77049048D01*
X66313724Y-77067905D01*
X66281734Y-77089384D01*
X66249113Y-77110887D01*
X66219840Y-77129817D01*
X66197897Y-77143577D01*
X66187263Y-77149569D01*
X66186939Y-77149643D01*
X66177507Y-77154871D01*
X66158921Y-77167946D01*
X66151613Y-77173435D01*
X66130266Y-77188377D01*
X66115040Y-77196646D01*
X66112552Y-77197227D01*
X66099726Y-77202899D01*
X66089658Y-77210555D01*
X66073095Y-77222519D01*
X66046654Y-77238964D01*
X66027050Y-77250200D01*
X65994537Y-77268471D01*
X65964036Y-77286076D01*
X65950917Y-77293890D01*
X65927264Y-77307645D01*
X65908832Y-77317315D01*
X65908092Y-77317652D01*
X65889874Y-77327582D01*
X65870025Y-77340165D01*
X65843105Y-77356672D01*
X65801744Y-77379823D01*
X65748751Y-77408215D01*
X65686934Y-77440441D01*
X65619099Y-77475097D01*
X65548056Y-77510779D01*
X65476610Y-77546082D01*
X65407571Y-77579601D01*
X65343746Y-77609933D01*
X65287942Y-77635671D01*
X65242968Y-77655412D01*
X65225902Y-77662404D01*
X65189431Y-77677516D01*
X65142665Y-77697861D01*
X65092443Y-77720386D01*
X65045605Y-77742037D01*
X65019200Y-77754691D01*
X64994085Y-77764640D01*
X64974466Y-77768350D01*
X64965974Y-77764804D01*
X64965941Y-77764322D01*
X64973328Y-77757783D01*
X64992319Y-77744530D01*
X65018160Y-77727581D01*
X65046099Y-77709954D01*
X65071382Y-77694665D01*
X65089256Y-77684733D01*
X65094707Y-77682577D01*
X65104580Y-77677671D01*
X65126393Y-77664531D01*
X65156279Y-77645527D01*
X65172392Y-77634993D01*
X65205040Y-77613973D01*
X65231771Y-77597702D01*
X65248599Y-77588564D01*
X65251967Y-77587410D01*
X65262337Y-77580414D01*
X65262544Y-77579960D01*
X65271592Y-77571740D01*
X65292802Y-77556526D01*
X65322076Y-77537216D01*
X65330878Y-77531646D01*
X65394223Y-77490572D01*
X65466714Y-77441283D01*
X65545658Y-77385795D01*
X65628361Y-77326125D01*
X65712131Y-77264289D01*
X65794274Y-77202302D01*
X65872098Y-77142182D01*
X65942909Y-77085944D01*
X66004015Y-77035605D01*
X66052723Y-76993180D01*
X66064074Y-76982712D01*
X66079592Y-76970038D01*
X66097160Y-76957244D01*
X66127279Y-76933923D01*
X66168311Y-76898426D01*
X66218358Y-76852652D01*
X66275522Y-76798503D01*
X66337903Y-76737877D01*
X66403605Y-76672675D01*
X66470727Y-76604796D01*
X66537372Y-76536141D01*
X66601642Y-76468608D01*
X66661637Y-76404099D01*
X66715460Y-76344512D01*
X66756003Y-76297901D01*
X66775195Y-76275500D01*
X66789150Y-76259545D01*
X66793271Y-76255076D01*
X66801068Y-76245816D01*
X66817408Y-76225447D01*
X66839158Y-76197887D01*
X66845629Y-76189621D01*
X66874833Y-76152306D01*
X66905709Y-76112933D01*
X66931454Y-76080179D01*
X66951962Y-76053438D01*
X66978299Y-76018067D01*
X67008509Y-75976809D01*
X67040632Y-75932411D01*
X67072710Y-75887616D01*
X67102785Y-75845171D01*
X67128898Y-75807821D01*
X67149091Y-75778309D01*
X67161404Y-75759382D01*
X67164293Y-75753823D01*
X67169565Y-75743098D01*
X67182736Y-75723707D01*
X67188085Y-75716538D01*
X67202983Y-75695607D01*
X67211269Y-75681251D01*
X67211876Y-75679042D01*
X67216935Y-75667924D01*
X67229475Y-75648278D01*
X67233289Y-75642854D01*
X67250346Y-75617755D01*
X67263769Y-75595860D01*
X67264891Y-75593801D01*
X67275581Y-75574142D01*
X67292826Y-75542894D01*
X67313848Y-75505058D01*
X67335871Y-75465631D01*
X67356114Y-75429613D01*
X67357519Y-75427125D01*
X67381802Y-75383012D01*
X67404819Y-75339188D01*
X67424795Y-75299255D01*
X67439957Y-75266813D01*
X67448528Y-75245464D01*
X67449793Y-75239875D01*
X67455517Y-75228325D01*
X67459310Y-75227275D01*
X67468552Y-75220224D01*
X67468826Y-75218019D01*
X67472505Y-75205041D01*
X67482086Y-75180482D01*
X67493662Y-75153781D01*
X67509169Y-75119313D01*
X67523408Y-75087437D01*
X67531009Y-75070250D01*
X67541777Y-75045832D01*
X67556567Y-75012481D01*
X67568032Y-74986719D01*
X67580999Y-74955013D01*
X67589884Y-74928278D01*
X67592543Y-74914551D01*
X67595790Y-74896456D01*
X67599065Y-74890842D01*
X67607210Y-74876374D01*
X67619053Y-74847143D01*
X67633352Y-74806766D01*
X67648862Y-74758860D01*
X67664340Y-74707043D01*
X67673168Y-74675308D01*
X67682965Y-74639509D01*
X67691844Y-74607959D01*
X67697227Y-74589658D01*
X67703467Y-74568056D01*
X67712354Y-74535558D01*
X67720703Y-74504008D01*
X67730660Y-74466042D01*
X67740149Y-74430324D01*
X67745956Y-74408841D01*
X67755984Y-74367751D01*
X67767551Y-74312989D01*
X67779687Y-74249753D01*
X67791422Y-74183237D01*
X67801784Y-74118639D01*
X67807273Y-74080516D01*
X67814444Y-74028322D01*
X67822024Y-73974066D01*
X67828870Y-73925905D01*
X67831983Y-73904458D01*
X67835045Y-73875020D01*
X67838098Y-73830097D01*
X67840978Y-73773233D01*
X67843522Y-73707974D01*
X67845568Y-73637869D01*
X67846666Y-73584851D01*
X67847840Y-73505006D01*
X67848226Y-73439806D01*
X67847623Y-73384873D01*
X67845828Y-73335827D01*
X67842641Y-73288288D01*
X67837859Y-73237879D01*
X67831281Y-73180220D01*
X67826043Y-73137567D01*
X67805486Y-72988023D01*
X67782810Y-72851493D01*
X67758384Y-72730004D01*
X67733807Y-72630047D01*
X67718280Y-72573308D01*
X67706399Y-72529730D01*
X67696752Y-72494124D01*
X67688936Y-72465061D01*
X67679088Y-72430864D01*
X67666606Y-72391083D01*
X67653025Y-72350188D01*
X67639884Y-72312653D01*
X67628718Y-72282949D01*
X67621065Y-72265549D01*
X67619607Y-72263307D01*
X67613111Y-72247167D01*
X67611576Y-72232940D01*
X67607768Y-72213550D01*
X67602060Y-72205732D01*
X67593951Y-72192254D01*
X67592543Y-72182149D01*
X67588394Y-72161025D01*
X67579148Y-72137507D01*
X67565512Y-72108277D01*
X67555357Y-72084394D01*
X67542750Y-72052941D01*
X67531959Y-72027029D01*
X67520420Y-72000815D01*
X67505566Y-71968452D01*
X67487483Y-71929748D01*
X67449207Y-71848991D01*
X67418049Y-71785243D01*
X67393734Y-71737976D01*
X67375986Y-71706660D01*
X67364530Y-71690767D01*
X67361764Y-71688659D01*
X67355740Y-71677758D01*
X67354626Y-71667808D01*
X67350198Y-71650009D01*
X67345364Y-71644405D01*
X67335784Y-71632681D01*
X67323397Y-71610586D01*
X67319977Y-71603398D01*
X67306670Y-71577032D01*
X67294236Y-71556623D01*
X67292119Y-71553840D01*
X67281117Y-71537739D01*
X67265399Y-71511639D01*
X67254321Y-71491981D01*
X67239165Y-71465896D01*
X67217889Y-71431362D01*
X67192613Y-71391590D01*
X67165459Y-71349791D01*
X67138546Y-71309179D01*
X67113997Y-71272965D01*
X67093932Y-71244361D01*
X67080472Y-71226579D01*
X67076264Y-71222342D01*
X67069208Y-71211454D01*
X67069126Y-71210040D01*
X67063581Y-71199212D01*
X67048397Y-71176350D01*
X67025748Y-71144344D01*
X66997810Y-71106081D01*
X66966758Y-71064451D01*
X66934767Y-71022342D01*
X66904013Y-70982643D01*
X66876670Y-70948243D01*
X66854914Y-70922030D01*
X66840921Y-70906894D01*
X66840715Y-70906706D01*
X66832436Y-70897081D01*
X66816565Y-70877234D01*
X66802462Y-70859122D01*
X66777599Y-70827798D01*
X66751799Y-70796683D01*
X66740849Y-70784033D01*
X66721255Y-70761913D01*
X66706094Y-70744774D01*
X66702734Y-70740966D01*
X66551190Y-70576095D01*
X66386623Y-70410055D01*
X66214089Y-70247623D01*
X66038646Y-70093571D01*
X65878571Y-69962999D01*
X65851576Y-69941586D01*
X65826364Y-69921200D01*
X65822442Y-69917971D01*
X65808595Y-69906553D01*
X65796558Y-69896868D01*
X65783287Y-69886643D01*
X65765740Y-69873608D01*
X65740872Y-69855489D01*
X65705641Y-69830016D01*
X65674934Y-69807855D01*
X65636206Y-69779785D01*
X65603226Y-69755644D01*
X65578978Y-69737636D01*
X65566450Y-69727964D01*
X65565492Y-69727099D01*
X65556064Y-69719979D01*
X65534239Y-69704759D01*
X65503497Y-69683836D01*
X65475083Y-69664780D01*
X65439732Y-69640983D01*
X65410545Y-69620905D01*
X65391004Y-69606968D01*
X65384675Y-69601889D01*
X65375569Y-69595463D01*
X65352536Y-69580509D01*
X65317860Y-69558474D01*
X65273827Y-69530801D01*
X65222720Y-69498937D01*
X65184825Y-69475448D01*
X65129555Y-69441251D01*
X65079167Y-69410043D01*
X65036089Y-69383332D01*
X65002749Y-69362624D01*
X64981576Y-69349424D01*
X64975458Y-69345565D01*
X64954442Y-69333598D01*
X64946908Y-69329952D01*
X64930170Y-69321094D01*
X64905628Y-69306685D01*
X64897127Y-69301458D01*
X64877121Y-69289898D01*
X64843376Y-69271376D01*
X64799100Y-69247585D01*
X64747506Y-69220221D01*
X64691804Y-69190977D01*
X64635204Y-69161546D01*
X64580917Y-69133624D01*
X64532933Y-69109295D01*
X64506235Y-69094873D01*
X64487595Y-69082898D01*
X64482177Y-69077694D01*
X64471230Y-69070441D01*
X64466998Y-69069988D01*
X64452104Y-69063492D01*
X64437766Y-69050955D01*
X64426372Y-69037174D01*
X64428696Y-69032440D01*
X64440488Y-69031921D01*
X64459316Y-69035982D01*
G37*
G36*
X63590782Y-69036873D02*
G01*
X63552715Y-69055314D01*
X63528558Y-69067630D01*
X63512574Y-69076916D01*
X63509890Y-69079009D01*
X63499830Y-69085467D01*
X63476928Y-69098312D01*
X63445292Y-69115270D01*
X63428999Y-69123793D01*
X63388388Y-69144996D01*
X63348403Y-69166064D01*
X63316249Y-69183198D01*
X63310040Y-69186550D01*
X63265131Y-69210778D01*
X63232597Y-69227954D01*
X63208178Y-69240269D01*
X63187610Y-69249917D01*
X63181565Y-69252613D01*
X63160092Y-69263299D01*
X63127750Y-69280752D01*
X63089973Y-69301921D01*
X63052194Y-69323750D01*
X63019849Y-69343188D01*
X63015023Y-69346196D01*
X63003161Y-69353565D01*
X62977537Y-69369430D01*
X62940587Y-69392284D01*
X62894742Y-69420623D01*
X62842438Y-69452941D01*
X62806270Y-69475283D01*
X62763303Y-69502377D01*
X62711973Y-69535648D01*
X62654417Y-69573629D01*
X62592772Y-69614850D01*
X62529172Y-69657844D01*
X62465756Y-69701141D01*
X62404659Y-69743275D01*
X62348018Y-69782775D01*
X62297969Y-69818173D01*
X62256649Y-69848002D01*
X62226195Y-69870793D01*
X62208742Y-69885077D01*
X62206106Y-69887788D01*
X62196451Y-69896413D01*
X62176543Y-69912481D01*
X62158523Y-69926488D01*
X62134288Y-69945348D01*
X62116715Y-69959559D01*
X62110940Y-69964707D01*
X62102288Y-69972219D01*
X62081378Y-69989565D01*
X62050778Y-70014638D01*
X62013052Y-70045334D01*
X61983446Y-70069308D01*
X61935472Y-70108288D01*
X61893459Y-70143036D01*
X61855047Y-70175722D01*
X61817877Y-70208513D01*
X61779587Y-70243579D01*
X61737817Y-70283088D01*
X61690209Y-70329210D01*
X61634400Y-70384113D01*
X61568032Y-70449967D01*
X61553748Y-70464180D01*
X61425918Y-70593957D01*
X61311455Y-70715763D01*
X61207989Y-70832336D01*
X61113152Y-70946415D01*
X61024575Y-71060737D01*
X60956124Y-71154924D01*
X60930068Y-71191622D01*
X60907438Y-71223197D01*
X60890840Y-71246027D01*
X60883272Y-71256042D01*
X60874673Y-71271705D01*
X60873772Y-71276661D01*
X60867292Y-71288369D01*
X60866127Y-71288959D01*
X60857740Y-71298306D01*
X60841714Y-71321027D01*
X60819961Y-71354032D01*
X60794393Y-71394230D01*
X60766924Y-71438533D01*
X60739466Y-71483850D01*
X60713931Y-71527091D01*
X60692232Y-71565168D01*
X60676281Y-71594990D01*
X60674548Y-71598467D01*
X60660874Y-71623555D01*
X60649028Y-71640782D01*
X60645397Y-71644232D01*
X60637263Y-71657726D01*
X60635855Y-71667808D01*
X60632406Y-71684201D01*
X60628437Y-71688659D01*
X60621936Y-71697900D01*
X60608862Y-71721316D01*
X60590806Y-71755891D01*
X60569362Y-71798607D01*
X60556416Y-71825065D01*
X60532821Y-71873535D01*
X60510975Y-71918060D01*
X60492757Y-71954836D01*
X60480046Y-71980061D01*
X60476506Y-71986848D01*
X60463965Y-72010636D01*
X60453746Y-72031524D01*
X60443675Y-72054506D01*
X60431583Y-72084575D01*
X60415299Y-72126724D01*
X60412376Y-72134357D01*
X60400751Y-72163549D01*
X60390527Y-72187288D01*
X60387445Y-72193707D01*
X60379993Y-72217027D01*
X60378905Y-72227575D01*
X60373336Y-72248771D01*
X60364933Y-72263392D01*
X60353694Y-72287706D01*
X60350658Y-72306132D01*
X60347383Y-72328125D01*
X60342008Y-72339441D01*
X60334556Y-72353608D01*
X60324419Y-72380377D01*
X60313548Y-72413892D01*
X60303892Y-72448295D01*
X60299384Y-72467440D01*
X60294076Y-72490074D01*
X60285925Y-72522284D01*
X60280313Y-72543573D01*
X60252904Y-72647861D01*
X60230388Y-72738046D01*
X60213054Y-72812919D01*
X60201190Y-72871273D01*
X60198610Y-72886174D01*
X60191492Y-72928277D01*
X60184127Y-72969517D01*
X60178225Y-73000374D01*
X60166813Y-73068283D01*
X60158098Y-73147575D01*
X60151958Y-73240117D01*
X60148270Y-73347777D01*
X60146911Y-73472421D01*
X60146906Y-73476207D01*
X60147664Y-73597025D01*
X60150532Y-73706884D01*
X60155901Y-73810866D01*
X60164164Y-73914051D01*
X60175713Y-74021518D01*
X60190940Y-74138350D01*
X60206084Y-74242300D01*
X60211836Y-74274342D01*
X60220683Y-74316783D01*
X60231332Y-74364100D01*
X60242493Y-74410767D01*
X60252872Y-74451260D01*
X60261177Y-74480055D01*
X60262848Y-74484975D01*
X60267897Y-74501814D01*
X60275392Y-74529881D01*
X60280862Y-74551591D01*
X60293327Y-74601856D01*
X60302633Y-74637994D01*
X60310008Y-74664399D01*
X60316680Y-74685465D01*
X60323878Y-74705585D01*
X60324055Y-74706060D01*
X60334073Y-74730336D01*
X60342387Y-74746256D01*
X60343833Y-74748092D01*
X60348698Y-74761619D01*
X60350355Y-74780412D01*
X60355338Y-74804093D01*
X60364630Y-74818058D01*
X60375987Y-74836493D01*
X60378905Y-74852661D01*
X60382477Y-74878052D01*
X60387445Y-74891942D01*
X60395933Y-74910629D01*
X60407396Y-74938519D01*
X60412376Y-74951292D01*
X60429610Y-74995935D01*
X60441850Y-75026599D01*
X60450673Y-75047170D01*
X60455161Y-75056644D01*
X60462135Y-75072061D01*
X60474118Y-75099839D01*
X60488860Y-75134745D01*
X60493352Y-75145505D01*
X60512125Y-75188069D01*
X60537382Y-75241832D01*
X60566415Y-75301325D01*
X60596517Y-75361082D01*
X60624980Y-75415633D01*
X60646912Y-75455675D01*
X60658099Y-75477193D01*
X60661391Y-75484225D01*
X60670191Y-75500832D01*
X60684663Y-75525480D01*
X60690598Y-75535135D01*
X60709526Y-75566597D01*
X60730327Y-75602712D01*
X60737745Y-75616027D01*
X60751243Y-75638875D01*
X60772651Y-75673100D01*
X60800002Y-75715735D01*
X60831328Y-75763817D01*
X60864660Y-75814379D01*
X60898031Y-75864457D01*
X60929473Y-75911084D01*
X60957018Y-75951297D01*
X60978698Y-75982130D01*
X60992545Y-76000617D01*
X60994485Y-76002888D01*
X61008702Y-76019967D01*
X61029666Y-76046782D01*
X61052949Y-76077665D01*
X61053952Y-76079022D01*
X61075049Y-76107253D01*
X61091822Y-76129108D01*
X61101037Y-76140385D01*
X61101536Y-76140876D01*
X61109968Y-76150331D01*
X61126367Y-76170031D01*
X61143062Y-76190602D01*
X61164494Y-76216859D01*
X61182511Y-76238205D01*
X61191035Y-76247702D01*
X61205833Y-76265133D01*
X61216762Y-76279867D01*
X61236959Y-76305713D01*
X61269057Y-76342692D01*
X61311131Y-76388854D01*
X61361255Y-76442252D01*
X61417506Y-76500935D01*
X61477957Y-76562957D01*
X61540685Y-76626366D01*
X61603765Y-76689215D01*
X61665271Y-76749555D01*
X61723279Y-76805437D01*
X61775865Y-76854912D01*
X61821103Y-76896030D01*
X61849891Y-76920916D01*
X61888247Y-76953139D01*
X61925407Y-76984629D01*
X61956492Y-77011240D01*
X61972998Y-77025600D01*
X62004303Y-77052477D01*
X62039234Y-77081413D01*
X62053070Y-77092543D01*
X62084583Y-77117947D01*
X62116539Y-77144294D01*
X62129153Y-77154919D01*
X62155841Y-77176508D01*
X62189718Y-77202408D01*
X62215623Y-77221372D01*
X62242543Y-77241297D01*
X62262517Y-77257389D01*
X62271137Y-77266059D01*
X62282073Y-77273127D01*
X62284799Y-77273360D01*
X62297294Y-77279053D01*
X62318853Y-77293793D01*
X62338727Y-77309430D01*
X62382453Y-77343933D01*
X62438249Y-77385214D01*
X62501852Y-77430287D01*
X62568996Y-77476162D01*
X62635415Y-77519852D01*
X62673933Y-77544266D01*
X62687481Y-77552805D01*
X62713649Y-77569379D01*
X62748999Y-77591806D01*
X62790091Y-77617907D01*
X62802002Y-77625477D01*
X62851937Y-77657168D01*
X62889147Y-77680594D01*
X62916937Y-77697750D01*
X62938614Y-77710629D01*
X62957483Y-77721225D01*
X62976852Y-77731532D01*
X62984248Y-77735381D01*
X63006151Y-77748180D01*
X63019594Y-77758680D01*
X63020497Y-77759867D01*
X63017495Y-77766026D01*
X63004304Y-77768165D01*
X62989451Y-77765732D01*
X62983676Y-77762257D01*
X62972627Y-77755871D01*
X62947972Y-77743786D01*
X62913613Y-77727771D01*
X62873449Y-77709596D01*
X62831381Y-77691032D01*
X62791310Y-77673847D01*
X62763660Y-77662423D01*
X62739864Y-77652049D01*
X62703106Y-77635053D01*
X62656053Y-77612749D01*
X62601370Y-77586448D01*
X62541724Y-77557465D01*
X62479781Y-77527113D01*
X62418207Y-77496704D01*
X62359668Y-77467552D01*
X62306831Y-77440970D01*
X62262361Y-77418270D01*
X62228926Y-77400767D01*
X62209191Y-77389773D01*
X62206335Y-77387937D01*
X62185625Y-77374785D01*
X62154857Y-77356837D01*
X62122307Y-77338858D01*
X62089955Y-77321400D01*
X62062587Y-77306447D01*
X62046077Y-77297208D01*
X62045980Y-77297152D01*
X62026719Y-77285763D01*
X61997519Y-77268333D01*
X61964728Y-77248668D01*
X61934696Y-77230575D01*
X61915848Y-77219134D01*
X61894239Y-77206846D01*
X61882539Y-77200951D01*
X61865478Y-77191090D01*
X61842620Y-77175616D01*
X61839714Y-77173508D01*
X61818395Y-77158683D01*
X61803085Y-77149403D01*
X61801648Y-77148745D01*
X61786973Y-77140693D01*
X61763337Y-77125709D01*
X61735549Y-77107095D01*
X61708420Y-77088154D01*
X61686759Y-77072189D01*
X61675377Y-77062503D01*
X61674759Y-77061614D01*
X61663799Y-77054982D01*
X61658898Y-77054476D01*
X61645104Y-77049970D01*
X61643036Y-77047339D01*
X61634158Y-77038946D01*
X61613481Y-77023121D01*
X61585073Y-77002944D01*
X61578006Y-76998102D01*
X61513572Y-76952792D01*
X61438772Y-76897731D01*
X61357431Y-76835851D01*
X61273376Y-76770083D01*
X61190432Y-76703361D01*
X61149756Y-76669881D01*
X61111473Y-76636940D01*
X61063668Y-76593983D01*
X61008656Y-76543251D01*
X60948755Y-76486985D01*
X60886280Y-76427427D01*
X60823549Y-76366816D01*
X60762877Y-76307395D01*
X60706582Y-76251403D01*
X60656979Y-76201082D01*
X60616385Y-76158673D01*
X60587117Y-76126417D01*
X60583091Y-76121696D01*
X60563727Y-76098884D01*
X60536749Y-76067384D01*
X60507027Y-76032874D01*
X60497427Y-76021771D01*
X60466916Y-75985930D01*
X60436786Y-75949548D01*
X60412388Y-75919112D01*
X60407265Y-75912476D01*
X60388344Y-75888195D01*
X60373860Y-75870615D01*
X60368451Y-75864892D01*
X60361128Y-75855839D01*
X60344925Y-75833932D01*
X60321842Y-75801933D01*
X60293880Y-75762605D01*
X60275437Y-75736417D01*
X60245218Y-75693465D01*
X60218451Y-75655622D01*
X60197218Y-75625813D01*
X60183599Y-75606965D01*
X60179996Y-75602193D01*
X60171056Y-75589264D01*
X60154564Y-75563676D01*
X60132776Y-75529082D01*
X60107949Y-75489135D01*
X60082338Y-75447486D01*
X60058200Y-75407789D01*
X60037791Y-75373696D01*
X60023366Y-75348861D01*
X60021899Y-75346234D01*
X60002980Y-75311192D01*
X59979290Y-75266003D01*
X59952937Y-75214833D01*
X59926030Y-75161846D01*
X59900677Y-75111208D01*
X59878986Y-75067085D01*
X59863067Y-75033643D01*
X59858120Y-75022667D01*
X59843312Y-74988989D01*
X59824751Y-74947277D01*
X59807314Y-74908467D01*
X59791574Y-74871478D01*
X59772532Y-74823407D01*
X59751689Y-74768417D01*
X59730547Y-74710675D01*
X59710609Y-74654343D01*
X59693375Y-74603585D01*
X59680349Y-74562567D01*
X59673441Y-74537316D01*
X59665713Y-74507852D01*
X59657628Y-74483630D01*
X59656185Y-74480216D01*
X59647324Y-74455233D01*
X59642829Y-74437391D01*
X59638183Y-74416986D01*
X59630166Y-74384533D01*
X59620352Y-74346368D01*
X59618321Y-74338640D01*
X59608895Y-74299743D01*
X59601908Y-74264843D01*
X59598635Y-74240459D01*
X59598538Y-74237498D01*
X59594781Y-74210849D01*
X59585600Y-74180467D01*
X59584263Y-74177151D01*
X59574874Y-74144441D01*
X59570129Y-74107872D01*
X59569988Y-74101759D01*
X59568092Y-74074304D01*
X59563340Y-74054937D01*
X59561200Y-74051490D01*
X59555645Y-74036596D01*
X59550257Y-74005039D01*
X59545116Y-73959190D01*
X59540303Y-73901421D01*
X59535899Y-73834100D01*
X59531982Y-73759600D01*
X59528634Y-73680291D01*
X59525935Y-73598543D01*
X59523965Y-73516727D01*
X59522805Y-73437214D01*
X59522534Y-73362375D01*
X59523233Y-73294580D01*
X59524983Y-73236200D01*
X59527863Y-73189605D01*
X59531076Y-73162157D01*
X59537517Y-73120349D01*
X59544731Y-73070534D01*
X59551066Y-73024165D01*
X59559731Y-72958526D01*
X59566416Y-72909238D01*
X59571528Y-72873767D01*
X59575474Y-72849581D01*
X59578660Y-72834148D01*
X59581494Y-72824934D01*
X59583794Y-72820316D01*
X59589284Y-72804889D01*
X59595604Y-72777943D01*
X59598992Y-72759540D01*
X59611600Y-72686689D01*
X59622314Y-72632010D01*
X59631287Y-72594755D01*
X59635413Y-72581751D01*
X59642757Y-72559636D01*
X59652660Y-72527257D01*
X59660369Y-72500748D01*
X59673153Y-72456101D01*
X59683983Y-72419740D01*
X59694556Y-72386546D01*
X59706570Y-72351401D01*
X59721724Y-72309185D01*
X59741714Y-72254779D01*
X59744013Y-72248557D01*
X59761550Y-72201976D01*
X59777352Y-72161624D01*
X59790014Y-72130968D01*
X59798134Y-72113474D01*
X59799697Y-72111041D01*
X59807483Y-72093650D01*
X59807905Y-72089115D01*
X59811955Y-72075911D01*
X59823099Y-72048906D01*
X59839828Y-72011280D01*
X59860633Y-71966210D01*
X59884005Y-71916876D01*
X59908434Y-71866454D01*
X59932411Y-71818123D01*
X59954427Y-71775061D01*
X59972973Y-71740447D01*
X59976224Y-71734656D01*
X59991237Y-71708018D01*
X60010640Y-71673348D01*
X60025768Y-71646181D01*
X60047951Y-71607952D01*
X60076849Y-71560714D01*
X60110812Y-71506931D01*
X60148186Y-71449067D01*
X60187320Y-71389587D01*
X60226562Y-71330955D01*
X60264260Y-71275636D01*
X60298760Y-71226092D01*
X60328413Y-71184790D01*
X60351565Y-71154192D01*
X60366564Y-71136763D01*
X60368402Y-71135106D01*
X60376557Y-71125657D01*
X60392759Y-71105086D01*
X60413728Y-71077569D01*
X60416972Y-71073248D01*
X60438329Y-71045075D01*
X60455352Y-71023239D01*
X60464778Y-71011913D01*
X60465323Y-71011389D01*
X60473544Y-71002410D01*
X60490878Y-70982363D01*
X60514261Y-70954808D01*
X60526691Y-70940014D01*
X60617822Y-70836087D01*
X60722090Y-70725689D01*
X60836194Y-70611945D01*
X60956832Y-70497976D01*
X61080703Y-70386905D01*
X61204505Y-70281856D01*
X61319646Y-70190016D01*
X61374085Y-70148490D01*
X61431764Y-70105193D01*
X61489828Y-70062205D01*
X61545421Y-70021606D01*
X61595687Y-69985473D01*
X61637770Y-69955887D01*
X61668816Y-69934927D01*
X61677931Y-69929162D01*
X61691699Y-69920593D01*
X61718705Y-69903637D01*
X61756102Y-69880088D01*
X61801045Y-69851738D01*
X61850687Y-69820379D01*
X61853989Y-69818292D01*
X61906292Y-69785421D01*
X61956473Y-69754240D01*
X62001019Y-69726905D01*
X62036418Y-69705571D01*
X62058598Y-69692702D01*
X62091093Y-69674527D01*
X62121582Y-69657150D01*
X62134731Y-69649489D01*
X62175344Y-69626462D01*
X62229657Y-69597135D01*
X62294143Y-69563297D01*
X62365273Y-69526737D01*
X62439519Y-69489241D01*
X62513352Y-69452600D01*
X62583243Y-69418601D01*
X62645664Y-69389032D01*
X62677182Y-69374559D01*
X62710191Y-69359559D01*
X62751708Y-69340585D01*
X62792960Y-69321648D01*
X62794456Y-69320960D01*
X62828103Y-69305949D01*
X62855324Y-69294695D01*
X62871352Y-69289141D01*
X62873098Y-69288871D01*
X62888249Y-69284620D01*
X62898573Y-69279652D01*
X62913855Y-69272560D01*
X62942531Y-69260444D01*
X62980230Y-69245119D01*
X63015023Y-69231345D01*
X63057173Y-69214819D01*
X63094244Y-69200216D01*
X63121745Y-69189307D01*
X63133982Y-69184374D01*
X63206240Y-69154638D01*
X63262630Y-69131890D01*
X63304737Y-69115528D01*
X63334147Y-69104947D01*
X63352445Y-69099544D01*
X63359441Y-69098519D01*
X63376350Y-69094010D01*
X63380904Y-69089849D01*
X63392956Y-69082883D01*
X63416348Y-69076245D01*
X63424240Y-69074746D01*
X63449521Y-69068702D01*
X63465671Y-69061559D01*
X63467577Y-69059643D01*
X63480359Y-69052714D01*
X63494274Y-69050955D01*
X63515882Y-69046664D01*
X63525861Y-69040694D01*
X63542136Y-69034214D01*
X63563452Y-69033653D01*
X63590782Y-69036873D01*
G37*
G36*
X64840759Y-69323736D02*
G01*
X64870775Y-69341213D01*
X64895209Y-69355418D01*
X64913574Y-69363925D01*
X64918169Y-69365005D01*
X64927563Y-69372131D01*
X64927875Y-69374521D01*
X64935124Y-69383753D01*
X64937446Y-69384038D01*
X64947925Y-69388883D01*
X64972115Y-69402472D01*
X65007632Y-69423391D01*
X65052093Y-69450225D01*
X65103114Y-69481556D01*
X65134917Y-69501322D01*
X65244359Y-69570260D01*
X65338631Y-69631033D01*
X65419240Y-69684656D01*
X65487690Y-69732143D01*
X65545485Y-69774509D01*
X65580366Y-69801628D01*
X65596575Y-69812444D01*
X65610553Y-69820455D01*
X65632208Y-69834288D01*
X65643262Y-69843291D01*
X65656306Y-69854070D01*
X65680549Y-69872713D01*
X65711735Y-69895975D01*
X65727275Y-69907357D01*
X65765862Y-69936296D01*
X65811965Y-69972133D01*
X65858623Y-70009409D01*
X65884883Y-70030938D01*
X65923970Y-70063250D01*
X65962383Y-70094755D01*
X65995092Y-70121337D01*
X66013214Y-70135855D01*
X66045582Y-70162354D01*
X66081140Y-70192752D01*
X66098282Y-70207941D01*
X66129947Y-70236203D01*
X66163244Y-70265453D01*
X66179268Y-70279316D01*
X66212532Y-70309228D01*
X66255566Y-70350045D01*
X66306193Y-70399518D01*
X66362236Y-70455402D01*
X66421518Y-70515450D01*
X66481862Y-70577415D01*
X66541092Y-70639051D01*
X66597030Y-70698112D01*
X66647500Y-70752350D01*
X66690326Y-70799520D01*
X66723329Y-70837374D01*
X66740473Y-70858492D01*
X66755052Y-70876864D01*
X66764447Y-70887528D01*
X66764608Y-70887672D01*
X66778350Y-70902436D01*
X66801098Y-70929935D01*
X66830760Y-70967443D01*
X66865245Y-71012233D01*
X66902462Y-71061576D01*
X66940320Y-71112746D01*
X66976727Y-71163015D01*
X66989629Y-71181147D01*
X67021837Y-71226611D01*
X67050493Y-71266959D01*
X67073687Y-71299506D01*
X67089505Y-71321569D01*
X67095819Y-71330198D01*
X67105158Y-71343714D01*
X67121180Y-71368448D01*
X67141608Y-71400720D01*
X67164163Y-71436849D01*
X67186565Y-71473155D01*
X67206536Y-71505956D01*
X67221796Y-71531573D01*
X67230068Y-71546324D01*
X67230910Y-71548381D01*
X67235651Y-71558451D01*
X67248000Y-71579606D01*
X67262974Y-71603617D01*
X67275953Y-71626044D01*
X67295277Y-71662131D01*
X67319170Y-71708325D01*
X67345853Y-71761072D01*
X67373551Y-71816818D01*
X67400488Y-71872011D01*
X67424886Y-71923095D01*
X67444969Y-71966518D01*
X67449804Y-71977331D01*
X67458087Y-71996053D01*
X67470958Y-72025145D01*
X67482559Y-72051368D01*
X67495209Y-72080756D01*
X67504009Y-72102717D01*
X67506893Y-72111788D01*
X67510326Y-72123379D01*
X67518709Y-72144478D01*
X67519876Y-72147193D01*
X67544312Y-72206394D01*
X67564356Y-72260370D01*
X67572940Y-72286623D01*
X67579803Y-72308631D01*
X67590998Y-72343867D01*
X67604969Y-72387460D01*
X67620030Y-72434132D01*
X67635358Y-72482387D01*
X67649424Y-72528326D01*
X67660628Y-72566618D01*
X67667185Y-72591157D01*
X67679513Y-72643967D01*
X67693068Y-72703502D01*
X67706028Y-72761651D01*
X67716566Y-72810309D01*
X67717513Y-72814799D01*
X67725348Y-72850616D01*
X67733326Y-72884875D01*
X67736004Y-72895690D01*
X67741542Y-72922373D01*
X67747895Y-72962610D01*
X67755232Y-73017681D01*
X67763722Y-73088869D01*
X67773533Y-73177456D01*
X67775972Y-73200224D01*
X67780477Y-73257029D01*
X67783774Y-73328945D01*
X67785865Y-73412088D01*
X67786755Y-73502575D01*
X67786446Y-73596520D01*
X67784941Y-73690042D01*
X67782245Y-73779254D01*
X67778360Y-73860275D01*
X67775373Y-73904458D01*
X67766343Y-74006973D01*
X67755532Y-74098939D01*
X67741834Y-74187545D01*
X67724140Y-74279980D01*
X67702068Y-74380291D01*
X67692904Y-74420121D01*
X67684382Y-74457274D01*
X67678275Y-74484017D01*
X67678058Y-74484975D01*
X67670847Y-74513576D01*
X67660766Y-74549923D01*
X67654670Y-74570625D01*
X67644815Y-74604811D01*
X67636726Y-74635641D01*
X67633630Y-74649254D01*
X67627067Y-74670270D01*
X67619996Y-74680745D01*
X67613206Y-74693407D01*
X67611518Y-74706799D01*
X67607086Y-74730250D01*
X67597243Y-74754909D01*
X67587124Y-74779112D01*
X67583026Y-74798209D01*
X67578512Y-74817487D01*
X67574810Y-74823292D01*
X67568085Y-74836005D01*
X67557367Y-74861939D01*
X67544621Y-74896239D01*
X67540339Y-74908467D01*
X67525310Y-74950475D01*
X67509708Y-74991554D01*
X67496571Y-75023749D01*
X67494953Y-75027425D01*
X67440321Y-75147660D01*
X67390591Y-75252851D01*
X67346228Y-75342042D01*
X67307692Y-75414282D01*
X67305828Y-75417609D01*
X67283630Y-75457280D01*
X67259514Y-75500655D01*
X67247550Y-75522292D01*
X67229424Y-75554540D01*
X67212570Y-75583476D01*
X67203391Y-75598466D01*
X67182534Y-75631181D01*
X67169492Y-75652403D01*
X67161624Y-75666540D01*
X67157789Y-75674559D01*
X67149111Y-75689890D01*
X67145951Y-75693592D01*
X67139043Y-75702764D01*
X67123539Y-75724971D01*
X67101374Y-75757393D01*
X67074483Y-75797208D01*
X67057514Y-75822530D01*
X67024617Y-75871059D01*
X66991140Y-75919231D01*
X66960371Y-75962393D01*
X66935601Y-75995889D01*
X66929042Y-76004360D01*
X66901742Y-76039038D01*
X66868567Y-76081294D01*
X66835347Y-76123700D01*
X66824845Y-76137131D01*
X66797792Y-76171457D01*
X66773339Y-76201967D01*
X66755015Y-76224282D01*
X66748711Y-76231605D01*
X66734448Y-76247842D01*
X66712106Y-76273708D01*
X66685907Y-76304307D01*
X66678943Y-76312484D01*
X66631040Y-76367014D01*
X66572833Y-76430462D01*
X66508093Y-76498935D01*
X66440591Y-76568539D01*
X66374098Y-76635380D01*
X66312385Y-76695565D01*
X66264429Y-76740474D01*
X66187062Y-76810790D01*
X66122396Y-76869134D01*
X66069248Y-76916556D01*
X66026437Y-76954104D01*
X65992779Y-76982829D01*
X65974709Y-76997704D01*
X65948125Y-77019301D01*
X65927742Y-77036133D01*
X65917769Y-77044722D01*
X65917609Y-77044883D01*
X65907770Y-77053019D01*
X65888005Y-77068237D01*
X65874784Y-77078163D01*
X65848010Y-77098468D01*
X65824701Y-77116766D01*
X65817684Y-77122517D01*
X65769356Y-77161755D01*
X65710976Y-77206456D01*
X65640503Y-77258147D01*
X65556112Y-77318202D01*
X65510833Y-77350121D01*
X65470689Y-77378535D01*
X65438390Y-77401518D01*
X65416644Y-77417142D01*
X65408467Y-77423212D01*
X65398385Y-77430115D01*
X65375400Y-77445228D01*
X65342656Y-77466529D01*
X65303298Y-77491991D01*
X65260471Y-77519593D01*
X65217319Y-77547310D01*
X65176986Y-77573117D01*
X65142617Y-77594992D01*
X65117357Y-77610911D01*
X65105859Y-77617974D01*
X65093129Y-77625661D01*
X65068376Y-77640722D01*
X65035808Y-77660594D01*
X65016008Y-77672695D01*
X64982110Y-77693214D01*
X64954804Y-77709348D01*
X64937787Y-77718935D01*
X64934056Y-77720644D01*
X64925085Y-77725530D01*
X64904023Y-77738619D01*
X64874613Y-77757558D01*
X64858342Y-77768227D01*
X64826125Y-77789182D01*
X64800320Y-77805428D01*
X64784714Y-77814607D01*
X64781945Y-77815810D01*
X64772321Y-77820277D01*
X64750553Y-77832131D01*
X64720869Y-77849051D01*
X64712577Y-77853877D01*
X64679871Y-77871802D01*
X64652081Y-77884920D01*
X64632078Y-77892212D01*
X64622732Y-77892660D01*
X64626913Y-77885246D01*
X64628575Y-77883674D01*
X64639964Y-77874738D01*
X64662852Y-77857771D01*
X64693204Y-77835744D01*
X64708991Y-77824424D01*
X64741840Y-77800802D01*
X64769504Y-77780616D01*
X64787777Y-77766948D01*
X64791871Y-77763698D01*
X64805513Y-77752869D01*
X64828614Y-77735177D01*
X64847911Y-77720644D01*
X64876603Y-77698467D01*
X64918043Y-77665393D01*
X64970476Y-77622848D01*
X65032144Y-77572258D01*
X65101293Y-77515050D01*
X65108692Y-77508903D01*
X65225008Y-77408935D01*
X65347349Y-77297762D01*
X65471009Y-77179904D01*
X65591288Y-77059879D01*
X65703480Y-76942205D01*
X65740150Y-76902210D01*
X65778940Y-76859441D01*
X65813327Y-76821576D01*
X65841276Y-76790848D01*
X65860757Y-76769492D01*
X65869735Y-76759743D01*
X65870009Y-76759460D01*
X65878008Y-76750030D01*
X65894127Y-76730165D01*
X65912528Y-76707118D01*
X65932911Y-76681707D01*
X65948591Y-76662687D01*
X65955599Y-76654776D01*
X65963909Y-76645132D01*
X65979758Y-76625246D01*
X65993742Y-76607193D01*
X66012646Y-76582951D01*
X66026959Y-76565377D01*
X66032199Y-76559609D01*
X66040237Y-76550123D01*
X66056250Y-76529472D01*
X66076986Y-76501862D01*
X66080029Y-76497751D01*
X66102292Y-76468076D01*
X66121409Y-76443407D01*
X66133518Y-76428718D01*
X66134113Y-76428075D01*
X66144297Y-76414129D01*
X66146009Y-76408938D01*
X66151777Y-76398639D01*
X66166574Y-76379301D01*
X66179135Y-76364414D01*
X66197819Y-76341718D01*
X66209915Y-76324564D01*
X66212443Y-76318898D01*
X66218477Y-76307551D01*
X66233099Y-76289338D01*
X66236417Y-76285687D01*
X66252089Y-76266722D01*
X66259983Y-76253127D01*
X66260209Y-76251744D01*
X66265471Y-76240735D01*
X66279494Y-76218580D01*
X66299636Y-76189375D01*
X66307792Y-76178039D01*
X66329435Y-76147579D01*
X66345928Y-76123028D01*
X66354646Y-76108349D01*
X66355376Y-76106232D01*
X66360654Y-76095313D01*
X66373840Y-76075802D01*
X66379167Y-76068655D01*
X66394174Y-76046692D01*
X66402415Y-76030180D01*
X66402959Y-76027311D01*
X66409049Y-76017554D01*
X66411366Y-76017159D01*
X66421115Y-76009432D01*
X66425507Y-76000505D01*
X66434396Y-75980995D01*
X66448073Y-75956537D01*
X66448831Y-75955301D01*
X66469801Y-75920059D01*
X66495483Y-75875140D01*
X66521789Y-75827740D01*
X66532591Y-75807799D01*
X66545163Y-75785428D01*
X66554163Y-75771265D01*
X66555451Y-75769733D01*
X66562903Y-75758053D01*
X66576898Y-75732015D01*
X66596102Y-75694405D01*
X66619183Y-75648009D01*
X66644806Y-75595612D01*
X66671638Y-75540000D01*
X66698345Y-75483961D01*
X66723593Y-75430278D01*
X66746048Y-75381740D01*
X66764378Y-75341130D01*
X66777247Y-75311237D01*
X66783323Y-75294844D01*
X66783626Y-75293099D01*
X66784640Y-75285621D01*
X66788881Y-75273991D01*
X66798145Y-75254027D01*
X66814231Y-75221549D01*
X66815324Y-75219367D01*
X66825969Y-75193882D01*
X66831120Y-75173215D01*
X66831209Y-75171307D01*
X66835621Y-75151932D01*
X66839397Y-75145908D01*
X66846624Y-75132375D01*
X66856689Y-75106937D01*
X66864337Y-75084525D01*
X66875040Y-75052712D01*
X66884761Y-75026522D01*
X66889459Y-75015658D01*
X66896598Y-74996475D01*
X66897826Y-74988547D01*
X66901390Y-74973129D01*
X66910056Y-74949941D01*
X66910906Y-74947972D01*
X66921754Y-74919247D01*
X66932666Y-74884636D01*
X66935277Y-74875158D01*
X66943849Y-74844209D01*
X66955614Y-74803696D01*
X66968072Y-74762222D01*
X66968459Y-74760958D01*
X66981965Y-74713703D01*
X66995908Y-74659814D01*
X67006714Y-74613450D01*
X67015427Y-74575226D01*
X67023796Y-74542407D01*
X67030284Y-74520946D01*
X67031330Y-74518283D01*
X67037389Y-74497061D01*
X67042578Y-74466952D01*
X67043789Y-74456425D01*
X67049212Y-74409407D01*
X67056095Y-74361477D01*
X67063636Y-74317233D01*
X67071028Y-74281272D01*
X67077466Y-74258192D01*
X67079168Y-74254325D01*
X67083856Y-74236510D01*
X67087109Y-74206570D01*
X67088159Y-74175506D01*
X67090408Y-74136668D01*
X67096232Y-74100117D01*
X67102434Y-74079048D01*
X67111833Y-74052485D01*
X67116572Y-74031123D01*
X67116709Y-74028532D01*
X67120794Y-74012049D01*
X67131484Y-73984770D01*
X67145948Y-73953671D01*
X67157495Y-73933230D01*
X67173460Y-73910161D01*
X67195369Y-73882730D01*
X67224747Y-73849201D01*
X67263118Y-73807838D01*
X67312009Y-73756907D01*
X67372945Y-73694673D01*
X67379281Y-73688246D01*
X67429928Y-73636389D01*
X67475704Y-73588532D01*
X67515019Y-73546419D01*
X67546279Y-73511794D01*
X67567891Y-73486402D01*
X67578263Y-73471987D01*
X67578898Y-73469659D01*
X67568623Y-73457729D01*
X67548056Y-73441485D01*
X67538277Y-73434927D01*
X67509274Y-73413824D01*
X67482992Y-73390621D01*
X67478343Y-73385771D01*
X67457948Y-73366201D01*
X67428838Y-73341557D01*
X67402210Y-73320872D01*
X67374036Y-73299712D01*
X67351204Y-73282068D01*
X67339027Y-73272077D01*
X67323997Y-73259731D01*
X67302601Y-73243659D01*
X67301756Y-73243049D01*
X67283074Y-73228927D01*
X67254280Y-73206391D01*
X67219990Y-73179078D01*
X67198397Y-73161665D01*
X67162895Y-73132142D01*
X67139941Y-73110579D01*
X67126760Y-73093646D01*
X67120571Y-73078018D01*
X67118945Y-73066498D01*
X67114997Y-73035844D01*
X67108288Y-73000129D01*
X67106179Y-72990857D01*
X67099551Y-72958278D01*
X67092622Y-72916658D01*
X67087725Y-72881415D01*
X67081508Y-72837134D01*
X67073158Y-72785537D01*
X67064649Y-72738665D01*
X67056189Y-72694004D01*
X67047999Y-72648556D01*
X67041782Y-72611782D01*
X67041529Y-72610190D01*
X67027762Y-72538659D01*
X67006546Y-72450902D01*
X66978196Y-72348074D01*
X66943023Y-72231328D01*
X66916683Y-72148632D01*
X66894981Y-72081868D01*
X66878277Y-72030777D01*
X66865736Y-71992914D01*
X66856522Y-71965833D01*
X66849800Y-71947090D01*
X66844732Y-71934241D01*
X66840484Y-71924840D01*
X66839450Y-71922740D01*
X66832219Y-71898847D01*
X66831209Y-71888217D01*
X66824292Y-71867072D01*
X66816934Y-71858373D01*
X66804837Y-71842102D01*
X66802659Y-71833287D01*
X66798347Y-71813902D01*
X66793794Y-71803523D01*
X66786200Y-71787176D01*
X66773989Y-71758597D01*
X66759491Y-71723274D01*
X66755853Y-71714207D01*
X66741077Y-71678505D01*
X66723426Y-71638496D01*
X66701665Y-71591555D01*
X66674559Y-71535061D01*
X66640873Y-71466389D01*
X66608682Y-71401573D01*
X66560731Y-71309551D01*
X66511822Y-71223314D01*
X66482424Y-71175367D01*
X66465787Y-71148498D01*
X66454252Y-71128528D01*
X66450542Y-71120482D01*
X66445678Y-71110131D01*
X66432680Y-71087739D01*
X66413946Y-71057066D01*
X66391869Y-71021871D01*
X66368847Y-70985914D01*
X66347274Y-70952953D01*
X66329546Y-70926747D01*
X66318058Y-70911057D01*
X66315325Y-70908292D01*
X66307815Y-70897480D01*
X66307792Y-70896819D01*
X66302819Y-70886116D01*
X66289931Y-70864542D01*
X66272174Y-70836787D01*
X66252594Y-70807539D01*
X66234237Y-70781489D01*
X66224580Y-70768714D01*
X66216250Y-70757597D01*
X66199263Y-70734524D01*
X66176150Y-70702943D01*
X66151251Y-70668789D01*
X66124803Y-70633055D01*
X66102035Y-70603421D01*
X66085443Y-70583065D01*
X66077666Y-70575208D01*
X66070430Y-70564262D01*
X66069875Y-70559347D01*
X66065021Y-70545560D01*
X66062178Y-70543486D01*
X66053141Y-70534774D01*
X66036384Y-70514702D01*
X66015299Y-70487361D01*
X66012215Y-70483214D01*
X65987975Y-70451297D01*
X65964896Y-70422301D01*
X65947938Y-70402454D01*
X65947816Y-70402322D01*
X65934422Y-70387415D01*
X65911137Y-70360970D01*
X65880486Y-70325875D01*
X65844991Y-70285019D01*
X65814742Y-70250055D01*
X65762574Y-70191428D01*
X65700104Y-70124138D01*
X65630211Y-70051063D01*
X65555774Y-69975080D01*
X65479674Y-69899068D01*
X65404791Y-69825903D01*
X65334004Y-69758464D01*
X65270192Y-69699629D01*
X65218133Y-69653881D01*
X65183039Y-69624100D01*
X65146567Y-69593153D01*
X65117487Y-69568484D01*
X65087111Y-69542651D01*
X65050579Y-69511488D01*
X65018396Y-69483963D01*
X64985341Y-69456724D01*
X64943650Y-69423895D01*
X64900233Y-69390870D01*
X64881311Y-69376901D01*
X64847536Y-69350681D01*
X64826232Y-69331033D01*
X64817761Y-69319178D01*
X64822483Y-69316338D01*
X64840759Y-69323736D01*
G37*
G36*
X63172331Y-69322095D02*
G01*
X63160213Y-69336622D01*
X63132415Y-69359580D01*
X63128631Y-69362382D01*
X63098374Y-69385453D01*
X63056956Y-69418245D01*
X63007642Y-69458061D01*
X62953694Y-69502206D01*
X62898378Y-69547980D01*
X62844955Y-69592688D01*
X62796691Y-69633633D01*
X62756848Y-69668117D01*
X62734487Y-69688089D01*
X62600739Y-69813065D01*
X62466520Y-69943611D01*
X62338453Y-70073230D01*
X62282240Y-70132012D01*
X62250077Y-70166314D01*
X62220540Y-70198547D01*
X62191030Y-70231699D01*
X62158948Y-70268757D01*
X62121694Y-70312710D01*
X62076669Y-70366546D01*
X62042979Y-70407080D01*
X62012489Y-70443804D01*
X61985869Y-70475832D01*
X61965763Y-70499985D01*
X61954817Y-70513083D01*
X61954201Y-70513813D01*
X61939478Y-70531270D01*
X61932502Y-70539582D01*
X61922458Y-70555825D01*
X61920606Y-70562911D01*
X61913737Y-70574610D01*
X61912485Y-70575208D01*
X61904007Y-70583766D01*
X61887029Y-70604663D01*
X61864058Y-70634707D01*
X61838986Y-70668789D01*
X61812905Y-70704677D01*
X61790862Y-70734673D01*
X61775254Y-70755539D01*
X61768567Y-70763956D01*
X61761057Y-70773847D01*
X61746496Y-70794787D01*
X61728181Y-70821850D01*
X61709408Y-70850107D01*
X61693472Y-70874633D01*
X61683670Y-70890500D01*
X61682617Y-70892431D01*
X61675609Y-70904018D01*
X61660595Y-70927613D01*
X61640058Y-70959344D01*
X61624697Y-70982839D01*
X61598765Y-71023044D01*
X61573839Y-71062878D01*
X61553779Y-71096125D01*
X61546974Y-71107988D01*
X61527253Y-71142445D01*
X61506522Y-71177241D01*
X61499332Y-71188879D01*
X61483145Y-71216119D01*
X61461658Y-71254410D01*
X61436291Y-71301006D01*
X61408464Y-71353162D01*
X61379595Y-71408134D01*
X61351105Y-71463176D01*
X61324414Y-71515543D01*
X61300940Y-71562489D01*
X61282104Y-71601271D01*
X61269324Y-71629142D01*
X61264022Y-71643357D01*
X61263956Y-71644022D01*
X61260427Y-71656407D01*
X61251654Y-71678685D01*
X61248651Y-71685635D01*
X61221843Y-71747264D01*
X61201119Y-71796721D01*
X61197339Y-71806031D01*
X61174636Y-71861277D01*
X61153293Y-71911408D01*
X61151516Y-71915473D01*
X61129598Y-71968158D01*
X61116548Y-72006204D01*
X61111741Y-72031469D01*
X61111689Y-72033690D01*
X61108270Y-72054483D01*
X61103659Y-72063457D01*
X61096206Y-72078046D01*
X61084983Y-72107823D01*
X61070946Y-72149539D01*
X61055050Y-72199946D01*
X61038250Y-72255795D01*
X61021502Y-72313836D01*
X61005760Y-72370821D01*
X60991980Y-72423501D01*
X60981116Y-72468626D01*
X60974125Y-72502947D01*
X60973700Y-72505507D01*
X60968026Y-72533483D01*
X60961856Y-72553639D01*
X60959654Y-72557848D01*
X60954329Y-72572270D01*
X60948739Y-72598360D01*
X60946186Y-72614949D01*
X60941389Y-72647561D01*
X60934461Y-72690538D01*
X60926758Y-72735531D01*
X60925353Y-72743424D01*
X60917103Y-72793221D01*
X60909116Y-72847684D01*
X60903053Y-72895459D01*
X60902805Y-72897696D01*
X60893288Y-72965940D01*
X60881026Y-73024986D01*
X60866872Y-73071264D01*
X60855472Y-73095541D01*
X60826018Y-73133557D01*
X60779995Y-73177388D01*
X60716896Y-73227496D01*
X60692955Y-73244975D01*
X60656751Y-73271201D01*
X60624379Y-73295095D01*
X60600263Y-73313371D01*
X60591184Y-73320617D01*
X60573735Y-73334643D01*
X60546321Y-73355945D01*
X60514237Y-73380418D01*
X60507106Y-73385799D01*
X60474222Y-73410716D01*
X60444360Y-73433618D01*
X60423066Y-73450245D01*
X60420275Y-73452482D01*
X60396643Y-73471581D01*
X60634435Y-73709432D01*
X60872227Y-73947283D01*
X60876864Y-73999624D01*
X60882281Y-74054860D01*
X60888611Y-74110041D01*
X60895318Y-74161296D01*
X60901864Y-74204753D01*
X60907711Y-74236542D01*
X60911864Y-74251816D01*
X60917089Y-74270029D01*
X60923598Y-74301054D01*
X60930148Y-74338836D01*
X60931401Y-74346983D01*
X60938003Y-74390848D01*
X60944598Y-74434509D01*
X60949826Y-74468955D01*
X60950093Y-74470700D01*
X60956235Y-74502086D01*
X60966904Y-74547345D01*
X60981128Y-74603060D01*
X60997937Y-74665811D01*
X61016359Y-74732180D01*
X61035424Y-74798749D01*
X61054160Y-74862099D01*
X61071598Y-74918811D01*
X61086765Y-74965467D01*
X61098692Y-74998648D01*
X61102798Y-75008392D01*
X61109160Y-75025048D01*
X61118557Y-75052815D01*
X61125623Y-75075008D01*
X61135966Y-75107441D01*
X61145184Y-75134803D01*
X61149424Y-75146384D01*
X61157433Y-75166688D01*
X61168766Y-75195608D01*
X61173701Y-75208242D01*
X61207329Y-75290432D01*
X61236658Y-75355159D01*
X61247559Y-75379561D01*
X61253837Y-75396377D01*
X61254439Y-75399383D01*
X61258495Y-75410164D01*
X61269666Y-75434871D01*
X61286452Y-75470455D01*
X61307358Y-75513867D01*
X61330885Y-75562059D01*
X61355536Y-75611984D01*
X61379814Y-75660592D01*
X61402220Y-75704835D01*
X61421257Y-75741665D01*
X61435428Y-75768034D01*
X61436377Y-75769726D01*
X61458101Y-75808366D01*
X61481291Y-75849794D01*
X61493093Y-75870962D01*
X61509748Y-75899878D01*
X61533049Y-75938995D01*
X61559462Y-75982429D01*
X61577698Y-76011907D01*
X61600468Y-76048760D01*
X61618964Y-76079348D01*
X61631169Y-76100289D01*
X61635106Y-76108107D01*
X61640258Y-76117201D01*
X61654011Y-76137907D01*
X61673806Y-76166420D01*
X61682689Y-76178943D01*
X61704243Y-76209900D01*
X61720745Y-76235030D01*
X61729602Y-76250325D01*
X61730425Y-76252731D01*
X61736299Y-76263576D01*
X61750945Y-76282659D01*
X61758975Y-76292053D01*
X61776066Y-76312624D01*
X61786199Y-76327098D01*
X61787395Y-76330120D01*
X61793072Y-76340226D01*
X61807410Y-76359063D01*
X61815923Y-76369276D01*
X61832947Y-76390450D01*
X61843151Y-76405613D01*
X61844450Y-76409042D01*
X61850232Y-76420662D01*
X61856369Y-76428075D01*
X61867685Y-76441661D01*
X61886346Y-76465659D01*
X61908489Y-76495096D01*
X61910453Y-76497751D01*
X61931678Y-76526006D01*
X61948754Y-76547869D01*
X61958380Y-76559130D01*
X61958931Y-76559609D01*
X61967195Y-76568625D01*
X61984480Y-76589157D01*
X62007967Y-76617820D01*
X62026264Y-76640501D01*
X62060975Y-76683747D01*
X62087641Y-76716709D01*
X62109869Y-76743651D01*
X62131270Y-76768836D01*
X62155451Y-76796529D01*
X62186022Y-76830994D01*
X62214960Y-76863454D01*
X62281592Y-76936080D01*
X62359262Y-77017260D01*
X62444343Y-77103421D01*
X62533204Y-77190990D01*
X62622216Y-77276393D01*
X62707749Y-77356055D01*
X62786174Y-77426404D01*
X62790728Y-77430385D01*
X62821113Y-77457029D01*
X62846809Y-77479795D01*
X62863844Y-77495154D01*
X62867559Y-77498644D01*
X62881674Y-77510977D01*
X62908306Y-77532917D01*
X62944897Y-77562453D01*
X62988890Y-77597572D01*
X63037728Y-77636260D01*
X63088852Y-77676505D01*
X63139707Y-77716294D01*
X63187733Y-77753614D01*
X63230375Y-77786454D01*
X63265075Y-77812799D01*
X63289274Y-77830637D01*
X63290340Y-77831395D01*
X63323691Y-77856573D01*
X63343578Y-77874686D01*
X63349692Y-77884679D01*
X63341721Y-77885497D01*
X63319357Y-77876086D01*
X63300524Y-77866007D01*
X63268946Y-77848339D01*
X63239064Y-77831779D01*
X63229149Y-77826340D01*
X63206609Y-77812952D01*
X63175379Y-77793051D01*
X63143499Y-77771810D01*
X63110260Y-77750075D01*
X63067081Y-77723155D01*
X63020629Y-77695160D01*
X62993223Y-77679134D01*
X62933642Y-77644255D01*
X62874070Y-77608203D01*
X62812018Y-77569369D01*
X62744999Y-77526145D01*
X62670526Y-77476922D01*
X62586110Y-77420090D01*
X62489265Y-77354042D01*
X62467815Y-77339330D01*
X62442060Y-77320889D01*
X62423539Y-77306198D01*
X62417059Y-77299531D01*
X62406100Y-77292899D01*
X62401198Y-77292393D01*
X62387411Y-77287557D01*
X62385337Y-77284725D01*
X62376739Y-77276160D01*
X62356157Y-77259298D01*
X62327076Y-77236929D01*
X62306031Y-77221314D01*
X62273243Y-77197102D01*
X62246508Y-77176975D01*
X62229385Y-77163633D01*
X62225140Y-77159933D01*
X62215643Y-77151907D01*
X62194969Y-77135931D01*
X62167333Y-77115250D01*
X62163281Y-77112263D01*
X62123148Y-77081610D01*
X62075741Y-77043740D01*
X62027892Y-77004216D01*
X61986431Y-76968601D01*
X61981329Y-76964068D01*
X61968944Y-76953436D01*
X61946718Y-76934713D01*
X61919470Y-76911958D01*
X61854897Y-76856030D01*
X61781474Y-76788647D01*
X61701734Y-76712420D01*
X61618209Y-76629961D01*
X61533433Y-76543885D01*
X61449939Y-76456801D01*
X61370260Y-76371324D01*
X61296929Y-76290066D01*
X61232478Y-76215639D01*
X61179442Y-76150655D01*
X61171965Y-76141023D01*
X61160586Y-76126499D01*
X61141488Y-76102367D01*
X61119128Y-76074259D01*
X61090334Y-76037086D01*
X61056512Y-75991693D01*
X61019253Y-75940392D01*
X60980148Y-75885494D01*
X60940788Y-75829311D01*
X60902764Y-75774154D01*
X60867667Y-75722337D01*
X60837087Y-75676169D01*
X60812616Y-75637963D01*
X60795845Y-75610031D01*
X60788364Y-75594684D01*
X60788122Y-75593284D01*
X60783066Y-75582239D01*
X60770532Y-75562638D01*
X60766709Y-75557204D01*
X60748477Y-75530302D01*
X60732965Y-75505111D01*
X60731998Y-75503393D01*
X60717664Y-75476617D01*
X60697340Y-75437333D01*
X60672719Y-75388938D01*
X60645491Y-75334832D01*
X60617346Y-75278414D01*
X60589976Y-75223082D01*
X60565071Y-75172236D01*
X60544323Y-75129274D01*
X60529422Y-75097594D01*
X60523572Y-75084425D01*
X60510116Y-75053124D01*
X60498336Y-75027152D01*
X60492643Y-75015658D01*
X60484969Y-74996668D01*
X60483588Y-74988547D01*
X60479971Y-74973591D01*
X60470999Y-74949740D01*
X60468184Y-74943213D01*
X60449578Y-74901031D01*
X60437450Y-74872802D01*
X60430456Y-74855127D01*
X60427251Y-74844607D01*
X60426488Y-74837903D01*
X60422367Y-74821024D01*
X60417836Y-74810792D01*
X60411365Y-74794666D01*
X60401299Y-74765354D01*
X60389351Y-74727947D01*
X60383452Y-74708617D01*
X60371195Y-74668433D01*
X60360110Y-74633178D01*
X60351912Y-74608267D01*
X60349583Y-74601771D01*
X60343637Y-74582557D01*
X60334346Y-74547916D01*
X60322490Y-74501001D01*
X60308851Y-74444968D01*
X60294210Y-74382970D01*
X60279409Y-74318433D01*
X60270181Y-74273238D01*
X60259281Y-74212645D01*
X60247273Y-74140155D01*
X60234723Y-74059271D01*
X60222193Y-73973496D01*
X60212607Y-73904022D01*
X60203307Y-73813444D01*
X60197762Y-73712711D01*
X60196223Y-73610377D01*
X60198940Y-73514995D01*
X60200513Y-73490482D01*
X60203617Y-73444448D01*
X60207029Y-73387600D01*
X60210274Y-73328142D01*
X60212263Y-73287833D01*
X60215891Y-73228988D01*
X60221306Y-73164221D01*
X60227664Y-73102917D01*
X60231960Y-73068950D01*
X60238339Y-73027469D01*
X60247144Y-72975916D01*
X60257694Y-72917732D01*
X60269311Y-72856354D01*
X60281314Y-72795223D01*
X60293023Y-72737779D01*
X60303758Y-72687462D01*
X60312838Y-72647710D01*
X60319585Y-72621963D01*
X60321393Y-72616574D01*
X60327945Y-72596764D01*
X60337067Y-72565647D01*
X60345689Y-72534057D01*
X60355260Y-72499217D01*
X60364092Y-72469623D01*
X60369723Y-72453165D01*
X60377814Y-72428187D01*
X60382050Y-72410340D01*
X60388360Y-72386767D01*
X60400229Y-72350135D01*
X60416029Y-72305007D01*
X60434131Y-72255948D01*
X60452906Y-72207521D01*
X60465268Y-72177182D01*
X60483822Y-72131404D01*
X60495409Y-72099015D01*
X60501253Y-72076223D01*
X60502622Y-72061630D01*
X60507622Y-72039754D01*
X60520194Y-72011771D01*
X60526414Y-72001123D01*
X60540516Y-71977666D01*
X60549047Y-71961323D01*
X60550205Y-71957734D01*
X60554258Y-71946643D01*
X60565244Y-71922190D01*
X60581406Y-71887946D01*
X60600985Y-71847483D01*
X60622222Y-71804371D01*
X60643360Y-71762181D01*
X60662640Y-71724486D01*
X60678305Y-71694854D01*
X60688154Y-71677556D01*
X60704549Y-71650249D01*
X60726444Y-71612336D01*
X60750341Y-71569986D01*
X60772744Y-71529366D01*
X60782690Y-71510881D01*
X60795135Y-71490187D01*
X60812108Y-71464902D01*
X60814293Y-71461828D01*
X60828083Y-71441035D01*
X60835366Y-71427040D01*
X60835705Y-71425408D01*
X60841101Y-71414069D01*
X60856139Y-71389894D01*
X60879094Y-71355314D01*
X60908241Y-71312757D01*
X60941857Y-71264656D01*
X60978217Y-71213440D01*
X61015595Y-71161540D01*
X61052268Y-71111387D01*
X61086511Y-71065410D01*
X61116599Y-71026040D01*
X61139391Y-70997424D01*
X61174053Y-70955296D01*
X61199623Y-70924239D01*
X61219099Y-70900625D01*
X61235483Y-70880826D01*
X61251774Y-70861216D01*
X61270973Y-70838168D01*
X61289206Y-70816297D01*
X61346931Y-70749653D01*
X61415778Y-70674444D01*
X61492910Y-70593463D01*
X61575486Y-70509505D01*
X61660669Y-70425363D01*
X61745619Y-70343832D01*
X61827497Y-70267705D01*
X61903465Y-70199776D01*
X61970684Y-70142839D01*
X61986274Y-70130263D01*
X62008498Y-70111815D01*
X62024678Y-70097451D01*
X62041576Y-70083031D01*
X62066269Y-70063500D01*
X62077961Y-70054626D01*
X62104715Y-70033878D01*
X62127984Y-70014616D01*
X62134723Y-70008583D01*
X62149420Y-69996275D01*
X62176318Y-69975067D01*
X62212279Y-69947326D01*
X62254165Y-69915418D01*
X62298836Y-69881710D01*
X62343154Y-69848568D01*
X62383980Y-69818360D01*
X62418175Y-69793451D01*
X62442601Y-69776210D01*
X62445541Y-69774222D01*
X62465010Y-69761103D01*
X62496861Y-69739543D01*
X62537741Y-69711816D01*
X62584299Y-69680194D01*
X62624461Y-69652884D01*
X62670470Y-69621805D01*
X62711050Y-69594817D01*
X62743598Y-69573616D01*
X62765514Y-69559897D01*
X62774103Y-69555338D01*
X62785442Y-69549672D01*
X62795412Y-69541722D01*
X62815471Y-69526670D01*
X62834228Y-69515234D01*
X62853441Y-69504040D01*
X62882937Y-69485974D01*
X62917035Y-69464527D01*
X62924615Y-69459686D01*
X62961137Y-69436813D01*
X62996485Y-69415552D01*
X63023823Y-69400003D01*
X63026919Y-69398359D01*
X63048934Y-69385279D01*
X63061489Y-69374765D01*
X63062607Y-69372357D01*
X63069932Y-69365230D01*
X63072313Y-69365005D01*
X63085612Y-69360267D01*
X63108065Y-69348284D01*
X63119707Y-69341213D01*
X63151567Y-69323179D01*
X63169279Y-69317210D01*
X63172331Y-69322095D01*
G37*
%TO.C,D3*%
D12*
X118230000Y-94130000D02*
X118230000Y-94460000D01*
X118230000Y-96870000D02*
X118230000Y-96540000D01*
X124770000Y-94130000D02*
X118230000Y-94130000D01*
X124770000Y-94460000D02*
X124770000Y-94130000D01*
X124770000Y-96540000D02*
X124770000Y-96870000D01*
X124770000Y-96870000D02*
X118230000Y-96870000D01*
%TO.C,R1*%
X84992500Y-59470000D02*
X84992500Y-66010000D01*
X84992500Y-66010000D02*
X85322500Y-66010000D01*
X85322500Y-59470000D02*
X84992500Y-59470000D01*
X87402500Y-59470000D02*
X87732500Y-59470000D01*
X87732500Y-59470000D02*
X87732500Y-66010000D01*
X87732500Y-66010000D02*
X87402500Y-66010000D01*
%TO.C,C7*%
X120960000Y-104284888D02*
X119431000Y-104284888D01*
X120960000Y-104324888D02*
X119435000Y-104324888D01*
X120960000Y-104364888D02*
X119440000Y-104364888D01*
X120960000Y-104404888D02*
X119445000Y-104404888D01*
X120960000Y-104444888D02*
X119451000Y-104444888D01*
X120960000Y-104484888D02*
X119457000Y-104484888D01*
X120960000Y-104524888D02*
X119464000Y-104524888D01*
X120960000Y-104564888D02*
X119472000Y-104564888D01*
X120960000Y-104604888D02*
X119481000Y-104604888D01*
X120960000Y-104644888D02*
X119490000Y-104644888D01*
X120960000Y-104684888D02*
X119499000Y-104684888D01*
X120960000Y-104724888D02*
X119510000Y-104724888D01*
X120960000Y-104764888D02*
X119521000Y-104764888D01*
X120960000Y-104804888D02*
X119533000Y-104804888D01*
X120960000Y-104844888D02*
X119545000Y-104844888D01*
X120960000Y-104884888D02*
X119558000Y-104884888D01*
X120960000Y-104924888D02*
X119572000Y-104924888D01*
X120960000Y-104964888D02*
X119587000Y-104964888D01*
X120960000Y-105004888D02*
X119602000Y-105004888D01*
X120960000Y-105044888D02*
X119618000Y-105044888D01*
X120960000Y-105084888D02*
X119635000Y-105084888D01*
X120960000Y-105124888D02*
X119653000Y-105124888D01*
X120960000Y-105164888D02*
X119671000Y-105164888D01*
X120960000Y-105204888D02*
X119691000Y-105204888D01*
X120960000Y-105244888D02*
X119711000Y-105244888D01*
X120960000Y-105284888D02*
X119732000Y-105284888D01*
X120960000Y-105324888D02*
X119754000Y-105324888D01*
X120960000Y-105364888D02*
X119777000Y-105364888D01*
X120960000Y-105404888D02*
X119801000Y-105404888D01*
X120960000Y-105444888D02*
X119825000Y-105444888D01*
X120960000Y-105484888D02*
X119851000Y-105484888D01*
X120960000Y-105524888D02*
X119878000Y-105524888D01*
X120960000Y-105564888D02*
X119906000Y-105564888D01*
X120960000Y-105604888D02*
X119935000Y-105604888D01*
X120960000Y-105644888D02*
X119965000Y-105644888D01*
X120960000Y-105684888D02*
X119997000Y-105684888D01*
X120960000Y-105724888D02*
X120030000Y-105724888D01*
X120960000Y-105764888D02*
X120064000Y-105764888D01*
X120960000Y-105804888D02*
X120099000Y-105804888D01*
X120960000Y-105844888D02*
X120136000Y-105844888D01*
X120960000Y-105884888D02*
X120175000Y-105884888D01*
X120960000Y-105924888D02*
X120215000Y-105924888D01*
X120960000Y-105964888D02*
X120257000Y-105964888D01*
X120960000Y-106004888D02*
X120301000Y-106004888D01*
X120960000Y-106044888D02*
X120348000Y-106044888D01*
X120960000Y-106084888D02*
X120396000Y-106084888D01*
X120960000Y-106124888D02*
X120447000Y-106124888D01*
X120960000Y-106164888D02*
X120501000Y-106164888D01*
X120960000Y-106204888D02*
X120557000Y-106204888D01*
X120960000Y-106244888D02*
X120617000Y-106244888D01*
X120960000Y-106284888D02*
X120681000Y-106284888D01*
X120960000Y-106324888D02*
X120749000Y-106324888D01*
X122283000Y-106644888D02*
X121717000Y-106644888D01*
X122517000Y-106604888D02*
X121483000Y-106604888D01*
X122677000Y-106564888D02*
X121323000Y-106564888D01*
X122805000Y-106524888D02*
X121195000Y-106524888D01*
X122914000Y-106484888D02*
X121086000Y-106484888D01*
X123011000Y-106444888D02*
X120989000Y-106444888D01*
X123098000Y-106404888D02*
X120902000Y-106404888D01*
X123177000Y-106364888D02*
X120823000Y-106364888D01*
X123251000Y-106324888D02*
X123040000Y-106324888D01*
X123319000Y-106284888D02*
X123040000Y-106284888D01*
X123383000Y-106244888D02*
X123040000Y-106244888D01*
X123443000Y-106204888D02*
X123040000Y-106204888D01*
X123475000Y-101240113D02*
X123475000Y-101740113D01*
X123499000Y-106164888D02*
X123040000Y-106164888D01*
X123553000Y-106124888D02*
X123040000Y-106124888D01*
X123604000Y-106084888D02*
X123040000Y-106084888D01*
X123652000Y-106044888D02*
X123040000Y-106044888D01*
X123699000Y-106004888D02*
X123040000Y-106004888D01*
X123725000Y-101490113D02*
X123225000Y-101490113D01*
X123743000Y-105964888D02*
X123040000Y-105964888D01*
X123785000Y-105924888D02*
X123040000Y-105924888D01*
X123825000Y-105884888D02*
X123040000Y-105884888D01*
X123864000Y-105844888D02*
X123040000Y-105844888D01*
X123901000Y-105804888D02*
X123040000Y-105804888D01*
X123936000Y-105764888D02*
X123040000Y-105764888D01*
X123970000Y-105724888D02*
X123040000Y-105724888D01*
X124003000Y-105684888D02*
X123040000Y-105684888D01*
X124035000Y-105644888D02*
X123040000Y-105644888D01*
X124065000Y-105604888D02*
X123040000Y-105604888D01*
X124094000Y-105564888D02*
X123040000Y-105564888D01*
X124122000Y-105524888D02*
X123040000Y-105524888D01*
X124149000Y-105484888D02*
X123040000Y-105484888D01*
X124175000Y-105444888D02*
X123040000Y-105444888D01*
X124199000Y-105404888D02*
X123040000Y-105404888D01*
X124223000Y-105364888D02*
X123040000Y-105364888D01*
X124246000Y-105324888D02*
X123040000Y-105324888D01*
X124268000Y-105284888D02*
X123040000Y-105284888D01*
X124289000Y-105244888D02*
X123040000Y-105244888D01*
X124309000Y-105204888D02*
X123040000Y-105204888D01*
X124329000Y-105164888D02*
X123040000Y-105164888D01*
X124347000Y-105124888D02*
X123040000Y-105124888D01*
X124365000Y-105084888D02*
X123040000Y-105084888D01*
X124382000Y-105044888D02*
X123040000Y-105044888D01*
X124398000Y-105004888D02*
X123040000Y-105004888D01*
X124413000Y-104964888D02*
X123040000Y-104964888D01*
X124428000Y-104924888D02*
X123040000Y-104924888D01*
X124442000Y-104884888D02*
X123040000Y-104884888D01*
X124455000Y-104844888D02*
X123040000Y-104844888D01*
X124467000Y-104804888D02*
X123040000Y-104804888D01*
X124479000Y-104764888D02*
X123040000Y-104764888D01*
X124490000Y-104724888D02*
X123040000Y-104724888D01*
X124501000Y-104684888D02*
X123040000Y-104684888D01*
X124510000Y-104644888D02*
X123040000Y-104644888D01*
X124519000Y-104604888D02*
X123040000Y-104604888D01*
X124528000Y-104564888D02*
X123040000Y-104564888D01*
X124536000Y-104524888D02*
X123040000Y-104524888D01*
X124543000Y-104484888D02*
X123040000Y-104484888D01*
X124549000Y-104444888D02*
X123040000Y-104444888D01*
X124555000Y-104404888D02*
X123040000Y-104404888D01*
X124560000Y-104364888D02*
X123040000Y-104364888D01*
X124565000Y-104324888D02*
X123040000Y-104324888D01*
X124569000Y-104284888D02*
X123040000Y-104284888D01*
X124572000Y-104244888D02*
X119428000Y-104244888D01*
X124575000Y-104204888D02*
X119425000Y-104204888D01*
X124577000Y-104164888D02*
X119423000Y-104164888D01*
X124579000Y-104124888D02*
X119421000Y-104124888D01*
X124580000Y-104044888D02*
X119420000Y-104044888D01*
X124580000Y-104084888D02*
X119420000Y-104084888D01*
X124620000Y-104044888D02*
G75*
G02*
X119380000Y-104044888I-2620000J0D01*
G01*
X119380000Y-104044888D02*
G75*
G02*
X124620000Y-104044888I2620000J0D01*
G01*
%TO.C,R2*%
X90255000Y-68020000D02*
X96795000Y-68020000D01*
X90255000Y-68350000D02*
X90255000Y-68020000D01*
X90255000Y-70430000D02*
X90255000Y-70760000D01*
X90255000Y-70760000D02*
X96795000Y-70760000D01*
X96795000Y-68020000D02*
X96795000Y-68350000D01*
X96795000Y-70760000D02*
X96795000Y-70430000D01*
%TO.C,R25*%
X118230000Y-97630000D02*
X118230000Y-97960000D01*
X118230000Y-100370000D02*
X118230000Y-100040000D01*
X124770000Y-97630000D02*
X118230000Y-97630000D01*
X124770000Y-97960000D02*
X124770000Y-97630000D01*
X124770000Y-100040000D02*
X124770000Y-100370000D01*
X124770000Y-100370000D02*
X118230000Y-100370000D01*
%TO.C,J2*%
X60262500Y-79920000D02*
X68502500Y-79920000D01*
X60262500Y-82240000D02*
X60262500Y-79920000D01*
X60262500Y-90160000D02*
X60262500Y-82840000D01*
X62382500Y-79920000D02*
X62382500Y-90160000D01*
X66382500Y-79920000D02*
X66382500Y-90160000D01*
X68502500Y-79920000D02*
X68502500Y-90160000D01*
X68502500Y-90160000D02*
X60262500Y-90160000D01*
X60262500Y-82540000D02*
X59652500Y-82980000D01*
X59652500Y-82100000D01*
X60262500Y-82540000D01*
G36*
X60262500Y-82540000D02*
G01*
X59652500Y-82980000D01*
X59652500Y-82100000D01*
X60262500Y-82540000D01*
G37*
%TO.C,R16*%
X99630000Y-81230000D02*
X99630000Y-87770000D01*
X99630000Y-87770000D02*
X99960000Y-87770000D01*
X99960000Y-81230000D02*
X99630000Y-81230000D01*
X102040000Y-81230000D02*
X102370000Y-81230000D01*
X102370000Y-81230000D02*
X102370000Y-87770000D01*
X102370000Y-87770000D02*
X102040000Y-87770000D01*
%TO.C,R10*%
X86671666Y-54550000D02*
X93211666Y-54550000D01*
X86671666Y-54880000D02*
X86671666Y-54550000D01*
X86671666Y-56960000D02*
X86671666Y-57290000D01*
X86671666Y-57290000D02*
X93211666Y-57290000D01*
X93211666Y-54550000D02*
X93211666Y-54880000D01*
X93211666Y-57290000D02*
X93211666Y-56960000D01*
%TO.C,K2*%
X102950000Y-61190000D02*
X118550000Y-61190000D01*
X102950000Y-80990000D02*
X102950000Y-61190000D01*
X102950000Y-80990000D02*
X109550000Y-80990000D01*
X104800000Y-73540000D02*
X104800000Y-76040000D01*
X104800000Y-73540000D02*
X109000000Y-73540000D01*
X106550000Y-65440000D02*
X109050000Y-65440000D01*
X109000000Y-71540000D02*
X112600000Y-71540000D01*
X109000000Y-75540000D02*
X109000000Y-71540000D01*
X110800000Y-68640000D02*
X108300000Y-64040000D01*
X110800000Y-70140000D02*
X110800000Y-68640000D01*
X110800000Y-70140000D02*
X114400000Y-70140000D01*
X110800000Y-76940000D02*
X110800000Y-77740000D01*
X110800000Y-76940000D02*
X114400000Y-76940000D01*
X111950000Y-80990000D02*
X118550000Y-80990000D01*
X112600000Y-71540000D02*
X109000000Y-75540000D01*
X112600000Y-71540000D02*
X112600000Y-75540000D01*
X112600000Y-73540000D02*
X116800000Y-73540000D01*
X112600000Y-75540000D02*
X109000000Y-75540000D01*
X114400000Y-70140000D02*
X114400000Y-76940000D01*
X114950000Y-65440000D02*
X112500000Y-65440000D01*
X116800000Y-76040000D02*
X116800000Y-73540000D01*
X118550000Y-61190000D02*
X118550000Y-80990000D01*
%TO.C,U2*%
X135850000Y-95360000D02*
X135850000Y-105640000D01*
X135850000Y-105640000D02*
X141150000Y-105640000D01*
X137500000Y-95360000D02*
X135850000Y-95360000D01*
X141150000Y-95360000D02*
X139500000Y-95360000D01*
X141150000Y-105640000D02*
X141150000Y-95360000D01*
X133360000Y-95300000D02*
X143640000Y-95300000D01*
X143640000Y-105700000D01*
X133360000Y-105700000D01*
X133360000Y-95300000D01*
X139500000Y-95360000D02*
G75*
G02*
X137500000Y-95360000I-1000000J0D01*
G01*
%TO.C,Q3*%
X138010000Y-85000000D02*
X148230000Y-85000000D01*
X138010000Y-85500000D02*
X148230000Y-85500000D01*
X138010000Y-88360000D02*
X138010000Y-85000000D01*
X141270000Y-85000000D02*
X141270000Y-85500000D01*
X144970000Y-85000000D02*
X144970000Y-85500000D01*
X148230000Y-85000000D02*
X148230000Y-88360000D01*
X148230000Y-88360000D02*
X138010000Y-88360000D01*
%TO.C,R13*%
X128810000Y-88630000D02*
X135350000Y-88630000D01*
X128810000Y-88960000D02*
X128810000Y-88630000D01*
X128810000Y-91040000D02*
X128810000Y-91370000D01*
X128810000Y-91370000D02*
X135350000Y-91370000D01*
X135350000Y-88630000D02*
X135350000Y-88960000D01*
X135350000Y-91370000D02*
X135350000Y-91040000D01*
%TO.C,R26*%
X130130000Y-93730000D02*
X130130000Y-100270000D01*
X130130000Y-100270000D02*
X130460000Y-100270000D01*
X130460000Y-93730000D02*
X130130000Y-93730000D01*
X132540000Y-93730000D02*
X132870000Y-93730000D01*
X132870000Y-93730000D02*
X132870000Y-100270000D01*
X132870000Y-100270000D02*
X132540000Y-100270000D01*
%TO.C,R3*%
X98955000Y-62320000D02*
X99285000Y-62320000D01*
X98955000Y-68860000D02*
X98955000Y-62320000D01*
X99285000Y-68860000D02*
X98955000Y-68860000D01*
X101365000Y-68860000D02*
X101695000Y-68860000D01*
X101695000Y-62320000D02*
X101365000Y-62320000D01*
X101695000Y-68860000D02*
X101695000Y-62320000D01*
%TO.C,D2*%
X104730000Y-81630000D02*
X104730000Y-81960000D01*
X104730000Y-84370000D02*
X104730000Y-84040000D01*
X111270000Y-81630000D02*
X104730000Y-81630000D01*
X111270000Y-81960000D02*
X111270000Y-81630000D01*
X111270000Y-84040000D02*
X111270000Y-84370000D01*
X111270000Y-84370000D02*
X104730000Y-84370000D01*
%TO.C,R15*%
X87790000Y-83130000D02*
X94330000Y-83130000D01*
X87790000Y-83460000D02*
X87790000Y-83130000D01*
X87790000Y-85540000D02*
X87790000Y-85870000D01*
X87790000Y-85870000D02*
X94330000Y-85870000D01*
X94330000Y-83130000D02*
X94330000Y-83460000D01*
X94330000Y-85870000D02*
X94330000Y-85540000D01*
%TO.C,C3*%
X85630000Y-72650000D02*
X85960000Y-72650000D01*
X85630000Y-79190000D02*
X85630000Y-72650000D01*
X85960000Y-79190000D02*
X85630000Y-79190000D01*
X88040000Y-79190000D02*
X88370000Y-79190000D01*
X88370000Y-72650000D02*
X88040000Y-72650000D01*
X88370000Y-79190000D02*
X88370000Y-72650000D01*
%TO.C,Q2*%
X102850000Y-85000000D02*
X113070000Y-85000000D01*
X102850000Y-85500000D02*
X113070000Y-85500000D01*
X102850000Y-88360000D02*
X102850000Y-85000000D01*
X106110000Y-85000000D02*
X106110000Y-85500000D01*
X109810000Y-85000000D02*
X109810000Y-85500000D01*
X113070000Y-85000000D02*
X113070000Y-88360000D01*
X113070000Y-88360000D02*
X102850000Y-88360000D01*
%TO.C,Q1*%
X126930000Y-85000000D02*
X137150000Y-85000000D01*
X126930000Y-85500000D02*
X137150000Y-85500000D01*
X126930000Y-88360000D02*
X126930000Y-85000000D01*
X130190000Y-85000000D02*
X130190000Y-85500000D01*
X133890000Y-85000000D02*
X133890000Y-85500000D01*
X137150000Y-85000000D02*
X137150000Y-88360000D01*
X137150000Y-88360000D02*
X126930000Y-88360000D01*
%TO.C,C4*%
X70130000Y-82170000D02*
X70460000Y-82170000D01*
X70130000Y-88710000D02*
X70130000Y-82170000D01*
X70460000Y-88710000D02*
X70130000Y-88710000D01*
X72540000Y-88710000D02*
X72870000Y-88710000D01*
X72870000Y-82170000D02*
X72540000Y-82170000D01*
X72870000Y-88710000D02*
X72870000Y-82170000D01*
%TO.C,R8*%
X78011250Y-56145000D02*
X78341250Y-56145000D01*
X78011250Y-62685000D02*
X78011250Y-56145000D01*
X78341250Y-62685000D02*
X78011250Y-62685000D01*
X80421250Y-62685000D02*
X80751250Y-62685000D01*
X80751250Y-56145000D02*
X80421250Y-56145000D01*
X80751250Y-62685000D02*
X80751250Y-56145000D01*
%TO.C,R18*%
X89130000Y-72650000D02*
X89130000Y-79190000D01*
X89130000Y-79190000D02*
X89460000Y-79190000D01*
X89460000Y-72650000D02*
X89130000Y-72650000D01*
X91540000Y-72650000D02*
X91870000Y-72650000D01*
X91870000Y-72650000D02*
X91870000Y-79190000D01*
X91870000Y-79190000D02*
X91540000Y-79190000D01*
%TO.C,R21*%
X113225000Y-97730000D02*
X113225000Y-104270000D01*
X113225000Y-104270000D02*
X113555000Y-104270000D01*
X113555000Y-97730000D02*
X113225000Y-97730000D01*
X115635000Y-97730000D02*
X115965000Y-97730000D01*
X115965000Y-97730000D02*
X115965000Y-104270000D01*
X115965000Y-104270000D02*
X115635000Y-104270000D01*
%TO.C,J1*%
X138501666Y-70880000D02*
X146741666Y-70880000D01*
X138501666Y-81120000D02*
X138501666Y-70880000D01*
X140621666Y-81120000D02*
X140621666Y-70880000D01*
X144621666Y-81120000D02*
X144621666Y-70880000D01*
X146741666Y-70880000D02*
X146741666Y-78200000D01*
X146741666Y-78800000D02*
X146741666Y-81120000D01*
X146741666Y-81120000D02*
X138501666Y-81120000D01*
X146741666Y-78500000D02*
X147351666Y-78060000D01*
X147351666Y-78940000D01*
X146741666Y-78500000D01*
G36*
X147351666Y-78940000D02*
G01*
X146741666Y-78500000D01*
X147351666Y-78060000D01*
X147351666Y-78940000D01*
G37*
%TO.C,R19*%
X92630000Y-72650000D02*
X92960000Y-72650000D01*
X92630000Y-79190000D02*
X92630000Y-72650000D01*
X92960000Y-79190000D02*
X92630000Y-79190000D01*
X95040000Y-79190000D02*
X95370000Y-79190000D01*
X95370000Y-72650000D02*
X95040000Y-72650000D01*
X95370000Y-79190000D02*
X95370000Y-72650000D01*
%TO.C,R6*%
X71030000Y-56145000D02*
X71030000Y-62685000D01*
X71030000Y-62685000D02*
X71360000Y-62685000D01*
X71360000Y-56145000D02*
X71030000Y-56145000D01*
X73440000Y-56145000D02*
X73770000Y-56145000D01*
X73770000Y-56145000D02*
X73770000Y-62685000D01*
X73770000Y-62685000D02*
X73440000Y-62685000D01*
%TO.C,R9*%
X81501875Y-56145000D02*
X81831875Y-56145000D01*
X81501875Y-62685000D02*
X81501875Y-56145000D01*
X81831875Y-62685000D02*
X81501875Y-62685000D01*
X83911875Y-62685000D02*
X84241875Y-62685000D01*
X84241875Y-56145000D02*
X83911875Y-56145000D01*
X84241875Y-62685000D02*
X84241875Y-56145000D01*
%TO.C,U1*%
X69360000Y-70850000D02*
X69360000Y-76150000D01*
X69360000Y-76150000D02*
X79640000Y-76150000D01*
X79640000Y-70850000D02*
X69360000Y-70850000D01*
X79640000Y-72500000D02*
X79640000Y-70850000D01*
X79640000Y-76150000D02*
X79640000Y-74500000D01*
X69300000Y-68360000D02*
X79700000Y-68360000D01*
X79700000Y-78640000D01*
X69300000Y-78640000D01*
X69300000Y-68360000D01*
X79640000Y-74500000D02*
G75*
G02*
X79640000Y-72500000I0J1000000D01*
G01*
%TO.C,C2*%
X74520625Y-56145000D02*
X74520625Y-62685000D01*
X74520625Y-62685000D02*
X74850625Y-62685000D01*
X74850625Y-56145000D02*
X74520625Y-56145000D01*
X76930625Y-56145000D02*
X77260625Y-56145000D01*
X77260625Y-56145000D02*
X77260625Y-62685000D01*
X77260625Y-62685000D02*
X76930625Y-62685000D01*
%TO.C,R11*%
X82130000Y-82085000D02*
X82130000Y-88625000D01*
X82130000Y-88625000D02*
X82460000Y-88625000D01*
X82460000Y-82085000D02*
X82130000Y-82085000D01*
X84540000Y-82085000D02*
X84870000Y-82085000D01*
X84870000Y-82085000D02*
X84870000Y-88625000D01*
X84870000Y-88625000D02*
X84540000Y-88625000D01*
%TO.C,D1*%
X133621666Y-81660000D02*
X133621666Y-81990000D01*
X133621666Y-84400000D02*
X133621666Y-84070000D01*
X140161666Y-81660000D02*
X133621666Y-81660000D01*
X140161666Y-81990000D02*
X140161666Y-81660000D01*
X140161666Y-84070000D02*
X140161666Y-84400000D01*
X140161666Y-84400000D02*
X133621666Y-84400000D01*
%TO.C,R12*%
X87790000Y-86630000D02*
X87790000Y-86960000D01*
X87790000Y-89370000D02*
X87790000Y-89040000D01*
X94330000Y-86630000D02*
X87790000Y-86630000D01*
X94330000Y-86960000D02*
X94330000Y-86630000D01*
X94330000Y-89040000D02*
X94330000Y-89370000D01*
X94330000Y-89370000D02*
X87790000Y-89370000D01*
%TO.C,C1*%
X88483125Y-59470000D02*
X88483125Y-66010000D01*
X88483125Y-66010000D02*
X88813125Y-66010000D01*
X88813125Y-59470000D02*
X88483125Y-59470000D01*
X90893125Y-59470000D02*
X91223125Y-59470000D01*
X91223125Y-59470000D02*
X91223125Y-66010000D01*
X91223125Y-66010000D02*
X90893125Y-66010000D01*
%TO.C,R27*%
X140000000Y-88630000D02*
X146540000Y-88630000D01*
X140000000Y-88960000D02*
X140000000Y-88630000D01*
X140000000Y-91040000D02*
X140000000Y-91370000D01*
X140000000Y-91370000D02*
X146540000Y-91370000D01*
X146540000Y-88630000D02*
X146540000Y-88960000D01*
X146540000Y-91370000D02*
X146540000Y-91040000D01*
%TO.C,R22*%
X109725000Y-97730000D02*
X110055000Y-97730000D01*
X109725000Y-104270000D02*
X109725000Y-97730000D01*
X110055000Y-104270000D02*
X109725000Y-104270000D01*
X112135000Y-104270000D02*
X112465000Y-104270000D01*
X112465000Y-97730000D02*
X112135000Y-97730000D01*
X112465000Y-104270000D02*
X112465000Y-97730000D01*
%TO.C,R7*%
X72655000Y-64795000D02*
X79195000Y-64795000D01*
X72655000Y-65125000D02*
X72655000Y-64795000D01*
X72655000Y-67205000D02*
X72655000Y-67535000D01*
X72655000Y-67535000D02*
X79195000Y-67535000D01*
X79195000Y-64795000D02*
X79195000Y-65125000D01*
X79195000Y-67535000D02*
X79195000Y-67205000D01*
%TO.C,R14*%
X78705000Y-82110000D02*
X79035000Y-82110000D01*
X78705000Y-88650000D02*
X78705000Y-82110000D01*
X79035000Y-88650000D02*
X78705000Y-88650000D01*
X81115000Y-88650000D02*
X81445000Y-88650000D01*
X81445000Y-82110000D02*
X81115000Y-82110000D01*
X81445000Y-88650000D02*
X81445000Y-82110000D01*
%TO.C,R20*%
X96130000Y-72650000D02*
X96130000Y-79190000D01*
X96130000Y-79190000D02*
X96460000Y-79190000D01*
X96460000Y-72650000D02*
X96130000Y-72650000D01*
X98540000Y-72650000D02*
X98870000Y-72650000D01*
X98870000Y-72650000D02*
X98870000Y-79190000D01*
X98870000Y-79190000D02*
X98540000Y-79190000D01*
%TO.C,R23*%
X136230000Y-91630000D02*
X142770000Y-91630000D01*
X136230000Y-91960000D02*
X136230000Y-91630000D01*
X136230000Y-94040000D02*
X136230000Y-94370000D01*
X136230000Y-94370000D02*
X142770000Y-94370000D01*
X142770000Y-91630000D02*
X142770000Y-91960000D01*
X142770000Y-94370000D02*
X142770000Y-94040000D01*
%TO.C,R4*%
X91973750Y-59470000D02*
X92303750Y-59470000D01*
X91973750Y-66010000D02*
X91973750Y-59470000D01*
X92303750Y-66010000D02*
X91973750Y-66010000D01*
X94383750Y-66010000D02*
X94713750Y-66010000D01*
X94713750Y-59470000D02*
X94383750Y-59470000D01*
X94713750Y-66010000D02*
X94713750Y-59470000D01*
%TO.C,R24*%
X126630000Y-93730000D02*
X126960000Y-93730000D01*
X126630000Y-100270000D02*
X126630000Y-93730000D01*
X126960000Y-100270000D02*
X126630000Y-100270000D01*
X129040000Y-100270000D02*
X129370000Y-100270000D01*
X129370000Y-93730000D02*
X129040000Y-93730000D01*
X129370000Y-100270000D02*
X129370000Y-93730000D01*
%TO.C,B1*%
D11*
X59500000Y-91500000D02*
X103000000Y-91500000D01*
X103000000Y-106500000D01*
X59500000Y-106500000D01*
X59500000Y-91500000D01*
%TO.C,K1*%
D12*
X120800000Y-61215000D02*
X136400000Y-61215000D01*
X120800000Y-81015000D02*
X120800000Y-61215000D01*
X120800000Y-81015000D02*
X127400000Y-81015000D01*
X122650000Y-73565000D02*
X122650000Y-76065000D01*
X122650000Y-73565000D02*
X126850000Y-73565000D01*
X124400000Y-65465000D02*
X126900000Y-65465000D01*
X126850000Y-71565000D02*
X130450000Y-71565000D01*
X126850000Y-75565000D02*
X126850000Y-71565000D01*
X128650000Y-68665000D02*
X126150000Y-64065000D01*
X128650000Y-70165000D02*
X128650000Y-68665000D01*
X128650000Y-70165000D02*
X132250000Y-70165000D01*
X128650000Y-76965000D02*
X128650000Y-77765000D01*
X128650000Y-76965000D02*
X132250000Y-76965000D01*
X129800000Y-81015000D02*
X136400000Y-81015000D01*
X130450000Y-71565000D02*
X126850000Y-75565000D01*
X130450000Y-71565000D02*
X130450000Y-75565000D01*
X130450000Y-73565000D02*
X134650000Y-73565000D01*
X130450000Y-75565000D02*
X126850000Y-75565000D01*
X132250000Y-70165000D02*
X132250000Y-76965000D01*
X132800000Y-65465000D02*
X130350000Y-65465000D01*
X134650000Y-76065000D02*
X134650000Y-73565000D01*
X136400000Y-61215000D02*
X136400000Y-81015000D01*
%TD*%
M02*
