M48
; DRILL file KiCad 10.0.4 date 2026-07-24T17:06:27
; FORMAT={-:-/ absolute / metric / decimal}
; #@! TF.CreationDate,2026-07-24T17:06:27-03:00
; #@! TF.GenerationSoftware,Kicad,Pcbnew,10.0.4
; #@! TF.FileFunction,Plated,1,2,PTH
FMAT,2
METRIC
; #@! TA.AperFunction,Plated,PTH,ViaDrill
T1C0.300
; #@! TA.AperFunction,Plated,PTH,ComponentDrill
T2C0.800
; #@! TA.AperFunction,Plated,PTH,ComponentDrill
T3C1.000
; #@! TA.AperFunction,Plated,PTH,ComponentDrill
T4C1.100
; #@! TA.AperFunction,Plated,PTH,ComponentDrill
T5C1.200
; #@! TA.AperFunction,Plated,PTH,ComponentDrill
T6C1.300
; #@! TA.AperFunction,Plated,PTH,ComponentDrill
T7C3.200
%
G90
G05
T1
X60.5Y-51.5
X60.5Y-55.5
X60.5Y-58.0
X61.0Y-68.5
X61.0Y-70.5
X61.0Y-72.5
X61.0Y-74.5
X61.0Y-76.5
X61.0Y-78.5
X62.5Y-49.5
X62.5Y-58.0
X63.0Y-68.5
X63.0Y-70.5
X63.0Y-72.5
X63.0Y-74.5
X63.0Y-76.5
X63.0Y-78.5
X63.0Y-92.5
X63.0Y-95.5
X63.0Y-98.5
X64.5Y-55.5
X64.5Y-58.0
X65.0Y-68.5
X65.0Y-70.5
X65.0Y-72.5
X65.0Y-74.5
X65.0Y-76.5
X65.0Y-78.5
X66.5Y-49.5
X66.5Y-58.0
X67.0Y-68.5
X67.0Y-70.5
X67.0Y-72.5
X67.0Y-74.5
X67.0Y-76.5
X67.0Y-78.5
X67.0Y-85.5
X67.0Y-89.0
X67.0Y-92.5
X67.0Y-95.5
X67.0Y-98.5
X68.5Y-51.5
X68.5Y-55.5
X68.5Y-58.0
X70.5Y-49.5
X70.5Y-53.5
X71.0Y-85.5
X71.0Y-92.5
X71.0Y-95.5
X71.0Y-98.5
X72.5Y-51.5
X74.5Y-49.5
X74.5Y-53.5
X75.0Y-82.5
X75.0Y-85.5
X75.0Y-89.0
X75.0Y-92.5
X75.0Y-95.5
X75.0Y-98.5
X76.5Y-51.5
X78.5Y-49.5
X78.5Y-53.5
X78.5Y-85.5
X79.0Y-92.5
X79.0Y-95.5
X79.0Y-98.5
X80.5Y-51.5
X82.5Y-49.5
X82.5Y-53.5
X83.0Y-92.5
X83.0Y-95.5
X83.0Y-98.5
X84.5Y-51.5
X84.5Y-75.0
X84.5Y-77.0
X86.5Y-49.5
X86.5Y-53.5
X86.5Y-61.5
X86.5Y-63.5
X86.5Y-75.0
X86.5Y-77.0
X87.0Y-92.5
X87.0Y-95.5
X87.0Y-98.5
X88.5Y-51.5
X88.5Y-75.0
X88.5Y-77.0
X90.0Y-61.5
X90.0Y-63.5
X90.5Y-49.5
X90.5Y-53.5
X90.5Y-75.0
X90.5Y-77.0
X91.0Y-82.5
X91.0Y-85.5
X91.0Y-88.5
X91.0Y-92.5
X91.0Y-95.5
X91.0Y-98.5
X92.5Y-51.5
X92.5Y-69.5
X92.5Y-75.0
X92.5Y-77.0
X94.5Y-49.5
X94.5Y-53.5
X94.5Y-69.5
X94.5Y-75.0
X94.5Y-77.0
X95.0Y-92.5
X95.0Y-95.5
X95.0Y-98.5
X96.5Y-51.5
X96.5Y-59.0
X96.5Y-75.0
X96.5Y-77.0
X98.5Y-49.5
X98.5Y-53.5
X98.5Y-59.0
X98.5Y-75.0
X98.5Y-77.0
X98.5Y-92.5
X98.5Y-95.5
X98.5Y-98.5
X100.5Y-51.5
X100.5Y-74.0
X100.5Y-76.0
X100.5Y-78.0
X101.5Y-98.5
X102.5Y-49.5
X102.5Y-53.5
X103.0Y-97.0
X103.5Y-100.5
X104.5Y-51.5
X104.5Y-92.5
X104.5Y-95.5
X105.0Y-99.0
X105.0Y-102.0
X106.0Y-94.0
X106.5Y-49.5
X106.5Y-53.5
X106.5Y-97.5
X106.5Y-100.5
X106.5Y-103.5
X107.5Y-92.5
X108.0Y-91.0
X108.0Y-96.0
X108.0Y-99.0
X108.0Y-102.0
X108.0Y-105.0
X108.5Y-51.5
X109.0Y-89.0
X109.5Y-82.5
X109.5Y-94.5
X109.5Y-100.5
X109.5Y-103.5
X109.5Y-106.5
X110.5Y-49.5
X110.5Y-53.5
X110.5Y-89.0
X111.0Y-93.0
X111.0Y-102.0
X111.5Y-106.5
X112.5Y-51.5
X112.5Y-94.5
X113.5Y-78.5
X113.5Y-80.5
X113.5Y-82.5
X113.5Y-90.0
X113.5Y-106.5
X114.0Y-93.0
X114.5Y-49.5
X114.5Y-53.5
X115.0Y-83.5
X115.0Y-85.5
X115.0Y-87.5
X115.0Y-94.5
X115.5Y-106.5
X116.5Y-51.5
X116.5Y-80.5
X117.5Y-87.5
X117.5Y-106.5
X118.5Y-49.5
X118.5Y-53.5
X119.0Y-78.5
X119.0Y-80.5
X119.0Y-91.5
X119.0Y-93.5
X119.5Y-106.5
X120.5Y-51.5
X121.0Y-91.5
X121.0Y-93.5
X121.5Y-80.5
X121.5Y-87.5
X121.5Y-98.5
X121.5Y-100.5
X122.5Y-49.5
X122.5Y-53.5
X123.0Y-91.5
X123.0Y-93.5
X123.5Y-98.5
X123.5Y-100.5
X124.5Y-51.5
X124.5Y-83.5
X124.5Y-85.5
X124.5Y-87.5
X125.0Y-91.5
X125.0Y-93.5
X125.5Y-104.5
X125.5Y-106.5
X126.0Y-78.5
X126.0Y-80.5
X126.0Y-82.5
X126.5Y-49.5
X126.5Y-53.5
X127.5Y-104.5
X127.5Y-106.5
X128.0Y-82.5
X128.5Y-51.5
X129.5Y-104.5
X129.5Y-106.5
X130.0Y-82.5
X130.5Y-49.5
X130.5Y-53.5
X131.5Y-91.0
X131.5Y-104.5
X131.5Y-106.5
X132.5Y-51.5
X132.5Y-62.5
X132.5Y-65.5
X132.5Y-68.5
X133.5Y-89.5
X133.5Y-106.5
X134.5Y-49.5
X134.5Y-53.5
X135.5Y-62.5
X135.5Y-68.5
X135.5Y-106.5
X136.5Y-51.5
X137.0Y-88.0
X137.5Y-98.5
X137.5Y-100.5
X137.5Y-102.5
X137.5Y-104.5
X137.5Y-106.5
X138.5Y-49.5
X138.5Y-53.5
X138.5Y-62.5
X138.5Y-65.5
X138.5Y-68.5
X139.5Y-98.5
X139.5Y-100.5
X139.5Y-102.5
X139.5Y-104.5
X139.5Y-106.5
X140.5Y-51.5
X140.5Y-55.5
X141.5Y-62.5
X141.5Y-68.5
X141.5Y-106.5
X142.5Y-49.5
X143.0Y-90.0
X143.5Y-106.5
X144.5Y-55.5
X144.5Y-62.5
X144.5Y-68.5
X145.0Y-90.0
X145.5Y-106.5
X146.0Y-93.0
X146.0Y-95.0
X146.0Y-97.0
X146.5Y-49.5
X147.5Y-62.5
X147.5Y-68.5
X147.5Y-106.5
X148.5Y-51.5
X148.5Y-55.5
X149.0Y-88.0
X149.0Y-90.5
X149.0Y-93.0
X149.0Y-95.0
X149.0Y-97.0
X150.5Y-49.5
X150.5Y-51.5
X150.5Y-53.5
X150.5Y-55.5
X150.5Y-62.5
X150.5Y-64.5
X150.5Y-66.5
X150.5Y-68.5
T2
X61.0Y-93.0
X61.0Y-105.0
X70.69Y-69.69
X70.69Y-77.31
X71.5Y-81.63
X71.5Y-89.25
X72.115Y-66.165
X72.4Y-55.605
X72.4Y-63.225
X73.23Y-69.69
X73.23Y-77.31
X75.77Y-69.69
X75.77Y-77.31
X75.891Y-55.605
X75.891Y-63.225
X78.31Y-69.69
X78.31Y-77.31
X79.381Y-55.605
X79.381Y-63.225
X79.735Y-66.165
X80.075Y-81.57
X80.075Y-89.19
X82.872Y-55.605
X82.872Y-63.225
X83.5Y-81.545
X83.5Y-89.165
X86.132Y-55.92
X86.362Y-58.93
X86.362Y-66.55
X87.0Y-72.11
X87.0Y-79.73
X87.25Y-84.5
X87.25Y-88.0
X89.715Y-69.39
X89.853Y-58.93
X89.853Y-66.55
X90.5Y-72.11
X90.5Y-79.73
X93.344Y-58.93
X93.344Y-66.55
X93.752Y-55.92
X94.0Y-72.11
X94.0Y-79.73
X94.87Y-84.5
X94.87Y-88.0
X96.848Y-55.88
X96.848Y-63.5
X97.335Y-69.39
X97.5Y-72.11
X97.5Y-79.73
X100.325Y-61.78
X100.325Y-69.4
X101.0Y-80.69
X101.0Y-88.31
X101.5Y-93.0
X101.5Y-105.0
X104.19Y-83.0
X111.095Y-97.19
X111.095Y-104.81
X111.81Y-83.0
X114.595Y-97.19
X114.595Y-104.81
X117.69Y-95.5
X117.69Y-99.0
X122.0Y-102.795
X122.0Y-105.295
X125.31Y-95.5
X125.31Y-99.0
X128.0Y-93.19
X128.0Y-100.81
X128.27Y-90.0
X131.5Y-93.19
X131.5Y-100.81
X133.082Y-83.03
X134.69Y-96.69
X134.69Y-99.23
X134.69Y-101.77
X134.69Y-104.31
X135.69Y-93.0
X135.89Y-90.0
X139.46Y-90.0
X140.702Y-83.03
X142.31Y-96.69
X142.31Y-99.23
X142.31Y-101.77
X142.31Y-104.31
X143.31Y-93.0
X147.08Y-90.0
T3
X104.8Y-77.64
X116.8Y-77.64
X122.65Y-77.665
X134.65Y-77.665
T4
X105.42Y-87.0
X107.96Y-87.0
X110.5Y-87.0
X129.5Y-87.0
X132.04Y-87.0
X134.58Y-87.0
X140.58Y-87.0
X143.12Y-87.0
X145.66Y-87.0
T5
X104.765Y-57.525
X135.245Y-57.525
T6
X64.382Y-82.54
X64.382Y-87.54
X104.75Y-65.39
X110.75Y-79.59
X116.8Y-65.44
X122.6Y-65.415
X128.6Y-79.615
X134.65Y-65.465
X142.622Y-73.5
X142.622Y-78.5
T7
X64.5Y-64.0
X148.5Y-101.5
M30
