%TF.GenerationSoftware,KiCad,Pcbnew,10.0.4*%
%TF.CreationDate,2026-07-24T17:06:21-03:00*%
%TF.ProjectId,pre carga inteligente,70726520-6361-4726-9761-20696e74656c,rev?*%
%TF.SameCoordinates,Original*%
%TF.FileFunction,Copper,L1,Top*%
%TF.FilePolarity,Positive*%
%FSLAX46Y46*%
G04 Gerber Fmt 4.6, Leading zero omitted, Abs format (unit mm)*
G04 Created by KiCad (PCBNEW 10.0.4) date 2026-07-24 17:06:21*
%MOMM*%
%LPD*%
G01*
G04 APERTURE LIST*
G04 Aperture macros list*
%AMRoundRect*
0 Rectangle with rounded corners*
0 $1 Rounding radius*
0 $2 $3 $4 $5 $6 $7 $8 $9 X,Y pos of 4 corners*
0 Add a 4 corners polygon primitive as box body*
4,1,4,$2,$3,$4,$5,$6,$7,$8,$9,$2,$3,0*
0 Add four circle primitives for the rounded corners*
1,1,$1+$1,$2,$3*
1,1,$1+$1,$4,$5*
1,1,$1+$1,$6,$7*
1,1,$1+$1,$8,$9*
0 Add four rect primitives between the rounded corners*
20,1,$1+$1,$2,$3,$4,$5,0*
20,1,$1+$1,$4,$5,$6,$7,0*
20,1,$1+$1,$6,$7,$8,$9,0*
20,1,$1+$1,$8,$9,$2,$3,0*%
G04 Aperture macros list end*
%TA.AperFunction,ComponentPad*%
%ADD10C,2.400000*%
%TD*%
%TA.AperFunction,ComponentPad*%
%ADD11C,1.600000*%
%TD*%
%TA.AperFunction,ComponentPad*%
%ADD12RoundRect,0.250000X-0.550000X0.550000X-0.550000X-0.550000X0.550000X-0.550000X0.550000X0.550000X0*%
%TD*%
%TA.AperFunction,ComponentPad*%
%ADD13C,5.700000*%
%TD*%
%TA.AperFunction,ComponentPad*%
%ADD14RoundRect,0.250000X-1.000000X1.000000X-1.000000X-1.000000X1.000000X-1.000000X1.000000X1.000000X0*%
%TD*%
%TA.AperFunction,ComponentPad*%
%ADD15C,2.500000*%
%TD*%
%TA.AperFunction,ComponentPad*%
%ADD16C,3.000000*%
%TD*%
%TA.AperFunction,ComponentPad*%
%ADD17RoundRect,0.250000X-0.550000X-0.550000X0.550000X-0.550000X0.550000X0.550000X-0.550000X0.550000X0*%
%TD*%
%TA.AperFunction,ComponentPad*%
%ADD18R,1.905000X2.000000*%
%TD*%
%TA.AperFunction,ComponentPad*%
%ADD19O,1.905000X2.000000*%
%TD*%
%TA.AperFunction,ComponentPad*%
%ADD20RoundRect,0.250000X1.000000X-1.000000X1.000000X1.000000X-1.000000X1.000000X-1.000000X-1.000000X0*%
%TD*%
%TA.AperFunction,ComponentPad*%
%ADD21R,2.540000X2.540000*%
%TD*%
%TA.AperFunction,ViaPad*%
%ADD22C,0.600000*%
%TD*%
%TA.AperFunction,Conductor*%
%ADD23C,0.200000*%
%TD*%
%TA.AperFunction,Conductor*%
%ADD24C,0.500000*%
%TD*%
G04 APERTURE END LIST*
D10*
%TO.P,R17,1*%
%TO.N,Vout*%
X135245000Y-57525000D03*
%TO.P,R17,2*%
%TO.N,/Before Precharge*%
X104765000Y-57525000D03*
%TD*%
D11*
%TO.P,R5,2*%
%TO.N,+48V*%
X96848332Y-55880000D03*
%TO.P,R5,1*%
%TO.N,Net-(R4-Pad2)*%
X96848332Y-63500000D03*
%TD*%
%TO.P,D3,1,K_1*%
%TO.N,/+14V (voltage drop)*%
X125310000Y-95500000D03*
%TO.P,D3,2,A_2*%
%TO.N,+15V*%
X117690000Y-95500000D03*
%TD*%
%TO.P,R1,1*%
%TO.N,GND*%
X86362500Y-58930000D03*
%TO.P,R1,2*%
%TO.N,/Div 1*%
X86362500Y-66550000D03*
%TD*%
D12*
%TO.P,C7,1*%
%TO.N,Net-(U2A-+)*%
X122000000Y-102794888D03*
D11*
%TO.P,C7,2*%
%TO.N,GND*%
X122000000Y-105294888D03*
%TD*%
%TO.P,R2,1*%
%TO.N,/Div 1*%
X89715000Y-69390000D03*
%TO.P,R2,2*%
%TO.N,Net-(R2-Pad2)*%
X97335000Y-69390000D03*
%TD*%
%TO.P,R25,1*%
%TO.N,/Comp Timeout*%
X125310000Y-99000000D03*
%TO.P,R25,2*%
%TO.N,/+14V (voltage drop)*%
X117690000Y-99000000D03*
%TD*%
D13*
%TO.P,H1,1,1_1*%
%TO.N,GND*%
X64500000Y-64000000D03*
%TD*%
D14*
%TO.P,J2,1,Pin_1_1*%
%TO.N,+15V*%
X64382500Y-82540000D03*
D15*
%TO.P,J2,2,Pin_2_2*%
%TO.N,/deadman*%
X64382500Y-87540000D03*
%TD*%
D11*
%TO.P,R16,1*%
%TO.N,GND*%
X101000000Y-80690000D03*
%TO.P,R16,2*%
%TO.N,/Gate Q2 PC*%
X101000000Y-88310000D03*
%TD*%
%TO.P,R10,1*%
%TO.N,Net-(R10-Pad1)*%
X86131666Y-55920000D03*
%TO.P,R10,2*%
%TO.N,+48V*%
X93751666Y-55920000D03*
%TD*%
D16*
%TO.P,K2,1*%
%TO.N,+48V*%
X110750000Y-79590000D03*
D15*
%TO.P,K2,2*%
X116800000Y-77640000D03*
D16*
%TO.P,K2,3*%
%TO.N,/Before Precharge*%
X116800000Y-65440000D03*
%TO.P,K2,4*%
%TO.N,unconnected-(K2-Pad4)*%
X104750000Y-65390000D03*
D15*
%TO.P,K2,5*%
%TO.N,/Signal PC*%
X104800000Y-77640000D03*
%TD*%
D17*
%TO.P,U2,1*%
%TO.N,/Comp Timeout*%
X134690000Y-96690000D03*
D11*
%TO.P,U2,2,-_2*%
%TO.N,Net-(U2A--)*%
X134690000Y-99230000D03*
%TO.P,U2,3,+_3*%
%TO.N,Net-(U2A-+)*%
X134690000Y-101770000D03*
%TO.P,U2,4,V-_4*%
%TO.N,GND*%
X134690000Y-104310000D03*
%TO.P,U2,5,+_5*%
%TO.N,unconnected-(U2B-+-Pad5)*%
X142310000Y-104310000D03*
%TO.P,U2,6,-_6*%
%TO.N,unconnected-(U2B---Pad6)*%
X142310000Y-101770000D03*
%TO.P,U2,7*%
%TO.N,unconnected-(U2-Pad7)*%
X142310000Y-99230000D03*
%TO.P,U2,8,V+_8*%
%TO.N,/+14V (voltage drop)*%
X142310000Y-96690000D03*
%TD*%
D18*
%TO.P,Q3,1,D_1*%
%TO.N,/Signal BP*%
X140580000Y-87000000D03*
D19*
%TO.P,Q3,2,G_2*%
%TO.N,/Gate Timeout*%
X143120000Y-87000000D03*
%TO.P,Q3,3,S_3*%
%TO.N,GND*%
X145660000Y-87000000D03*
%TD*%
D11*
%TO.P,R13,1*%
%TO.N,/Gate Q1 BP*%
X128270000Y-90000000D03*
%TO.P,R13,2*%
%TO.N,GND*%
X135890000Y-90000000D03*
%TD*%
%TO.P,R26,1*%
%TO.N,/Gate Timeout*%
X131500000Y-93190000D03*
%TO.P,R26,2*%
%TO.N,/Comp Timeout*%
X131500000Y-100810000D03*
%TD*%
%TO.P,R3,1*%
%TO.N,Net-(R2-Pad2)*%
X100325000Y-69400000D03*
%TO.P,R3,2*%
%TO.N,Net-(R3-Pad2)*%
X100325000Y-61780000D03*
%TD*%
D13*
%TO.P,H2,1,1_1*%
%TO.N,GND*%
X148500000Y-101500000D03*
%TD*%
D11*
%TO.P,D2,1,K_1*%
%TO.N,+48V*%
X111810000Y-83000000D03*
%TO.P,D2,2,A_2*%
%TO.N,/Signal PC*%
X104190000Y-83000000D03*
%TD*%
%TO.P,R15,1*%
%TO.N,/Comp precharge*%
X87250000Y-84500000D03*
%TO.P,R15,2*%
%TO.N,/Gate Q2 PC*%
X94870000Y-84500000D03*
%TD*%
%TO.P,C3,1*%
%TO.N,GND*%
X87000000Y-79730000D03*
%TO.P,C3,2*%
%TO.N,/Div 3*%
X87000000Y-72110000D03*
%TD*%
D18*
%TO.P,Q2,1,D_1*%
%TO.N,/Signal PC*%
X105420000Y-87000000D03*
D19*
%TO.P,Q2,2,G_2*%
%TO.N,/Gate Q2 PC*%
X107960000Y-87000000D03*
%TO.P,Q2,3,S_3*%
%TO.N,GND*%
X110500000Y-87000000D03*
%TD*%
D18*
%TO.P,Q1,1,D_1*%
%TO.N,/Signal BP*%
X129500000Y-87000000D03*
D19*
%TO.P,Q1,2,G_2*%
%TO.N,/Gate Q1 BP*%
X132040000Y-87000000D03*
%TO.P,Q1,3,S_3*%
%TO.N,GND*%
X134580000Y-87000000D03*
%TD*%
D11*
%TO.P,C4,1*%
%TO.N,GND*%
X71500000Y-89250000D03*
%TO.P,C4,2*%
%TO.N,+15V*%
X71500000Y-81630000D03*
%TD*%
%TO.P,R8,1*%
%TO.N,Net-(R7-Pad2)*%
X79381250Y-63225000D03*
%TO.P,R8,2*%
%TO.N,Net-(R8-Pad2)*%
X79381250Y-55605000D03*
%TD*%
%TO.P,R18,1*%
%TO.N,/Div 3*%
X90500000Y-72110000D03*
%TO.P,R18,2*%
%TO.N,GND*%
X90500000Y-79730000D03*
%TD*%
%TO.P,R21,1*%
%TO.N,/+14V (voltage drop)*%
X114595000Y-97190000D03*
%TO.P,R21,2*%
%TO.N,Net-(U2A-+)*%
X114595000Y-104810000D03*
%TD*%
D20*
%TO.P,J1,1,Pin_1_1*%
%TO.N,unconnected-(J1-Pin_1-Pad1)*%
X142621666Y-78500000D03*
D15*
%TO.P,J1,2,Pin_2_2*%
%TO.N,+BATT*%
X142621666Y-73500000D03*
%TD*%
D11*
%TO.P,R19,1*%
%TO.N,Net-(R19-Pad1)*%
X94000000Y-79730000D03*
%TO.P,R19,2*%
%TO.N,/Div 3*%
X94000000Y-72110000D03*
%TD*%
%TO.P,R6,1*%
%TO.N,GND*%
X72400000Y-55605000D03*
%TO.P,R6,2*%
%TO.N,/Div 2*%
X72400000Y-63225000D03*
%TD*%
%TO.P,R9,1*%
%TO.N,Net-(R8-Pad2)*%
X82871875Y-63225000D03*
%TO.P,R9,2*%
%TO.N,Net-(R10-Pad1)*%
X82871875Y-55605000D03*
%TD*%
D12*
%TO.P,U1,1*%
%TO.N,/Comp precharge*%
X78310000Y-69690000D03*
D11*
%TO.P,U1,2,-_2*%
%TO.N,/Div 3*%
X75770000Y-69690000D03*
%TO.P,U1,3,+_3*%
%TO.N,/Div 2*%
X73230000Y-69690000D03*
%TO.P,U1,4,V-_4*%
%TO.N,GND*%
X70690000Y-69690000D03*
%TO.P,U1,5,+_5*%
%TO.N,/Div 3*%
X70690000Y-77310000D03*
%TO.P,U1,6,-_6*%
%TO.N,/Div 1*%
X73230000Y-77310000D03*
%TO.P,U1,7*%
%TO.N,/Comp Bypass*%
X75770000Y-77310000D03*
%TO.P,U1,8,V+_8*%
%TO.N,+15V*%
X78310000Y-77310000D03*
%TD*%
%TO.P,C2,1*%
%TO.N,GND*%
X75890625Y-55605000D03*
%TO.P,C2,2*%
%TO.N,/Div 2*%
X75890625Y-63225000D03*
%TD*%
%TO.P,R11,1*%
%TO.N,/Comp Bypass*%
X83500000Y-81545000D03*
%TO.P,R11,2*%
%TO.N,+15V*%
X83500000Y-89165000D03*
%TD*%
%TO.P,D1,1,K_1*%
%TO.N,/Fork*%
X140701666Y-83030000D03*
%TO.P,D1,2,A_2*%
%TO.N,/Signal BP*%
X133081666Y-83030000D03*
%TD*%
%TO.P,R12,1*%
%TO.N,/Gate Q1 BP*%
X94870000Y-88000000D03*
%TO.P,R12,2*%
%TO.N,/Comp Bypass*%
X87250000Y-88000000D03*
%TD*%
%TO.P,C1,1*%
%TO.N,GND*%
X89853125Y-58930000D03*
%TO.P,C1,2*%
%TO.N,/Div 1*%
X89853125Y-66550000D03*
%TD*%
%TO.P,R27,1*%
%TO.N,/Gate Timeout*%
X139460000Y-90000000D03*
%TO.P,R27,2*%
%TO.N,GND*%
X147080000Y-90000000D03*
%TD*%
%TO.P,R22,1*%
%TO.N,Net-(U2A-+)*%
X111095000Y-104810000D03*
%TO.P,R22,2*%
%TO.N,GND*%
X111095000Y-97190000D03*
%TD*%
%TO.P,R7,1*%
%TO.N,/Div 2*%
X72115000Y-66165000D03*
%TO.P,R7,2*%
%TO.N,Net-(R7-Pad2)*%
X79735000Y-66165000D03*
%TD*%
%TO.P,R14,1*%
%TO.N,+15V*%
X80075000Y-89190000D03*
%TO.P,R14,2*%
%TO.N,/Comp precharge*%
X80075000Y-81570000D03*
%TD*%
%TO.P,R20,1*%
%TO.N,Vout*%
X97500000Y-72110000D03*
%TO.P,R20,2*%
%TO.N,Net-(R19-Pad1)*%
X97500000Y-79730000D03*
%TD*%
%TO.P,R23,1*%
%TO.N,/+14V (voltage drop)*%
X135690000Y-93000000D03*
%TO.P,R23,2*%
%TO.N,Net-(U2A--)*%
X143310000Y-93000000D03*
%TD*%
%TO.P,R4,1*%
%TO.N,Net-(R3-Pad2)*%
X93343750Y-66550000D03*
%TO.P,R4,2*%
%TO.N,Net-(R4-Pad2)*%
X93343750Y-58930000D03*
%TD*%
%TO.P,R24,1*%
%TO.N,Net-(U2A--)*%
X128000000Y-100810000D03*
%TO.P,R24,2*%
%TO.N,GND*%
X128000000Y-93190000D03*
%TD*%
D21*
%TO.P,B1,1,Vin_1*%
%TO.N,+48V*%
X101500000Y-105000000D03*
%TO.P,B1,2,GND_2*%
%TO.N,GND*%
X101500000Y-93000000D03*
X61000000Y-93000000D03*
%TO.P,B1,3,Vout_3*%
%TO.N,/deadman*%
X61000000Y-105000000D03*
%TD*%
D16*
%TO.P,K1,1*%
%TO.N,+48V*%
X128600000Y-79615000D03*
D15*
%TO.P,K1,2*%
%TO.N,/Fork*%
X134650000Y-77665000D03*
D16*
%TO.P,K1,3*%
%TO.N,Vout*%
X134650000Y-65465000D03*
%TO.P,K1,4*%
%TO.N,unconnected-(K1-Pad4)*%
X122600000Y-65415000D03*
D15*
%TO.P,K1,5*%
%TO.N,/Signal BP*%
X122650000Y-77665000D03*
%TD*%
D22*
%TO.N,GND*%
X96500000Y-59000000D03*
X98500000Y-59000000D03*
X94500000Y-69500000D03*
X92500000Y-69500000D03*
X86500000Y-63500000D03*
X86500000Y-61500000D03*
X90000000Y-63500000D03*
X90000000Y-61500000D03*
X109000000Y-89000000D03*
X110500000Y-89000000D03*
%TO.N,+48V*%
X117500000Y-87500000D03*
X121500000Y-87500000D03*
%TO.N,GND*%
X68500000Y-58000000D03*
X66500000Y-58000000D03*
X64500000Y-58000000D03*
X60500000Y-58000000D03*
X62500000Y-58000000D03*
%TO.N,+48V*%
X121500000Y-80500000D03*
X116500000Y-80500000D03*
X119000000Y-80500000D03*
X119000000Y-78500000D03*
X113500000Y-80500000D03*
X128000000Y-82500000D03*
X126000000Y-78500000D03*
X113500000Y-78500000D03*
X126000000Y-80500000D03*
X115000000Y-87500000D03*
%TO.N,Vout*%
X132500000Y-65500000D03*
X150500000Y-62500000D03*
X150500000Y-68500000D03*
X150500000Y-66500000D03*
X150500000Y-64500000D03*
%TO.N,GND*%
X150500000Y-55500000D03*
X150500000Y-51500000D03*
%TO.N,Vout*%
X147500000Y-68500000D03*
X147500000Y-62500000D03*
X138500000Y-65500000D03*
X144500000Y-68500000D03*
X135500000Y-68500000D03*
X132500000Y-68500000D03*
X138500000Y-68500000D03*
X141500000Y-68500000D03*
X144500000Y-62500000D03*
X141500000Y-62500000D03*
X138500000Y-62500000D03*
X135500000Y-62500000D03*
X132500000Y-62500000D03*
%TO.N,GND*%
X150500000Y-49500000D03*
X150500000Y-53500000D03*
X145000000Y-90000000D03*
X149000000Y-90500000D03*
X133500000Y-89500000D03*
X104500000Y-92500000D03*
X91000000Y-85500000D03*
X91000000Y-82500000D03*
X91000000Y-88500000D03*
X67000000Y-89000000D03*
X78500000Y-85500000D03*
X67000000Y-85500000D03*
X71000000Y-85500000D03*
X75000000Y-82500000D03*
X75000000Y-89000000D03*
X75000000Y-85500000D03*
%TO.N,+48V*%
X109500000Y-82500000D03*
X113500000Y-82500000D03*
X124500000Y-87500000D03*
X115000000Y-85500000D03*
X124500000Y-85500000D03*
X115000000Y-83500000D03*
X124500000Y-83500000D03*
X126000000Y-82500000D03*
X130000000Y-82500000D03*
%TO.N,GND*%
X60500000Y-55500000D03*
X68500000Y-55500000D03*
X64500000Y-55500000D03*
X60500000Y-51500000D03*
X62500000Y-49500000D03*
X66500000Y-49500000D03*
X70500000Y-53500000D03*
X68500000Y-51500000D03*
X70500000Y-49500000D03*
X74500000Y-53500000D03*
X72500000Y-51500000D03*
X74500000Y-49500000D03*
X148500000Y-55500000D03*
X140500000Y-55500000D03*
X144500000Y-55500000D03*
X148500000Y-51500000D03*
X146500000Y-49500000D03*
X142500000Y-49500000D03*
X140500000Y-51500000D03*
X138500000Y-53500000D03*
X138500000Y-49500000D03*
X98500000Y-75000000D03*
X98500000Y-77000000D03*
X96500000Y-77000000D03*
X96500000Y-75000000D03*
X92500000Y-75000000D03*
X92500000Y-77000000D03*
X90500000Y-77000000D03*
X88500000Y-77000000D03*
X94500000Y-77000000D03*
X86500000Y-77000000D03*
X86500000Y-75000000D03*
X88500000Y-75000000D03*
X94500000Y-75000000D03*
X90500000Y-75000000D03*
X136500000Y-51500000D03*
X112500000Y-51500000D03*
X76500000Y-51500000D03*
X96500000Y-51500000D03*
X100500000Y-51500000D03*
X124500000Y-51500000D03*
X116500000Y-51500000D03*
X104500000Y-51500000D03*
X88500000Y-51500000D03*
X120500000Y-51500000D03*
X132500000Y-51500000D03*
X108500000Y-51500000D03*
X84500000Y-51500000D03*
X92500000Y-51500000D03*
X128500000Y-51500000D03*
X80500000Y-51500000D03*
X78500000Y-53500000D03*
X126500000Y-53500000D03*
X134500000Y-53500000D03*
X106500000Y-53500000D03*
X114500000Y-49500000D03*
X102500000Y-53500000D03*
X90500000Y-49500000D03*
X118500000Y-49500000D03*
X122500000Y-49500000D03*
X118500000Y-53500000D03*
X110500000Y-53500000D03*
X94500000Y-53500000D03*
X98500000Y-49500000D03*
X82500000Y-53500000D03*
X114500000Y-53500000D03*
X130500000Y-53500000D03*
X82500000Y-49500000D03*
X98500000Y-53500000D03*
X126500000Y-49500000D03*
X106500000Y-49500000D03*
X102500000Y-49500000D03*
X130500000Y-49500000D03*
X110500000Y-49500000D03*
X86500000Y-53500000D03*
X122500000Y-53500000D03*
X90500000Y-53500000D03*
X78500000Y-49500000D03*
X134500000Y-49500000D03*
X94500000Y-49500000D03*
X86500000Y-49500000D03*
X109500000Y-103500000D03*
X111000000Y-102000000D03*
X108000000Y-105000000D03*
X121500000Y-100500000D03*
X121500000Y-98500000D03*
X123500000Y-100500000D03*
X123500000Y-98500000D03*
X137000000Y-88000000D03*
X149000000Y-88000000D03*
X143000000Y-90000000D03*
X131500000Y-91000000D03*
X114000000Y-93000000D03*
X115000000Y-94500000D03*
X112500000Y-94500000D03*
X63000000Y-72500000D03*
X106000000Y-94000000D03*
X111000000Y-93000000D03*
X63000000Y-95500000D03*
X119500000Y-106500000D03*
X61000000Y-70500000D03*
X79000000Y-92500000D03*
X108000000Y-102000000D03*
X109500000Y-100500000D03*
X139500000Y-106500000D03*
X133500000Y-106500000D03*
X63000000Y-68500000D03*
X87000000Y-95500000D03*
X63000000Y-78500000D03*
X95000000Y-98500000D03*
X83000000Y-92500000D03*
X106500000Y-103500000D03*
X91000000Y-98500000D03*
X125500000Y-106500000D03*
X75000000Y-92500000D03*
X139500000Y-102500000D03*
X67000000Y-72500000D03*
X147500000Y-106500000D03*
X61000000Y-68500000D03*
X65000000Y-74500000D03*
X67000000Y-70500000D03*
X137500000Y-106500000D03*
X127500000Y-104500000D03*
X119000000Y-93500000D03*
X87000000Y-98500000D03*
X137500000Y-98500000D03*
X137500000Y-100500000D03*
X109500000Y-106500000D03*
X107500000Y-92500000D03*
X125000000Y-91500000D03*
X63000000Y-92500000D03*
X105000000Y-99000000D03*
X65000000Y-78500000D03*
X67000000Y-92500000D03*
X91000000Y-92500000D03*
X137500000Y-104500000D03*
X98500000Y-95500000D03*
X98500000Y-98500000D03*
X91000000Y-95500000D03*
X65000000Y-68500000D03*
X65000000Y-76500000D03*
X95000000Y-95500000D03*
X121000000Y-93500000D03*
X117500000Y-106500000D03*
X67000000Y-74500000D03*
X83000000Y-95500000D03*
X61000000Y-72500000D03*
X65000000Y-70500000D03*
X139500000Y-100500000D03*
X141500000Y-106500000D03*
X106500000Y-100500000D03*
X67000000Y-95500000D03*
X129500000Y-106500000D03*
X63000000Y-74500000D03*
X123000000Y-91500000D03*
X115500000Y-106500000D03*
X146000000Y-95000000D03*
X63000000Y-70500000D03*
X75000000Y-95500000D03*
X61000000Y-76500000D03*
X146000000Y-93000000D03*
X84500000Y-75000000D03*
X139500000Y-104500000D03*
X83000000Y-98500000D03*
X108000000Y-99000000D03*
X79000000Y-98500000D03*
X135500000Y-106500000D03*
X100500000Y-76000000D03*
X129500000Y-104500000D03*
X145500000Y-106500000D03*
X108000000Y-96000000D03*
X75000000Y-98500000D03*
X139500000Y-98500000D03*
X61000000Y-74500000D03*
X127500000Y-106500000D03*
X143500000Y-106500000D03*
X103000000Y-97000000D03*
X146000000Y-97000000D03*
X149000000Y-97000000D03*
X131500000Y-106500000D03*
X61000000Y-78500000D03*
X79000000Y-95500000D03*
X149000000Y-95000000D03*
X131500000Y-104500000D03*
X105000000Y-102000000D03*
X113500000Y-106500000D03*
X67000000Y-76500000D03*
X87000000Y-92500000D03*
X101500000Y-98500000D03*
X65000000Y-72500000D03*
X84500000Y-77000000D03*
X63000000Y-98500000D03*
X111500000Y-106500000D03*
X103500000Y-100500000D03*
X149000000Y-93000000D03*
X100500000Y-78000000D03*
X71000000Y-98500000D03*
X119000000Y-91500000D03*
X71000000Y-92500000D03*
X125000000Y-93500000D03*
X71000000Y-95500000D03*
X100500000Y-74000000D03*
X109500000Y-94500000D03*
X98500000Y-92500000D03*
X104500000Y-95500000D03*
X67000000Y-68500000D03*
X123000000Y-93500000D03*
X67000000Y-78500000D03*
X67000000Y-98500000D03*
X121000000Y-91500000D03*
X125500000Y-104500000D03*
X63000000Y-76500000D03*
X95000000Y-92500000D03*
X106500000Y-97500000D03*
X137500000Y-102500000D03*
%TO.N,+15V*%
X108000000Y-91000000D03*
%TO.N,/Gate Q1 BP*%
X113500000Y-90000000D03*
%TD*%
%TO.N,/Gate Q1 BP*%
D23*
X96870000Y-90000000D02*
X94870000Y-88000000D01*
%TO.N,GND*%
D24*
X101000000Y-84500000D02*
X101000000Y-80690000D01*
X109500000Y-85000000D02*
X101500000Y-85000000D01*
X110500000Y-86000000D02*
X109500000Y-85000000D01*
X110500000Y-87000000D02*
X110500000Y-86000000D01*
X101500000Y-85000000D02*
X101000000Y-84500000D01*
%TO.N,+15V*%
D23*
X117690000Y-95095000D02*
X117690000Y-95500000D01*
X113595000Y-91000000D02*
X117690000Y-95095000D01*
X108000000Y-91000000D02*
X113595000Y-91000000D01*
%TO.N,+48V*%
X101700000Y-104615000D02*
X101700000Y-104715000D01*
%TO.N,GND*%
X87000000Y-79730000D02*
X90500000Y-79730000D01*
%TO.N,/Div 1*%
X86362500Y-66550000D02*
X86362500Y-69352500D01*
X75000000Y-73615000D02*
X73230000Y-75385000D01*
X86362500Y-69352500D02*
X82100000Y-73615000D01*
X82100000Y-73615000D02*
X75000000Y-73615000D01*
X73230000Y-75385000D02*
X73230000Y-77375000D01*
%TO.N,Net-(U2A--)*%
X143580000Y-93000000D02*
X141000000Y-93000000D01*
X129580000Y-99230000D02*
X128000000Y-100810000D01*
X141000000Y-93000000D02*
X134770000Y-99230000D01*
X134770000Y-99230000D02*
X129580000Y-99230000D01*
%TO.N,Vout*%
X97850000Y-72110000D02*
X97500000Y-72110000D01*
X134650000Y-66235000D02*
X134650000Y-65465000D01*
%TO.N,/Div 3*%
X70690000Y-76060000D02*
X75770000Y-70980000D01*
X87000000Y-72110000D02*
X94000000Y-72110000D01*
X75770000Y-70980000D02*
X75770000Y-69690000D01*
X70690000Y-77375000D02*
X70690000Y-76060000D01*
%TO.N,/Signal BP*%
X132250000Y-77625000D02*
X132250000Y-82198334D01*
X122650000Y-77665000D02*
X123815000Y-76500000D01*
X123815000Y-76500000D02*
X131125000Y-76500000D01*
X131125000Y-76500000D02*
X132250000Y-77625000D01*
X132250000Y-82198334D02*
X133081666Y-83030000D01*
%TO.N,/deadman*%
D24*
X61781666Y-104718334D02*
X61781666Y-104520000D01*
X64650000Y-101850000D02*
X61500000Y-105000000D01*
X61500000Y-105000000D02*
X61781666Y-104718334D01*
X64025000Y-87540000D02*
X64650000Y-88165000D01*
X64650000Y-88165000D02*
X64650000Y-101850000D01*
%TO.N,/Comp Bypass*%
D23*
X75770000Y-78270000D02*
X76870000Y-79370000D01*
X83500000Y-81545000D02*
X83500000Y-84695000D01*
X83490000Y-80045000D02*
X83490000Y-81535000D01*
X76870000Y-79370000D02*
X82815000Y-79370000D01*
X75770000Y-77310000D02*
X75770000Y-78270000D01*
X83500000Y-84695000D02*
X86805000Y-88000000D01*
X82815000Y-79370000D02*
X83490000Y-80045000D01*
%TO.N,Vout*%
X124640000Y-72140000D02*
X131315000Y-65465000D01*
X131315000Y-65465000D02*
X134650000Y-65465000D01*
X97530000Y-72140000D02*
X124640000Y-72140000D01*
X97500000Y-72110000D02*
X97530000Y-72140000D01*
%TO.N,/Gate Q1 BP*%
X113500000Y-90000000D02*
X96870000Y-90000000D01*
%TD*%
%TA.AperFunction,Conductor*%
%TO.N,+48V*%
G36*
X119876046Y-78019502D02*
G01*
X119921801Y-78072306D01*
X119932227Y-78109932D01*
X119934087Y-78126441D01*
X119934089Y-78126455D01*
X120002831Y-78427635D01*
X120002835Y-78427647D01*
X120104862Y-78719222D01*
X120104868Y-78719236D01*
X120238903Y-78997562D01*
X120238905Y-78997565D01*
X120403265Y-79259143D01*
X120595880Y-79500674D01*
X120814326Y-79719120D01*
X121055857Y-79911735D01*
X121317435Y-80076095D01*
X121595771Y-80210135D01*
X121595777Y-80210137D01*
X121887352Y-80312164D01*
X121887364Y-80312168D01*
X122188548Y-80380911D01*
X122188554Y-80380911D01*
X122188562Y-80380913D01*
X122393206Y-80403970D01*
X122495529Y-80415499D01*
X122495532Y-80415500D01*
X122495535Y-80415500D01*
X122804468Y-80415500D01*
X122804469Y-80415499D01*
X122961356Y-80397822D01*
X123111437Y-80380913D01*
X123111442Y-80380912D01*
X123111452Y-80380911D01*
X123412636Y-80312168D01*
X123704229Y-80210135D01*
X123982565Y-80076095D01*
X124244143Y-79911735D01*
X124485674Y-79719120D01*
X124704120Y-79500674D01*
X124896735Y-79259143D01*
X125061095Y-78997565D01*
X125195135Y-78719229D01*
X125297168Y-78427636D01*
X125349830Y-78196908D01*
X125383939Y-78135929D01*
X125445600Y-78103071D01*
X125470721Y-78100500D01*
X130376000Y-78100500D01*
X130443039Y-78120185D01*
X130488794Y-78172989D01*
X130500000Y-78224500D01*
X130500000Y-83375817D01*
X130480315Y-83442856D01*
X130427511Y-83488611D01*
X130376000Y-83499817D01*
X127500181Y-83499817D01*
X125500000Y-85500001D01*
X125500000Y-85500002D01*
X125500003Y-88384915D01*
X125480319Y-88451954D01*
X125427515Y-88497709D01*
X125375609Y-88508914D01*
X114491247Y-88474302D01*
X114429641Y-88457690D01*
X114298052Y-88381717D01*
X114298042Y-88381713D01*
X114243087Y-88358950D01*
X114079993Y-88291394D01*
X114079990Y-88291393D01*
X114076243Y-88289841D01*
X114076987Y-88288044D01*
X114026245Y-88252327D01*
X113999924Y-88187605D01*
X113999297Y-88175117D01*
X114000395Y-85567265D01*
X114000394Y-85567264D01*
X114000395Y-85567264D01*
X112078216Y-83516601D01*
X110451103Y-83508968D01*
X110389685Y-83492356D01*
X110275891Y-83426657D01*
X110275876Y-83426650D01*
X110063887Y-83338842D01*
X109842239Y-83279452D01*
X109842233Y-83279451D01*
X109842232Y-83279451D01*
X109832362Y-83278151D01*
X109815771Y-83275967D01*
X109815770Y-83275966D01*
X109614744Y-83249501D01*
X109614739Y-83249500D01*
X109614734Y-83249500D01*
X108624000Y-83249500D01*
X108556961Y-83229815D01*
X108511206Y-83177011D01*
X108500000Y-83125500D01*
X108500000Y-78123817D01*
X108519685Y-78056778D01*
X108572489Y-78011023D01*
X108624000Y-77999817D01*
X119809007Y-77999817D01*
X119876046Y-78019502D01*
G37*
%TD.AperFunction*%
%TD*%
%TA.AperFunction,Conductor*%
%TO.N,Vout*%
G36*
X151943039Y-61309685D02*
G01*
X151988794Y-61362489D01*
X152000000Y-61414000D01*
X152000000Y-69966000D01*
X151980315Y-70033039D01*
X151927511Y-70078794D01*
X151876000Y-70090000D01*
X131235666Y-70090000D01*
X131168627Y-70070315D01*
X131122872Y-70017511D01*
X131111666Y-69966000D01*
X131111666Y-61414000D01*
X131131351Y-61346961D01*
X131184155Y-61301206D01*
X131235666Y-61290000D01*
X151876000Y-61290000D01*
X151943039Y-61309685D01*
G37*
%TD.AperFunction*%
%TD*%
%TA.AperFunction,Conductor*%
%TO.N,GND*%
G36*
X151877221Y-48507609D02*
G01*
X151944255Y-48527312D01*
X151989995Y-48580129D01*
X152001186Y-48631643D01*
X151998813Y-57374862D01*
X151979110Y-57441896D01*
X151926294Y-57487636D01*
X151874840Y-57498828D01*
X139715455Y-57501477D01*
X139648411Y-57481807D01*
X139632463Y-57469634D01*
X138890446Y-56801630D01*
X136333779Y-54499976D01*
X136333778Y-54499976D01*
X104054730Y-54499995D01*
X104582092Y-54000000D01*
X102064852Y-54000000D01*
X102064852Y-48500500D01*
X126486367Y-48500500D01*
X151877221Y-48507609D01*
G37*
%TD.AperFunction*%
%TD*%
%TA.AperFunction,Conductor*%
%TO.N,GND*%
G36*
X102064852Y-54000000D02*
G01*
X101367215Y-54000000D01*
X101367215Y-57048059D01*
X102064852Y-56386621D01*
X102064852Y-71415500D01*
X102045167Y-71482539D01*
X101992363Y-71528294D01*
X101940852Y-71539500D01*
X98744887Y-71539500D01*
X98677848Y-71519815D01*
X98634402Y-71471794D01*
X98619117Y-71441795D01*
X98612287Y-71428390D01*
X98491966Y-71262781D01*
X98347219Y-71118034D01*
X98347213Y-71118028D01*
X98181613Y-70997715D01*
X98181612Y-70997714D01*
X98181610Y-70997713D01*
X98104605Y-70958477D01*
X97999223Y-70904781D01*
X97803309Y-70841124D01*
X97745634Y-70801686D01*
X97718436Y-70737327D01*
X97730351Y-70668481D01*
X97777595Y-70617005D01*
X97803302Y-70605265D01*
X97834219Y-70595220D01*
X98016610Y-70502287D01*
X98119537Y-70427507D01*
X98182213Y-70381971D01*
X98182215Y-70381968D01*
X98182219Y-70381966D01*
X98326966Y-70237219D01*
X98326968Y-70237215D01*
X98326971Y-70237213D01*
X98379732Y-70164590D01*
X98447287Y-70071610D01*
X98540220Y-69889219D01*
X98603477Y-69694534D01*
X98635500Y-69492352D01*
X98635500Y-69297648D01*
X99024500Y-69297648D01*
X99024500Y-69502351D01*
X99056522Y-69704534D01*
X99119781Y-69899223D01*
X99163446Y-69984918D01*
X99207619Y-70071613D01*
X99212715Y-70081613D01*
X99333028Y-70247213D01*
X99477786Y-70391971D01*
X99595410Y-70477428D01*
X99643390Y-70512287D01*
X99735719Y-70559331D01*
X99825776Y-70605218D01*
X99825778Y-70605218D01*
X99825781Y-70605220D01*
X99926107Y-70637818D01*
X100020465Y-70668477D01*
X100105631Y-70681966D01*
X100222648Y-70700500D01*
X100222649Y-70700500D01*
X100427351Y-70700500D01*
X100427352Y-70700500D01*
X100629534Y-70668477D01*
X100824219Y-70605220D01*
X101006610Y-70512287D01*
X101123301Y-70427507D01*
X101172213Y-70391971D01*
X101172215Y-70391968D01*
X101172219Y-70391966D01*
X101316966Y-70247219D01*
X101316968Y-70247215D01*
X101316971Y-70247213D01*
X101369732Y-70174590D01*
X101437287Y-70081610D01*
X101530220Y-69899219D01*
X101593477Y-69704534D01*
X101625500Y-69502352D01*
X101625500Y-69297648D01*
X101600544Y-69140084D01*
X101593477Y-69095465D01*
X101554180Y-68974522D01*
X101530220Y-68900781D01*
X101530218Y-68900778D01*
X101530218Y-68900776D01*
X101489398Y-68820663D01*
X101437287Y-68718390D01*
X101422493Y-68698028D01*
X101316971Y-68552786D01*
X101172213Y-68408028D01*
X101006613Y-68287715D01*
X101006612Y-68287714D01*
X101006610Y-68287713D01*
X100949653Y-68258691D01*
X100824223Y-68194781D01*
X100629534Y-68131522D01*
X100454995Y-68103878D01*
X100427352Y-68099500D01*
X100222648Y-68099500D01*
X100198329Y-68103351D01*
X100020465Y-68131522D01*
X99825776Y-68194781D01*
X99643386Y-68287715D01*
X99477786Y-68408028D01*
X99333028Y-68552786D01*
X99212715Y-68718386D01*
X99119781Y-68900776D01*
X99056522Y-69095465D01*
X99024500Y-69297648D01*
X98635500Y-69297648D01*
X98635500Y-69287648D01*
X98616656Y-69168671D01*
X98603477Y-69085465D01*
X98555059Y-68936451D01*
X98540220Y-68890781D01*
X98540218Y-68890778D01*
X98540218Y-68890776D01*
X98504493Y-68820663D01*
X98447287Y-68708390D01*
X98420372Y-68671344D01*
X98326971Y-68542786D01*
X98182213Y-68398028D01*
X98016613Y-68277715D01*
X98016612Y-68277714D01*
X98016610Y-68277713D01*
X97959653Y-68248691D01*
X97834223Y-68184781D01*
X97639534Y-68121522D01*
X97464995Y-68093878D01*
X97437352Y-68089500D01*
X97232648Y-68089500D01*
X97208329Y-68093351D01*
X97030465Y-68121522D01*
X96835776Y-68184781D01*
X96653386Y-68277715D01*
X96487786Y-68398028D01*
X96343028Y-68542786D01*
X96222715Y-68708386D01*
X96129781Y-68890776D01*
X96066522Y-69085465D01*
X96034500Y-69287648D01*
X96034500Y-69492351D01*
X96066522Y-69694534D01*
X96129781Y-69889223D01*
X96222715Y-70071613D01*
X96343028Y-70237213D01*
X96487786Y-70381971D01*
X96572543Y-70443549D01*
X96653390Y-70502287D01*
X96765345Y-70559331D01*
X96835776Y-70595218D01*
X96835778Y-70595218D01*
X96835781Y-70595220D01*
X96944954Y-70630692D01*
X97031690Y-70658875D01*
X97089365Y-70698313D01*
X97116563Y-70762672D01*
X97104648Y-70831518D01*
X97057404Y-70882994D01*
X97031691Y-70894736D01*
X97000780Y-70904779D01*
X96818386Y-70997715D01*
X96652786Y-71118028D01*
X96508028Y-71262786D01*
X96387715Y-71428386D01*
X96294781Y-71610776D01*
X96231522Y-71805465D01*
X96199500Y-72007648D01*
X96199500Y-72212351D01*
X96231522Y-72414534D01*
X96294781Y-72609223D01*
X96387715Y-72791613D01*
X96508028Y-72957213D01*
X96652786Y-73101971D01*
X96807749Y-73214556D01*
X96818390Y-73222287D01*
X96934607Y-73281503D01*
X97000776Y-73315218D01*
X97000778Y-73315218D01*
X97000781Y-73315220D01*
X97105137Y-73349127D01*
X97195465Y-73378477D01*
X97296557Y-73394488D01*
X97397648Y-73410500D01*
X97397649Y-73410500D01*
X97602351Y-73410500D01*
X97602352Y-73410500D01*
X97804534Y-73378477D01*
X97999219Y-73315220D01*
X98181610Y-73222287D01*
X98302467Y-73134480D01*
X98347213Y-73101971D01*
X98347215Y-73101968D01*
X98347219Y-73101966D01*
X98491966Y-72957219D01*
X98491968Y-72957215D01*
X98491971Y-72957213D01*
X98612284Y-72791615D01*
X98667613Y-72748949D01*
X98712602Y-72740500D01*
X101940852Y-72740500D01*
X102007891Y-72760185D01*
X102053646Y-72812989D01*
X102064852Y-72864500D01*
X102064852Y-87563099D01*
X101991971Y-87462787D01*
X101991967Y-87462782D01*
X101847213Y-87318028D01*
X101681613Y-87197715D01*
X101681612Y-87197714D01*
X101681610Y-87197713D01*
X101593436Y-87152786D01*
X101499223Y-87104781D01*
X101304534Y-87041522D01*
X101129995Y-87013878D01*
X101102352Y-87009500D01*
X100897648Y-87009500D01*
X100873329Y-87013351D01*
X100695465Y-87041522D01*
X100500776Y-87104781D01*
X100318386Y-87197715D01*
X100152786Y-87318028D01*
X100008028Y-87462786D01*
X99887715Y-87628386D01*
X99794781Y-87810776D01*
X99731522Y-88005465D01*
X99699500Y-88207648D01*
X99699500Y-88412351D01*
X99731522Y-88614534D01*
X99794781Y-88809223D01*
X99887715Y-88991613D01*
X100008028Y-89157213D01*
X100038634Y-89187819D01*
X100072119Y-89249142D01*
X100067135Y-89318834D01*
X100025263Y-89374767D01*
X99959799Y-89399184D01*
X99950953Y-89399500D01*
X97170097Y-89399500D01*
X97103058Y-89379815D01*
X97082416Y-89363181D01*
X96164077Y-88444842D01*
X96130592Y-88383519D01*
X96133828Y-88318841D01*
X96134171Y-88317786D01*
X96138477Y-88304534D01*
X96170500Y-88102352D01*
X96170500Y-87897648D01*
X96138477Y-87695466D01*
X96125242Y-87654734D01*
X96075218Y-87500776D01*
X96036739Y-87425258D01*
X95982287Y-87318390D01*
X95974556Y-87307749D01*
X95861971Y-87152786D01*
X95717213Y-87008028D01*
X95551613Y-86887715D01*
X95551612Y-86887714D01*
X95551610Y-86887713D01*
X95488854Y-86855737D01*
X95369223Y-86794781D01*
X95174534Y-86731522D01*
X94999995Y-86703878D01*
X94972352Y-86699500D01*
X94767648Y-86699500D01*
X94743329Y-86703351D01*
X94565465Y-86731522D01*
X94370776Y-86794781D01*
X94188386Y-86887715D01*
X94022786Y-87008028D01*
X93878028Y-87152786D01*
X93757715Y-87318386D01*
X93664781Y-87500776D01*
X93601522Y-87695465D01*
X93569500Y-87897648D01*
X93569500Y-88102351D01*
X93601522Y-88304534D01*
X93664781Y-88499223D01*
X93723536Y-88614534D01*
X93749645Y-88665776D01*
X93757715Y-88681613D01*
X93878028Y-88847213D01*
X94022786Y-88991971D01*
X94154477Y-89087648D01*
X94188390Y-89112287D01*
X94276574Y-89157219D01*
X94370776Y-89205218D01*
X94370778Y-89205218D01*
X94370781Y-89205220D01*
X94475137Y-89239127D01*
X94565465Y-89268477D01*
X94666557Y-89284488D01*
X94767648Y-89300500D01*
X94767649Y-89300500D01*
X94972351Y-89300500D01*
X94972352Y-89300500D01*
X95174534Y-89268477D01*
X95188842Y-89263827D01*
X95258682Y-89261831D01*
X95314842Y-89294077D01*
X96385139Y-90364374D01*
X96385149Y-90364385D01*
X96389479Y-90368715D01*
X96389480Y-90368716D01*
X96501284Y-90480520D01*
X96588095Y-90530639D01*
X96588097Y-90530641D01*
X96626151Y-90552611D01*
X96638215Y-90559577D01*
X96790943Y-90600500D01*
X96790945Y-90600500D01*
X102064852Y-90600500D01*
X102064852Y-100000000D01*
X65524500Y-100000000D01*
X65457461Y-99980315D01*
X65411706Y-99927511D01*
X65400500Y-99876000D01*
X65400500Y-89087648D01*
X78774500Y-89087648D01*
X78774500Y-89292352D01*
X78778479Y-89317472D01*
X78806522Y-89494534D01*
X78869781Y-89689223D01*
X78910031Y-89768216D01*
X78949976Y-89846613D01*
X78962715Y-89871613D01*
X79083028Y-90037213D01*
X79227786Y-90181971D01*
X79358976Y-90277284D01*
X79393390Y-90302287D01*
X79509607Y-90361503D01*
X79575776Y-90395218D01*
X79575778Y-90395218D01*
X79575781Y-90395220D01*
X79680137Y-90429127D01*
X79770465Y-90458477D01*
X79871557Y-90474488D01*
X79972648Y-90490500D01*
X79972649Y-90490500D01*
X80177351Y-90490500D01*
X80177352Y-90490500D01*
X80379534Y-90458477D01*
X80574219Y-90395220D01*
X80756610Y-90302287D01*
X80853650Y-90231784D01*
X80922213Y-90181971D01*
X80922215Y-90181968D01*
X80922219Y-90181966D01*
X81066966Y-90037219D01*
X81066968Y-90037215D01*
X81066971Y-90037213D01*
X81119732Y-89964590D01*
X81187287Y-89871610D01*
X81280220Y-89689219D01*
X81343477Y-89494534D01*
X81375500Y-89292352D01*
X81375500Y-89087648D01*
X81371540Y-89062648D01*
X82199500Y-89062648D01*
X82199500Y-89267351D01*
X82231522Y-89469534D01*
X82294781Y-89664223D01*
X82387715Y-89846613D01*
X82508028Y-90012213D01*
X82652786Y-90156971D01*
X82807749Y-90269556D01*
X82818390Y-90277287D01*
X82934607Y-90336503D01*
X83000776Y-90370218D01*
X83000778Y-90370218D01*
X83000781Y-90370220D01*
X83077717Y-90395218D01*
X83195465Y-90433477D01*
X83296557Y-90449488D01*
X83397648Y-90465500D01*
X83397649Y-90465500D01*
X83602351Y-90465500D01*
X83602352Y-90465500D01*
X83804534Y-90433477D01*
X83999219Y-90370220D01*
X84181610Y-90277287D01*
X84274590Y-90209732D01*
X84347213Y-90156971D01*
X84347215Y-90156968D01*
X84347219Y-90156966D01*
X84491966Y-90012219D01*
X84491968Y-90012215D01*
X84491971Y-90012213D01*
X84594121Y-89871613D01*
X84612287Y-89846610D01*
X84705220Y-89664219D01*
X84768477Y-89469534D01*
X84800500Y-89267352D01*
X84800500Y-89062648D01*
X84785084Y-88965318D01*
X84768477Y-88860465D01*
X84715256Y-88696670D01*
X84705220Y-88665781D01*
X84705218Y-88665778D01*
X84705218Y-88665776D01*
X84671503Y-88599607D01*
X84612287Y-88483390D01*
X84604556Y-88472749D01*
X84491971Y-88317786D01*
X84347213Y-88173028D01*
X84181613Y-88052715D01*
X84181612Y-88052714D01*
X84181610Y-88052713D01*
X84124653Y-88023691D01*
X83999223Y-87959781D01*
X83804534Y-87896522D01*
X83629995Y-87868878D01*
X83602352Y-87864500D01*
X83397648Y-87864500D01*
X83373329Y-87868351D01*
X83195465Y-87896522D01*
X83000776Y-87959781D01*
X82818386Y-88052715D01*
X82652786Y-88173028D01*
X82508028Y-88317786D01*
X82387715Y-88483386D01*
X82294781Y-88665776D01*
X82231522Y-88860465D01*
X82199500Y-89062648D01*
X81371540Y-89062648D01*
X81343477Y-88885466D01*
X81334851Y-88858919D01*
X81282133Y-88696670D01*
X81280220Y-88690781D01*
X81280218Y-88690778D01*
X81280218Y-88690776D01*
X81241370Y-88614534D01*
X81187287Y-88508390D01*
X81169121Y-88483386D01*
X81066971Y-88342786D01*
X80922213Y-88198028D01*
X80756613Y-88077715D01*
X80756612Y-88077714D01*
X80756610Y-88077713D01*
X80692598Y-88045097D01*
X80574223Y-87984781D01*
X80379534Y-87921522D01*
X80204995Y-87893878D01*
X80177352Y-87889500D01*
X79972648Y-87889500D01*
X79948329Y-87893351D01*
X79770465Y-87921522D01*
X79575776Y-87984781D01*
X79393386Y-88077715D01*
X79227786Y-88198028D01*
X79083028Y-88342786D01*
X78962715Y-88508386D01*
X78869781Y-88690776D01*
X78806522Y-88885465D01*
X78788602Y-88998611D01*
X78774500Y-89087648D01*
X65400500Y-89087648D01*
X65400500Y-89026468D01*
X65420185Y-88959429D01*
X65449013Y-88928093D01*
X65504564Y-88885466D01*
X65539161Y-88858919D01*
X65539165Y-88858914D01*
X65539170Y-88858911D01*
X65701411Y-88696670D01*
X65701414Y-88696665D01*
X65701419Y-88696661D01*
X65841111Y-88514612D01*
X65955844Y-88315888D01*
X66043658Y-88103887D01*
X66103048Y-87882238D01*
X66133000Y-87654734D01*
X66133000Y-87425266D01*
X66103048Y-87197762D01*
X66043658Y-86976113D01*
X65955844Y-86764112D01*
X65841111Y-86565388D01*
X65841108Y-86565385D01*
X65841107Y-86565382D01*
X65701418Y-86383338D01*
X65701411Y-86383330D01*
X65539170Y-86221089D01*
X65539161Y-86221081D01*
X65357117Y-86081392D01*
X65158390Y-85966657D01*
X65158376Y-85966650D01*
X64946387Y-85878842D01*
X64724738Y-85819452D01*
X64686715Y-85814446D01*
X64497241Y-85789500D01*
X64497234Y-85789500D01*
X64267766Y-85789500D01*
X64267758Y-85789500D01*
X64051215Y-85818009D01*
X64040262Y-85819452D01*
X63946576Y-85844554D01*
X63818612Y-85878842D01*
X63606623Y-85966650D01*
X63606609Y-85966657D01*
X63407882Y-86081392D01*
X63225838Y-86221081D01*
X63063581Y-86383338D01*
X62923892Y-86565382D01*
X62809157Y-86764109D01*
X62809150Y-86764123D01*
X62721342Y-86976112D01*
X62721342Y-86976113D01*
X62674005Y-87152781D01*
X62661953Y-87197759D01*
X62661951Y-87197770D01*
X62632000Y-87425258D01*
X62632000Y-87654741D01*
X62652544Y-87810776D01*
X62661952Y-87882238D01*
X62707630Y-88052713D01*
X62721342Y-88103887D01*
X62809150Y-88315876D01*
X62809157Y-88315890D01*
X62848203Y-88383519D01*
X62920294Y-88508386D01*
X62923892Y-88514617D01*
X63063581Y-88696661D01*
X63063589Y-88696670D01*
X63225830Y-88858911D01*
X63225838Y-88858918D01*
X63407882Y-88998607D01*
X63407885Y-88998608D01*
X63407888Y-88998611D01*
X63606612Y-89113344D01*
X63606614Y-89113344D01*
X63606618Y-89113347D01*
X63822364Y-89202712D01*
X63821621Y-89204504D01*
X63872402Y-89240103D01*
X63898848Y-89304774D01*
X63899500Y-89317472D01*
X63899500Y-99876000D01*
X63879815Y-99943039D01*
X63827011Y-99988794D01*
X63775500Y-100000000D01*
X59624000Y-100000000D01*
X59556961Y-99980315D01*
X59511206Y-99927511D01*
X59500000Y-99876000D01*
X59500000Y-81489983D01*
X62632000Y-81489983D01*
X62632000Y-83590001D01*
X62632001Y-83590018D01*
X62642500Y-83692796D01*
X62642501Y-83692799D01*
X62684117Y-83818386D01*
X62697686Y-83859334D01*
X62789788Y-84008656D01*
X62913844Y-84132712D01*
X63063166Y-84224814D01*
X63229703Y-84279999D01*
X63332491Y-84290500D01*
X65432508Y-84290499D01*
X65535297Y-84279999D01*
X65701834Y-84224814D01*
X65851156Y-84132712D01*
X65975212Y-84008656D01*
X66067314Y-83859334D01*
X66122499Y-83692797D01*
X66133000Y-83590009D01*
X66132999Y-81527648D01*
X70199500Y-81527648D01*
X70199500Y-81732351D01*
X70231522Y-81934534D01*
X70294781Y-82129223D01*
X70387715Y-82311613D01*
X70508028Y-82477213D01*
X70652786Y-82621971D01*
X70776824Y-82712088D01*
X70818390Y-82742287D01*
X70883021Y-82775218D01*
X71000776Y-82835218D01*
X71000778Y-82835218D01*
X71000781Y-82835220D01*
X71105137Y-82869127D01*
X71195465Y-82898477D01*
X71296557Y-82914488D01*
X71397648Y-82930500D01*
X71397649Y-82930500D01*
X71602351Y-82930500D01*
X71602352Y-82930500D01*
X71804534Y-82898477D01*
X71999219Y-82835220D01*
X72181610Y-82742287D01*
X72274590Y-82674732D01*
X72347213Y-82621971D01*
X72347215Y-82621968D01*
X72347219Y-82621966D01*
X72491966Y-82477219D01*
X72491968Y-82477215D01*
X72491971Y-82477213D01*
X72553726Y-82392213D01*
X72612287Y-82311610D01*
X72705220Y-82129219D01*
X72768477Y-81934534D01*
X72800500Y-81732352D01*
X72800500Y-81527648D01*
X72790997Y-81467648D01*
X78774500Y-81467648D01*
X78774500Y-81672351D01*
X78806522Y-81874534D01*
X78869781Y-82069223D01*
X78912357Y-82152781D01*
X78949976Y-82226613D01*
X78962715Y-82251613D01*
X79083028Y-82417213D01*
X79227786Y-82561971D01*
X79368378Y-82664115D01*
X79393390Y-82682287D01*
X79509607Y-82741503D01*
X79575776Y-82775218D01*
X79575778Y-82775218D01*
X79575781Y-82775220D01*
X79680137Y-82809127D01*
X79770465Y-82838477D01*
X79871557Y-82854488D01*
X79972648Y-82870500D01*
X79972649Y-82870500D01*
X80177351Y-82870500D01*
X80177352Y-82870500D01*
X80379534Y-82838477D01*
X80574219Y-82775220D01*
X80756610Y-82682287D01*
X80849590Y-82614732D01*
X80922213Y-82561971D01*
X80922215Y-82561968D01*
X80922219Y-82561966D01*
X81066966Y-82417219D01*
X81066968Y-82417215D01*
X81066971Y-82417213D01*
X81138769Y-82318390D01*
X81187287Y-82251610D01*
X81280220Y-82069219D01*
X81343477Y-81874534D01*
X81375500Y-81672352D01*
X81375500Y-81467648D01*
X81343477Y-81265466D01*
X81280220Y-81070781D01*
X81280218Y-81070778D01*
X81280218Y-81070776D01*
X81243379Y-80998477D01*
X81187287Y-80888390D01*
X81163163Y-80855186D01*
X81066971Y-80722786D01*
X80922213Y-80578028D01*
X80756613Y-80457715D01*
X80756612Y-80457714D01*
X80756610Y-80457713D01*
X80699496Y-80428612D01*
X80574223Y-80364781D01*
X80379534Y-80301522D01*
X80204995Y-80273878D01*
X80177352Y-80269500D01*
X79972648Y-80269500D01*
X79948329Y-80273351D01*
X79770465Y-80301522D01*
X79575776Y-80364781D01*
X79393386Y-80457715D01*
X79227786Y-80578028D01*
X79083028Y-80722786D01*
X78962715Y-80888386D01*
X78869781Y-81070776D01*
X78806522Y-81265465D01*
X78774500Y-81467648D01*
X72790997Y-81467648D01*
X72768477Y-81325466D01*
X72705220Y-81130781D01*
X72705218Y-81130778D01*
X72705218Y-81130776D01*
X72654124Y-81030500D01*
X72612287Y-80948390D01*
X72568692Y-80888386D01*
X72491971Y-80782786D01*
X72347213Y-80638028D01*
X72181613Y-80517715D01*
X72181612Y-80517714D01*
X72181610Y-80517713D01*
X72124653Y-80488691D01*
X71999223Y-80424781D01*
X71804534Y-80361522D01*
X71629995Y-80333878D01*
X71602352Y-80329500D01*
X71397648Y-80329500D01*
X71373329Y-80333351D01*
X71195465Y-80361522D01*
X71000776Y-80424781D01*
X70818386Y-80517715D01*
X70652786Y-80638028D01*
X70508028Y-80782786D01*
X70387715Y-80948386D01*
X70294781Y-81130776D01*
X70231522Y-81325465D01*
X70199500Y-81527648D01*
X66132999Y-81527648D01*
X66132999Y-81489992D01*
X66132200Y-81482175D01*
X66122499Y-81387203D01*
X66122498Y-81387200D01*
X66082159Y-81265466D01*
X66067314Y-81220666D01*
X65975212Y-81071344D01*
X65851156Y-80947288D01*
X65715135Y-80863390D01*
X65701836Y-80855187D01*
X65701831Y-80855185D01*
X65662898Y-80842284D01*
X65535297Y-80800001D01*
X65535295Y-80800000D01*
X65432510Y-80789500D01*
X63332498Y-80789500D01*
X63332481Y-80789501D01*
X63229703Y-80800000D01*
X63229700Y-80800001D01*
X63063168Y-80855185D01*
X63063163Y-80855187D01*
X62913842Y-80947289D01*
X62789789Y-81071342D01*
X62697687Y-81220663D01*
X62697686Y-81220666D01*
X62642501Y-81387203D01*
X62642501Y-81387204D01*
X62642500Y-81387204D01*
X62632000Y-81489983D01*
X59500000Y-81489983D01*
X59500000Y-77207648D01*
X69389500Y-77207648D01*
X69389500Y-77412351D01*
X69421522Y-77614534D01*
X69484781Y-77809223D01*
X69577715Y-77991613D01*
X69698028Y-78157213D01*
X69842786Y-78301971D01*
X69940078Y-78372656D01*
X70008390Y-78422287D01*
X70124227Y-78481309D01*
X70190776Y-78515218D01*
X70190778Y-78515218D01*
X70190781Y-78515220D01*
X70295137Y-78549127D01*
X70385465Y-78578477D01*
X70486557Y-78594488D01*
X70587648Y-78610500D01*
X70587649Y-78610500D01*
X70792351Y-78610500D01*
X70792352Y-78610500D01*
X70994534Y-78578477D01*
X71189219Y-78515220D01*
X71371610Y-78422287D01*
X71464590Y-78354732D01*
X71537213Y-78301971D01*
X71537215Y-78301968D01*
X71537219Y-78301966D01*
X71681966Y-78157219D01*
X71681968Y-78157215D01*
X71681971Y-78157213D01*
X71802284Y-77991614D01*
X71802285Y-77991613D01*
X71802287Y-77991610D01*
X71849516Y-77898917D01*
X71897489Y-77848123D01*
X71965310Y-77831328D01*
X72031445Y-77853865D01*
X72070485Y-77898919D01*
X72117715Y-77991614D01*
X72238028Y-78157213D01*
X72382786Y-78301971D01*
X72480078Y-78372656D01*
X72548390Y-78422287D01*
X72664227Y-78481309D01*
X72730776Y-78515218D01*
X72730778Y-78515218D01*
X72730781Y-78515220D01*
X72835137Y-78549127D01*
X72925465Y-78578477D01*
X73026557Y-78594488D01*
X73127648Y-78610500D01*
X73127649Y-78610500D01*
X73332351Y-78610500D01*
X73332352Y-78610500D01*
X73534534Y-78578477D01*
X73729219Y-78515220D01*
X73911610Y-78422287D01*
X74004590Y-78354732D01*
X74077213Y-78301971D01*
X74077215Y-78301968D01*
X74077219Y-78301966D01*
X74221966Y-78157219D01*
X74221968Y-78157215D01*
X74221971Y-78157213D01*
X74342284Y-77991614D01*
X74342285Y-77991613D01*
X74342287Y-77991610D01*
X74389516Y-77898917D01*
X74437489Y-77848123D01*
X74505310Y-77831328D01*
X74571445Y-77853865D01*
X74610485Y-77898919D01*
X74657715Y-77991614D01*
X74778028Y-78157213D01*
X74922786Y-78301971D01*
X75088385Y-78422284D01*
X75088387Y-78422285D01*
X75088390Y-78422287D01*
X75163529Y-78460572D01*
X75176699Y-78473010D01*
X75192798Y-78481309D01*
X75213917Y-78508161D01*
X75214325Y-78508546D01*
X75214617Y-78509050D01*
X75223700Y-78524781D01*
X75224769Y-78526632D01*
X75267909Y-78601354D01*
X75289479Y-78638715D01*
X75408349Y-78757585D01*
X75408355Y-78757590D01*
X76385139Y-79734374D01*
X76385149Y-79734385D01*
X76389479Y-79738715D01*
X76389480Y-79738716D01*
X76501284Y-79850520D01*
X76588095Y-79900639D01*
X76588097Y-79900641D01*
X76626151Y-79922611D01*
X76638215Y-79929577D01*
X76790943Y-79970501D01*
X76790946Y-79970501D01*
X76956653Y-79970501D01*
X76956669Y-79970500D01*
X82514903Y-79970500D01*
X82581942Y-79990185D01*
X82602584Y-80006819D01*
X82837429Y-80241664D01*
X82870914Y-80302987D01*
X82865930Y-80372679D01*
X82824058Y-80428612D01*
X82822300Y-80429807D01*
X82822331Y-80429849D01*
X82652786Y-80553028D01*
X82508028Y-80697786D01*
X82387715Y-80863386D01*
X82294781Y-81045776D01*
X82231522Y-81240465D01*
X82199500Y-81442648D01*
X82199500Y-81647351D01*
X82231522Y-81849534D01*
X82294781Y-82044223D01*
X82387715Y-82226613D01*
X82508028Y-82392213D01*
X82508034Y-82392219D01*
X82652781Y-82536966D01*
X82818390Y-82657287D01*
X82831793Y-82664116D01*
X82882589Y-82712088D01*
X82899500Y-82774601D01*
X82899500Y-84608330D01*
X82899499Y-84608348D01*
X82899499Y-84774054D01*
X82899498Y-84774054D01*
X82940423Y-84926785D01*
X82969358Y-84976900D01*
X82969359Y-84976904D01*
X82969360Y-84976904D01*
X83019479Y-85063714D01*
X83019481Y-85063717D01*
X83138349Y-85182585D01*
X83138355Y-85182590D01*
X85913181Y-87957416D01*
X85946666Y-88018739D01*
X85949500Y-88045097D01*
X85949500Y-88102351D01*
X85981522Y-88304534D01*
X86044781Y-88499223D01*
X86103536Y-88614534D01*
X86129645Y-88665776D01*
X86137715Y-88681613D01*
X86258028Y-88847213D01*
X86402786Y-88991971D01*
X86534477Y-89087648D01*
X86568390Y-89112287D01*
X86656574Y-89157219D01*
X86750776Y-89205218D01*
X86750778Y-89205218D01*
X86750781Y-89205220D01*
X86855137Y-89239127D01*
X86945465Y-89268477D01*
X87046557Y-89284488D01*
X87147648Y-89300500D01*
X87147649Y-89300500D01*
X87352351Y-89300500D01*
X87352352Y-89300500D01*
X87554534Y-89268477D01*
X87749219Y-89205220D01*
X87931610Y-89112287D01*
X88049731Y-89026468D01*
X88097213Y-88991971D01*
X88097215Y-88991968D01*
X88097219Y-88991966D01*
X88241966Y-88847219D01*
X88241968Y-88847215D01*
X88241971Y-88847213D01*
X88351345Y-88696670D01*
X88362287Y-88681610D01*
X88455220Y-88499219D01*
X88518477Y-88304534D01*
X88550500Y-88102352D01*
X88550500Y-87897648D01*
X88518477Y-87695466D01*
X88505242Y-87654734D01*
X88455218Y-87500776D01*
X88416739Y-87425258D01*
X88362287Y-87318390D01*
X88354556Y-87307749D01*
X88241971Y-87152786D01*
X88097213Y-87008028D01*
X87931613Y-86887715D01*
X87931612Y-86887714D01*
X87931610Y-86887713D01*
X87868854Y-86855737D01*
X87749223Y-86794781D01*
X87554534Y-86731522D01*
X87379995Y-86703878D01*
X87352352Y-86699500D01*
X87147648Y-86699500D01*
X87123329Y-86703351D01*
X86945465Y-86731522D01*
X86750773Y-86794782D01*
X86631143Y-86855737D01*
X86562474Y-86868633D01*
X86497734Y-86842356D01*
X86487168Y-86832933D01*
X84136819Y-84482584D01*
X84123065Y-84457396D01*
X84111706Y-84444287D01*
X84110118Y-84436988D01*
X84105523Y-84429838D01*
X84104631Y-84423637D01*
X84103334Y-84421261D01*
X84100795Y-84397648D01*
X85949500Y-84397648D01*
X85949500Y-84602351D01*
X85981522Y-84804534D01*
X86044781Y-84999223D01*
X86077643Y-85063717D01*
X86134610Y-85175521D01*
X86137715Y-85181613D01*
X86258028Y-85347213D01*
X86402786Y-85491971D01*
X86557749Y-85604556D01*
X86568390Y-85612287D01*
X86684607Y-85671503D01*
X86750776Y-85705218D01*
X86750778Y-85705218D01*
X86750781Y-85705220D01*
X86855137Y-85739127D01*
X86945465Y-85768477D01*
X87046557Y-85784488D01*
X87147648Y-85800500D01*
X87147649Y-85800500D01*
X87352351Y-85800500D01*
X87352352Y-85800500D01*
X87554534Y-85768477D01*
X87749219Y-85705220D01*
X87931610Y-85612287D01*
X88024590Y-85544732D01*
X88097213Y-85491971D01*
X88097215Y-85491968D01*
X88097219Y-85491966D01*
X88241966Y-85347219D01*
X88241968Y-85347215D01*
X88241971Y-85347213D01*
X88294732Y-85274590D01*
X88362287Y-85181610D01*
X88455220Y-84999219D01*
X88518477Y-84804534D01*
X88550500Y-84602352D01*
X88550500Y-84397648D01*
X93569500Y-84397648D01*
X93569500Y-84602351D01*
X93601522Y-84804534D01*
X93664781Y-84999223D01*
X93697643Y-85063717D01*
X93754610Y-85175521D01*
X93757715Y-85181613D01*
X93878028Y-85347213D01*
X94022786Y-85491971D01*
X94177749Y-85604556D01*
X94188390Y-85612287D01*
X94304607Y-85671503D01*
X94370776Y-85705218D01*
X94370778Y-85705218D01*
X94370781Y-85705220D01*
X94475137Y-85739127D01*
X94565465Y-85768477D01*
X94666557Y-85784488D01*
X94767648Y-85800500D01*
X94767649Y-85800500D01*
X94972351Y-85800500D01*
X94972352Y-85800500D01*
X95174534Y-85768477D01*
X95369219Y-85705220D01*
X95551610Y-85612287D01*
X95644590Y-85544732D01*
X95717213Y-85491971D01*
X95717215Y-85491968D01*
X95717219Y-85491966D01*
X95861966Y-85347219D01*
X95861968Y-85347215D01*
X95861971Y-85347213D01*
X95914732Y-85274590D01*
X95982287Y-85181610D01*
X96075220Y-84999219D01*
X96138477Y-84804534D01*
X96170500Y-84602352D01*
X96170500Y-84397648D01*
X96138477Y-84195466D01*
X96075220Y-84000781D01*
X96075218Y-84000778D01*
X96075218Y-84000776D01*
X96041503Y-83934607D01*
X95982287Y-83818390D01*
X95974556Y-83807749D01*
X95861971Y-83652786D01*
X95717213Y-83508028D01*
X95551613Y-83387715D01*
X95551612Y-83387714D01*
X95551610Y-83387713D01*
X95494653Y-83358691D01*
X95369223Y-83294781D01*
X95174534Y-83231522D01*
X94999995Y-83203878D01*
X94972352Y-83199500D01*
X94767648Y-83199500D01*
X94743329Y-83203351D01*
X94565465Y-83231522D01*
X94370776Y-83294781D01*
X94188386Y-83387715D01*
X94022786Y-83508028D01*
X93878028Y-83652786D01*
X93757715Y-83818386D01*
X93664781Y-84000776D01*
X93601522Y-84195465D01*
X93569500Y-84397648D01*
X88550500Y-84397648D01*
X88518477Y-84195466D01*
X88455220Y-84000781D01*
X88455218Y-84000778D01*
X88455218Y-84000776D01*
X88421503Y-83934607D01*
X88362287Y-83818390D01*
X88354556Y-83807749D01*
X88241971Y-83652786D01*
X88097213Y-83508028D01*
X87931613Y-83387715D01*
X87931612Y-83387714D01*
X87931610Y-83387713D01*
X87874653Y-83358691D01*
X87749223Y-83294781D01*
X87554534Y-83231522D01*
X87379995Y-83203878D01*
X87352352Y-83199500D01*
X87147648Y-83199500D01*
X87123329Y-83203351D01*
X86945465Y-83231522D01*
X86750776Y-83294781D01*
X86568386Y-83387715D01*
X86402786Y-83508028D01*
X86258028Y-83652786D01*
X86137715Y-83818386D01*
X86044781Y-84000776D01*
X85981522Y-84195465D01*
X85949500Y-84397648D01*
X84100795Y-84397648D01*
X84100500Y-84394903D01*
X84100500Y-82774601D01*
X84120185Y-82707562D01*
X84168206Y-82664116D01*
X84181610Y-82657287D01*
X84347219Y-82536966D01*
X84491966Y-82392219D01*
X84491968Y-82392215D01*
X84491971Y-82392213D01*
X84594121Y-82251613D01*
X84612287Y-82226610D01*
X84705220Y-82044219D01*
X84768477Y-81849534D01*
X84800500Y-81647352D01*
X84800500Y-81442648D01*
X84768477Y-81240466D01*
X84705220Y-81045781D01*
X84705218Y-81045778D01*
X84705218Y-81045776D01*
X84671503Y-80979607D01*
X84612287Y-80863390D01*
X84558604Y-80789501D01*
X84491971Y-80697786D01*
X84347213Y-80553028D01*
X84181613Y-80432714D01*
X84158203Y-80420786D01*
X84107408Y-80372810D01*
X84090500Y-80310302D01*
X84090500Y-79965945D01*
X84090500Y-79965943D01*
X84059572Y-79850519D01*
X84049577Y-79813215D01*
X84006565Y-79738716D01*
X83970520Y-79676284D01*
X83921884Y-79627648D01*
X92699500Y-79627648D01*
X92699500Y-79832351D01*
X92731522Y-80034534D01*
X92794781Y-80229223D01*
X92836094Y-80310302D01*
X92867943Y-80372810D01*
X92887715Y-80411613D01*
X93008028Y-80577213D01*
X93152786Y-80721971D01*
X93307749Y-80834556D01*
X93318390Y-80842287D01*
X93434607Y-80901503D01*
X93500776Y-80935218D01*
X93500778Y-80935218D01*
X93500781Y-80935220D01*
X93605137Y-80969127D01*
X93695465Y-80998477D01*
X93796557Y-81014488D01*
X93897648Y-81030500D01*
X93897649Y-81030500D01*
X94102351Y-81030500D01*
X94102352Y-81030500D01*
X94304534Y-80998477D01*
X94499219Y-80935220D01*
X94681610Y-80842287D01*
X94774590Y-80774732D01*
X94847213Y-80721971D01*
X94847215Y-80721968D01*
X94847219Y-80721966D01*
X94991966Y-80577219D01*
X94991968Y-80577215D01*
X94991971Y-80577213D01*
X95096954Y-80432714D01*
X95112287Y-80411610D01*
X95205220Y-80229219D01*
X95268477Y-80034534D01*
X95300500Y-79832352D01*
X95300500Y-79627648D01*
X96199500Y-79627648D01*
X96199500Y-79832351D01*
X96231522Y-80034534D01*
X96294781Y-80229223D01*
X96336094Y-80310302D01*
X96367943Y-80372810D01*
X96387715Y-80411613D01*
X96508028Y-80577213D01*
X96652786Y-80721971D01*
X96807749Y-80834556D01*
X96818390Y-80842287D01*
X96934607Y-80901503D01*
X97000776Y-80935218D01*
X97000778Y-80935218D01*
X97000781Y-80935220D01*
X97105137Y-80969127D01*
X97195465Y-80998477D01*
X97296557Y-81014488D01*
X97397648Y-81030500D01*
X97397649Y-81030500D01*
X97602351Y-81030500D01*
X97602352Y-81030500D01*
X97804534Y-80998477D01*
X97999219Y-80935220D01*
X98181610Y-80842287D01*
X98274590Y-80774732D01*
X98347213Y-80721971D01*
X98347215Y-80721968D01*
X98347219Y-80721966D01*
X98491966Y-80577219D01*
X98491968Y-80577215D01*
X98491971Y-80577213D01*
X98596954Y-80432714D01*
X98612287Y-80411610D01*
X98705220Y-80229219D01*
X98768477Y-80034534D01*
X98800500Y-79832352D01*
X98800500Y-79627648D01*
X98789809Y-79560149D01*
X98768477Y-79425465D01*
X98705218Y-79230776D01*
X98671503Y-79164607D01*
X98612287Y-79048390D01*
X98583198Y-79008352D01*
X98491971Y-78882786D01*
X98347213Y-78738028D01*
X98181613Y-78617715D01*
X98181612Y-78617714D01*
X98181610Y-78617713D01*
X98104605Y-78578477D01*
X97999223Y-78524781D01*
X97804534Y-78461522D01*
X97629995Y-78433878D01*
X97602352Y-78429500D01*
X97397648Y-78429500D01*
X97373329Y-78433351D01*
X97195465Y-78461522D01*
X97000776Y-78524781D01*
X96818386Y-78617715D01*
X96652786Y-78738028D01*
X96508028Y-78882786D01*
X96387715Y-79048386D01*
X96294781Y-79230776D01*
X96231522Y-79425465D01*
X96199500Y-79627648D01*
X95300500Y-79627648D01*
X95289809Y-79560149D01*
X95268477Y-79425465D01*
X95205218Y-79230776D01*
X95171503Y-79164607D01*
X95112287Y-79048390D01*
X95083198Y-79008352D01*
X94991971Y-78882786D01*
X94847213Y-78738028D01*
X94681613Y-78617715D01*
X94681612Y-78617714D01*
X94681610Y-78617713D01*
X94604605Y-78578477D01*
X94499223Y-78524781D01*
X94304534Y-78461522D01*
X94129995Y-78433878D01*
X94102352Y-78429500D01*
X93897648Y-78429500D01*
X93873329Y-78433351D01*
X93695465Y-78461522D01*
X93500776Y-78524781D01*
X93318386Y-78617715D01*
X93152786Y-78738028D01*
X93008028Y-78882786D01*
X92887715Y-79048386D01*
X92794781Y-79230776D01*
X92731522Y-79425465D01*
X92699500Y-79627648D01*
X83921884Y-79627648D01*
X83858716Y-79564480D01*
X83858715Y-79564479D01*
X83854385Y-79560149D01*
X83854374Y-79560139D01*
X83302590Y-79008355D01*
X83302588Y-79008352D01*
X83183717Y-78889481D01*
X83183709Y-78889475D01*
X83079828Y-78829500D01*
X83079825Y-78829499D01*
X83046787Y-78810424D01*
X83046786Y-78810423D01*
X83046785Y-78810423D01*
X82894057Y-78769499D01*
X82735943Y-78769499D01*
X82728347Y-78769499D01*
X82728331Y-78769500D01*
X78809530Y-78769500D01*
X78742491Y-78749815D01*
X78696736Y-78697011D01*
X78686792Y-78627853D01*
X78715817Y-78564297D01*
X78771211Y-78527569D01*
X78809219Y-78515220D01*
X78991610Y-78422287D01*
X79084590Y-78354732D01*
X79157213Y-78301971D01*
X79157215Y-78301968D01*
X79157219Y-78301966D01*
X79301966Y-78157219D01*
X79301968Y-78157215D01*
X79301971Y-78157213D01*
X79354732Y-78084590D01*
X79422287Y-77991610D01*
X79515220Y-77809219D01*
X79578477Y-77614534D01*
X79610500Y-77412352D01*
X79610500Y-77207648D01*
X79578477Y-77005466D01*
X79515220Y-76810781D01*
X79515218Y-76810778D01*
X79515218Y-76810776D01*
X79441138Y-76665388D01*
X79422287Y-76628390D01*
X79414556Y-76617749D01*
X79301971Y-76462786D01*
X79157213Y-76318028D01*
X78991613Y-76197715D01*
X78991612Y-76197714D01*
X78991610Y-76197713D01*
X78934653Y-76168691D01*
X78809223Y-76104781D01*
X78614534Y-76041522D01*
X78439995Y-76013878D01*
X78412352Y-76009500D01*
X78207648Y-76009500D01*
X78183329Y-76013351D01*
X78005465Y-76041522D01*
X77810776Y-76104781D01*
X77628386Y-76197715D01*
X77462786Y-76318028D01*
X77318028Y-76462786D01*
X77197715Y-76628386D01*
X77150485Y-76721080D01*
X77102510Y-76771876D01*
X77034689Y-76788671D01*
X76968554Y-76766134D01*
X76929515Y-76721080D01*
X76901138Y-76665388D01*
X76882287Y-76628390D01*
X76874556Y-76617749D01*
X76761971Y-76462786D01*
X76617213Y-76318028D01*
X76451613Y-76197715D01*
X76451612Y-76197714D01*
X76451610Y-76197713D01*
X76394653Y-76168691D01*
X76269223Y-76104781D01*
X76074534Y-76041522D01*
X75899995Y-76013878D01*
X75872352Y-76009500D01*
X75667648Y-76009500D01*
X75643329Y-76013351D01*
X75465465Y-76041522D01*
X75270776Y-76104781D01*
X75088386Y-76197715D01*
X74922786Y-76318028D01*
X74778028Y-76462786D01*
X74657715Y-76628386D01*
X74610485Y-76721080D01*
X74562510Y-76771876D01*
X74494689Y-76788671D01*
X74428554Y-76766134D01*
X74389515Y-76721080D01*
X74361138Y-76665388D01*
X74342287Y-76628390D01*
X74334556Y-76617749D01*
X74221971Y-76462786D01*
X74077213Y-76318028D01*
X73911610Y-76197712D01*
X73898200Y-76190879D01*
X73847406Y-76142903D01*
X73830500Y-76080397D01*
X73830500Y-75685097D01*
X73850185Y-75618058D01*
X73866819Y-75597416D01*
X75212416Y-74251819D01*
X75273739Y-74218334D01*
X75300097Y-74215500D01*
X82013331Y-74215500D01*
X82013347Y-74215501D01*
X82020943Y-74215501D01*
X82179054Y-74215501D01*
X82179057Y-74215501D01*
X82331785Y-74174577D01*
X82381904Y-74145639D01*
X82468716Y-74095520D01*
X82580520Y-73983716D01*
X82580520Y-73983714D01*
X82590728Y-73973507D01*
X82590730Y-73973504D01*
X84556586Y-72007648D01*
X85699500Y-72007648D01*
X85699500Y-72212351D01*
X85731522Y-72414534D01*
X85794781Y-72609223D01*
X85887715Y-72791613D01*
X86008028Y-72957213D01*
X86152786Y-73101971D01*
X86307749Y-73214556D01*
X86318390Y-73222287D01*
X86434607Y-73281503D01*
X86500776Y-73315218D01*
X86500778Y-73315218D01*
X86500781Y-73315220D01*
X86605137Y-73349127D01*
X86695465Y-73378477D01*
X86796557Y-73394488D01*
X86897648Y-73410500D01*
X86897649Y-73410500D01*
X87102351Y-73410500D01*
X87102352Y-73410500D01*
X87304534Y-73378477D01*
X87499219Y-73315220D01*
X87681610Y-73222287D01*
X87802467Y-73134480D01*
X87847213Y-73101971D01*
X87847215Y-73101968D01*
X87847219Y-73101966D01*
X87991966Y-72957219D01*
X87991968Y-72957215D01*
X87991971Y-72957213D01*
X88112284Y-72791614D01*
X88112285Y-72791613D01*
X88112287Y-72791610D01*
X88119117Y-72778204D01*
X88167091Y-72727409D01*
X88229602Y-72710500D01*
X89270398Y-72710500D01*
X89337437Y-72730185D01*
X89380883Y-72778205D01*
X89387715Y-72791614D01*
X89508028Y-72957213D01*
X89652786Y-73101971D01*
X89807749Y-73214556D01*
X89818390Y-73222287D01*
X89934607Y-73281503D01*
X90000776Y-73315218D01*
X90000778Y-73315218D01*
X90000781Y-73315220D01*
X90105137Y-73349127D01*
X90195465Y-73378477D01*
X90296557Y-73394488D01*
X90397648Y-73410500D01*
X90397649Y-73410500D01*
X90602351Y-73410500D01*
X90602352Y-73410500D01*
X90804534Y-73378477D01*
X90999219Y-73315220D01*
X91181610Y-73222287D01*
X91302467Y-73134480D01*
X91347213Y-73101971D01*
X91347215Y-73101968D01*
X91347219Y-73101966D01*
X91491966Y-72957219D01*
X91491968Y-72957215D01*
X91491971Y-72957213D01*
X91612284Y-72791614D01*
X91612285Y-72791613D01*
X91612287Y-72791610D01*
X91619117Y-72778204D01*
X91667091Y-72727409D01*
X91729602Y-72710500D01*
X92770398Y-72710500D01*
X92837437Y-72730185D01*
X92880883Y-72778205D01*
X92887715Y-72791614D01*
X93008028Y-72957213D01*
X93152786Y-73101971D01*
X93307749Y-73214556D01*
X93318390Y-73222287D01*
X93434607Y-73281503D01*
X93500776Y-73315218D01*
X93500778Y-73315218D01*
X93500781Y-73315220D01*
X93605137Y-73349127D01*
X93695465Y-73378477D01*
X93796557Y-73394488D01*
X93897648Y-73410500D01*
X93897649Y-73410500D01*
X94102351Y-73410500D01*
X94102352Y-73410500D01*
X94304534Y-73378477D01*
X94499219Y-73315220D01*
X94681610Y-73222287D01*
X94802467Y-73134480D01*
X94847213Y-73101971D01*
X94847215Y-73101968D01*
X94847219Y-73101966D01*
X94991966Y-72957219D01*
X94991968Y-72957215D01*
X94991971Y-72957213D01*
X95044732Y-72884590D01*
X95112287Y-72791610D01*
X95205220Y-72609219D01*
X95268477Y-72414534D01*
X95300500Y-72212352D01*
X95300500Y-72007648D01*
X95268477Y-71805466D01*
X95205220Y-71610781D01*
X95205218Y-71610778D01*
X95205218Y-71610776D01*
X95158870Y-71519815D01*
X95112287Y-71428390D01*
X95054402Y-71348717D01*
X94991971Y-71262786D01*
X94847213Y-71118028D01*
X94681613Y-70997715D01*
X94681612Y-70997714D01*
X94681610Y-70997713D01*
X94604605Y-70958477D01*
X94499223Y-70904781D01*
X94304534Y-70841522D01*
X94129995Y-70813878D01*
X94102352Y-70809500D01*
X93897648Y-70809500D01*
X93873329Y-70813351D01*
X93695465Y-70841522D01*
X93500776Y-70904781D01*
X93318386Y-70997715D01*
X93152786Y-71118028D01*
X93008028Y-71262786D01*
X92887715Y-71428385D01*
X92880883Y-71441795D01*
X92832909Y-71492591D01*
X92770398Y-71509500D01*
X91729602Y-71509500D01*
X91662563Y-71489815D01*
X91619117Y-71441795D01*
X91612287Y-71428390D01*
X91612285Y-71428387D01*
X91612284Y-71428385D01*
X91491971Y-71262786D01*
X91347213Y-71118028D01*
X91181613Y-70997715D01*
X91181612Y-70997714D01*
X91181610Y-70997713D01*
X91104605Y-70958477D01*
X90999223Y-70904781D01*
X90804534Y-70841522D01*
X90629995Y-70813878D01*
X90602352Y-70809500D01*
X90397648Y-70809500D01*
X90311944Y-70823074D01*
X90294507Y-70825836D01*
X90225213Y-70816880D01*
X90171762Y-70771883D01*
X90151123Y-70705132D01*
X90169848Y-70637818D01*
X90218814Y-70592878D01*
X90396610Y-70502287D01*
X90499537Y-70427507D01*
X90562213Y-70381971D01*
X90562215Y-70381968D01*
X90562219Y-70381966D01*
X90706966Y-70237219D01*
X90706968Y-70237215D01*
X90706971Y-70237213D01*
X90759732Y-70164590D01*
X90827287Y-70071610D01*
X90920220Y-69889219D01*
X90983477Y-69694534D01*
X91015500Y-69492352D01*
X91015500Y-69287648D01*
X90996656Y-69168671D01*
X90983477Y-69085465D01*
X90935059Y-68936451D01*
X90920220Y-68890781D01*
X90920218Y-68890778D01*
X90920218Y-68890776D01*
X90884493Y-68820663D01*
X90827287Y-68708390D01*
X90800372Y-68671344D01*
X90706971Y-68542786D01*
X90562213Y-68398028D01*
X90396613Y-68277715D01*
X90396612Y-68277714D01*
X90396610Y-68277713D01*
X90339653Y-68248691D01*
X90214223Y-68184781D01*
X90019534Y-68121522D01*
X89871402Y-68098060D01*
X89871394Y-68098059D01*
X89817352Y-68089500D01*
X89612648Y-68089500D01*
X89588329Y-68093351D01*
X89410465Y-68121522D01*
X89215776Y-68184781D01*
X89033386Y-68277715D01*
X88867786Y-68398028D01*
X88723028Y-68542786D01*
X88602715Y-68708386D01*
X88509781Y-68890776D01*
X88446522Y-69085465D01*
X88414500Y-69287648D01*
X88414500Y-69492351D01*
X88446522Y-69694534D01*
X88509781Y-69889223D01*
X88602715Y-70071613D01*
X88723028Y-70237213D01*
X88867786Y-70381971D01*
X88952543Y-70443549D01*
X89033390Y-70502287D01*
X89145345Y-70559331D01*
X89215776Y-70595218D01*
X89215778Y-70595218D01*
X89215781Y-70595220D01*
X89320137Y-70629127D01*
X89410465Y-70658477D01*
X89509508Y-70674164D01*
X89612648Y-70690500D01*
X89612649Y-70690500D01*
X89817351Y-70690500D01*
X89817352Y-70690500D01*
X89920491Y-70674164D01*
X89989784Y-70683118D01*
X90043236Y-70728115D01*
X90063876Y-70794866D01*
X90045151Y-70862180D01*
X89996184Y-70907122D01*
X89818386Y-70997715D01*
X89652786Y-71118028D01*
X89508028Y-71262786D01*
X89387715Y-71428385D01*
X89380883Y-71441795D01*
X89332909Y-71492591D01*
X89270398Y-71509500D01*
X88229602Y-71509500D01*
X88162563Y-71489815D01*
X88119117Y-71441795D01*
X88112287Y-71428390D01*
X88112285Y-71428387D01*
X88112284Y-71428385D01*
X87991971Y-71262786D01*
X87847213Y-71118028D01*
X87681613Y-70997715D01*
X87681612Y-70997714D01*
X87681610Y-70997713D01*
X87604605Y-70958477D01*
X87499223Y-70904781D01*
X87304534Y-70841522D01*
X87129995Y-70813878D01*
X87102352Y-70809500D01*
X86897648Y-70809500D01*
X86873329Y-70813351D01*
X86695465Y-70841522D01*
X86500776Y-70904781D01*
X86318386Y-70997715D01*
X86152786Y-71118028D01*
X86008028Y-71262786D01*
X85887715Y-71428386D01*
X85794781Y-71610776D01*
X85731522Y-71805465D01*
X85699500Y-72007648D01*
X84556586Y-72007648D01*
X86721006Y-69843228D01*
X86721011Y-69843224D01*
X86731214Y-69833020D01*
X86731216Y-69833020D01*
X86843020Y-69721216D01*
X86920135Y-69587648D01*
X86922077Y-69584285D01*
X86963000Y-69431558D01*
X86963000Y-69273443D01*
X86963000Y-67779601D01*
X86982685Y-67712562D01*
X87030706Y-67669116D01*
X87044110Y-67662287D01*
X87209719Y-67541966D01*
X87354466Y-67397219D01*
X87354468Y-67397215D01*
X87354471Y-67397213D01*
X87441603Y-67277284D01*
X87474787Y-67231610D01*
X87567720Y-67049219D01*
X87630977Y-66854534D01*
X87663000Y-66652352D01*
X87663000Y-66447648D01*
X88552625Y-66447648D01*
X88552625Y-66652351D01*
X88584647Y-66854534D01*
X88647906Y-67049223D01*
X88702805Y-67156966D01*
X88718639Y-67188043D01*
X88740840Y-67231613D01*
X88861153Y-67397213D01*
X89005911Y-67541971D01*
X89160874Y-67654556D01*
X89171515Y-67662287D01*
X89252624Y-67703614D01*
X89353901Y-67755218D01*
X89353903Y-67755218D01*
X89353906Y-67755220D01*
X89428943Y-67779601D01*
X89548590Y-67818477D01*
X89676962Y-67838809D01*
X89750773Y-67850500D01*
X89886717Y-67850500D01*
X89955476Y-67850500D01*
X89955477Y-67850500D01*
X90157659Y-67818477D01*
X90352344Y-67755220D01*
X90534735Y-67662287D01*
X90627715Y-67594732D01*
X90700338Y-67541971D01*
X90700340Y-67541968D01*
X90700344Y-67541966D01*
X90845091Y-67397219D01*
X90845093Y-67397215D01*
X90845096Y-67397213D01*
X90932228Y-67277284D01*
X90965412Y-67231610D01*
X91058345Y-67049219D01*
X91121602Y-66854534D01*
X91153625Y-66652352D01*
X91153625Y-66447648D01*
X92043250Y-66447648D01*
X92043250Y-66652351D01*
X92075272Y-66854534D01*
X92138531Y-67049223D01*
X92193430Y-67156966D01*
X92209264Y-67188043D01*
X92231465Y-67231613D01*
X92351778Y-67397213D01*
X92496536Y-67541971D01*
X92651499Y-67654556D01*
X92662140Y-67662287D01*
X92743249Y-67703614D01*
X92844526Y-67755218D01*
X92844528Y-67755218D01*
X92844531Y-67755220D01*
X92919568Y-67779601D01*
X93039215Y-67818477D01*
X93140307Y-67834488D01*
X93241398Y-67850500D01*
X93241399Y-67850500D01*
X93446101Y-67850500D01*
X93446102Y-67850500D01*
X93648284Y-67818477D01*
X93842969Y-67755220D01*
X94025360Y-67662287D01*
X94118340Y-67594732D01*
X94190963Y-67541971D01*
X94190965Y-67541968D01*
X94190969Y-67541966D01*
X94335716Y-67397219D01*
X94335718Y-67397215D01*
X94335721Y-67397213D01*
X94422853Y-67277284D01*
X94456037Y-67231610D01*
X94548970Y-67049219D01*
X94612227Y-66854534D01*
X94644250Y-66652352D01*
X94644250Y-66447648D01*
X94617174Y-66276697D01*
X94612227Y-66245465D01*
X94582877Y-66155137D01*
X94548970Y-66050781D01*
X94548968Y-66050778D01*
X94548968Y-66050776D01*
X94515253Y-65984607D01*
X94456037Y-65868390D01*
X94448306Y-65857749D01*
X94335721Y-65702786D01*
X94190963Y-65558028D01*
X94025363Y-65437715D01*
X94025362Y-65437714D01*
X94025360Y-65437713D01*
X93968403Y-65408691D01*
X93842973Y-65344781D01*
X93648284Y-65281522D01*
X93473745Y-65253878D01*
X93446102Y-65249500D01*
X93241398Y-65249500D01*
X93217079Y-65253351D01*
X93039215Y-65281522D01*
X92844526Y-65344781D01*
X92662136Y-65437715D01*
X92496536Y-65558028D01*
X92351778Y-65702786D01*
X92231465Y-65868386D01*
X92138531Y-66050776D01*
X92075272Y-66245465D01*
X92043250Y-66447648D01*
X91153625Y-66447648D01*
X91126549Y-66276697D01*
X91121602Y-66245465D01*
X91092252Y-66155137D01*
X91058345Y-66050781D01*
X91058343Y-66050778D01*
X91058343Y-66050776D01*
X91024628Y-65984607D01*
X90965412Y-65868390D01*
X90957681Y-65857749D01*
X90845096Y-65702786D01*
X90700338Y-65558028D01*
X90534738Y-65437715D01*
X90534737Y-65437714D01*
X90534735Y-65437713D01*
X90477778Y-65408691D01*
X90352348Y-65344781D01*
X90157659Y-65281522D01*
X89983120Y-65253878D01*
X89955477Y-65249500D01*
X89750773Y-65249500D01*
X89726454Y-65253351D01*
X89548590Y-65281522D01*
X89353901Y-65344781D01*
X89171511Y-65437715D01*
X89005911Y-65558028D01*
X88861153Y-65702786D01*
X88740840Y-65868386D01*
X88647906Y-66050776D01*
X88584647Y-66245465D01*
X88552625Y-66447648D01*
X87663000Y-66447648D01*
X87635924Y-66276697D01*
X87630977Y-66245465D01*
X87601627Y-66155137D01*
X87567720Y-66050781D01*
X87567718Y-66050778D01*
X87567718Y-66050776D01*
X87534003Y-65984607D01*
X87474787Y-65868390D01*
X87467056Y-65857749D01*
X87354471Y-65702786D01*
X87209713Y-65558028D01*
X87044113Y-65437715D01*
X87044112Y-65437714D01*
X87044110Y-65437713D01*
X86987153Y-65408691D01*
X86861723Y-65344781D01*
X86667034Y-65281522D01*
X86492495Y-65253878D01*
X86464852Y-65249500D01*
X86260148Y-65249500D01*
X86235829Y-65253351D01*
X86057965Y-65281522D01*
X85863276Y-65344781D01*
X85680886Y-65437715D01*
X85515286Y-65558028D01*
X85370528Y-65702786D01*
X85250215Y-65868386D01*
X85157281Y-66050776D01*
X85094022Y-66245465D01*
X85062000Y-66447648D01*
X85062000Y-66652351D01*
X85094022Y-66854534D01*
X85157281Y-67049223D01*
X85212180Y-67156966D01*
X85228014Y-67188043D01*
X85250215Y-67231613D01*
X85370528Y-67397213D01*
X85370534Y-67397219D01*
X85515281Y-67541966D01*
X85680890Y-67662287D01*
X85694293Y-67669116D01*
X85745089Y-67717088D01*
X85762000Y-67779601D01*
X85762000Y-69052403D01*
X85742315Y-69119442D01*
X85725681Y-69140084D01*
X81887584Y-72978181D01*
X81826261Y-73011666D01*
X81799903Y-73014500D01*
X75079061Y-73014500D01*
X75079057Y-73014499D01*
X74920943Y-73014499D01*
X74895083Y-73021428D01*
X74881015Y-73021931D01*
X74860249Y-73016631D01*
X74838824Y-73016121D01*
X74827068Y-73008163D01*
X74813315Y-73004654D01*
X74798711Y-72988969D01*
X74780963Y-72976956D01*
X74775375Y-72963906D01*
X74765703Y-72953518D01*
X74761897Y-72932429D01*
X74753461Y-72912727D01*
X74755815Y-72898727D01*
X74753295Y-72884759D01*
X74761495Y-72864960D01*
X74765050Y-72843825D01*
X74777475Y-72826376D01*
X74780031Y-72820207D01*
X74783667Y-72817681D01*
X74788901Y-72810332D01*
X76128506Y-71470728D01*
X76128511Y-71470724D01*
X76138714Y-71460520D01*
X76138716Y-71460520D01*
X76250520Y-71348716D01*
X76310916Y-71244106D01*
X76329577Y-71211785D01*
X76370501Y-71059057D01*
X76370501Y-70919600D01*
X76390186Y-70852561D01*
X76438208Y-70809115D01*
X76451610Y-70802287D01*
X76617219Y-70681966D01*
X76761966Y-70537219D01*
X76830021Y-70443547D01*
X76885349Y-70400882D01*
X76954963Y-70394902D01*
X77016758Y-70427507D01*
X77048044Y-70477427D01*
X77067856Y-70537215D01*
X77075186Y-70559333D01*
X77075187Y-70559336D01*
X77103514Y-70605261D01*
X77167288Y-70708656D01*
X77291344Y-70832712D01*
X77440666Y-70924814D01*
X77607203Y-70979999D01*
X77709991Y-70990500D01*
X78910008Y-70990499D01*
X79012797Y-70979999D01*
X79179334Y-70924814D01*
X79328656Y-70832712D01*
X79452712Y-70708656D01*
X79544814Y-70559334D01*
X79599999Y-70392797D01*
X79610500Y-70290009D01*
X79610499Y-69089992D01*
X79599999Y-68987203D01*
X79544814Y-68820666D01*
X79452712Y-68671344D01*
X79328656Y-68547288D01*
X79179334Y-68455186D01*
X79012797Y-68400001D01*
X79012795Y-68400000D01*
X78910010Y-68389500D01*
X77709998Y-68389500D01*
X77709981Y-68389501D01*
X77607203Y-68400000D01*
X77607200Y-68400001D01*
X77440668Y-68455185D01*
X77440663Y-68455187D01*
X77291342Y-68547289D01*
X77167289Y-68671342D01*
X77075187Y-68820663D01*
X77075186Y-68820666D01*
X77048045Y-68902571D01*
X77008271Y-68960016D01*
X76943755Y-68986838D01*
X76874979Y-68974522D01*
X76830021Y-68936452D01*
X76761966Y-68842781D01*
X76617219Y-68698034D01*
X76617213Y-68698028D01*
X76451613Y-68577715D01*
X76451612Y-68577714D01*
X76451610Y-68577713D01*
X76383052Y-68542781D01*
X76269223Y-68484781D01*
X76074534Y-68421522D01*
X75899995Y-68393878D01*
X75872352Y-68389500D01*
X75667648Y-68389500D01*
X75643329Y-68393351D01*
X75465465Y-68421522D01*
X75270776Y-68484781D01*
X75088386Y-68577715D01*
X74922786Y-68698028D01*
X74778028Y-68842786D01*
X74657715Y-69008386D01*
X74610485Y-69101080D01*
X74562510Y-69151876D01*
X74494689Y-69168671D01*
X74428554Y-69146134D01*
X74389515Y-69101080D01*
X74388883Y-69099840D01*
X74342287Y-69008390D01*
X74265406Y-68902571D01*
X74221971Y-68842786D01*
X74077213Y-68698028D01*
X73911613Y-68577715D01*
X73911612Y-68577714D01*
X73911610Y-68577713D01*
X73843052Y-68542781D01*
X73729223Y-68484781D01*
X73534534Y-68421522D01*
X73359995Y-68393878D01*
X73332352Y-68389500D01*
X73127648Y-68389500D01*
X73103329Y-68393351D01*
X72925465Y-68421522D01*
X72730776Y-68484781D01*
X72548386Y-68577715D01*
X72382786Y-68698028D01*
X72238028Y-68842786D01*
X72117715Y-69008386D01*
X72024781Y-69190776D01*
X71961522Y-69385465D01*
X71929500Y-69587647D01*
X71929500Y-69792351D01*
X71961522Y-69994534D01*
X72024781Y-70189223D01*
X72117715Y-70371613D01*
X72238028Y-70537213D01*
X72382786Y-70681971D01*
X72493864Y-70762672D01*
X72548390Y-70802287D01*
X72647058Y-70852561D01*
X72730776Y-70895218D01*
X72730778Y-70895218D01*
X72730781Y-70895220D01*
X72805815Y-70919600D01*
X72925465Y-70958477D01*
X73026557Y-70974488D01*
X73127648Y-70990500D01*
X73127649Y-70990500D01*
X73332351Y-70990500D01*
X73332352Y-70990500D01*
X73534534Y-70958477D01*
X73729219Y-70895220D01*
X73911610Y-70802287D01*
X74040482Y-70708657D01*
X74077213Y-70681971D01*
X74077215Y-70681968D01*
X74077219Y-70681966D01*
X74221966Y-70537219D01*
X74221968Y-70537215D01*
X74221971Y-70537213D01*
X74342284Y-70371614D01*
X74342285Y-70371613D01*
X74342287Y-70371610D01*
X74389516Y-70278917D01*
X74437489Y-70228123D01*
X74505310Y-70211328D01*
X74571445Y-70233865D01*
X74610483Y-70278917D01*
X74616139Y-70290016D01*
X74657715Y-70371614D01*
X74778028Y-70537213D01*
X74922784Y-70681969D01*
X74976773Y-70721193D01*
X75019440Y-70776522D01*
X75025420Y-70846136D01*
X74992815Y-70907931D01*
X74991570Y-70909193D01*
X70321286Y-75579478D01*
X70209481Y-75691282D01*
X70209480Y-75691284D01*
X70173435Y-75753716D01*
X70130423Y-75828215D01*
X70089499Y-75980943D01*
X70089499Y-75980945D01*
X70089499Y-76080398D01*
X70069814Y-76147437D01*
X70021796Y-76190882D01*
X70008386Y-76197714D01*
X69842786Y-76318028D01*
X69698028Y-76462786D01*
X69577715Y-76628386D01*
X69484781Y-76810776D01*
X69421522Y-77005465D01*
X69389500Y-77207648D01*
X59500000Y-77207648D01*
X59500000Y-66062648D01*
X70814500Y-66062648D01*
X70814500Y-66267351D01*
X70846522Y-66469534D01*
X70909781Y-66664223D01*
X71002715Y-66846613D01*
X71123028Y-67012213D01*
X71267786Y-67156971D01*
X71422749Y-67269556D01*
X71433390Y-67277287D01*
X71549607Y-67336503D01*
X71615776Y-67370218D01*
X71615778Y-67370218D01*
X71615781Y-67370220D01*
X71720137Y-67404127D01*
X71810465Y-67433477D01*
X71911557Y-67449488D01*
X72012648Y-67465500D01*
X72012649Y-67465500D01*
X72217351Y-67465500D01*
X72217352Y-67465500D01*
X72419534Y-67433477D01*
X72614219Y-67370220D01*
X72796610Y-67277287D01*
X72919445Y-67188043D01*
X72962213Y-67156971D01*
X72962215Y-67156968D01*
X72962219Y-67156966D01*
X73106966Y-67012219D01*
X73106968Y-67012215D01*
X73106971Y-67012213D01*
X73190472Y-66897282D01*
X73227287Y-66846610D01*
X73320220Y-66664219D01*
X73383477Y-66469534D01*
X73415500Y-66267352D01*
X73415500Y-66062648D01*
X78434500Y-66062648D01*
X78434500Y-66267351D01*
X78466522Y-66469534D01*
X78529781Y-66664223D01*
X78622715Y-66846613D01*
X78743028Y-67012213D01*
X78887786Y-67156971D01*
X79042749Y-67269556D01*
X79053390Y-67277287D01*
X79169607Y-67336503D01*
X79235776Y-67370218D01*
X79235778Y-67370218D01*
X79235781Y-67370220D01*
X79340137Y-67404127D01*
X79430465Y-67433477D01*
X79531557Y-67449488D01*
X79632648Y-67465500D01*
X79632649Y-67465500D01*
X79837351Y-67465500D01*
X79837352Y-67465500D01*
X80039534Y-67433477D01*
X80234219Y-67370220D01*
X80416610Y-67277287D01*
X80539445Y-67188043D01*
X80582213Y-67156971D01*
X80582215Y-67156968D01*
X80582219Y-67156966D01*
X80726966Y-67012219D01*
X80726968Y-67012215D01*
X80726971Y-67012213D01*
X80810472Y-66897282D01*
X80847287Y-66846610D01*
X80940220Y-66664219D01*
X81003477Y-66469534D01*
X81035500Y-66267352D01*
X81035500Y-66062648D01*
X81004732Y-65868390D01*
X81003477Y-65860465D01*
X80974127Y-65770137D01*
X80940220Y-65665781D01*
X80940218Y-65665778D01*
X80940218Y-65665776D01*
X80866511Y-65521120D01*
X80847287Y-65483390D01*
X80839556Y-65472749D01*
X80726971Y-65317786D01*
X80582213Y-65173028D01*
X80416613Y-65052715D01*
X80416612Y-65052714D01*
X80416610Y-65052713D01*
X80359653Y-65023691D01*
X80234223Y-64959781D01*
X80039534Y-64896522D01*
X79864995Y-64868878D01*
X79837352Y-64864500D01*
X79632648Y-64864500D01*
X79608329Y-64868351D01*
X79430465Y-64896522D01*
X79235776Y-64959781D01*
X79053386Y-65052715D01*
X78887786Y-65173028D01*
X78743028Y-65317786D01*
X78622715Y-65483386D01*
X78529781Y-65665776D01*
X78466522Y-65860465D01*
X78434500Y-66062648D01*
X73415500Y-66062648D01*
X73384732Y-65868390D01*
X73383477Y-65860465D01*
X73354127Y-65770137D01*
X73320220Y-65665781D01*
X73320218Y-65665778D01*
X73320218Y-65665776D01*
X73246511Y-65521120D01*
X73227287Y-65483390D01*
X73219556Y-65472749D01*
X73106971Y-65317786D01*
X72962213Y-65173028D01*
X72796613Y-65052715D01*
X72796612Y-65052714D01*
X72796610Y-65052713D01*
X72739653Y-65023691D01*
X72614223Y-64959781D01*
X72419534Y-64896522D01*
X72244995Y-64868878D01*
X72217352Y-64864500D01*
X72012648Y-64864500D01*
X71988329Y-64868351D01*
X71810465Y-64896522D01*
X71615776Y-64959781D01*
X71433386Y-65052715D01*
X71267786Y-65173028D01*
X71123028Y-65317786D01*
X71002715Y-65483386D01*
X70909781Y-65665776D01*
X70846522Y-65860465D01*
X70814500Y-66062648D01*
X59500000Y-66062648D01*
X59500000Y-63122648D01*
X71099500Y-63122648D01*
X71099500Y-63327351D01*
X71131522Y-63529534D01*
X71194781Y-63724223D01*
X71258691Y-63849653D01*
X71275539Y-63882718D01*
X71287715Y-63906613D01*
X71408028Y-64072213D01*
X71552786Y-64216971D01*
X71707749Y-64329556D01*
X71718390Y-64337287D01*
X71834607Y-64396503D01*
X71900776Y-64430218D01*
X71900778Y-64430218D01*
X71900781Y-64430220D01*
X72005137Y-64464127D01*
X72095465Y-64493477D01*
X72157504Y-64503303D01*
X72297648Y-64525500D01*
X72297649Y-64525500D01*
X72502351Y-64525500D01*
X72502352Y-64525500D01*
X72704534Y-64493477D01*
X72899219Y-64430220D01*
X73081610Y-64337287D01*
X73174590Y-64269732D01*
X73247213Y-64216971D01*
X73247215Y-64216968D01*
X73247219Y-64216966D01*
X73391966Y-64072219D01*
X73391968Y-64072215D01*
X73391971Y-64072213D01*
X73445003Y-63999219D01*
X73512287Y-63906610D01*
X73605220Y-63724219D01*
X73668477Y-63529534D01*
X73700500Y-63327352D01*
X73700500Y-63122648D01*
X74590125Y-63122648D01*
X74590125Y-63327351D01*
X74622147Y-63529534D01*
X74685406Y-63724223D01*
X74749316Y-63849653D01*
X74766164Y-63882718D01*
X74778340Y-63906613D01*
X74898653Y-64072213D01*
X75043411Y-64216971D01*
X75198374Y-64329556D01*
X75209015Y-64337287D01*
X75325232Y-64396503D01*
X75391401Y-64430218D01*
X75391403Y-64430218D01*
X75391406Y-64430220D01*
X75495762Y-64464127D01*
X75586090Y-64493477D01*
X75648129Y-64503303D01*
X75788273Y-64525500D01*
X75788274Y-64525500D01*
X75992976Y-64525500D01*
X75992977Y-64525500D01*
X76195159Y-64493477D01*
X76389844Y-64430220D01*
X76572235Y-64337287D01*
X76665215Y-64269732D01*
X76737838Y-64216971D01*
X76737840Y-64216968D01*
X76737844Y-64216966D01*
X76882591Y-64072219D01*
X76882593Y-64072215D01*
X76882596Y-64072213D01*
X76935628Y-63999219D01*
X77002912Y-63906610D01*
X77095845Y-63724219D01*
X77159102Y-63529534D01*
X77191125Y-63327352D01*
X77191125Y-63122648D01*
X78080750Y-63122648D01*
X78080750Y-63327351D01*
X78112772Y-63529534D01*
X78176031Y-63724223D01*
X78239941Y-63849653D01*
X78256789Y-63882718D01*
X78268965Y-63906613D01*
X78389278Y-64072213D01*
X78534036Y-64216971D01*
X78688999Y-64329556D01*
X78699640Y-64337287D01*
X78815857Y-64396503D01*
X78882026Y-64430218D01*
X78882028Y-64430218D01*
X78882031Y-64430220D01*
X78986387Y-64464127D01*
X79076715Y-64493477D01*
X79138754Y-64503303D01*
X79278898Y-64525500D01*
X79278899Y-64525500D01*
X79483601Y-64525500D01*
X79483602Y-64525500D01*
X79685784Y-64493477D01*
X79880469Y-64430220D01*
X80062860Y-64337287D01*
X80155840Y-64269732D01*
X80228463Y-64216971D01*
X80228465Y-64216968D01*
X80228469Y-64216966D01*
X80373216Y-64072219D01*
X80373218Y-64072215D01*
X80373221Y-64072213D01*
X80426253Y-63999219D01*
X80493537Y-63906610D01*
X80586470Y-63724219D01*
X80649727Y-63529534D01*
X80681750Y-63327352D01*
X80681750Y-63122648D01*
X81571375Y-63122648D01*
X81571375Y-63327351D01*
X81603397Y-63529534D01*
X81666656Y-63724223D01*
X81730566Y-63849653D01*
X81747414Y-63882718D01*
X81759590Y-63906613D01*
X81879903Y-64072213D01*
X82024661Y-64216971D01*
X82179624Y-64329556D01*
X82190265Y-64337287D01*
X82306482Y-64396503D01*
X82372651Y-64430218D01*
X82372653Y-64430218D01*
X82372656Y-64430220D01*
X82477012Y-64464127D01*
X82567340Y-64493477D01*
X82629379Y-64503303D01*
X82769523Y-64525500D01*
X82769524Y-64525500D01*
X82974226Y-64525500D01*
X82974227Y-64525500D01*
X83176409Y-64493477D01*
X83371094Y-64430220D01*
X83553485Y-64337287D01*
X83646465Y-64269732D01*
X83719088Y-64216971D01*
X83719090Y-64216968D01*
X83719094Y-64216966D01*
X83863841Y-64072219D01*
X83863843Y-64072215D01*
X83863846Y-64072213D01*
X83916878Y-63999219D01*
X83984162Y-63906610D01*
X84077095Y-63724219D01*
X84140352Y-63529534D01*
X84161241Y-63397648D01*
X95547832Y-63397648D01*
X95547832Y-63602351D01*
X95579854Y-63804534D01*
X95643113Y-63999223D01*
X95736047Y-64181613D01*
X95856360Y-64347213D01*
X96001118Y-64491971D01*
X96156081Y-64604556D01*
X96166722Y-64612287D01*
X96282939Y-64671503D01*
X96349108Y-64705218D01*
X96349110Y-64705218D01*
X96349113Y-64705220D01*
X96453469Y-64739127D01*
X96543797Y-64768477D01*
X96644889Y-64784488D01*
X96745980Y-64800500D01*
X96745981Y-64800500D01*
X96950683Y-64800500D01*
X96950684Y-64800500D01*
X97152866Y-64768477D01*
X97347551Y-64705220D01*
X97529942Y-64612287D01*
X97649395Y-64525500D01*
X97695545Y-64491971D01*
X97695547Y-64491968D01*
X97695551Y-64491966D01*
X97840298Y-64347219D01*
X97840300Y-64347215D01*
X97840303Y-64347213D01*
X97893064Y-64274590D01*
X97960619Y-64181610D01*
X98053552Y-63999219D01*
X98116809Y-63804534D01*
X98148832Y-63602352D01*
X98148832Y-63397648D01*
X98116809Y-63195466D01*
X98053552Y-63000781D01*
X98053550Y-63000778D01*
X98053550Y-63000776D01*
X97998270Y-62892284D01*
X97960619Y-62818390D01*
X97926894Y-62771971D01*
X97840303Y-62652786D01*
X97695545Y-62508028D01*
X97529945Y-62387715D01*
X97529944Y-62387714D01*
X97529942Y-62387713D01*
X97472985Y-62358691D01*
X97347555Y-62294781D01*
X97152866Y-62231522D01*
X96978327Y-62203878D01*
X96950684Y-62199500D01*
X96745980Y-62199500D01*
X96721661Y-62203351D01*
X96543797Y-62231522D01*
X96349108Y-62294781D01*
X96166718Y-62387715D01*
X96001118Y-62508028D01*
X95856360Y-62652786D01*
X95736047Y-62818386D01*
X95643113Y-63000776D01*
X95579854Y-63195465D01*
X95547832Y-63397648D01*
X84161241Y-63397648D01*
X84172375Y-63327352D01*
X84172375Y-63122648D01*
X84140352Y-62920466D01*
X84077095Y-62725781D01*
X84077093Y-62725778D01*
X84077093Y-62725776D01*
X84026872Y-62627213D01*
X83984162Y-62543390D01*
X83958470Y-62508028D01*
X83863846Y-62377786D01*
X83719088Y-62233028D01*
X83553488Y-62112715D01*
X83553487Y-62112714D01*
X83553485Y-62112713D01*
X83496528Y-62083691D01*
X83371098Y-62019781D01*
X83176409Y-61956522D01*
X83001870Y-61928878D01*
X82974227Y-61924500D01*
X82769523Y-61924500D01*
X82745204Y-61928351D01*
X82567340Y-61956522D01*
X82372651Y-62019781D01*
X82190261Y-62112715D01*
X82024661Y-62233028D01*
X81879903Y-62377786D01*
X81759590Y-62543386D01*
X81666656Y-62725776D01*
X81603397Y-62920465D01*
X81571375Y-63122648D01*
X80681750Y-63122648D01*
X80649727Y-62920466D01*
X80586470Y-62725781D01*
X80586468Y-62725778D01*
X80586468Y-62725776D01*
X80536247Y-62627213D01*
X80493537Y-62543390D01*
X80467845Y-62508028D01*
X80373221Y-62377786D01*
X80228463Y-62233028D01*
X80062863Y-62112715D01*
X80062862Y-62112714D01*
X80062860Y-62112713D01*
X80005903Y-62083691D01*
X79880473Y-62019781D01*
X79685784Y-61956522D01*
X79511245Y-61928878D01*
X79483602Y-61924500D01*
X79278898Y-61924500D01*
X79254579Y-61928351D01*
X79076715Y-61956522D01*
X78882026Y-62019781D01*
X78699636Y-62112715D01*
X78534036Y-62233028D01*
X78389278Y-62377786D01*
X78268965Y-62543386D01*
X78176031Y-62725776D01*
X78112772Y-62920465D01*
X78080750Y-63122648D01*
X77191125Y-63122648D01*
X77159102Y-62920466D01*
X77095845Y-62725781D01*
X77095843Y-62725778D01*
X77095843Y-62725776D01*
X77045622Y-62627213D01*
X77002912Y-62543390D01*
X76977220Y-62508028D01*
X76882596Y-62377786D01*
X76737838Y-62233028D01*
X76572238Y-62112715D01*
X76572237Y-62112714D01*
X76572235Y-62112713D01*
X76515278Y-62083691D01*
X76389848Y-62019781D01*
X76195159Y-61956522D01*
X76020620Y-61928878D01*
X75992977Y-61924500D01*
X75788273Y-61924500D01*
X75763954Y-61928351D01*
X75586090Y-61956522D01*
X75391401Y-62019781D01*
X75209011Y-62112715D01*
X75043411Y-62233028D01*
X74898653Y-62377786D01*
X74778340Y-62543386D01*
X74685406Y-62725776D01*
X74622147Y-62920465D01*
X74590125Y-63122648D01*
X73700500Y-63122648D01*
X73668477Y-62920466D01*
X73605220Y-62725781D01*
X73605218Y-62725778D01*
X73605218Y-62725776D01*
X73554997Y-62627213D01*
X73512287Y-62543390D01*
X73486595Y-62508028D01*
X73391971Y-62377786D01*
X73247213Y-62233028D01*
X73081613Y-62112715D01*
X73081612Y-62112714D01*
X73081610Y-62112713D01*
X73024653Y-62083691D01*
X72899223Y-62019781D01*
X72704534Y-61956522D01*
X72529995Y-61928878D01*
X72502352Y-61924500D01*
X72297648Y-61924500D01*
X72273329Y-61928351D01*
X72095465Y-61956522D01*
X71900776Y-62019781D01*
X71718386Y-62112715D01*
X71552786Y-62233028D01*
X71408028Y-62377786D01*
X71287715Y-62543386D01*
X71194781Y-62725776D01*
X71131522Y-62920465D01*
X71099500Y-63122648D01*
X59500000Y-63122648D01*
X59500000Y-61677648D01*
X99024500Y-61677648D01*
X99024500Y-61882351D01*
X99056522Y-62084534D01*
X99119781Y-62279223D01*
X99212715Y-62461613D01*
X99333028Y-62627213D01*
X99477786Y-62771971D01*
X99632749Y-62884556D01*
X99643390Y-62892287D01*
X99759607Y-62951503D01*
X99825776Y-62985218D01*
X99825778Y-62985218D01*
X99825781Y-62985220D01*
X99873673Y-63000781D01*
X100020465Y-63048477D01*
X100121557Y-63064488D01*
X100222648Y-63080500D01*
X100222649Y-63080500D01*
X100427351Y-63080500D01*
X100427352Y-63080500D01*
X100629534Y-63048477D01*
X100824219Y-62985220D01*
X101006610Y-62892287D01*
X101108327Y-62818386D01*
X101172213Y-62771971D01*
X101172215Y-62771968D01*
X101172219Y-62771966D01*
X101316966Y-62627219D01*
X101316968Y-62627215D01*
X101316971Y-62627213D01*
X101403558Y-62508034D01*
X101437287Y-62461610D01*
X101530220Y-62279219D01*
X101593477Y-62084534D01*
X101625500Y-61882352D01*
X101625500Y-61677648D01*
X101593477Y-61475466D01*
X101530220Y-61280781D01*
X101530218Y-61280778D01*
X101530218Y-61280776D01*
X101496503Y-61214607D01*
X101437287Y-61098390D01*
X101429556Y-61087749D01*
X101316971Y-60932786D01*
X101172213Y-60788028D01*
X101006613Y-60667715D01*
X101006612Y-60667714D01*
X101006610Y-60667713D01*
X100949653Y-60638691D01*
X100824223Y-60574781D01*
X100629534Y-60511522D01*
X100454995Y-60483878D01*
X100427352Y-60479500D01*
X100222648Y-60479500D01*
X100198329Y-60483351D01*
X100020465Y-60511522D01*
X99825776Y-60574781D01*
X99643386Y-60667715D01*
X99477786Y-60788028D01*
X99333028Y-60932786D01*
X99212715Y-61098386D01*
X99119781Y-61280776D01*
X99056522Y-61475465D01*
X99024500Y-61677648D01*
X59500000Y-61677648D01*
X59500000Y-58827648D01*
X92043250Y-58827648D01*
X92043250Y-59032351D01*
X92075272Y-59234534D01*
X92138531Y-59429223D01*
X92231465Y-59611613D01*
X92351778Y-59777213D01*
X92496536Y-59921971D01*
X92651499Y-60034556D01*
X92662140Y-60042287D01*
X92778357Y-60101503D01*
X92844526Y-60135218D01*
X92844528Y-60135218D01*
X92844531Y-60135220D01*
X92948887Y-60169127D01*
X93039215Y-60198477D01*
X93140307Y-60214488D01*
X93241398Y-60230500D01*
X93241399Y-60230500D01*
X93446101Y-60230500D01*
X93446102Y-60230500D01*
X93648284Y-60198477D01*
X93842969Y-60135220D01*
X94025360Y-60042287D01*
X94118340Y-59974732D01*
X94190963Y-59921971D01*
X94190965Y-59921968D01*
X94190969Y-59921966D01*
X94335716Y-59777219D01*
X94335718Y-59777215D01*
X94335721Y-59777213D01*
X94388482Y-59704590D01*
X94456037Y-59611610D01*
X94548970Y-59429219D01*
X94612227Y-59234534D01*
X94644250Y-59032352D01*
X94644250Y-58827648D01*
X94612227Y-58625466D01*
X94548970Y-58430781D01*
X94548968Y-58430778D01*
X94548968Y-58430776D01*
X94515253Y-58364607D01*
X94456037Y-58248390D01*
X94448306Y-58237749D01*
X94335721Y-58082786D01*
X94190963Y-57938028D01*
X94025363Y-57817715D01*
X94025362Y-57817714D01*
X94025360Y-57817713D01*
X93968403Y-57788691D01*
X93842973Y-57724781D01*
X93648284Y-57661522D01*
X93473745Y-57633878D01*
X93446102Y-57629500D01*
X93241398Y-57629500D01*
X93217079Y-57633351D01*
X93039215Y-57661522D01*
X92844526Y-57724781D01*
X92662136Y-57817715D01*
X92496536Y-57938028D01*
X92351778Y-58082786D01*
X92231465Y-58248386D01*
X92138531Y-58430776D01*
X92075272Y-58625465D01*
X92043250Y-58827648D01*
X59500000Y-58827648D01*
X59500000Y-55502648D01*
X78080750Y-55502648D01*
X78080750Y-55707351D01*
X78112772Y-55909534D01*
X78176031Y-56104223D01*
X78268965Y-56286613D01*
X78389278Y-56452213D01*
X78534036Y-56596971D01*
X78688999Y-56709556D01*
X78699640Y-56717287D01*
X78797625Y-56767213D01*
X78882026Y-56810218D01*
X78882028Y-56810218D01*
X78882031Y-56810220D01*
X78986387Y-56844127D01*
X79076715Y-56873477D01*
X79177807Y-56889488D01*
X79278898Y-56905500D01*
X79278899Y-56905500D01*
X79483601Y-56905500D01*
X79483602Y-56905500D01*
X79685784Y-56873477D01*
X79880469Y-56810220D01*
X80062860Y-56717287D01*
X80155840Y-56649732D01*
X80228463Y-56596971D01*
X80228465Y-56596968D01*
X80228469Y-56596966D01*
X80373216Y-56452219D01*
X80373218Y-56452215D01*
X80373221Y-56452213D01*
X80426253Y-56379219D01*
X80493537Y-56286610D01*
X80586470Y-56104219D01*
X80649727Y-55909534D01*
X80681750Y-55707352D01*
X80681750Y-55502648D01*
X81571375Y-55502648D01*
X81571375Y-55707351D01*
X81603397Y-55909534D01*
X81666656Y-56104223D01*
X81759590Y-56286613D01*
X81879903Y-56452213D01*
X82024661Y-56596971D01*
X82179624Y-56709556D01*
X82190265Y-56717287D01*
X82288250Y-56767213D01*
X82372651Y-56810218D01*
X82372653Y-56810218D01*
X82372656Y-56810220D01*
X82477012Y-56844127D01*
X82567340Y-56873477D01*
X82668432Y-56889488D01*
X82769523Y-56905500D01*
X82769524Y-56905500D01*
X82974226Y-56905500D01*
X82974227Y-56905500D01*
X83176409Y-56873477D01*
X83371094Y-56810220D01*
X83553485Y-56717287D01*
X83646465Y-56649732D01*
X83719088Y-56596971D01*
X83719090Y-56596968D01*
X83719094Y-56596966D01*
X83863841Y-56452219D01*
X83863843Y-56452215D01*
X83863846Y-56452213D01*
X83916878Y-56379219D01*
X83984162Y-56286610D01*
X84077095Y-56104219D01*
X84140352Y-55909534D01*
X84154906Y-55817648D01*
X84831166Y-55817648D01*
X84831166Y-56022351D01*
X84863188Y-56224534D01*
X84926447Y-56419223D01*
X84943257Y-56452213D01*
X85017015Y-56596971D01*
X85019381Y-56601613D01*
X85139694Y-56767213D01*
X85284452Y-56911971D01*
X85394996Y-56992284D01*
X85450056Y-57032287D01*
X85553939Y-57085218D01*
X85632442Y-57125218D01*
X85632444Y-57125218D01*
X85632447Y-57125220D01*
X85704025Y-57148477D01*
X85827131Y-57188477D01*
X85928223Y-57204488D01*
X86029314Y-57220500D01*
X86029315Y-57220500D01*
X86234017Y-57220500D01*
X86234018Y-57220500D01*
X86436200Y-57188477D01*
X86630885Y-57125220D01*
X86813276Y-57032287D01*
X86906256Y-56964732D01*
X86978879Y-56911971D01*
X86978881Y-56911968D01*
X86978885Y-56911966D01*
X87123632Y-56767219D01*
X87123634Y-56767215D01*
X87123637Y-56767213D01*
X87176398Y-56694590D01*
X87243953Y-56601610D01*
X87336886Y-56419219D01*
X87400143Y-56224534D01*
X87432166Y-56022352D01*
X87432166Y-55817648D01*
X92451166Y-55817648D01*
X92451166Y-56022351D01*
X92483188Y-56224534D01*
X92546447Y-56419223D01*
X92563257Y-56452213D01*
X92637015Y-56596971D01*
X92639381Y-56601613D01*
X92759694Y-56767213D01*
X92904452Y-56911971D01*
X93014996Y-56992284D01*
X93070056Y-57032287D01*
X93173939Y-57085218D01*
X93252442Y-57125218D01*
X93252444Y-57125218D01*
X93252447Y-57125220D01*
X93324025Y-57148477D01*
X93447131Y-57188477D01*
X93548223Y-57204488D01*
X93649314Y-57220500D01*
X93649315Y-57220500D01*
X93854017Y-57220500D01*
X93854018Y-57220500D01*
X94056200Y-57188477D01*
X94250885Y-57125220D01*
X94433276Y-57032287D01*
X94526256Y-56964732D01*
X94598879Y-56911971D01*
X94598881Y-56911968D01*
X94598885Y-56911966D01*
X94743632Y-56767219D01*
X94743634Y-56767215D01*
X94743637Y-56767213D01*
X94796398Y-56694590D01*
X94863953Y-56601610D01*
X94956886Y-56419219D01*
X95020143Y-56224534D01*
X95052166Y-56022352D01*
X95052166Y-55817648D01*
X95045831Y-55777648D01*
X95547832Y-55777648D01*
X95547832Y-55982351D01*
X95579854Y-56184534D01*
X95643113Y-56379223D01*
X95736047Y-56561613D01*
X95856360Y-56727213D01*
X96001118Y-56871971D01*
X96156081Y-56984556D01*
X96166722Y-56992287D01*
X96282939Y-57051503D01*
X96349108Y-57085218D01*
X96349110Y-57085218D01*
X96349113Y-57085220D01*
X96453469Y-57119127D01*
X96543797Y-57148477D01*
X96644889Y-57164488D01*
X96745980Y-57180500D01*
X96745981Y-57180500D01*
X96950683Y-57180500D01*
X96950684Y-57180500D01*
X97152866Y-57148477D01*
X97347551Y-57085220D01*
X97529942Y-56992287D01*
X97622922Y-56924732D01*
X97695545Y-56871971D01*
X97695547Y-56871968D01*
X97695551Y-56871966D01*
X97840298Y-56727219D01*
X97840300Y-56727215D01*
X97840303Y-56727213D01*
X97931555Y-56601613D01*
X97960619Y-56561610D01*
X98053552Y-56379219D01*
X98116809Y-56184534D01*
X98148832Y-55982352D01*
X98148832Y-55777648D01*
X98137698Y-55707351D01*
X98116809Y-55575465D01*
X98053550Y-55380776D01*
X98012629Y-55300465D01*
X97960619Y-55198390D01*
X97952888Y-55187749D01*
X97840303Y-55032786D01*
X97695545Y-54888028D01*
X97529945Y-54767715D01*
X97529944Y-54767714D01*
X97529942Y-54767713D01*
X97472985Y-54738691D01*
X97347555Y-54674781D01*
X97152866Y-54611522D01*
X96978327Y-54583878D01*
X96950684Y-54579500D01*
X96745980Y-54579500D01*
X96721661Y-54583351D01*
X96543797Y-54611522D01*
X96349108Y-54674781D01*
X96166718Y-54767715D01*
X96001118Y-54888028D01*
X95856360Y-55032786D01*
X95736047Y-55198386D01*
X95643113Y-55380776D01*
X95579854Y-55575465D01*
X95547832Y-55777648D01*
X95045831Y-55777648D01*
X95020143Y-55615466D01*
X94956886Y-55420781D01*
X94956884Y-55420778D01*
X94956884Y-55420776D01*
X94895582Y-55300466D01*
X94863953Y-55238390D01*
X94834889Y-55198386D01*
X94743637Y-55072786D01*
X94598879Y-54928028D01*
X94433279Y-54807715D01*
X94433278Y-54807714D01*
X94433276Y-54807713D01*
X94354772Y-54767713D01*
X94250889Y-54714781D01*
X94056200Y-54651522D01*
X93881661Y-54623878D01*
X93854018Y-54619500D01*
X93649314Y-54619500D01*
X93624995Y-54623351D01*
X93447131Y-54651522D01*
X93252442Y-54714781D01*
X93070052Y-54807715D01*
X92904452Y-54928028D01*
X92759694Y-55072786D01*
X92639381Y-55238386D01*
X92546447Y-55420776D01*
X92483188Y-55615465D01*
X92451166Y-55817648D01*
X87432166Y-55817648D01*
X87400143Y-55615466D01*
X87336886Y-55420781D01*
X87336884Y-55420778D01*
X87336884Y-55420776D01*
X87275582Y-55300466D01*
X87243953Y-55238390D01*
X87214889Y-55198386D01*
X87123637Y-55072786D01*
X86978879Y-54928028D01*
X86813279Y-54807715D01*
X86813278Y-54807714D01*
X86813276Y-54807713D01*
X86734772Y-54767713D01*
X86630889Y-54714781D01*
X86436200Y-54651522D01*
X86261661Y-54623878D01*
X86234018Y-54619500D01*
X86029314Y-54619500D01*
X86004995Y-54623351D01*
X85827131Y-54651522D01*
X85632442Y-54714781D01*
X85450052Y-54807715D01*
X85284452Y-54928028D01*
X85139694Y-55072786D01*
X85019381Y-55238386D01*
X84926447Y-55420776D01*
X84863188Y-55615465D01*
X84831166Y-55817648D01*
X84154906Y-55817648D01*
X84158750Y-55793378D01*
X84158750Y-55793377D01*
X84172375Y-55707352D01*
X84172375Y-55502648D01*
X84140352Y-55300465D01*
X84077093Y-55105776D01*
X84039900Y-55032781D01*
X83984162Y-54923390D01*
X83958470Y-54888028D01*
X83863846Y-54757786D01*
X83719088Y-54613028D01*
X83553488Y-54492715D01*
X83553487Y-54492714D01*
X83553485Y-54492713D01*
X83496528Y-54463691D01*
X83371098Y-54399781D01*
X83176409Y-54336522D01*
X83001870Y-54308878D01*
X82974227Y-54304500D01*
X82769523Y-54304500D01*
X82745204Y-54308351D01*
X82567340Y-54336522D01*
X82372651Y-54399781D01*
X82190261Y-54492715D01*
X82024661Y-54613028D01*
X81879903Y-54757786D01*
X81759590Y-54923386D01*
X81666656Y-55105776D01*
X81603397Y-55300465D01*
X81571375Y-55502648D01*
X80681750Y-55502648D01*
X80649727Y-55300466D01*
X80586470Y-55105781D01*
X80586468Y-55105778D01*
X80586468Y-55105776D01*
X80549275Y-55032781D01*
X80493537Y-54923390D01*
X80467845Y-54888028D01*
X80373221Y-54757786D01*
X80228463Y-54613028D01*
X80062863Y-54492715D01*
X80062862Y-54492714D01*
X80062860Y-54492713D01*
X80005903Y-54463691D01*
X79880473Y-54399781D01*
X79685784Y-54336522D01*
X79511245Y-54308878D01*
X79483602Y-54304500D01*
X79278898Y-54304500D01*
X79254579Y-54308351D01*
X79076715Y-54336522D01*
X78882026Y-54399781D01*
X78699636Y-54492715D01*
X78534036Y-54613028D01*
X78389278Y-54757786D01*
X78268965Y-54923386D01*
X78176031Y-55105776D01*
X78112772Y-55300465D01*
X78080750Y-55502648D01*
X59500000Y-55502648D01*
X59500000Y-48624500D01*
X59519685Y-48557461D01*
X59572489Y-48511706D01*
X59624000Y-48500500D01*
X102064852Y-48500500D01*
X102064852Y-54000000D01*
G37*
%TD.AperFunction*%
%TD*%
%TA.AperFunction,Conductor*%
%TO.N,GND*%
G36*
X127940106Y-86505023D02*
G01*
X127955104Y-86509427D01*
X127970094Y-86519057D01*
X127987175Y-86524067D01*
X128013855Y-86547172D01*
X128015042Y-86548541D01*
X128042518Y-86603402D01*
X128044163Y-86610960D01*
X128047000Y-86637331D01*
X128047000Y-88047876D01*
X128047159Y-88049806D01*
X128047385Y-88051454D01*
X128053407Y-88107482D01*
X128078392Y-88174469D01*
X128103702Y-88242328D01*
X128103706Y-88242335D01*
X128146586Y-88299616D01*
X128189950Y-88357542D01*
X128189952Y-88357544D01*
X128189955Y-88357547D01*
X128305164Y-88443793D01*
X128305171Y-88443797D01*
X128330077Y-88453086D01*
X128339032Y-88459789D01*
X128349876Y-88462542D01*
X128361057Y-88470002D01*
X128367553Y-88474865D01*
X128378236Y-88489137D01*
X128386011Y-88494957D01*
X128390781Y-88505895D01*
X128409423Y-88530799D01*
X128414407Y-88600491D01*
X128402569Y-88622168D01*
X128402503Y-88622799D01*
X128401637Y-88623876D01*
X128380921Y-88661814D01*
X128362901Y-88672074D01*
X128358734Y-88677261D01*
X128346770Y-88681260D01*
X128323911Y-88694278D01*
X128318548Y-88695647D01*
X128294826Y-88698627D01*
X128292470Y-88699415D01*
X128291173Y-88699085D01*
X128287878Y-88699500D01*
X128167648Y-88699500D01*
X128145601Y-88702992D01*
X128145600Y-88702992D01*
X127965469Y-88731520D01*
X127965468Y-88731521D01*
X127770777Y-88794780D01*
X127770764Y-88794786D01*
X127588397Y-88887708D01*
X127588385Y-88887715D01*
X127422787Y-89008027D01*
X127422786Y-89008028D01*
X127278029Y-89152784D01*
X127278027Y-89152787D01*
X127157715Y-89318385D01*
X127157708Y-89318397D01*
X127064786Y-89500764D01*
X127064780Y-89500777D01*
X127001521Y-89695468D01*
X126969500Y-89897642D01*
X126969500Y-90102356D01*
X127001521Y-90304530D01*
X127064780Y-90499221D01*
X127064783Y-90499228D01*
X127113032Y-90593919D01*
X127113032Y-90593921D01*
X127113033Y-90593921D01*
X127153315Y-90672980D01*
X127157714Y-90681611D01*
X127157717Y-90681616D01*
X127278026Y-90847211D01*
X127278028Y-90847213D01*
X127422786Y-90991971D01*
X127542362Y-91078846D01*
X127588390Y-91112287D01*
X127704607Y-91171503D01*
X127764327Y-91201932D01*
X127764326Y-91201932D01*
X127771650Y-91205663D01*
X127775403Y-91206722D01*
X127857784Y-91233489D01*
X127965465Y-91268477D01*
X128066557Y-91284488D01*
X128167648Y-91300500D01*
X128167649Y-91300500D01*
X128372351Y-91300500D01*
X128372352Y-91300500D01*
X128574534Y-91268477D01*
X128769219Y-91205220D01*
X128951610Y-91112287D01*
X129044590Y-91044732D01*
X129117213Y-90991971D01*
X129117213Y-90991969D01*
X129117272Y-90991927D01*
X129118031Y-90991153D01*
X129261966Y-90847219D01*
X129261968Y-90847215D01*
X129261971Y-90847213D01*
X129325035Y-90760411D01*
X129382287Y-90681610D01*
X129475220Y-90499219D01*
X129538477Y-90304534D01*
X129570500Y-90102352D01*
X129570500Y-89897648D01*
X129538477Y-89695465D01*
X129475218Y-89500776D01*
X129458681Y-89468321D01*
X129441503Y-89434606D01*
X129441503Y-89434607D01*
X129382287Y-89318390D01*
X129382285Y-89318387D01*
X129382284Y-89318385D01*
X129354952Y-89280766D01*
X129354950Y-89280764D01*
X129261971Y-89152786D01*
X129117213Y-89008028D01*
X129117212Y-89008027D01*
X129117211Y-89008026D01*
X128962209Y-88895413D01*
X128962205Y-88895410D01*
X128951613Y-88887715D01*
X128951612Y-88887714D01*
X128951610Y-88887713D01*
X128923171Y-88873222D01*
X128894654Y-88858691D01*
X128894653Y-88858691D01*
X128797589Y-88809234D01*
X128769226Y-88794782D01*
X128625061Y-88747939D01*
X128613802Y-88740240D01*
X128593396Y-88732371D01*
X128587658Y-88728448D01*
X128576368Y-88714642D01*
X128567386Y-88708501D01*
X128563152Y-88698483D01*
X128543426Y-88674362D01*
X128535457Y-88604948D01*
X128566281Y-88542245D01*
X128600791Y-88521097D01*
X128611118Y-88512034D01*
X128617032Y-88511145D01*
X128624417Y-88506619D01*
X128630122Y-88505033D01*
X128663345Y-88500499D01*
X130500371Y-88500499D01*
X130500372Y-88500499D01*
X130559983Y-88494091D01*
X130694831Y-88443796D01*
X130810046Y-88357546D01*
X130896296Y-88242331D01*
X130900467Y-88231145D01*
X130917378Y-88200181D01*
X130925698Y-88189068D01*
X130981635Y-88147201D01*
X131051307Y-88142218D01*
X131051325Y-88142222D01*
X131051328Y-88142222D01*
X131059318Y-88143960D01*
X131105854Y-88164809D01*
X131278462Y-88290217D01*
X131410595Y-88357542D01*
X131410599Y-88357544D01*
X131482246Y-88394050D01*
X131538587Y-88412356D01*
X131699374Y-88464598D01*
X131699381Y-88464601D01*
X131699522Y-88464646D01*
X131699751Y-88464721D01*
X131699752Y-88464721D01*
X131699755Y-88464722D01*
X131925646Y-88500500D01*
X131925647Y-88500500D01*
X132154353Y-88500500D01*
X132154354Y-88500500D01*
X132380245Y-88464722D01*
X132380248Y-88464721D01*
X132380249Y-88464721D01*
X132597755Y-88394049D01*
X132597755Y-88394048D01*
X132607036Y-88391033D01*
X132607037Y-88391032D01*
X132607042Y-88391031D01*
X132615027Y-88388436D01*
X132624278Y-88380534D01*
X132801538Y-88290217D01*
X132986566Y-88155786D01*
X133148286Y-87994066D01*
X133282717Y-87809038D01*
X133386548Y-87605258D01*
X133432840Y-87462786D01*
X133457221Y-87387749D01*
X133457221Y-87387748D01*
X133457222Y-87387745D01*
X133493000Y-87161854D01*
X133493000Y-86838146D01*
X133493000Y-86838140D01*
X133464944Y-86661007D01*
X133464439Y-86625724D01*
X133464662Y-86624000D01*
X133466218Y-86611956D01*
X133494327Y-86547994D01*
X133552552Y-86509382D01*
X133565013Y-86505530D01*
X133601630Y-86500000D01*
X138985170Y-86500000D01*
X139020106Y-86505023D01*
X139035104Y-86509427D01*
X139050094Y-86519057D01*
X139067175Y-86524067D01*
X139093855Y-86547172D01*
X139095042Y-86548541D01*
X139122518Y-86603402D01*
X139124163Y-86610960D01*
X139127000Y-86637331D01*
X139127000Y-88047876D01*
X139127159Y-88049806D01*
X139127385Y-88051454D01*
X139133407Y-88107482D01*
X139158392Y-88174469D01*
X139183702Y-88242328D01*
X139183706Y-88242335D01*
X139226586Y-88299616D01*
X139269950Y-88357542D01*
X139269952Y-88357544D01*
X139269955Y-88357547D01*
X139385164Y-88443793D01*
X139385171Y-88443797D01*
X139410077Y-88453086D01*
X139419032Y-88459789D01*
X139429876Y-88462542D01*
X139441057Y-88470002D01*
X139447553Y-88474865D01*
X139458236Y-88489137D01*
X139466011Y-88494957D01*
X139470781Y-88505895D01*
X139489423Y-88530799D01*
X139494407Y-88600491D01*
X139482569Y-88622168D01*
X139482503Y-88622799D01*
X139481637Y-88623876D01*
X139460921Y-88661814D01*
X139442901Y-88672074D01*
X139438734Y-88677261D01*
X139426770Y-88681260D01*
X139403911Y-88694278D01*
X139398548Y-88695647D01*
X139374826Y-88698627D01*
X139372470Y-88699415D01*
X139371173Y-88699085D01*
X139367878Y-88699500D01*
X139357648Y-88699500D01*
X139335601Y-88702992D01*
X139335600Y-88702992D01*
X139155469Y-88731520D01*
X139155468Y-88731521D01*
X138960777Y-88794780D01*
X138960764Y-88794786D01*
X138778397Y-88887708D01*
X138778385Y-88887715D01*
X138612787Y-89008027D01*
X138612786Y-89008028D01*
X138468029Y-89152784D01*
X138468027Y-89152787D01*
X138347715Y-89318385D01*
X138347708Y-89318397D01*
X138254786Y-89500764D01*
X138254780Y-89500777D01*
X138191521Y-89695468D01*
X138159500Y-89897642D01*
X138159500Y-90102356D01*
X138191521Y-90304530D01*
X138254780Y-90499221D01*
X138254783Y-90499228D01*
X138303032Y-90593919D01*
X138303032Y-90593921D01*
X138303033Y-90593921D01*
X138343315Y-90672980D01*
X138347714Y-90681611D01*
X138347717Y-90681616D01*
X138468026Y-90847211D01*
X138468028Y-90847213D01*
X138612786Y-90991971D01*
X138732362Y-91078846D01*
X138778390Y-91112287D01*
X138894607Y-91171503D01*
X138954327Y-91201932D01*
X138954326Y-91201932D01*
X138961650Y-91205663D01*
X138965403Y-91206722D01*
X139047784Y-91233489D01*
X139155465Y-91268477D01*
X139256557Y-91284488D01*
X139357648Y-91300500D01*
X139357649Y-91300500D01*
X139562351Y-91300500D01*
X139562352Y-91300500D01*
X139764534Y-91268477D01*
X139959219Y-91205220D01*
X140141610Y-91112287D01*
X140234590Y-91044732D01*
X140307213Y-90991971D01*
X140307213Y-90991969D01*
X140307272Y-90991927D01*
X140308031Y-90991153D01*
X140451966Y-90847219D01*
X140451968Y-90847215D01*
X140451971Y-90847213D01*
X140515035Y-90760411D01*
X140572287Y-90681610D01*
X140665220Y-90499219D01*
X140728477Y-90304534D01*
X140760500Y-90102352D01*
X140760500Y-89897648D01*
X140728477Y-89695465D01*
X140665218Y-89500776D01*
X140648681Y-89468321D01*
X140631503Y-89434606D01*
X140631503Y-89434607D01*
X140572287Y-89318390D01*
X140572285Y-89318387D01*
X140572284Y-89318385D01*
X140544952Y-89280766D01*
X140544950Y-89280764D01*
X140451971Y-89152786D01*
X140307213Y-89008028D01*
X140307212Y-89008027D01*
X140307211Y-89008026D01*
X140152209Y-88895413D01*
X140152205Y-88895410D01*
X140141613Y-88887715D01*
X140141612Y-88887714D01*
X140141610Y-88887713D01*
X140113171Y-88873222D01*
X140084654Y-88858691D01*
X140084653Y-88858691D01*
X139987589Y-88809234D01*
X139959226Y-88794782D01*
X139815061Y-88747939D01*
X139803802Y-88740240D01*
X139783396Y-88732371D01*
X139777658Y-88728448D01*
X139766368Y-88714642D01*
X139757386Y-88708501D01*
X139753152Y-88698483D01*
X139733426Y-88674362D01*
X139725457Y-88604948D01*
X139756281Y-88542245D01*
X139790791Y-88521097D01*
X139801118Y-88512034D01*
X139807032Y-88511145D01*
X139814417Y-88506619D01*
X139820122Y-88505033D01*
X139853345Y-88500499D01*
X141580371Y-88500499D01*
X141580372Y-88500499D01*
X141639983Y-88494091D01*
X141774831Y-88443796D01*
X141890046Y-88357546D01*
X141976296Y-88242331D01*
X141980467Y-88231145D01*
X141997378Y-88200181D01*
X142005698Y-88189068D01*
X142061635Y-88147201D01*
X142131307Y-88142218D01*
X142131325Y-88142222D01*
X142131328Y-88142222D01*
X142139318Y-88143960D01*
X142185854Y-88164809D01*
X142358462Y-88290217D01*
X142490595Y-88357542D01*
X142490599Y-88357544D01*
X142562246Y-88394050D01*
X142618587Y-88412356D01*
X142779374Y-88464598D01*
X142779381Y-88464601D01*
X142779522Y-88464646D01*
X142779751Y-88464721D01*
X142779752Y-88464721D01*
X142779755Y-88464722D01*
X143005646Y-88500500D01*
X143005647Y-88500500D01*
X143234353Y-88500500D01*
X143234354Y-88500500D01*
X143460245Y-88464722D01*
X143460248Y-88464721D01*
X143460249Y-88464721D01*
X143677755Y-88394049D01*
X143677755Y-88394048D01*
X143687036Y-88391033D01*
X143687037Y-88391032D01*
X143687042Y-88391031D01*
X143695027Y-88388436D01*
X143704278Y-88380534D01*
X143881538Y-88290217D01*
X144066566Y-88155786D01*
X144228286Y-87994066D01*
X144362717Y-87809038D01*
X144466548Y-87605258D01*
X144512840Y-87462786D01*
X144537221Y-87387749D01*
X144537221Y-87387748D01*
X144537222Y-87387745D01*
X144573000Y-87161854D01*
X144573000Y-86838146D01*
X144573000Y-86838140D01*
X144544944Y-86661007D01*
X144544439Y-86625724D01*
X144544662Y-86624000D01*
X144546218Y-86611956D01*
X144574327Y-86547994D01*
X144632552Y-86509382D01*
X144645013Y-86505530D01*
X144681630Y-86500000D01*
X151358170Y-86500000D01*
X151393106Y-86505023D01*
X151408104Y-86509427D01*
X151423094Y-86519057D01*
X151440175Y-86524067D01*
X151466855Y-86547172D01*
X151468042Y-86548541D01*
X151495518Y-86603402D01*
X151497163Y-86610960D01*
X151500000Y-86637331D01*
X151500000Y-107357670D01*
X151494975Y-107392614D01*
X151490570Y-107407612D01*
X151480939Y-107422601D01*
X151475932Y-107439675D01*
X151452827Y-107466355D01*
X151451458Y-107467542D01*
X151396597Y-107495018D01*
X151389039Y-107496663D01*
X151362668Y-107499500D01*
X108068692Y-107499500D01*
X108033756Y-107494477D01*
X108008514Y-107487065D01*
X107955769Y-107455769D01*
X105207642Y-104707642D01*
X109794500Y-104707642D01*
X109794500Y-104912356D01*
X109826521Y-105114530D01*
X109826522Y-105114534D01*
X109840673Y-105158086D01*
X109889780Y-105309220D01*
X109889784Y-105309230D01*
X109982708Y-105491601D01*
X109982713Y-105491609D01*
X109982715Y-105491613D01*
X110103028Y-105657213D01*
X110247786Y-105801971D01*
X110402749Y-105914556D01*
X110413390Y-105922287D01*
X110529607Y-105981503D01*
X110590154Y-106012353D01*
X110591043Y-106012824D01*
X110591249Y-106013025D01*
X110594629Y-106014662D01*
X110596637Y-106015660D01*
X110600403Y-106016722D01*
X110640488Y-106029746D01*
X110700135Y-106049126D01*
X110700136Y-106049127D01*
X110743612Y-106063253D01*
X110790465Y-106078477D01*
X110891557Y-106094488D01*
X110992648Y-106110500D01*
X110992649Y-106110500D01*
X111197351Y-106110500D01*
X111197352Y-106110500D01*
X111399534Y-106078477D01*
X111594219Y-106015220D01*
X111776610Y-105922287D01*
X111869590Y-105854732D01*
X111942213Y-105801971D01*
X111942213Y-105801969D01*
X111942272Y-105801927D01*
X111943031Y-105801153D01*
X112086966Y-105657219D01*
X112086968Y-105657215D01*
X112086971Y-105657213D01*
X112190133Y-105515220D01*
X112207287Y-105491610D01*
X112300220Y-105309219D01*
X112363477Y-105114534D01*
X112395500Y-104912352D01*
X112395500Y-104707648D01*
X112395499Y-104707642D01*
X113294500Y-104707642D01*
X113294500Y-104912356D01*
X113326521Y-105114530D01*
X113326522Y-105114534D01*
X113340673Y-105158086D01*
X113389780Y-105309220D01*
X113389784Y-105309230D01*
X113482708Y-105491601D01*
X113482713Y-105491609D01*
X113482715Y-105491613D01*
X113603028Y-105657213D01*
X113747786Y-105801971D01*
X113902749Y-105914556D01*
X113913390Y-105922287D01*
X114029607Y-105981503D01*
X114090154Y-106012353D01*
X114091043Y-106012824D01*
X114091249Y-106013025D01*
X114094629Y-106014662D01*
X114096637Y-106015660D01*
X114100403Y-106016722D01*
X114140488Y-106029746D01*
X114200135Y-106049126D01*
X114200136Y-106049127D01*
X114243612Y-106063253D01*
X114290465Y-106078477D01*
X114391557Y-106094488D01*
X114492648Y-106110500D01*
X114492649Y-106110500D01*
X114697351Y-106110500D01*
X114697352Y-106110500D01*
X114899534Y-106078477D01*
X115094219Y-106015220D01*
X115276610Y-105922287D01*
X115369590Y-105854732D01*
X115442213Y-105801971D01*
X115442213Y-105801969D01*
X115442272Y-105801927D01*
X115443031Y-105801153D01*
X115586966Y-105657219D01*
X115586968Y-105657215D01*
X115586971Y-105657213D01*
X115690133Y-105515220D01*
X115707287Y-105491610D01*
X115800220Y-105309219D01*
X115863477Y-105114534D01*
X115895500Y-104912352D01*
X115895500Y-104707648D01*
X115863477Y-104505466D01*
X115863476Y-104505462D01*
X115863476Y-104505461D01*
X115802834Y-104318826D01*
X115802833Y-104318825D01*
X115800220Y-104310781D01*
X115800218Y-104310778D01*
X115800218Y-104310776D01*
X115797970Y-104306365D01*
X115797663Y-104305577D01*
X115796933Y-104304329D01*
X115747671Y-104207648D01*
X115747668Y-104207642D01*
X115707287Y-104128390D01*
X115707285Y-104128387D01*
X115707284Y-104128385D01*
X115683310Y-104095388D01*
X115683308Y-104095386D01*
X115675680Y-104084887D01*
X115586971Y-103962786D01*
X115442213Y-103818028D01*
X115442212Y-103818027D01*
X115442211Y-103818026D01*
X115287202Y-103705408D01*
X115287199Y-103705406D01*
X115276613Y-103697715D01*
X115276612Y-103697714D01*
X115276610Y-103697713D01*
X115210880Y-103664222D01*
X115210880Y-103664221D01*
X115210878Y-103664221D01*
X115094228Y-103604783D01*
X115094221Y-103604780D01*
X114989316Y-103570694D01*
X114899534Y-103541522D01*
X114899532Y-103541521D01*
X114899530Y-103541521D01*
X114899529Y-103541520D01*
X114724995Y-103513878D01*
X114708409Y-103511251D01*
X114697354Y-103509500D01*
X114697352Y-103509500D01*
X114492648Y-103509500D01*
X114492647Y-103509500D01*
X114468327Y-103513351D01*
X114468326Y-103513350D01*
X114290468Y-103541521D01*
X114095777Y-103604780D01*
X114095764Y-103604786D01*
X113913397Y-103697708D01*
X113913385Y-103697715D01*
X113747787Y-103818027D01*
X113747784Y-103818029D01*
X113603029Y-103962784D01*
X113603027Y-103962787D01*
X113482715Y-104128385D01*
X113482708Y-104128397D01*
X113389786Y-104310764D01*
X113389780Y-104310777D01*
X113326521Y-104505468D01*
X113294500Y-104707642D01*
X112395499Y-104707642D01*
X112363477Y-104505466D01*
X112363476Y-104505462D01*
X112363476Y-104505461D01*
X112302834Y-104318826D01*
X112302833Y-104318825D01*
X112300220Y-104310781D01*
X112300218Y-104310778D01*
X112300218Y-104310776D01*
X112297970Y-104306365D01*
X112297663Y-104305577D01*
X112296933Y-104304329D01*
X112247671Y-104207648D01*
X112247668Y-104207642D01*
X112207287Y-104128390D01*
X112207285Y-104128387D01*
X112207284Y-104128385D01*
X112183310Y-104095388D01*
X112183308Y-104095386D01*
X112175680Y-104084887D01*
X112086971Y-103962786D01*
X111942213Y-103818028D01*
X111942212Y-103818027D01*
X111942211Y-103818026D01*
X111787202Y-103705408D01*
X111787199Y-103705406D01*
X111776613Y-103697715D01*
X111776612Y-103697714D01*
X111776610Y-103697713D01*
X111710880Y-103664222D01*
X111710880Y-103664221D01*
X111710878Y-103664221D01*
X111594228Y-103604783D01*
X111594221Y-103604780D01*
X111489316Y-103570694D01*
X111399534Y-103541522D01*
X111399532Y-103541521D01*
X111399530Y-103541521D01*
X111399529Y-103541520D01*
X111224995Y-103513878D01*
X111208409Y-103511251D01*
X111197354Y-103509500D01*
X111197352Y-103509500D01*
X110992648Y-103509500D01*
X110992647Y-103509500D01*
X110968327Y-103513351D01*
X110968326Y-103513350D01*
X110790468Y-103541521D01*
X110595777Y-103604780D01*
X110595764Y-103604786D01*
X110413397Y-103697708D01*
X110413385Y-103697715D01*
X110247787Y-103818027D01*
X110247784Y-103818029D01*
X110103029Y-103962784D01*
X110103027Y-103962787D01*
X109982715Y-104128385D01*
X109982708Y-104128397D01*
X109889786Y-104310764D01*
X109889780Y-104310777D01*
X109826521Y-104505468D01*
X109794500Y-104707642D01*
X105207642Y-104707642D01*
X102694871Y-102194871D01*
X120699500Y-102194871D01*
X120699500Y-103394889D01*
X120699501Y-103394906D01*
X120710000Y-103497684D01*
X120710001Y-103497687D01*
X120765185Y-103664219D01*
X120765187Y-103664224D01*
X120800069Y-103720776D01*
X120857288Y-103813544D01*
X120981344Y-103937600D01*
X121130666Y-104029702D01*
X121297203Y-104084887D01*
X121399991Y-104095388D01*
X122600008Y-104095387D01*
X122702797Y-104084887D01*
X122869334Y-104029702D01*
X123018656Y-103937600D01*
X123142712Y-103813544D01*
X123234814Y-103664222D01*
X123289999Y-103497685D01*
X123300500Y-103394897D01*
X123300499Y-102194880D01*
X123291879Y-102110500D01*
X123289999Y-102092091D01*
X123289998Y-102092088D01*
X123264526Y-102015220D01*
X123234814Y-101925554D01*
X123142712Y-101776232D01*
X123018656Y-101652176D01*
X122869334Y-101560074D01*
X122711265Y-101507695D01*
X122708445Y-101506529D01*
X122702792Y-101504887D01*
X122600019Y-101494388D01*
X122600010Y-101494388D01*
X121399998Y-101494388D01*
X121399981Y-101494389D01*
X121385959Y-101495821D01*
X121297198Y-101504888D01*
X121297193Y-101504889D01*
X121297032Y-101504944D01*
X121130667Y-101560073D01*
X121130665Y-101560074D01*
X121130663Y-101560075D01*
X121090913Y-101584593D01*
X120981340Y-101652178D01*
X120857290Y-101776228D01*
X120765187Y-101925550D01*
X120765172Y-101925594D01*
X120735474Y-102015218D01*
X120720300Y-102061011D01*
X120711852Y-102073957D01*
X120710365Y-102088518D01*
X120709542Y-102094769D01*
X120709387Y-102097801D01*
X120709396Y-102097992D01*
X120709355Y-102098402D01*
X120699500Y-102194871D01*
X102694871Y-102194871D01*
X101207642Y-100707642D01*
X126699500Y-100707642D01*
X126699500Y-100912356D01*
X126727381Y-101088388D01*
X126731522Y-101114534D01*
X126784903Y-101278823D01*
X126794782Y-101309225D01*
X126858692Y-101434654D01*
X126874390Y-101465464D01*
X126874392Y-101465467D01*
X126887715Y-101491613D01*
X127008028Y-101657213D01*
X127152786Y-101801971D01*
X127307749Y-101914556D01*
X127318390Y-101922287D01*
X127434607Y-101981503D01*
X127495154Y-102012353D01*
X127496043Y-102012824D01*
X127496249Y-102013025D01*
X127499629Y-102014662D01*
X127501637Y-102015660D01*
X127505403Y-102016722D01*
X127545488Y-102029746D01*
X127605135Y-102049126D01*
X127605136Y-102049127D01*
X127635246Y-102058910D01*
X127695465Y-102078477D01*
X127781401Y-102092088D01*
X127897648Y-102110500D01*
X127897649Y-102110500D01*
X128102351Y-102110500D01*
X128102352Y-102110500D01*
X128304534Y-102078477D01*
X128499219Y-102015220D01*
X128681610Y-101922287D01*
X128774590Y-101854732D01*
X128847213Y-101801971D01*
X128847213Y-101801969D01*
X128847272Y-101801927D01*
X128848031Y-101801153D01*
X128991966Y-101657219D01*
X128991968Y-101657215D01*
X128991971Y-101657213D01*
X129044730Y-101584593D01*
X129044732Y-101584591D01*
X129068172Y-101552327D01*
X129112287Y-101491610D01*
X129205220Y-101309219D01*
X129268477Y-101114534D01*
X129300500Y-100912352D01*
X129300500Y-100707648D01*
X129281763Y-100589349D01*
X129268479Y-100505478D01*
X129268477Y-100505468D01*
X129268477Y-100505466D01*
X129268473Y-100505455D01*
X129267340Y-100500734D01*
X129268029Y-100500568D01*
X129263316Y-100473328D01*
X129262829Y-100456265D01*
X129279245Y-100390985D01*
X129285876Y-100379436D01*
X129305721Y-100353511D01*
X129779811Y-99879423D01*
X129808061Y-99858275D01*
X129831153Y-99845667D01*
X129890578Y-99830500D01*
X130342948Y-99830500D01*
X130377883Y-99835523D01*
X130390307Y-99839171D01*
X130449085Y-99876945D01*
X130478110Y-99940501D01*
X130470269Y-100004781D01*
X130466783Y-100013370D01*
X130452205Y-100039622D01*
X130387711Y-100128391D01*
X130294786Y-100310764D01*
X130294783Y-100310771D01*
X130294781Y-100310776D01*
X130256512Y-100428555D01*
X130231521Y-100505468D01*
X130199500Y-100707642D01*
X130199500Y-100912356D01*
X130227381Y-101088388D01*
X130231522Y-101114534D01*
X130284903Y-101278823D01*
X130294782Y-101309225D01*
X130358692Y-101434654D01*
X130374390Y-101465464D01*
X130374392Y-101465467D01*
X130387715Y-101491613D01*
X130508028Y-101657213D01*
X130652786Y-101801971D01*
X130807749Y-101914556D01*
X130818390Y-101922287D01*
X130934607Y-101981503D01*
X130995154Y-102012353D01*
X130996043Y-102012824D01*
X130996249Y-102013025D01*
X130999629Y-102014662D01*
X131001637Y-102015660D01*
X131005403Y-102016722D01*
X131045488Y-102029746D01*
X131105135Y-102049126D01*
X131105136Y-102049127D01*
X131135246Y-102058910D01*
X131195465Y-102078477D01*
X131281401Y-102092088D01*
X131397648Y-102110500D01*
X131397649Y-102110500D01*
X131602351Y-102110500D01*
X131602352Y-102110500D01*
X131804534Y-102078477D01*
X131999219Y-102015220D01*
X132181610Y-101922287D01*
X132274590Y-101854732D01*
X132347213Y-101801971D01*
X132347213Y-101801969D01*
X132347272Y-101801927D01*
X132348031Y-101801153D01*
X132491966Y-101657219D01*
X132491968Y-101657215D01*
X132491971Y-101657213D01*
X132544730Y-101584593D01*
X132544732Y-101584591D01*
X132568172Y-101552327D01*
X132612287Y-101491610D01*
X132705220Y-101309219D01*
X132768477Y-101114534D01*
X132800500Y-100912352D01*
X132800500Y-100707648D01*
X132768477Y-100505466D01*
X132768476Y-100505462D01*
X132768476Y-100505461D01*
X132707832Y-100318819D01*
X132707830Y-100318814D01*
X132705220Y-100310781D01*
X132705218Y-100310778D01*
X132705218Y-100310776D01*
X132702979Y-100306382D01*
X132702669Y-100305587D01*
X132701935Y-100304332D01*
X132651433Y-100205218D01*
X132612287Y-100128390D01*
X132612285Y-100128387D01*
X132612284Y-100128385D01*
X132600585Y-100112283D01*
X132600583Y-100112281D01*
X132549383Y-100041808D01*
X132532914Y-100010595D01*
X132528562Y-99998398D01*
X132527543Y-99980597D01*
X132525904Y-99976001D01*
X132527009Y-99971248D01*
X132524572Y-99928642D01*
X132558929Y-99867803D01*
X132615548Y-99836362D01*
X132624554Y-99834132D01*
X132654346Y-99830500D01*
X133442568Y-99830500D01*
X133467839Y-99834133D01*
X133477500Y-99835521D01*
X133493881Y-99840331D01*
X133550898Y-99876116D01*
X133559827Y-99885985D01*
X133574780Y-99907685D01*
X133575164Y-99907451D01*
X133577712Y-99911609D01*
X133577715Y-99911614D01*
X133698028Y-100077213D01*
X133698030Y-100077215D01*
X133842787Y-100221972D01*
X133906796Y-100268476D01*
X133965018Y-100310776D01*
X134008390Y-100342287D01*
X134085202Y-100381425D01*
X134114045Y-100401760D01*
X134123459Y-100410652D01*
X134158679Y-100470996D01*
X134155683Y-100540801D01*
X134119521Y-100594505D01*
X134112519Y-100600573D01*
X134087606Y-100617350D01*
X134008387Y-100657714D01*
X134008385Y-100657715D01*
X133842787Y-100778027D01*
X133842784Y-100778029D01*
X133698029Y-100922784D01*
X133698027Y-100922787D01*
X133577715Y-101088385D01*
X133577708Y-101088397D01*
X133484786Y-101270764D01*
X133484780Y-101270777D01*
X133472288Y-101309225D01*
X133421522Y-101465465D01*
X133417381Y-101491610D01*
X133389500Y-101667642D01*
X133389500Y-101872356D01*
X133421521Y-102074530D01*
X133484780Y-102269221D01*
X133484786Y-102269234D01*
X133577708Y-102451601D01*
X133577709Y-102451602D01*
X133577715Y-102451613D01*
X133698028Y-102617213D01*
X133842786Y-102761971D01*
X133997749Y-102874556D01*
X134008390Y-102882287D01*
X134101080Y-102929515D01*
X134177699Y-102968555D01*
X134184329Y-102971933D01*
X134185923Y-102972866D01*
X134189610Y-102974652D01*
X134191638Y-102975660D01*
X134195406Y-102976723D01*
X134197767Y-102977490D01*
X134295135Y-103009126D01*
X134295136Y-103009127D01*
X134316873Y-103016189D01*
X134385465Y-103038477D01*
X134404697Y-103041523D01*
X134587648Y-103070500D01*
X134587649Y-103070500D01*
X134792351Y-103070500D01*
X134792352Y-103070500D01*
X134994534Y-103038477D01*
X135189219Y-102975220D01*
X135371610Y-102882287D01*
X135464590Y-102814732D01*
X135537213Y-102761971D01*
X135537213Y-102761969D01*
X135537272Y-102761927D01*
X135538031Y-102761153D01*
X135681966Y-102617219D01*
X135681968Y-102617215D01*
X135681971Y-102617213D01*
X135734730Y-102544593D01*
X135734732Y-102544591D01*
X135758172Y-102512327D01*
X135802287Y-102451610D01*
X135895220Y-102269219D01*
X135958477Y-102074534D01*
X135990500Y-101872352D01*
X135990500Y-101667648D01*
X135958477Y-101465466D01*
X135958476Y-101465462D01*
X135958476Y-101465461D01*
X135897833Y-101278823D01*
X135895220Y-101270781D01*
X135895218Y-101270778D01*
X135895218Y-101270776D01*
X135892977Y-101266378D01*
X135892667Y-101265583D01*
X135891932Y-101264327D01*
X135861503Y-101204607D01*
X135815606Y-101114530D01*
X135802287Y-101088390D01*
X135794556Y-101077749D01*
X135681971Y-100922786D01*
X135537213Y-100778028D01*
X135537212Y-100778027D01*
X135537209Y-100778024D01*
X135371616Y-100657716D01*
X135371337Y-100657574D01*
X135365006Y-100654348D01*
X135294799Y-100618575D01*
X135265956Y-100598242D01*
X135256538Y-100589347D01*
X135247553Y-100573953D01*
X135244005Y-100570602D01*
X135242831Y-100565862D01*
X135221320Y-100529005D01*
X135224315Y-100459200D01*
X135260474Y-100405498D01*
X135267479Y-100399427D01*
X135292386Y-100382652D01*
X135371610Y-100342287D01*
X135403912Y-100318819D01*
X135414984Y-100310775D01*
X135537107Y-100222048D01*
X135537213Y-100221971D01*
X135537213Y-100221969D01*
X135537271Y-100221928D01*
X135538019Y-100221165D01*
X135681966Y-100077219D01*
X135681968Y-100077215D01*
X135681971Y-100077213D01*
X135743905Y-99991966D01*
X135802287Y-99911610D01*
X135895220Y-99729219D01*
X135958477Y-99534534D01*
X135990500Y-99332352D01*
X135990500Y-99127648D01*
X135966403Y-98975513D01*
X135965899Y-98940231D01*
X135968755Y-98918131D01*
X135989374Y-98864035D01*
X135991902Y-98860337D01*
X135996693Y-98854564D01*
X135996865Y-98854173D01*
X135997204Y-98853947D01*
X136006561Y-98842671D01*
X138261591Y-96587642D01*
X141009500Y-96587642D01*
X141009500Y-96792356D01*
X141041521Y-96994530D01*
X141104780Y-97189221D01*
X141104786Y-97189234D01*
X141197708Y-97371601D01*
X141197713Y-97371610D01*
X141197715Y-97371613D01*
X141318028Y-97537213D01*
X141462786Y-97681971D01*
X141617749Y-97794556D01*
X141628390Y-97802287D01*
X141706878Y-97842278D01*
X141708506Y-97843171D01*
X141710463Y-97845134D01*
X141734045Y-97861760D01*
X141743459Y-97870652D01*
X141754146Y-97888963D01*
X141757829Y-97892658D01*
X141758724Y-97896806D01*
X141778679Y-97930996D01*
X141775683Y-98000801D01*
X141739521Y-98054505D01*
X141732519Y-98060573D01*
X141707606Y-98077350D01*
X141628387Y-98117714D01*
X141628385Y-98117715D01*
X141462787Y-98238027D01*
X141462784Y-98238029D01*
X141318029Y-98382784D01*
X141318028Y-98382786D01*
X141197715Y-98548385D01*
X141197708Y-98548397D01*
X141104786Y-98730764D01*
X141104780Y-98730777D01*
X141041521Y-98925468D01*
X141009500Y-99127642D01*
X141009500Y-99332356D01*
X141038167Y-99513351D01*
X141041522Y-99534534D01*
X141064347Y-99604780D01*
X141104778Y-99729214D01*
X141104778Y-99729217D01*
X141104780Y-99729222D01*
X141104781Y-99729223D01*
X141156385Y-99830500D01*
X141193315Y-99902980D01*
X141197714Y-99911611D01*
X141197717Y-99911616D01*
X141318026Y-100077211D01*
X141462787Y-100221972D01*
X141526796Y-100268476D01*
X141585018Y-100310776D01*
X141628390Y-100342287D01*
X141705202Y-100381425D01*
X141734045Y-100401760D01*
X141743459Y-100410652D01*
X141778679Y-100470996D01*
X141775683Y-100540801D01*
X141739521Y-100594505D01*
X141732519Y-100600573D01*
X141707606Y-100617350D01*
X141628387Y-100657714D01*
X141628385Y-100657715D01*
X141462787Y-100778027D01*
X141462784Y-100778029D01*
X141318029Y-100922784D01*
X141318027Y-100922787D01*
X141197715Y-101088385D01*
X141197708Y-101088397D01*
X141104786Y-101270764D01*
X141104780Y-101270777D01*
X141092288Y-101309225D01*
X141041522Y-101465465D01*
X141037381Y-101491610D01*
X141009500Y-101667642D01*
X141009500Y-101872356D01*
X141041521Y-102074530D01*
X141104780Y-102269221D01*
X141104786Y-102269234D01*
X141197708Y-102451601D01*
X141197709Y-102451602D01*
X141197715Y-102451613D01*
X141318028Y-102617213D01*
X141462786Y-102761971D01*
X141617749Y-102874556D01*
X141628390Y-102882287D01*
X141706878Y-102922278D01*
X141708506Y-102923171D01*
X141710463Y-102925134D01*
X141734045Y-102941760D01*
X141743459Y-102950652D01*
X141754146Y-102968963D01*
X141757829Y-102972658D01*
X141758724Y-102976806D01*
X141778679Y-103010996D01*
X141775683Y-103080801D01*
X141739521Y-103134505D01*
X141732519Y-103140573D01*
X141707606Y-103157350D01*
X141628387Y-103197714D01*
X141628385Y-103197715D01*
X141462787Y-103318027D01*
X141462784Y-103318029D01*
X141318029Y-103462784D01*
X141318027Y-103462787D01*
X141197715Y-103628385D01*
X141197708Y-103628397D01*
X141104786Y-103810764D01*
X141104780Y-103810777D01*
X141041521Y-104005468D01*
X141009500Y-104207642D01*
X141009500Y-104412356D01*
X141041521Y-104614530D01*
X141104780Y-104809221D01*
X141104786Y-104809234D01*
X141197708Y-104991601D01*
X141197709Y-104991602D01*
X141197715Y-104991613D01*
X141318028Y-105157213D01*
X141462786Y-105301971D01*
X141617749Y-105414556D01*
X141628390Y-105422287D01*
X141744607Y-105481503D01*
X141805154Y-105512353D01*
X141806043Y-105512824D01*
X141806249Y-105513025D01*
X141809629Y-105514662D01*
X141811637Y-105515660D01*
X141815403Y-105516722D01*
X141855488Y-105529746D01*
X141915135Y-105549126D01*
X141915136Y-105549127D01*
X141958612Y-105563253D01*
X142005465Y-105578477D01*
X142106557Y-105594488D01*
X142207648Y-105610500D01*
X142207649Y-105610500D01*
X142412351Y-105610500D01*
X142412352Y-105610500D01*
X142614534Y-105578477D01*
X142809219Y-105515220D01*
X142991610Y-105422287D01*
X143147231Y-105309223D01*
X143157213Y-105301971D01*
X143157215Y-105301968D01*
X143157219Y-105301966D01*
X143157224Y-105301960D01*
X143157274Y-105301925D01*
X143158031Y-105301153D01*
X143301966Y-105157219D01*
X143301968Y-105157215D01*
X143301971Y-105157213D01*
X143354730Y-105084593D01*
X143354732Y-105084591D01*
X143378172Y-105052327D01*
X143422287Y-104991610D01*
X143515220Y-104809219D01*
X143578477Y-104614534D01*
X143610500Y-104412352D01*
X143610500Y-104207648D01*
X143597946Y-104128386D01*
X143578477Y-104005465D01*
X143549127Y-103915137D01*
X143515220Y-103810781D01*
X143515218Y-103810778D01*
X143515218Y-103810776D01*
X143512981Y-103806386D01*
X143512671Y-103805591D01*
X143511935Y-103804333D01*
X143457610Y-103697715D01*
X143422287Y-103628390D01*
X143405138Y-103604786D01*
X143405134Y-103604780D01*
X143405133Y-103604779D01*
X143301972Y-103462787D01*
X143157209Y-103318024D01*
X142991616Y-103197716D01*
X142991337Y-103197574D01*
X142985006Y-103194348D01*
X142914799Y-103158575D01*
X142885956Y-103138242D01*
X142876538Y-103129347D01*
X142867553Y-103113953D01*
X142864005Y-103110602D01*
X142862831Y-103105862D01*
X142841320Y-103069005D01*
X142844315Y-102999200D01*
X142880481Y-102945491D01*
X142887486Y-102939421D01*
X142912396Y-102922648D01*
X142991610Y-102882287D01*
X143012770Y-102866913D01*
X143157213Y-102761971D01*
X143157214Y-102761969D01*
X143157274Y-102761926D01*
X143158036Y-102761148D01*
X143301966Y-102617219D01*
X143301968Y-102617215D01*
X143301971Y-102617213D01*
X143354730Y-102544593D01*
X143354732Y-102544591D01*
X143378172Y-102512327D01*
X143422287Y-102451610D01*
X143515220Y-102269219D01*
X143578477Y-102074534D01*
X143610500Y-101872352D01*
X143610500Y-101667648D01*
X143578477Y-101465466D01*
X143578476Y-101465462D01*
X143578476Y-101465461D01*
X143517833Y-101278823D01*
X143515220Y-101270781D01*
X143515218Y-101270778D01*
X143515218Y-101270776D01*
X143512977Y-101266378D01*
X143512667Y-101265583D01*
X143511932Y-101264327D01*
X143481503Y-101204607D01*
X143435606Y-101114530D01*
X143422287Y-101088390D01*
X143414556Y-101077749D01*
X143301971Y-100922786D01*
X143157213Y-100778028D01*
X143157212Y-100778027D01*
X143157209Y-100778024D01*
X142991616Y-100657716D01*
X142991337Y-100657574D01*
X142985006Y-100654348D01*
X142914799Y-100618575D01*
X142885956Y-100598242D01*
X142876538Y-100589347D01*
X142867553Y-100573953D01*
X142864005Y-100570602D01*
X142862831Y-100565862D01*
X142841320Y-100529005D01*
X142844315Y-100459200D01*
X142880474Y-100405498D01*
X142887479Y-100399427D01*
X142912386Y-100382652D01*
X142991610Y-100342287D01*
X143023912Y-100318819D01*
X143034984Y-100310775D01*
X143157107Y-100222048D01*
X143157213Y-100221971D01*
X143157213Y-100221969D01*
X143157271Y-100221928D01*
X143158019Y-100221165D01*
X143301966Y-100077219D01*
X143301968Y-100077215D01*
X143301971Y-100077213D01*
X143363905Y-99991966D01*
X143422287Y-99911610D01*
X143515220Y-99729219D01*
X143578477Y-99534534D01*
X143610500Y-99332352D01*
X143610500Y-99127648D01*
X143578477Y-98925466D01*
X143578475Y-98925461D01*
X143578475Y-98925458D01*
X143569445Y-98897666D01*
X143569437Y-98897646D01*
X143555312Y-98854173D01*
X143521296Y-98749481D01*
X143516713Y-98735378D01*
X143515659Y-98731635D01*
X143514662Y-98729629D01*
X143512870Y-98725930D01*
X143511932Y-98724327D01*
X143497224Y-98695462D01*
X143481503Y-98664607D01*
X143422287Y-98548390D01*
X143414556Y-98537749D01*
X143301971Y-98382786D01*
X143157213Y-98238028D01*
X143157212Y-98238027D01*
X143157209Y-98238024D01*
X142991616Y-98117716D01*
X142991337Y-98117574D01*
X142985006Y-98114348D01*
X142914799Y-98078575D01*
X142885956Y-98058242D01*
X142876538Y-98049347D01*
X142867553Y-98033953D01*
X142864005Y-98030602D01*
X142862831Y-98025862D01*
X142841320Y-97989005D01*
X142844315Y-97919200D01*
X142880481Y-97865491D01*
X142887486Y-97859421D01*
X142912396Y-97842648D01*
X142931897Y-97832712D01*
X142991610Y-97802287D01*
X143012770Y-97786913D01*
X143157213Y-97681971D01*
X143157214Y-97681969D01*
X143157274Y-97681926D01*
X143158036Y-97681148D01*
X143301966Y-97537219D01*
X143301968Y-97537215D01*
X143301971Y-97537213D01*
X143406741Y-97393007D01*
X143406890Y-97392802D01*
X143406894Y-97392796D01*
X143422287Y-97371610D01*
X143515220Y-97189219D01*
X143578477Y-96994534D01*
X143610500Y-96792352D01*
X143610500Y-96587648D01*
X143578477Y-96385466D01*
X143564609Y-96342786D01*
X143549127Y-96295137D01*
X143516721Y-96195401D01*
X143515659Y-96191635D01*
X143514666Y-96189638D01*
X143512867Y-96185925D01*
X143511935Y-96184332D01*
X143463865Y-96089991D01*
X143422287Y-96008390D01*
X143415627Y-95999223D01*
X143405134Y-95984780D01*
X143405133Y-95984779D01*
X143301972Y-95842787D01*
X143157211Y-95698026D01*
X143002202Y-95585408D01*
X143002199Y-95585406D01*
X142991613Y-95577715D01*
X142991612Y-95577714D01*
X142991610Y-95577713D01*
X142985535Y-95574617D01*
X142985531Y-95574615D01*
X142931898Y-95547288D01*
X142809223Y-95484781D01*
X142614534Y-95421522D01*
X142614532Y-95421521D01*
X142614530Y-95421521D01*
X142614529Y-95421520D01*
X142439995Y-95393878D01*
X142423409Y-95391251D01*
X142412354Y-95389500D01*
X142412352Y-95389500D01*
X142207648Y-95389500D01*
X142207647Y-95389500D01*
X142183327Y-95393351D01*
X142183326Y-95393350D01*
X142005468Y-95421521D01*
X141810777Y-95484780D01*
X141810764Y-95484786D01*
X141628397Y-95577708D01*
X141628385Y-95577715D01*
X141462787Y-95698027D01*
X141462784Y-95698029D01*
X141318029Y-95842784D01*
X141318027Y-95842787D01*
X141197715Y-96008385D01*
X141197708Y-96008397D01*
X141104786Y-96190764D01*
X141104780Y-96190777D01*
X141041521Y-96385468D01*
X141009500Y-96587642D01*
X138261591Y-96587642D01*
X141199816Y-93649418D01*
X141228061Y-93628275D01*
X141251153Y-93615667D01*
X141310578Y-93600500D01*
X142062568Y-93600500D01*
X142097500Y-93605521D01*
X142113881Y-93610331D01*
X142170898Y-93646116D01*
X142179827Y-93655985D01*
X142194780Y-93677685D01*
X142195164Y-93677451D01*
X142197712Y-93681609D01*
X142197715Y-93681614D01*
X142318028Y-93847213D01*
X142462786Y-93991971D01*
X142617749Y-94104556D01*
X142628390Y-94112287D01*
X142728275Y-94163181D01*
X142729651Y-94163882D01*
X142804329Y-94201933D01*
X142805930Y-94202870D01*
X142809620Y-94204658D01*
X142811638Y-94205660D01*
X142815406Y-94206723D01*
X142857956Y-94220547D01*
X142915135Y-94239126D01*
X142915136Y-94239127D01*
X142958612Y-94253253D01*
X143005465Y-94268477D01*
X143106557Y-94284488D01*
X143207648Y-94300500D01*
X143207649Y-94300500D01*
X143412351Y-94300500D01*
X143412352Y-94300500D01*
X143614534Y-94268477D01*
X143809219Y-94205220D01*
X143991610Y-94112287D01*
X144069108Y-94055981D01*
X144094940Y-94037214D01*
X144110982Y-94025558D01*
X144157213Y-93991971D01*
X144157214Y-93991968D01*
X144157216Y-93991967D01*
X144157219Y-93991966D01*
X144157221Y-93991963D01*
X144157274Y-93991925D01*
X144158032Y-93991152D01*
X144301966Y-93847219D01*
X144301968Y-93847215D01*
X144301971Y-93847213D01*
X144354730Y-93774593D01*
X144354732Y-93774591D01*
X144378172Y-93742327D01*
X144422287Y-93681610D01*
X144515220Y-93499219D01*
X144578477Y-93304534D01*
X144610500Y-93102352D01*
X144610500Y-92897648D01*
X144578477Y-92695466D01*
X144578476Y-92695462D01*
X144578476Y-92695461D01*
X144517833Y-92508823D01*
X144515220Y-92500781D01*
X144515218Y-92500778D01*
X144515218Y-92500776D01*
X144512977Y-92496378D01*
X144512667Y-92495583D01*
X144511932Y-92494327D01*
X144481503Y-92434607D01*
X144442045Y-92357167D01*
X144422287Y-92318390D01*
X144414556Y-92307749D01*
X144301971Y-92152786D01*
X144157213Y-92008028D01*
X144157212Y-92008027D01*
X144157211Y-92008026D01*
X144002209Y-91895413D01*
X144002205Y-91895410D01*
X143991613Y-91887715D01*
X143991612Y-91887714D01*
X143991610Y-91887713D01*
X143963171Y-91873222D01*
X143934654Y-91858691D01*
X143934653Y-91858691D01*
X143809223Y-91794781D01*
X143614534Y-91731522D01*
X143614532Y-91731521D01*
X143614530Y-91731521D01*
X143614529Y-91731520D01*
X143439995Y-91703878D01*
X143423409Y-91701251D01*
X143412354Y-91699500D01*
X143412352Y-91699500D01*
X143207648Y-91699500D01*
X143207647Y-91699500D01*
X143183327Y-91703351D01*
X143183326Y-91703350D01*
X143005468Y-91731521D01*
X142810777Y-91794780D01*
X142810764Y-91794786D01*
X142628397Y-91887708D01*
X142628385Y-91887715D01*
X142462787Y-92008027D01*
X142462784Y-92008029D01*
X142318030Y-92152783D01*
X142197713Y-92318387D01*
X142195170Y-92322539D01*
X142194567Y-92322170D01*
X142178638Y-92344759D01*
X142166919Y-92357167D01*
X142109157Y-92391720D01*
X142098218Y-92394679D01*
X142096308Y-92395196D01*
X142063924Y-92399500D01*
X140920934Y-92399500D01*
X140841917Y-92420671D01*
X140841840Y-92420694D01*
X140768214Y-92440423D01*
X140768209Y-92440426D01*
X140755490Y-92447769D01*
X140755484Y-92447771D01*
X140631298Y-92519470D01*
X140631294Y-92519472D01*
X140631290Y-92519475D01*
X140631282Y-92519481D01*
X140631278Y-92519484D01*
X140631276Y-92519485D01*
X136214787Y-96935976D01*
X136192066Y-96952986D01*
X136186537Y-96957125D01*
X136176610Y-96962546D01*
X136108337Y-96977400D01*
X136042872Y-96952986D01*
X136000999Y-96897054D01*
X135998312Y-96889848D01*
X135990499Y-96846528D01*
X135990499Y-96090008D01*
X135990499Y-96089998D01*
X135990498Y-96089981D01*
X135979999Y-95987203D01*
X135979998Y-95987200D01*
X135979197Y-95984782D01*
X135979190Y-95984761D01*
X135979190Y-95984760D01*
X135932144Y-95842787D01*
X135924814Y-95820666D01*
X135832712Y-95671344D01*
X135708656Y-95547288D01*
X135559334Y-95455186D01*
X135401265Y-95402807D01*
X135398445Y-95401641D01*
X135392792Y-95399999D01*
X135290019Y-95389500D01*
X135290010Y-95389500D01*
X134089998Y-95389500D01*
X134089981Y-95389501D01*
X134075959Y-95390933D01*
X133987198Y-95400000D01*
X133987193Y-95400001D01*
X133987032Y-95400056D01*
X133820667Y-95455185D01*
X133820665Y-95455186D01*
X133820663Y-95455187D01*
X133721115Y-95516588D01*
X133671340Y-95547290D01*
X133547290Y-95671340D01*
X133455187Y-95820662D01*
X133455152Y-95820770D01*
X133411050Y-95953857D01*
X133411044Y-95953875D01*
X133400001Y-95987203D01*
X133400001Y-95987204D01*
X133400000Y-95987204D01*
X133399230Y-95994735D01*
X133399229Y-95994741D01*
X133389500Y-96089973D01*
X133389500Y-96089981D01*
X133389500Y-96089983D01*
X133389500Y-97290001D01*
X133389501Y-97290018D01*
X133400000Y-97392796D01*
X133400001Y-97392799D01*
X133433713Y-97494534D01*
X133455186Y-97559334D01*
X133547288Y-97708656D01*
X133671344Y-97832712D01*
X133820666Y-97924814D01*
X133885646Y-97946346D01*
X133917227Y-97962103D01*
X133927957Y-97969532D01*
X133971870Y-98023877D01*
X133979431Y-98093336D01*
X133952001Y-98151614D01*
X133946108Y-98158573D01*
X133924364Y-98178758D01*
X133842806Y-98238013D01*
X133842782Y-98238031D01*
X133698028Y-98382786D01*
X133577713Y-98548387D01*
X133575170Y-98552539D01*
X133574567Y-98552170D01*
X133558638Y-98574759D01*
X133546919Y-98587167D01*
X133489157Y-98621720D01*
X133478218Y-98624679D01*
X133476308Y-98625196D01*
X133443924Y-98629500D01*
X129500934Y-98629500D01*
X129421917Y-98650671D01*
X129421840Y-98650694D01*
X129348214Y-98670423D01*
X129348209Y-98670426D01*
X129335490Y-98677769D01*
X129335484Y-98677771D01*
X129211298Y-98749470D01*
X129211280Y-98749482D01*
X129099478Y-98861286D01*
X129099477Y-98861286D01*
X128457449Y-99503313D01*
X128457447Y-99503314D01*
X128457447Y-99503315D01*
X128429192Y-99524466D01*
X128414207Y-99532648D01*
X128348594Y-99547659D01*
X128335307Y-99546995D01*
X128309373Y-99542224D01*
X128309269Y-99542659D01*
X128304529Y-99541520D01*
X128129995Y-99513878D01*
X128113409Y-99511251D01*
X128102354Y-99509500D01*
X128102352Y-99509500D01*
X127897648Y-99509500D01*
X127897647Y-99509500D01*
X127873327Y-99513351D01*
X127873326Y-99513350D01*
X127695468Y-99541521D01*
X127500777Y-99604780D01*
X127500764Y-99604786D01*
X127318397Y-99697708D01*
X127318385Y-99697715D01*
X127152787Y-99818027D01*
X127152784Y-99818029D01*
X127008029Y-99962784D01*
X127008027Y-99962787D01*
X126887715Y-100128385D01*
X126887708Y-100128397D01*
X126794786Y-100310764D01*
X126794783Y-100310771D01*
X126794781Y-100310776D01*
X126756512Y-100428555D01*
X126731521Y-100505468D01*
X126699500Y-100707642D01*
X101207642Y-100707642D01*
X100500000Y-100000000D01*
X102064852Y-100000000D01*
X102064852Y-98897642D01*
X116389500Y-98897642D01*
X116389500Y-99102356D01*
X116421521Y-99304530D01*
X116421522Y-99304534D01*
X116430561Y-99332352D01*
X116484780Y-99499221D01*
X116484786Y-99499234D01*
X116577708Y-99681601D01*
X116577713Y-99681610D01*
X116577715Y-99681613D01*
X116698028Y-99847213D01*
X116842786Y-99991971D01*
X116997749Y-100104556D01*
X117008390Y-100112287D01*
X117124607Y-100171503D01*
X117185154Y-100202353D01*
X117186043Y-100202824D01*
X117186249Y-100203025D01*
X117189629Y-100204662D01*
X117191637Y-100205660D01*
X117195403Y-100206722D01*
X117235488Y-100219746D01*
X117295135Y-100239126D01*
X117295136Y-100239127D01*
X117338612Y-100253253D01*
X117385465Y-100268477D01*
X117486557Y-100284488D01*
X117587648Y-100300500D01*
X117587649Y-100300500D01*
X117792351Y-100300500D01*
X117792352Y-100300500D01*
X117994534Y-100268477D01*
X118189219Y-100205220D01*
X118371610Y-100112287D01*
X118439294Y-100063111D01*
X118488470Y-100027385D01*
X118519581Y-100004781D01*
X118537213Y-99991971D01*
X118537214Y-99991969D01*
X118537275Y-99991925D01*
X118538036Y-99991148D01*
X118681966Y-99847219D01*
X118681968Y-99847215D01*
X118681971Y-99847213D01*
X118767697Y-99729219D01*
X118802287Y-99681610D01*
X118893133Y-99503315D01*
X118895218Y-99499223D01*
X118895219Y-99499221D01*
X118895220Y-99499219D01*
X118958477Y-99304534D01*
X118990500Y-99102352D01*
X118990500Y-98897648D01*
X118990499Y-98897642D01*
X124009500Y-98897642D01*
X124009500Y-99102356D01*
X124041521Y-99304530D01*
X124041522Y-99304534D01*
X124050561Y-99332352D01*
X124104780Y-99499221D01*
X124104786Y-99499234D01*
X124197708Y-99681601D01*
X124197713Y-99681610D01*
X124197715Y-99681613D01*
X124318028Y-99847213D01*
X124462786Y-99991971D01*
X124617749Y-100104556D01*
X124628390Y-100112287D01*
X124744607Y-100171503D01*
X124805154Y-100202353D01*
X124806043Y-100202824D01*
X124806249Y-100203025D01*
X124809629Y-100204662D01*
X124811637Y-100205660D01*
X124815403Y-100206722D01*
X124855488Y-100219746D01*
X124915135Y-100239126D01*
X124915136Y-100239127D01*
X124958612Y-100253253D01*
X125005465Y-100268477D01*
X125106557Y-100284488D01*
X125207648Y-100300500D01*
X125207649Y-100300500D01*
X125412351Y-100300500D01*
X125412352Y-100300500D01*
X125614534Y-100268477D01*
X125809219Y-100205220D01*
X125991610Y-100112287D01*
X126059294Y-100063111D01*
X126108470Y-100027385D01*
X126139581Y-100004781D01*
X126157213Y-99991971D01*
X126157214Y-99991969D01*
X126157275Y-99991925D01*
X126158036Y-99991148D01*
X126301966Y-99847219D01*
X126301968Y-99847215D01*
X126301971Y-99847213D01*
X126387697Y-99729219D01*
X126422287Y-99681610D01*
X126513133Y-99503315D01*
X126515218Y-99499223D01*
X126515219Y-99499221D01*
X126515220Y-99499219D01*
X126578477Y-99304534D01*
X126610500Y-99102352D01*
X126610500Y-98897648D01*
X126603084Y-98850829D01*
X126587031Y-98749475D01*
X126578477Y-98695465D01*
X126549127Y-98605137D01*
X126515220Y-98500781D01*
X126515218Y-98500778D01*
X126515218Y-98500776D01*
X126512976Y-98496376D01*
X126512664Y-98495576D01*
X126511934Y-98494329D01*
X126461658Y-98395660D01*
X126455098Y-98382786D01*
X126422287Y-98318390D01*
X126410585Y-98302284D01*
X126404970Y-98294556D01*
X126323181Y-98181980D01*
X126301971Y-98152786D01*
X126157213Y-98008028D01*
X126098417Y-97965311D01*
X126002209Y-97895413D01*
X126002205Y-97895410D01*
X125991613Y-97887715D01*
X125991612Y-97887714D01*
X125991610Y-97887713D01*
X125958127Y-97870652D01*
X125934654Y-97858691D01*
X125934653Y-97858691D01*
X125809223Y-97794781D01*
X125614534Y-97731522D01*
X125614532Y-97731521D01*
X125614530Y-97731521D01*
X125614529Y-97731520D01*
X125439995Y-97703878D01*
X125423409Y-97701251D01*
X125412354Y-97699500D01*
X125412352Y-97699500D01*
X125207648Y-97699500D01*
X125207647Y-97699500D01*
X125183327Y-97703351D01*
X125183326Y-97703350D01*
X125005468Y-97731521D01*
X124810777Y-97794780D01*
X124810764Y-97794786D01*
X124628397Y-97887708D01*
X124628385Y-97887715D01*
X124462787Y-98008027D01*
X124462784Y-98008029D01*
X124318029Y-98152784D01*
X124318027Y-98152787D01*
X124197715Y-98318385D01*
X124197708Y-98318397D01*
X124104786Y-98500764D01*
X124104780Y-98500777D01*
X124041521Y-98695468D01*
X124009500Y-98897642D01*
X118990499Y-98897642D01*
X118967031Y-98749475D01*
X118958477Y-98695465D01*
X118929127Y-98605137D01*
X118895220Y-98500781D01*
X118895218Y-98500778D01*
X118895218Y-98500776D01*
X118892976Y-98496376D01*
X118892664Y-98495576D01*
X118891934Y-98494329D01*
X118841658Y-98395660D01*
X118835098Y-98382786D01*
X118802287Y-98318390D01*
X118790585Y-98302284D01*
X118784970Y-98294556D01*
X118703181Y-98181980D01*
X118681971Y-98152786D01*
X118537213Y-98008028D01*
X118478417Y-97965311D01*
X118382209Y-97895413D01*
X118382205Y-97895410D01*
X118371613Y-97887715D01*
X118371612Y-97887714D01*
X118371610Y-97887713D01*
X118338127Y-97870652D01*
X118314654Y-97858691D01*
X118314653Y-97858691D01*
X118189223Y-97794781D01*
X117994534Y-97731522D01*
X117994532Y-97731521D01*
X117994530Y-97731521D01*
X117994529Y-97731520D01*
X117819995Y-97703878D01*
X117803409Y-97701251D01*
X117792354Y-97699500D01*
X117792352Y-97699500D01*
X117587648Y-97699500D01*
X117587647Y-97699500D01*
X117563327Y-97703351D01*
X117563326Y-97703350D01*
X117385468Y-97731521D01*
X117190777Y-97794780D01*
X117190764Y-97794786D01*
X117008397Y-97887708D01*
X117008385Y-97887715D01*
X116842787Y-98008027D01*
X116842784Y-98008029D01*
X116698029Y-98152784D01*
X116698027Y-98152787D01*
X116577715Y-98318385D01*
X116577708Y-98318397D01*
X116484786Y-98500764D01*
X116484780Y-98500777D01*
X116421521Y-98695468D01*
X116389500Y-98897642D01*
X102064852Y-98897642D01*
X102064852Y-97087642D01*
X113294500Y-97087642D01*
X113294500Y-97292356D01*
X113326521Y-97494530D01*
X113326522Y-97494534D01*
X113347577Y-97559333D01*
X113389780Y-97689221D01*
X113389783Y-97689228D01*
X113439557Y-97786913D01*
X113447391Y-97802287D01*
X113462893Y-97832712D01*
X113472992Y-97852533D01*
X113482714Y-97871612D01*
X113495024Y-97888555D01*
X113603028Y-98037213D01*
X113747786Y-98181971D01*
X113902749Y-98294556D01*
X113913390Y-98302287D01*
X114029607Y-98361503D01*
X114090154Y-98392353D01*
X114091043Y-98392824D01*
X114091249Y-98393025D01*
X114094629Y-98394662D01*
X114096637Y-98395660D01*
X114100403Y-98396722D01*
X114140488Y-98409746D01*
X114200135Y-98429126D01*
X114200136Y-98429127D01*
X114243612Y-98443253D01*
X114290465Y-98458477D01*
X114391557Y-98474488D01*
X114492648Y-98490500D01*
X114492649Y-98490500D01*
X114697351Y-98490500D01*
X114697352Y-98490500D01*
X114899534Y-98458477D01*
X115094219Y-98395220D01*
X115276610Y-98302287D01*
X115369590Y-98234732D01*
X115442213Y-98181971D01*
X115442213Y-98181969D01*
X115442272Y-98181927D01*
X115443031Y-98181153D01*
X115586966Y-98037219D01*
X115586968Y-98037215D01*
X115586971Y-98037213D01*
X115668632Y-97924814D01*
X115707287Y-97871610D01*
X115800220Y-97689219D01*
X115863477Y-97494534D01*
X115895500Y-97292352D01*
X115895500Y-97087648D01*
X115863477Y-96885466D01*
X115858370Y-96869749D01*
X115825465Y-96768477D01*
X115805400Y-96706722D01*
X115801723Y-96695406D01*
X115800660Y-96691639D01*
X115799652Y-96689610D01*
X115797866Y-96685923D01*
X115796933Y-96684329D01*
X115747671Y-96587648D01*
X115747668Y-96587642D01*
X115707287Y-96508390D01*
X115695354Y-96491966D01*
X115586971Y-96342786D01*
X115442213Y-96198028D01*
X115442212Y-96198027D01*
X115442211Y-96198026D01*
X115287209Y-96085413D01*
X115287205Y-96085410D01*
X115276613Y-96077715D01*
X115276612Y-96077714D01*
X115276610Y-96077713D01*
X115248171Y-96063222D01*
X115219654Y-96048691D01*
X115219653Y-96048691D01*
X115094223Y-95984781D01*
X114899534Y-95921522D01*
X114899532Y-95921521D01*
X114899530Y-95921521D01*
X114899529Y-95921520D01*
X114724995Y-95893878D01*
X114708409Y-95891251D01*
X114697354Y-95889500D01*
X114697352Y-95889500D01*
X114492648Y-95889500D01*
X114492647Y-95889500D01*
X114468327Y-95893351D01*
X114468326Y-95893350D01*
X114290468Y-95921521D01*
X114095777Y-95984780D01*
X114095764Y-95984786D01*
X113913397Y-96077708D01*
X113913385Y-96077715D01*
X113747787Y-96198027D01*
X113747786Y-96198028D01*
X113603029Y-96342784D01*
X113603029Y-96342785D01*
X113603028Y-96342786D01*
X113599177Y-96348087D01*
X113482715Y-96508385D01*
X113482708Y-96508397D01*
X113389786Y-96690764D01*
X113389780Y-96690777D01*
X113326521Y-96885468D01*
X113294500Y-97087642D01*
X102064852Y-97087642D01*
X102064852Y-90600500D01*
X107095615Y-90600500D01*
X107130547Y-90605521D01*
X107143866Y-90609432D01*
X107202644Y-90647206D01*
X107231670Y-90710761D01*
X107232502Y-90716547D01*
X107229323Y-90767083D01*
X107223999Y-90786436D01*
X107224659Y-90789414D01*
X107222559Y-90805225D01*
X107199500Y-90921148D01*
X107199500Y-91078846D01*
X107230257Y-91233471D01*
X107230261Y-91233489D01*
X107230263Y-91233500D01*
X107290598Y-91379165D01*
X107290603Y-91379174D01*
X107290613Y-91379191D01*
X107378211Y-91510290D01*
X107378212Y-91510291D01*
X107378217Y-91510297D01*
X107489701Y-91621781D01*
X107489707Y-91621786D01*
X107489711Y-91621789D01*
X107620814Y-91709390D01*
X107620827Y-91709397D01*
X107766498Y-91769735D01*
X107766503Y-91769737D01*
X107892402Y-91794780D01*
X107913512Y-91798979D01*
X107916247Y-91799703D01*
X107921155Y-91800500D01*
X108078844Y-91800500D01*
X108082964Y-91800500D01*
X108090814Y-91798118D01*
X108233497Y-91769737D01*
X108379179Y-91709394D01*
X108379185Y-91709390D01*
X108496055Y-91631299D01*
X108527885Y-91616071D01*
X108547574Y-91609906D01*
X108559529Y-91606164D01*
X108596578Y-91600500D01*
X113277073Y-91600500D01*
X113312005Y-91605521D01*
X113337249Y-91612934D01*
X113389995Y-91644230D01*
X116496823Y-94751059D01*
X116496824Y-94751060D01*
X116517975Y-94779315D01*
X116525467Y-94793036D01*
X116540319Y-94861301D01*
X116539577Y-94871683D01*
X116526377Y-94919137D01*
X116484782Y-95000772D01*
X116484782Y-95000773D01*
X116421521Y-95195468D01*
X116389500Y-95397642D01*
X116389500Y-95602356D01*
X116421521Y-95804530D01*
X116421522Y-95804534D01*
X116433950Y-95842784D01*
X116484780Y-95999221D01*
X116484786Y-95999234D01*
X116577708Y-96181601D01*
X116577712Y-96181608D01*
X116577715Y-96181613D01*
X116698028Y-96347213D01*
X116842786Y-96491971D01*
X116974477Y-96587648D01*
X117008390Y-96612287D01*
X117124607Y-96671503D01*
X117184327Y-96701932D01*
X117184326Y-96701932D01*
X117191650Y-96705663D01*
X117195403Y-96706722D01*
X117235488Y-96719746D01*
X117295135Y-96739126D01*
X117295136Y-96739127D01*
X117338612Y-96753253D01*
X117385465Y-96768477D01*
X117486557Y-96784488D01*
X117587648Y-96800500D01*
X117587649Y-96800500D01*
X117792351Y-96800500D01*
X117792352Y-96800500D01*
X117994534Y-96768477D01*
X118189219Y-96705220D01*
X118371610Y-96612287D01*
X118464590Y-96544732D01*
X118537213Y-96491971D01*
X118537213Y-96491969D01*
X118537272Y-96491927D01*
X118538031Y-96491153D01*
X118681966Y-96347219D01*
X118681968Y-96347215D01*
X118681971Y-96347213D01*
X118790354Y-96198034D01*
X118802287Y-96181610D01*
X118895220Y-95999219D01*
X118958477Y-95804534D01*
X118990500Y-95602352D01*
X118990500Y-95397648D01*
X118990499Y-95397642D01*
X124009500Y-95397642D01*
X124009500Y-95602356D01*
X124041521Y-95804530D01*
X124041522Y-95804534D01*
X124053950Y-95842784D01*
X124104780Y-95999221D01*
X124104786Y-95999234D01*
X124197708Y-96181601D01*
X124197712Y-96181608D01*
X124197715Y-96181613D01*
X124318028Y-96347213D01*
X124462786Y-96491971D01*
X124594477Y-96587648D01*
X124628390Y-96612287D01*
X124744607Y-96671503D01*
X124804327Y-96701932D01*
X124804326Y-96701932D01*
X124811650Y-96705663D01*
X124815403Y-96706722D01*
X124855488Y-96719746D01*
X124915135Y-96739126D01*
X124915136Y-96739127D01*
X124958612Y-96753253D01*
X125005465Y-96768477D01*
X125106557Y-96784488D01*
X125207648Y-96800500D01*
X125207649Y-96800500D01*
X125412351Y-96800500D01*
X125412352Y-96800500D01*
X125614534Y-96768477D01*
X125809219Y-96705220D01*
X125991610Y-96612287D01*
X126084590Y-96544732D01*
X126157213Y-96491971D01*
X126157213Y-96491969D01*
X126157272Y-96491927D01*
X126158031Y-96491153D01*
X126301966Y-96347219D01*
X126301968Y-96347215D01*
X126301971Y-96347213D01*
X126410354Y-96198034D01*
X126422287Y-96181610D01*
X126515220Y-95999219D01*
X126578477Y-95804534D01*
X126610500Y-95602352D01*
X126610500Y-95397648D01*
X126578477Y-95195466D01*
X126578476Y-95195462D01*
X126578476Y-95195461D01*
X126550515Y-95109408D01*
X126515220Y-95000781D01*
X126515218Y-95000778D01*
X126515218Y-95000776D01*
X126512979Y-94996382D01*
X126512667Y-94995582D01*
X126511933Y-94994329D01*
X126467763Y-94907642D01*
X126467762Y-94907641D01*
X126461159Y-94894682D01*
X126422287Y-94818390D01*
X126422284Y-94818386D01*
X126382531Y-94763669D01*
X126382528Y-94763666D01*
X126301971Y-94652786D01*
X126157213Y-94508028D01*
X126157212Y-94508027D01*
X126157211Y-94508026D01*
X126002209Y-94395413D01*
X126002205Y-94395410D01*
X125991613Y-94387715D01*
X125991612Y-94387714D01*
X125991610Y-94387713D01*
X125940172Y-94361503D01*
X125934654Y-94358691D01*
X125934653Y-94358691D01*
X125809223Y-94294781D01*
X125614534Y-94231522D01*
X125614532Y-94231521D01*
X125614530Y-94231521D01*
X125614529Y-94231520D01*
X125439995Y-94203878D01*
X125423409Y-94201251D01*
X125412354Y-94199500D01*
X125412352Y-94199500D01*
X125207648Y-94199500D01*
X125207647Y-94199500D01*
X125183327Y-94203351D01*
X125183326Y-94203350D01*
X125005468Y-94231521D01*
X124810777Y-94294780D01*
X124810764Y-94294786D01*
X124628397Y-94387708D01*
X124628385Y-94387715D01*
X124462787Y-94508027D01*
X124462784Y-94508029D01*
X124318029Y-94652784D01*
X124318027Y-94652787D01*
X124197715Y-94818385D01*
X124197708Y-94818397D01*
X124104786Y-95000764D01*
X124104780Y-95000777D01*
X124041521Y-95195468D01*
X124009500Y-95397642D01*
X118990499Y-95397642D01*
X118958477Y-95195466D01*
X118958476Y-95195462D01*
X118958476Y-95195461D01*
X118930515Y-95109408D01*
X118895220Y-95000781D01*
X118895218Y-95000778D01*
X118895218Y-95000776D01*
X118892979Y-94996382D01*
X118892667Y-94995582D01*
X118891933Y-94994329D01*
X118847763Y-94907642D01*
X118847762Y-94907641D01*
X118841159Y-94894682D01*
X118802287Y-94818390D01*
X118802284Y-94818386D01*
X118762531Y-94763669D01*
X118762528Y-94763666D01*
X118681971Y-94652786D01*
X118537213Y-94508028D01*
X118537212Y-94508027D01*
X118537211Y-94508026D01*
X118382209Y-94395413D01*
X118382205Y-94395410D01*
X118371613Y-94387715D01*
X118371612Y-94387714D01*
X118371610Y-94387713D01*
X118320172Y-94361503D01*
X118314654Y-94358691D01*
X118314653Y-94358691D01*
X118189223Y-94294781D01*
X117994534Y-94231522D01*
X117994532Y-94231521D01*
X117994530Y-94231521D01*
X117994529Y-94231520D01*
X117826767Y-94204950D01*
X117826761Y-94204949D01*
X117819995Y-94203878D01*
X117792352Y-94199500D01*
X117792351Y-94199500D01*
X117710036Y-94199500D01*
X117707144Y-94199365D01*
X117703683Y-94198170D01*
X117677992Y-94194477D01*
X117652750Y-94187065D01*
X117600005Y-94155769D01*
X116531878Y-93087642D01*
X130199500Y-93087642D01*
X130199500Y-93292353D01*
X130203878Y-93319992D01*
X130203878Y-93319995D01*
X130231520Y-93494529D01*
X130231521Y-93494530D01*
X130231522Y-93494534D01*
X130233045Y-93499221D01*
X130294780Y-93689221D01*
X130294786Y-93689234D01*
X130387708Y-93871601D01*
X130387709Y-93871602D01*
X130387715Y-93871613D01*
X130508028Y-94037213D01*
X130652786Y-94181971D01*
X130771853Y-94268476D01*
X130771854Y-94268478D01*
X130815930Y-94300500D01*
X130818390Y-94302287D01*
X130929088Y-94358691D01*
X130934607Y-94361503D01*
X130994327Y-94391932D01*
X130994326Y-94391932D01*
X131001650Y-94395663D01*
X131005403Y-94396722D01*
X131045488Y-94409746D01*
X131105135Y-94429126D01*
X131105136Y-94429127D01*
X131148612Y-94443253D01*
X131195465Y-94458477D01*
X131296557Y-94474488D01*
X131397648Y-94490500D01*
X131397649Y-94490500D01*
X131602351Y-94490500D01*
X131602352Y-94490500D01*
X131804534Y-94458477D01*
X131999219Y-94395220D01*
X132181610Y-94302287D01*
X132268543Y-94239127D01*
X132279008Y-94231524D01*
X132315213Y-94205220D01*
X132347213Y-94181971D01*
X132347214Y-94181969D01*
X132347273Y-94181926D01*
X132348032Y-94181152D01*
X132491966Y-94037219D01*
X132491968Y-94037215D01*
X132491971Y-94037213D01*
X132517720Y-94001770D01*
X132544730Y-93964593D01*
X132544732Y-93964591D01*
X132568172Y-93932327D01*
X132612287Y-93871610D01*
X132705220Y-93689219D01*
X132768477Y-93494534D01*
X132800500Y-93292352D01*
X132800500Y-93087648D01*
X132770406Y-92897642D01*
X134389500Y-92897642D01*
X134389500Y-93102356D01*
X134421521Y-93304530D01*
X134484780Y-93499221D01*
X134484786Y-93499234D01*
X134577708Y-93681601D01*
X134577709Y-93681602D01*
X134577715Y-93681613D01*
X134698028Y-93847213D01*
X134842786Y-93991971D01*
X134997749Y-94104556D01*
X135008390Y-94112287D01*
X135108275Y-94163181D01*
X135109651Y-94163882D01*
X135184329Y-94201933D01*
X135185930Y-94202870D01*
X135189620Y-94204658D01*
X135191638Y-94205660D01*
X135195406Y-94206723D01*
X135237956Y-94220547D01*
X135295135Y-94239126D01*
X135295136Y-94239127D01*
X135338612Y-94253253D01*
X135385465Y-94268477D01*
X135486557Y-94284488D01*
X135587648Y-94300500D01*
X135587649Y-94300500D01*
X135792351Y-94300500D01*
X135792352Y-94300500D01*
X135994534Y-94268477D01*
X136189219Y-94205220D01*
X136371610Y-94112287D01*
X136449108Y-94055981D01*
X136474940Y-94037214D01*
X136490982Y-94025558D01*
X136537213Y-93991971D01*
X136537214Y-93991968D01*
X136537216Y-93991967D01*
X136537219Y-93991966D01*
X136537221Y-93991963D01*
X136537274Y-93991925D01*
X136538032Y-93991152D01*
X136681966Y-93847219D01*
X136681968Y-93847215D01*
X136681971Y-93847213D01*
X136734730Y-93774593D01*
X136734732Y-93774591D01*
X136758172Y-93742327D01*
X136802287Y-93681610D01*
X136895220Y-93499219D01*
X136958477Y-93304534D01*
X136990500Y-93102352D01*
X136990500Y-92897648D01*
X136958477Y-92695466D01*
X136958476Y-92695462D01*
X136958476Y-92695461D01*
X136897833Y-92508823D01*
X136895220Y-92500781D01*
X136895218Y-92500778D01*
X136895218Y-92500776D01*
X136892977Y-92496378D01*
X136892667Y-92495583D01*
X136891932Y-92494327D01*
X136861503Y-92434607D01*
X136822045Y-92357167D01*
X136802287Y-92318390D01*
X136794556Y-92307749D01*
X136681971Y-92152786D01*
X136537213Y-92008028D01*
X136537212Y-92008027D01*
X136537211Y-92008026D01*
X136382209Y-91895413D01*
X136382205Y-91895410D01*
X136371613Y-91887715D01*
X136371612Y-91887714D01*
X136371610Y-91887713D01*
X136343171Y-91873222D01*
X136314654Y-91858691D01*
X136314653Y-91858691D01*
X136189223Y-91794781D01*
X135994534Y-91731522D01*
X135994532Y-91731521D01*
X135994530Y-91731521D01*
X135994529Y-91731520D01*
X135819995Y-91703878D01*
X135803409Y-91701251D01*
X135792354Y-91699500D01*
X135792352Y-91699500D01*
X135587648Y-91699500D01*
X135587647Y-91699500D01*
X135563327Y-91703351D01*
X135563326Y-91703350D01*
X135385468Y-91731521D01*
X135190777Y-91794780D01*
X135190764Y-91794786D01*
X135008397Y-91887708D01*
X135008385Y-91887715D01*
X134842787Y-92008027D01*
X134842784Y-92008029D01*
X134698029Y-92152784D01*
X134698027Y-92152787D01*
X134577715Y-92318385D01*
X134577708Y-92318397D01*
X134484786Y-92500764D01*
X134484780Y-92500777D01*
X134421521Y-92695468D01*
X134389500Y-92897642D01*
X132770406Y-92897642D01*
X132768477Y-92885466D01*
X132706280Y-92694044D01*
X132705858Y-92692633D01*
X132705856Y-92692334D01*
X132705659Y-92691637D01*
X132704662Y-92689629D01*
X132702870Y-92685930D01*
X132701932Y-92684327D01*
X132671503Y-92624607D01*
X132617940Y-92519485D01*
X132612287Y-92508390D01*
X132595827Y-92485735D01*
X132562911Y-92440428D01*
X132562908Y-92440425D01*
X132548556Y-92420671D01*
X132491971Y-92342786D01*
X132347213Y-92198028D01*
X132347212Y-92198027D01*
X132347211Y-92198026D01*
X132192209Y-92085413D01*
X132192205Y-92085410D01*
X132181613Y-92077715D01*
X132181612Y-92077714D01*
X132181610Y-92077713D01*
X132153171Y-92063222D01*
X132124654Y-92048691D01*
X132124653Y-92048691D01*
X131999223Y-91984781D01*
X131804534Y-91921522D01*
X131804532Y-91921521D01*
X131804530Y-91921521D01*
X131804529Y-91921520D01*
X131629995Y-91893878D01*
X131613409Y-91891251D01*
X131602354Y-91889500D01*
X131602352Y-91889500D01*
X131397648Y-91889500D01*
X131397647Y-91889500D01*
X131373327Y-91893351D01*
X131373326Y-91893350D01*
X131195468Y-91921521D01*
X131000777Y-91984780D01*
X131000764Y-91984786D01*
X130818397Y-92077708D01*
X130818385Y-92077715D01*
X130652787Y-92198027D01*
X130652784Y-92198029D01*
X130508029Y-92342784D01*
X130508027Y-92342787D01*
X130387715Y-92508385D01*
X130387708Y-92508397D01*
X130294786Y-92690764D01*
X130294780Y-92690777D01*
X130231521Y-92885468D01*
X130199500Y-93087642D01*
X116531878Y-93087642D01*
X114138445Y-90694209D01*
X114117293Y-90665953D01*
X114109801Y-90652232D01*
X114109362Y-90650215D01*
X114094947Y-90584008D01*
X114094964Y-90583762D01*
X114095071Y-90582262D01*
X114114506Y-90523926D01*
X114119450Y-90516251D01*
X114119449Y-90516250D01*
X114142456Y-90480526D01*
X114146042Y-90473991D01*
X114209394Y-90379179D01*
X114269737Y-90233497D01*
X114300500Y-90078842D01*
X114301323Y-90074707D01*
X114333708Y-90012796D01*
X114394424Y-89978222D01*
X114433310Y-89975333D01*
X114486460Y-89979794D01*
X124740680Y-90012402D01*
X125370802Y-90014406D01*
X125370804Y-90014405D01*
X125370822Y-90014406D01*
X125453110Y-90012418D01*
X125508857Y-90005013D01*
X125693275Y-89980518D01*
X125693283Y-89980516D01*
X125693285Y-89980516D01*
X125745191Y-89969311D01*
X125745221Y-89969304D01*
X125745236Y-89969301D01*
X125757834Y-89966461D01*
X125771728Y-89963331D01*
X126002373Y-89889136D01*
X126218129Y-89778904D01*
X126413409Y-89635489D01*
X126466213Y-89589734D01*
X126562270Y-89498813D01*
X126716187Y-89311699D01*
X126838095Y-89102319D01*
X126900453Y-88939691D01*
X126924835Y-88876103D01*
X126924839Y-88876090D01*
X126944522Y-88809055D01*
X126986007Y-88626413D01*
X127005503Y-88384913D01*
X127005500Y-86623999D01*
X127025184Y-86556961D01*
X127077988Y-86511206D01*
X127129500Y-86500000D01*
X127905170Y-86500000D01*
X127940106Y-86505023D01*
G37*
%TD.AperFunction*%
%TA.AperFunction,Conductor*%
G36*
X104035282Y-85535282D02*
G01*
X104056434Y-85563538D01*
X104063926Y-85577259D01*
X104067715Y-85594678D01*
X104076258Y-85610322D01*
X104078777Y-85645526D01*
X104078325Y-85651849D01*
X104053911Y-85717314D01*
X104053909Y-85717316D01*
X104023705Y-85757664D01*
X104023700Y-85757675D01*
X103973407Y-85892516D01*
X103967001Y-85952116D01*
X103967000Y-85952139D01*
X103967000Y-88047876D01*
X103967159Y-88049806D01*
X103967385Y-88051454D01*
X103973407Y-88107482D01*
X103998392Y-88174469D01*
X104023702Y-88242328D01*
X104023706Y-88242335D01*
X104066586Y-88299616D01*
X104109950Y-88357542D01*
X104109952Y-88357544D01*
X104109955Y-88357547D01*
X104225164Y-88443793D01*
X104225171Y-88443797D01*
X104360017Y-88494091D01*
X104360016Y-88494091D01*
X104366944Y-88494835D01*
X104419627Y-88500500D01*
X106420372Y-88500499D01*
X106479983Y-88494091D01*
X106614831Y-88443796D01*
X106730046Y-88357546D01*
X106816296Y-88242331D01*
X106820467Y-88231145D01*
X106837378Y-88200181D01*
X106845698Y-88189068D01*
X106901635Y-88147201D01*
X106971307Y-88142218D01*
X106971325Y-88142222D01*
X106971328Y-88142222D01*
X106979318Y-88143960D01*
X107025854Y-88164809D01*
X107198462Y-88290217D01*
X107330595Y-88357542D01*
X107330599Y-88357544D01*
X107402246Y-88394050D01*
X107458587Y-88412356D01*
X107619374Y-88464598D01*
X107619381Y-88464601D01*
X107619522Y-88464646D01*
X107619751Y-88464721D01*
X107619752Y-88464721D01*
X107619755Y-88464722D01*
X107845646Y-88500500D01*
X107845647Y-88500500D01*
X108074353Y-88500500D01*
X108074354Y-88500500D01*
X108300245Y-88464722D01*
X108300248Y-88464721D01*
X108300249Y-88464721D01*
X108517755Y-88394049D01*
X108517755Y-88394048D01*
X108527036Y-88391033D01*
X108527037Y-88391032D01*
X108527042Y-88391031D01*
X108535027Y-88388436D01*
X108544278Y-88380534D01*
X108721538Y-88290217D01*
X108906566Y-88155786D01*
X109068286Y-87994066D01*
X109202717Y-87809038D01*
X109306548Y-87605258D01*
X109352840Y-87462786D01*
X109377221Y-87387749D01*
X109377221Y-87387748D01*
X109377222Y-87387745D01*
X109413000Y-87161854D01*
X109413000Y-86838146D01*
X109413000Y-86838140D01*
X109384944Y-86661007D01*
X109384439Y-86625724D01*
X109384662Y-86624000D01*
X109386218Y-86611956D01*
X109414327Y-86547994D01*
X109472552Y-86509382D01*
X109485013Y-86505530D01*
X109521630Y-86500000D01*
X112370450Y-86500000D01*
X112437489Y-86519685D01*
X112483244Y-86572489D01*
X112494450Y-86624052D01*
X112493796Y-88174469D01*
X112495690Y-88250609D01*
X112496319Y-88263123D01*
X112497510Y-88283949D01*
X112532418Y-88523700D01*
X112605339Y-88754761D01*
X112631656Y-88819471D01*
X112686819Y-88939691D01*
X112686822Y-88939695D01*
X112686823Y-88939698D01*
X112814430Y-89145655D01*
X112856586Y-89194129D01*
X112885726Y-89257632D01*
X112875907Y-89326808D01*
X112830248Y-89379694D01*
X112763244Y-89399500D01*
X102066877Y-89399500D01*
X102031942Y-89394477D01*
X102021088Y-89391290D01*
X101962310Y-89353516D01*
X101933285Y-89289960D01*
X101934607Y-89280764D01*
X101943225Y-89220811D01*
X101946415Y-89213824D01*
X101971524Y-89177660D01*
X101991148Y-89158036D01*
X101991924Y-89157276D01*
X101991968Y-89157214D01*
X101991971Y-89157213D01*
X102100354Y-89008034D01*
X102112287Y-88991610D01*
X102205220Y-88809219D01*
X102268477Y-88614534D01*
X102300500Y-88412352D01*
X102300500Y-88207648D01*
X102284635Y-88107483D01*
X102268477Y-88005465D01*
X102227444Y-87879179D01*
X102206717Y-87815391D01*
X102205659Y-87811635D01*
X102204668Y-87809642D01*
X102202869Y-87805928D01*
X102201935Y-87804332D01*
X102146464Y-87695466D01*
X102146464Y-87695465D01*
X102112286Y-87628388D01*
X102103883Y-87616822D01*
X102095479Y-87605255D01*
X102019572Y-87500776D01*
X102064852Y-87563099D01*
X102064852Y-83564852D01*
X104035282Y-85535282D01*
G37*
%TD.AperFunction*%
%TD*%
%TA.AperFunction,Conductor*%
%TO.N,GND*%
G36*
X104054729Y-54499997D02*
G01*
X104054729Y-54499998D01*
X102064852Y-56386621D01*
X101367215Y-57048059D01*
X101367215Y-54000000D01*
X104582092Y-54000000D01*
X104054729Y-54499997D01*
G37*
%TD.AperFunction*%
%TD*%
M02*
